<svg width="78" height="80" viewBox="0 0 78 80" fill="none" xmlns="http://www.w3.org/2000/svg">
<path d="M77.3117 75.515C77.2074 74.1799 76.2478 73.0535 74.9336 72.7614C74.5998 72.678 74.266 72.6571 73.8697 72.5737C73.8697 72.2816 73.8697 71.9896 73.8697 71.7184C73.8697 69.09 73.8905 66.4616 73.8697 63.8331C73.8488 62.0183 73.1396 60.3912 71.5333 59.5985C70.1148 58.8892 70.0105 57.9505 70.0731 56.6571C70.1565 55.2595 70.0939 53.841 70.0939 52.4433C70.0939 50.9414 70.1148 49.4186 70.0939 47.9166C70.0939 47.1239 69.6142 46.6233 68.9466 46.6024C68.2582 46.5815 67.7993 47.0822 67.7576 47.8749C67.7576 48.0626 67.7576 48.2295 67.7576 48.4173C67.7576 51.5046 67.7576 54.6128 67.7576 57.7002C67.7576 57.9714 67.7576 58.2425 67.7576 58.5137C48.5451 58.5137 29.4578 58.5137 10.3078 58.5137C10.3078 58.2425 10.3078 58.0131 10.3078 57.7836C10.3078 45.914 10.3078 34.0444 10.3078 22.1748C10.3078 21.9871 10.2453 21.7785 10.3287 21.6324C10.5164 21.3404 10.7459 20.9023 10.9962 20.8814C12.227 20.798 13.4578 20.8397 14.7094 20.8397C14.7094 26.4095 14.7094 31.8749 14.7094 37.3612C12.6025 37.9036 11.9558 38.8214 11.9975 41.1161C12.0393 42.7849 13.1866 43.9948 14.8346 44.0157C20.6964 44.0366 26.5373 44.0366 32.3991 44.0157C33.8384 44.0157 34.9441 43.0561 35.1735 41.6585C35.2778 41.0535 35.2778 40.4068 35.1735 39.8019C34.9232 38.3417 33.8802 37.6324 32.5242 37.3821C32.5242 31.8332 32.5242 26.3678 32.5242 20.8606C32.8163 20.8397 33.0457 20.8189 33.2752 20.8189C44.3104 20.8189 55.3456 20.8189 66.3808 20.8189C67.5281 20.8189 67.7367 21.0483 67.7367 22.1957C67.7367 28.6833 67.7367 35.15 67.7367 41.6376C67.7367 41.8879 67.7159 42.1591 67.7576 42.4095C67.8619 43.0353 68.2165 43.3899 68.8632 43.4316C69.6559 43.4733 70.0939 42.931 70.0939 41.9088C70.0939 35.2752 70.0939 28.6415 70.0939 22.0079C70.0939 19.8176 68.8006 18.5242 66.6102 18.4825C65.0666 18.4616 63.5438 18.4825 62.0001 18.4825C61.7289 18.4825 61.4577 18.4616 61.1865 18.4408C61.1865 17.3352 61.1865 16.3339 61.1865 15.27C61.4994 15.2491 61.7915 15.2283 62.0627 15.2283C63.5229 15.2283 64.9831 15.27 66.4434 15.2074C68.6963 15.1448 70.0939 13.6637 70.0939 11.4108C70.0939 8.86582 70.0939 6.29998 70.0939 3.75501C70.0939 3.4421 70.0731 3.12919 70.0105 2.83715C69.6976 1.33519 68.6546 0.521634 67.2986 0.00012207C59.8097 0.00012207 52.3 0.00012207 44.8111 0.00012207C44.5816 0.104424 44.3521 0.208727 44.1227 0.313029C42.8084 0.938843 42.0366 1.98187 42.0158 3.4421C41.974 6.21654 41.974 9.01184 42.0158 11.7863C42.0366 13.3091 43.1005 14.665 44.5607 15.0614C45.0822 15.2074 45.6455 15.2074 46.1879 15.2283C47.7315 15.2491 49.2961 15.2283 50.9023 15.2283C50.9023 16.3339 50.9023 17.356 50.9023 18.4199C44.7693 18.4199 38.6781 18.4199 32.5034 18.4199C32.5034 16.8554 32.5034 15.3534 32.5034 13.8515C32.5034 13.1631 32.1905 12.6416 31.5855 12.3495C30.9806 12.0575 30.4173 12.1409 29.8958 12.5373C29.5203 12.8084 29.1657 13.1005 28.7068 13.4343C27.0379 11.4942 25.3274 11.5985 23.8254 13.2257C22.7824 12.7667 21.8854 12.0783 21.0093 12.0783C20.1331 12.0783 19.257 12.7876 18.3183 13.2465C18.0262 13.0171 17.6299 12.6833 17.1709 12.4121C16.1488 11.8071 14.8971 12.4121 14.7928 13.6011C14.7094 14.373 14.7511 15.1657 14.7511 15.9375C14.7511 16.7511 14.7511 17.5855 14.7511 18.4825C13.6664 18.4825 12.7068 18.4825 11.7472 18.4825C9.18137 18.4825 7.95061 19.7133 7.95061 22.2582C7.95061 34.1278 7.95061 45.9975 7.95061 57.8671C7.95061 58.18 7.95061 58.4929 7.95061 58.8058C5.19703 59.8905 4.0497 61.9348 4.15401 64.8136C4.23745 67.0665 4.17486 69.3403 4.17486 71.6141C4.17486 71.9479 4.17486 72.2816 4.17486 72.5945C2.27656 72.9283 1.37956 73.4081 0.983212 74.5971C0.127933 77.1838 0.962346 80.0209 4.44604 80C27.4969 79.9583 50.5686 79.9792 73.6194 79.9792C73.8488 79.9792 74.0783 79.9792 74.3286 79.9792C75.9557 79.8957 77.2282 78.6441 77.3117 77.0378C77.3325 76.4955 77.3325 76.0157 77.3117 75.515ZM58.7459 18.4408C56.9519 18.4408 55.1787 18.4408 53.3013 18.4408C53.3013 17.4812 53.2804 16.5216 53.3221 15.5829C53.3221 15.4577 53.5725 15.2491 53.7185 15.2491C55.3873 15.2283 57.0353 15.2283 58.7459 15.2283C58.7459 16.3547 58.7459 17.3769 58.7459 18.4408ZM45.8958 12.8919C44.7276 12.8919 44.3313 12.4747 44.3313 11.2648C44.3313 8.8241 44.3313 6.38342 44.3313 3.92189C44.3313 2.73284 44.7485 2.3365 45.9375 2.3365C49.3169 2.3365 52.6963 2.3365 56.0757 2.3365C59.4342 2.3365 62.7928 2.3365 66.1304 2.3365C67.3195 2.3365 67.7367 2.7537 67.7367 3.92189C67.7367 6.38342 67.7367 8.86582 67.7367 11.3274C67.7367 12.4538 67.3195 12.8919 66.1722 12.8919C59.4342 12.8919 52.6546 12.8919 45.8958 12.8919ZM17.1709 15.3951C18.9232 16.7928 19.8411 15.1448 21.1553 14.373C22.7615 16.2921 24.4512 16.4799 26.0575 14.373C27.3717 14.9779 28.2896 16.8345 30.1253 15.3326C30.1253 22.7798 30.1253 30.0601 30.1253 37.4029C25.8072 37.4029 21.5308 37.4029 17.1709 37.4029C17.1709 30.1018 17.1709 22.8215 17.1709 15.3951ZM15.4604 39.8019C18.1931 39.8019 20.9258 39.8019 23.6585 39.8019C26.3287 39.8019 29.0197 39.8019 31.6898 39.8019C32.8163 39.8019 32.9414 39.8853 32.9206 40.7823C32.9206 41.6376 32.7954 41.7211 31.7107 41.7211C26.3078 41.7211 20.8841 41.7211 15.4812 41.7211C14.4174 41.7211 14.3339 41.6585 14.3339 40.7406C14.3548 39.8645 14.4174 39.8019 15.4604 39.8019ZM6.53209 64.0835C6.55295 62.1852 7.742 60.9335 9.64031 60.9335C14.3965 60.9127 19.1527 60.9335 23.9297 60.9335C24.034 60.9335 24.1383 60.9544 24.3469 60.9753C24.3469 61.7888 24.3469 62.6232 24.3469 63.4368C24.3469 65.4185 25.4525 66.5659 27.4134 66.5659C30.2713 66.5867 33.1292 66.5867 36.0079 66.5659C36.9884 66.5659 37.5516 66.0235 37.4473 65.2517C37.343 64.5841 36.8424 64.2295 35.9245 64.2295C33.2544 64.2295 30.5634 64.2295 27.8932 64.2295C26.7042 64.2295 26.7042 64.2295 26.6833 62.9987C26.6833 62.3521 26.6833 61.7054 26.6833 60.9961C34.9023 60.9961 43.0796 60.9961 51.3404 60.9961C51.3404 61.7054 51.3404 62.3521 51.3404 62.9987C51.3404 64.2295 51.3404 64.2295 50.1513 64.2295C47.5229 64.2295 44.8945 64.2295 42.2661 64.2295C41.974 64.2295 41.682 64.2295 41.4108 64.3129C40.8267 64.4798 40.5347 64.897 40.5764 65.4811C40.6181 66.0652 40.9519 66.4407 41.536 66.545C41.7863 66.5867 42.0575 66.5867 42.3078 66.5867C44.9571 66.5867 47.6064 66.5867 50.2765 66.5867C52.6337 66.5867 53.6768 65.5437 53.6768 63.2282C53.6768 62.4981 53.6768 61.7888 53.6768 60.9544C54.0105 60.9544 54.2817 60.9544 54.5738 60.9544C59.0588 60.9544 63.5229 60.9544 68.0079 60.9544C70.3651 60.9544 71.5125 62.0809 71.5125 64.4172C71.5125 67.1291 71.5125 69.8201 71.5125 72.5945C49.8593 72.5945 28.227 72.5945 6.51124 72.5945C6.51124 71.8227 6.51124 71.0509 6.51124 70.279C6.5321 68.193 6.51123 66.1487 6.53209 64.0835ZM73.5568 77.6011C62.0209 77.6011 50.506 77.6011 38.9701 77.6011C27.476 77.6011 15.961 77.6011 4.46691 77.6011C3.19442 77.6011 2.56861 76.5998 3.15271 75.4733C3.25701 75.2647 3.56991 75.0978 3.82023 75.0144C4.02884 74.9309 4.27917 74.9935 4.50864 74.9935C27.5177 74.9935 50.506 74.9935 73.5151 74.9935C74.7458 74.9935 74.9544 75.1604 74.9753 76.1825C74.9962 77.455 74.8501 77.6011 73.5568 77.6011ZM60.8736 31.9584C62.5633 31.9375 63.5438 30.9779 63.5438 29.2882C63.5438 28.3495 63.5438 27.4108 63.5438 26.4721C63.5438 24.5738 62.6468 23.6559 60.7276 23.6559C57.5985 23.6559 54.4903 23.6559 51.3612 23.6559C48.2322 23.6559 45.124 23.6559 41.9949 23.6559C40.0757 23.6559 39.1579 24.5737 39.1579 26.4512C39.1579 27.3065 39.1579 28.1617 39.1579 29.017C39.1579 31.0196 40.0549 31.9166 42.0575 31.9375C46.4799 31.9375 50.9023 31.9375 55.3247 31.9375C57.1813 31.9792 59.0379 31.9792 60.8736 31.9584ZM41.5151 29.5803C41.5151 28.5164 41.5151 27.4942 41.5151 26.4929C41.5151 26.3678 41.536 26.2426 41.5568 26.0757C48.107 26.0757 54.6155 26.0757 61.1657 26.0757C61.1657 27.2439 61.1657 28.3912 61.1657 29.5803C54.6572 29.5803 48.1487 29.5803 41.5151 29.5803ZM52.3208 49.356C51.7159 49.3351 51.1318 49.3351 50.5268 49.356C49.0457 49.3977 47.8984 50.399 47.6481 51.8384C47.3352 53.7784 48.0444 55.3221 49.5672 55.8019C50.1305 55.9688 50.7354 55.9688 51.4447 56.0731C52.0288 55.9688 52.7589 55.9479 53.3847 55.6976C54.6781 55.1969 55.1996 53.9661 55.0744 52.1096C54.991 50.5868 53.8436 49.4394 52.3208 49.356ZM51.6324 53.6532C51.4864 53.6532 51.3195 53.6532 51.1735 53.6532C50.1096 53.6532 49.9845 53.5489 49.9845 52.6937C49.9845 51.7967 50.0888 51.6924 51.1944 51.6924C51.2778 51.6924 51.3404 51.6924 51.4864 51.6924C51.9662 51.7758 52.6963 51.442 52.7589 52.4016C52.8423 53.4446 52.6546 53.6324 51.6324 53.6532ZM45.0405 49.7523C44.373 49.4186 43.5594 49.3769 42.8085 49.21C42.7876 49.2517 42.7876 49.2934 42.7667 49.3351C42.3078 49.356 41.828 49.3351 41.3691 49.4186C39.5542 49.7941 38.5946 51.5881 39.0953 53.7158C39.3873 54.9675 40.3261 55.8227 41.5777 55.9479C42.2661 56.0105 42.9753 56.0105 43.6846 55.9688C45.124 55.8853 46.1461 54.9883 46.4382 53.6532C46.8345 51.9427 46.313 50.3782 45.0405 49.7523ZM43.9766 53.3821C43.8097 53.6532 43.2048 53.6324 42.7876 53.7367C41.4525 53.6324 41.2231 53.4238 41.3691 52.339C41.3691 52.3182 41.3691 52.2765 41.3691 52.2556C41.5777 52.0678 41.7863 51.7132 41.9949 51.7132C42.6833 51.7341 43.4134 51.7967 44.0392 52.047C44.2061 52.1096 44.2061 53.0274 43.9766 53.3821ZM62.2087 49.7523C61.5411 49.4394 60.7276 49.3769 59.9766 49.21C57.5151 49.1057 55.9714 50.4824 56.2217 53.2569C56.3469 54.6754 57.3691 55.8019 58.8084 55.927C59.4968 55.9896 60.2061 55.9896 60.9153 55.9479C62.3547 55.8645 63.3769 54.9675 63.6481 53.6115C63.9818 51.9218 63.4812 50.3573 62.2087 49.7523ZM60.2269 53.6532C60.0809 53.6532 59.914 53.6532 59.768 53.6532C58.6624 53.6532 58.5372 53.5489 58.5581 52.6519C58.5581 51.7967 58.6833 51.7132 59.7472 51.7132C59.8306 51.7132 59.8932 51.7132 60.0392 51.7132C60.5398 51.7758 61.3117 51.442 61.3534 52.4851C61.3951 53.4655 61.2491 53.6324 60.2269 53.6532ZM40.2218 40.1148C40.931 40.5529 41.828 40.678 42.6624 40.9492C43.5803 40.6989 44.4773 40.6154 45.1866 40.2191C46.3965 39.5516 46.5842 38.3208 46.5216 37.0483C46.459 35.4421 45.4369 34.2947 43.8515 34.1278C43.2674 34.0653 42.6624 34.0861 42.0575 34.107C40.639 34.1487 39.5751 34.8788 39.1996 36.0887C38.6989 37.6324 39.0536 39.4055 40.2218 40.1148ZM42.4955 36.4434C42.6416 36.4434 42.8085 36.4434 42.9545 36.4434C44.0392 36.4434 44.1644 36.5477 44.1644 37.4655C44.1644 38.3208 44.0392 38.4042 42.9753 38.4042C42.8919 38.4042 42.8293 38.4042 42.6833 38.4042C42.1826 38.3417 41.4108 38.6337 41.3691 37.6115C41.3274 36.6102 41.4942 36.4434 42.4955 36.4434ZM48.7954 40.1148C49.5047 40.5529 50.4017 40.678 51.0066 40.8866C51.9662 40.7406 52.6546 40.7198 53.2804 40.5112C54.6363 40.0314 55.1996 38.8214 55.0953 36.9231C55.0118 35.4838 54.0105 34.3573 52.592 34.1904C51.9453 34.107 51.2987 34.1278 50.652 34.1278C49.2335 34.1696 48.1696 34.8997 47.7732 36.1096C47.2726 37.6324 47.6481 39.3847 48.7954 40.1148ZM49.9636 37.1318C49.9636 37.09 49.9427 37.0066 49.9845 36.9857C50.1931 36.798 50.4434 36.4642 50.652 36.4851C51.3404 36.5268 52.1957 36.0887 52.6546 36.8397C52.8632 37.1526 52.8006 37.8202 52.5711 38.1539C52.3834 38.4251 51.7993 38.4251 51.403 38.5294C50.047 38.4042 49.8384 38.2165 49.9636 37.1318ZM45.1866 42.2217C44.4982 41.8462 43.6429 41.7628 42.8502 41.5333C39.7002 41.429 38.5738 43.6194 39.1579 46.1852C39.4291 47.3117 40.2009 48.0418 41.3482 48.2504C42.0575 48.3755 42.7876 48.3547 43.5177 48.3338C44.9779 48.313 46.0418 47.4785 46.3965 46.1643C46.8554 44.5581 46.3965 42.8892 45.1866 42.2217ZM43.1422 46.0183C42.9545 46.0183 42.7876 46.0183 42.5998 46.0183C41.5151 46.0183 41.3691 45.914 41.3691 45.017C41.3691 44.1617 41.4942 44.0574 42.5581 44.0574C42.6416 44.0574 42.7042 44.0574 42.7876 44.0574C44.0392 44.0574 44.1435 44.12 44.1644 44.9753C44.1852 45.8723 44.0601 46.0183 43.1422 46.0183ZM53.9897 42.3886C53.2595 41.9297 52.3417 41.7836 51.5073 41.5124C51.4864 41.575 51.4655 41.6585 51.4238 41.7211C48.2739 41.4499 47.1892 43.6402 47.7524 46.1852C48.0027 47.3534 48.8163 48.0835 50.0053 48.2921C50.6728 48.3964 51.3404 48.3755 52.0288 48.3755C53.489 48.3547 54.5737 47.6246 54.9701 46.3729C55.4499 44.8501 55.1161 43.1187 53.9897 42.3886ZM51.6324 46.0183C51.4864 46.0183 51.3195 46.0183 51.1735 46.0183C50.0888 46.0183 49.9636 45.914 49.9636 44.9962C49.9636 44.1409 50.0888 44.0574 51.1735 44.0574C51.2569 44.0574 51.3195 44.0574 51.4655 44.0574C51.9662 44.12 52.738 43.8071 52.7589 44.8293C52.8006 45.8514 52.6546 46.0183 51.6324 46.0183ZM62.3547 42.2426C61.6663 41.8671 60.811 41.7836 60.0183 41.5542C57.5151 41.4916 55.9714 42.8475 56.2009 45.6011C56.326 46.9779 57.2439 48.0835 58.5998 48.2921C59.2882 48.3964 59.9975 48.3755 60.7067 48.3755C62.167 48.3338 63.2308 47.5203 63.5855 46.2061C64.0235 44.5789 63.5855 42.8892 62.3547 42.2426ZM60.1644 46.0183C60.0809 46.0183 60.0183 46.0183 59.8515 46.0183C59.3717 45.9349 58.5998 46.2686 58.5373 45.2465C58.4955 44.2452 58.6415 44.0574 59.6429 44.0574C59.7889 44.0574 59.9558 44.0574 60.1018 44.0574C61.2074 44.0574 61.3325 44.1617 61.3117 45.0587C61.3534 45.914 61.2074 46.0183 60.1644 46.0183ZM57.3899 40.1148C58.0992 40.5529 58.9962 40.678 59.6011 40.8866C60.5607 40.7406 61.2491 40.7197 61.8749 40.4903C63.2309 40.0105 63.7941 38.7797 63.6689 36.8814C63.5855 35.4421 62.5842 34.3156 61.1448 34.1487C60.4981 34.0653 59.8514 34.0861 59.2048 34.107C57.7863 34.1487 56.7432 34.8788 56.3469 36.1096C55.8671 37.6324 56.2217 39.4055 57.3899 40.1148ZM58.6416 36.9023C58.725 36.5894 59.4968 36.4642 59.9349 36.2556C61.2282 36.4434 61.3117 36.5268 61.3534 37.4029C61.3951 38.1539 61.0822 38.4668 60.3521 38.4042C60.1226 38.3834 59.8932 38.3834 59.6429 38.4042C58.4538 38.5294 58.3912 37.8202 58.6416 36.9023ZM19.4865 20.1305C19.5073 19.4629 19.9662 19.0457 20.7381 19.0249C21.7185 19.004 22.699 19.0249 23.7003 19.0249C24.639 19.0249 25.5777 19.004 26.4956 19.0249C27.2883 19.0457 27.7889 19.4838 27.7889 20.1513C27.7889 20.8397 27.3091 21.3404 26.5373 21.3404C24.5973 21.3612 22.6572 21.3612 20.6964 21.3404C19.9245 21.3404 19.4447 20.8397 19.4865 20.1305ZM27.7889 29.017C27.7889 29.6637 27.3091 30.1435 26.579 30.1644C25.5986 30.1852 24.6181 30.1644 23.6168 30.1644C22.6572 30.1644 21.6977 30.1852 20.7381 30.1644C19.9454 30.1435 19.4656 29.6846 19.4865 28.9962C19.4865 28.3286 19.9454 27.8488 20.6964 27.8488C22.6572 27.828 24.639 27.828 26.5999 27.8488C27.33 27.8488 27.7889 28.3495 27.7889 29.017ZM27.7889 33.3769C27.8098 34.0861 27.3091 34.5451 26.4538 34.5451C25.4943 34.5659 24.5347 34.5451 23.5751 34.5451C22.6364 34.5451 21.7185 34.5659 20.7798 34.5451C19.9454 34.5242 19.5073 34.107 19.4865 33.4186C19.4865 32.7093 19.9245 32.2504 20.7381 32.2295C22.6572 32.2087 24.5764 32.2087 26.4956 32.2295C27.2883 32.2295 27.7681 32.7093 27.7889 33.3769ZM27.7889 24.6155C27.7681 25.3039 27.2674 25.7628 26.4121 25.7628C24.5347 25.7628 22.6781 25.7837 20.8007 25.7628C19.9454 25.7628 19.4656 25.3039 19.4656 24.5737C19.4656 23.8645 19.9662 23.4264 20.8215 23.4264C21.7602 23.4264 22.699 23.4264 23.6168 23.4264C24.5347 23.4264 25.4317 23.4264 26.3495 23.4264C27.2674 23.4264 27.7889 23.8854 27.7889 24.6155ZM63.6063 11.2439C65.15 11.2439 66.0887 10.3261 66.1304 8.78238C66.1513 8.01054 66.1513 7.21784 66.1304 6.446C66.0887 4.90233 65.1709 3.96361 63.6272 3.96361C58.5581 3.94275 53.489 3.94275 48.4199 3.96361C46.8971 3.96361 45.9792 4.94405 45.9375 6.46687C45.9167 7.19698 45.9167 7.9271 45.9375 8.65722C45.9584 10.3261 46.8762 11.2439 48.5659 11.2648C51.0275 11.2648 53.5099 11.2648 55.9714 11.2648C58.5164 11.2648 61.0614 11.2648 63.6063 11.2439ZM48.3365 8.86582C48.3365 8.0314 48.3365 7.21784 48.3365 6.36256C53.4682 6.36256 58.579 6.36256 63.7524 6.36256C63.7524 7.2387 63.7524 8.0314 63.7524 8.86582C58.5998 8.86582 53.489 8.86582 48.3365 8.86582Z" fill="white"/>
</svg>
