<svg width="80" height="60" viewBox="0 0 80 60" fill="none" xmlns="http://www.w3.org/2000/svg">
<path d="M44.0365 29.431C44.0365 28.4505 44.704 27.8664 45.8722 27.8664C48.2086 27.8664 50.5658 27.8664 52.9022 27.8664C55.2803 27.8664 57.6376 27.8664 60.0157 27.8664C61.1838 27.8664 61.9348 28.4922 61.8931 29.4727C61.8722 30.4114 61.163 30.9955 60.0157 30.9955C58.1799 30.9955 56.3651 30.9955 54.5293 30.9955C54.5293 32.9772 54.5293 34.959 54.5293 36.9199C54.5293 39.298 54.5293 41.6552 54.5293 44.0333C54.5293 45.2015 53.9035 45.9525 52.9231 45.9107C51.9844 45.8899 51.4003 45.1806 51.4003 44.0333C51.4003 39.6943 51.4003 35.3345 51.4003 30.9955C49.5645 30.9955 47.708 30.9955 45.8722 30.9955C44.7249 30.9955 44.0574 30.4114 44.0365 29.431ZM32.6884 13.723C33.5854 13.6813 34.2321 13.0346 34.2738 12.221C34.2947 11.4075 33.6688 10.6774 32.7927 10.6148C32.2086 10.5731 31.6037 10.5731 30.9987 10.6148C30.1434 10.6982 29.5802 11.3658 29.601 12.2002C29.6219 13.0346 30.206 13.6604 31.0613 13.723C31.3533 13.7439 31.6245 13.723 31.9166 13.723C32.1669 13.723 32.4381 13.7439 32.6884 13.723ZM38.884 13.723C39.176 13.7439 39.4472 13.723 39.7392 13.723C40.0313 13.723 40.3025 13.7439 40.5945 13.723C41.4289 13.6604 42.0756 13.0346 42.0965 12.221C42.1173 11.4701 41.5541 10.7191 40.7614 10.6357C40.0939 10.5522 39.4055 10.5522 38.7379 10.6357C37.9035 10.7191 37.3611 11.4492 37.4029 12.2836C37.4655 13.0763 38.0495 13.6604 38.884 13.723ZM45.8722 25.4466C50.5867 25.4466 55.3012 25.4466 59.9948 25.4466C61.1421 25.4466 61.8514 24.8625 61.8722 23.9238C61.8931 22.9642 61.163 22.3384 59.9948 22.3175C57.6167 22.3175 55.2595 22.3175 52.8814 22.3175C50.545 22.3175 48.1877 22.3175 45.8514 22.3175C44.704 22.3175 44.0156 22.9016 44.0156 23.8821C44.0574 24.8625 44.7249 25.4466 45.8722 25.4466ZM56.219 13.723C57.116 13.6813 57.7627 13.0346 57.7836 12.2002C57.8044 11.3658 57.1578 10.6774 56.2816 10.6148C55.6767 10.5731 55.0926 10.5731 54.4876 10.6148C53.6532 10.6982 53.0691 11.4075 53.09 12.221C53.1108 13.0346 53.7366 13.6604 54.5919 13.723C54.884 13.7439 55.1551 13.723 55.4472 13.723C55.6975 13.723 55.9687 13.7439 56.219 13.723ZM46.7901 13.723C47.0404 13.7439 47.3116 13.723 47.5619 13.723C47.854 13.723 48.1252 13.7439 48.4172 13.723C49.2725 13.6813 49.8983 13.0555 49.94 12.2419C49.9817 11.4284 49.3559 10.6774 48.4798 10.6148C47.8957 10.5731 47.2907 10.5731 46.6858 10.6148C45.8096 10.6774 45.2047 11.4075 45.2464 12.2628C45.309 13.0763 45.9139 13.6813 46.7901 13.723ZM39.9687 3.45964C40.824 3.43878 41.5124 2.75039 41.5124 1.91597C41.5124 1.03983 40.7823 0.351428 39.8853 0.372288C39.03 0.393148 38.3625 1.1024 38.3833 1.95768C38.4042 2.7921 39.1134 3.4805 39.9687 3.45964ZM23.6141 22.3175C22.4668 22.3175 21.7784 22.9016 21.7784 23.8821C21.7784 24.8625 22.4668 25.4466 23.6141 25.4466C28.3286 25.4466 33.043 25.4466 37.7366 25.4466C38.884 25.4466 39.5932 24.8625 39.6141 23.9238C39.6349 22.9642 38.9048 22.3384 37.7366 22.3175C35.3585 22.3175 33.0013 22.3175 30.6232 22.3175C28.2868 22.3175 25.9505 22.3175 23.6141 22.3175ZM80 6.04635C80 6.73474 80 7.40227 80 8.09067C79.854 8.52874 79.7288 8.96681 79.5619 9.40488C78.6232 11.9499 76.2243 13.6813 73.5124 13.723C71.6975 13.7439 69.8618 13.723 68.0469 13.7439C67.7758 13.7439 67.4837 13.7439 67.1291 13.7439C67.1291 14.1611 67.1291 14.4948 67.1291 14.8286C67.1291 28.9303 67.1291 43.032 67.1291 57.1546C67.1291 57.4049 67.1291 57.6761 67.1291 57.9264C67.0665 59.3241 66.0235 59.9916 64.751 59.4283C63.4993 58.8651 62.2686 58.2393 60.9961 57.6969C60.6832 57.5718 60.2451 57.5718 59.9322 57.6969C58.7014 58.2184 57.5124 58.7817 56.3233 59.3658C55.6558 59.6787 55.03 59.6995 54.3833 59.3658C53.1734 58.7817 51.9426 58.1976 50.691 57.6552C50.4198 57.5509 50.0235 57.5509 49.7731 57.6552C48.5215 58.1976 47.3116 58.7608 46.0808 59.3658C45.4133 59.6787 44.7875 59.6995 44.1408 59.3658C42.9518 58.7817 41.7419 58.2184 40.5319 57.6969C40.219 57.5718 39.781 57.5718 39.4681 57.6969C38.2373 58.2184 37.0482 58.7817 35.8592 59.3658C35.1917 59.6787 34.5658 59.6787 33.9192 59.3658C32.751 58.8025 31.5619 58.281 30.3937 57.6969C29.9557 57.4675 29.601 57.4883 29.163 57.7178C27.9948 58.3019 26.8057 58.8234 25.6375 59.3866C24.97 59.6995 24.3442 59.6995 23.6975 59.3658C22.5711 58.8234 21.4237 58.3227 20.3181 57.7595C19.8175 57.5092 19.3794 57.4675 18.8579 57.7387C17.8149 58.281 16.751 58.74 15.6871 59.2406C13.8514 60.0959 12.8709 59.4701 12.8709 57.4675C12.8709 43.2615 12.8709 29.0555 12.8709 14.8286C12.8709 14.4948 12.8709 14.1611 12.8709 13.7439C10.9518 13.7439 9.09518 13.7647 7.25945 13.723C6.42503 13.7021 5.56975 13.6604 4.79791 13.431C2.3781 12.7217 0.87614 11.0737 0.187743 8.65391C0.125162 8.46616 0.0625815 8.27842 0 8.09067C0 7.40227 0 6.73474 0 6.04635C0.041721 5.9629 0.104304 5.87946 0.125164 5.77516C0.897003 2.45834 3.3794 0.393143 6.7588 0.393143C15.4159 0.372283 24.073 0.393143 32.7301 0.393143C33.8983 0.393143 34.5658 0.977242 34.5658 1.93683C34.5658 2.89641 33.8566 3.50136 32.7301 3.50136C27.515 3.50136 22.2999 3.50136 17.0847 3.50136C16.7718 3.50136 16.4589 3.50136 16.0834 3.50136C16.0834 20.8364 16.0834 38.1298 16.0834 55.5692C16.9179 55.1728 17.7314 54.839 18.4824 54.4427C19.2125 54.0463 19.9009 54.0672 20.631 54.4427C21.7784 55.0059 22.9257 55.5692 24.0939 56.049C24.4276 56.195 24.9074 56.195 25.2412 56.049C26.4511 55.5483 27.6193 54.9851 28.7875 54.401C29.4759 54.0463 30.1017 54.0672 30.7901 54.401C31.9583 54.9851 33.1265 55.5483 34.3364 56.049C34.6701 56.195 35.1499 56.195 35.4837 56.049C36.6936 55.5483 37.8618 54.9851 39.03 54.401C39.7184 54.0463 40.3442 54.0672 41.0326 54.401C42.2008 54.9851 43.369 55.5483 44.5789 56.049C44.9127 56.195 45.3924 56.195 45.7262 56.049C46.9361 55.5483 48.1043 54.9851 49.2725 54.401C49.9609 54.0463 50.5867 54.0672 51.2751 54.401C52.4433 54.9851 53.6115 55.5483 54.8214 56.0281C55.1551 56.1741 55.6349 56.1741 55.9687 56.049C57.1786 55.5483 58.3468 54.9851 59.515 54.401C60.2034 54.0463 60.8501 54.0463 61.5176 54.401C62.3103 54.7973 63.1239 55.1519 64 55.5692C64 38.1924 64 20.899 64 3.52222C63.6871 3.52222 63.3742 3.52222 63.0821 3.52222C57.9505 3.52222 52.8188 3.52222 47.6662 3.52222C47.3116 3.52222 46.9361 3.50136 46.5815 3.41792C45.8722 3.23017 45.4342 2.52092 45.5176 1.7908C45.5802 1.06068 46.1434 0.497454 46.8944 0.414012C47.1864 0.393151 47.4576 0.393143 47.7497 0.393143C56.0939 0.393143 64.4381 0.393143 72.7823 0.393143C76.7249 0.393143 78.9778 2.12457 80 5.94204C79.9166 5.98376 79.9583 6.00462 80 6.04635ZM12.7458 3.52222C10.5763 3.52222 8.49022 3.4805 6.40417 3.54309C4.61017 3.58481 3.14994 5.04504 3.04563 6.81819C2.92047 8.63305 4.21382 10.4062 6.00782 10.5314C8.21904 10.6774 10.472 10.5731 12.7458 10.5731C12.7458 8.21584 12.7458 5.90031 12.7458 3.52222ZM74.0548 3.62652C71.781 3.45964 69.4863 3.58481 67.1708 3.58481C67.1708 5.92118 67.1708 8.21583 67.1708 10.5939C69.4029 10.5939 71.5306 10.6565 73.6584 10.5731C75.369 10.5105 76.7458 9.00854 76.8709 7.29797C76.9752 5.56655 75.7653 3.75168 74.0548 3.62652ZM23.4055 45.8899C24.5945 45.9108 25.8044 45.8899 26.9935 45.8899C28.1825 45.8899 29.3924 45.9108 30.5815 45.8899C31.6037 45.869 32.2712 45.1806 32.2712 44.3045C32.2712 43.4075 31.5828 42.7817 30.5606 42.7817C28.1825 42.7608 25.8253 42.7608 23.4472 42.8025C23.0717 42.8025 22.6336 42.9694 22.2999 43.1989C21.7575 43.5952 21.6532 44.2002 21.8409 44.826C22.0704 45.5353 22.6545 45.8899 23.4055 45.8899ZM37.8409 39.0685C38.9257 39.0685 39.6141 38.4844 39.6349 37.5457C39.6558 36.607 38.9465 35.9394 37.8201 35.9394C33.0847 35.9394 28.3494 35.9394 23.6141 35.9394C22.4668 35.9394 21.7784 36.5444 21.7992 37.5248C21.7992 38.5053 22.4668 39.0685 23.6349 39.0685C26.013 39.0685 28.3703 39.0685 30.7484 39.0685C33.1265 39.0685 35.4628 39.0685 37.8409 39.0685ZM27.0978 29.1389C25.9087 29.1389 24.6988 29.1181 23.5098 29.1389C22.4459 29.1598 21.8201 29.7439 21.7992 30.6617C21.7784 31.6005 22.4459 32.2471 23.5306 32.2471C25.867 32.268 28.2243 32.268 30.5606 32.2471C31.6037 32.2471 32.2712 31.6004 32.292 30.7243C32.3129 29.8064 31.6245 29.1598 30.5606 29.1389C29.3716 29.1181 28.2243 29.1389 27.0978 29.1389ZM24.9909 10.6148C24.4068 10.5731 23.8018 10.5731 23.1969 10.6148C22.2999 10.6774 21.7158 11.3658 21.7575 12.2419C21.7784 13.0763 22.3833 13.6813 23.2595 13.723C23.5098 13.7439 23.781 13.723 24.0313 13.723C24.3233 13.723 24.5945 13.7439 24.8866 13.723C25.7836 13.6813 26.4094 13.0346 26.4303 12.1793C26.4303 11.3658 25.8253 10.6982 24.9909 10.6148Z" fill="white"/>
</svg>
