<svg width="82" height="80" viewBox="0 0 82 80" fill="none" xmlns="http://www.w3.org/2000/svg">
<path d="M77.7485 67.5027C77.1852 67.4193 76.6219 67.4819 75.9542 67.4819C75.9542 67.0855 75.9542 66.7725 75.9542 66.4804C75.9542 52.0012 75.9542 37.5427 75.9542 23.0635C75.9542 19.4541 73.9722 17.472 70.3628 17.472C68.5268 17.472 66.67 17.472 64.7297 17.472C64.7297 16.408 64.7297 15.3648 64.7297 14.3425C64.7297 13.3411 64.7297 12.3187 64.7297 11.2338C65.0635 11.2338 65.3347 11.2338 65.6268 11.2338C68.9232 11.2338 72.2405 11.2338 75.537 11.2338C76.8096 11.2338 77.2478 10.8374 77.206 9.56476C77.1852 8.29209 77.2478 6.99855 76.9765 5.7676C76.2672 2.38771 73.242 0.0301362 69.7578 0.00927267C65.3556 -0.0115908 60.9534 0.00927267 56.572 0.00927267C46.1403 0.00927267 35.7085 0.00927267 25.2559 0.00927267C20.3947 0.00927267 17.2443 3.15966 17.2443 8.02086C17.2443 11.1504 17.2443 14.2591 17.2443 17.5138C16.8062 17.5138 16.4098 17.5138 16.0133 17.5138C14.4277 17.5138 12.8421 17.5138 11.2565 17.5138C8.1478 17.5138 6.01972 19.6418 6.01972 22.7714C6.01972 37.355 6.01972 51.9177 6.01972 66.5013C6.01972 66.8143 6.01972 67.1063 6.01972 67.5027C5.53986 67.5027 5.14345 67.5027 4.72618 67.5027C2.68156 67.5445 1.0542 69.1301 1.03334 71.1747C1.01247 72.3431 0.929019 73.5323 1.11679 74.6798C1.57579 77.4547 3.24487 79.1655 5.97799 79.854C6.10318 79.8748 6.20749 79.9583 6.33267 80C29.4494 80 52.5662 80 75.683 80C76.2463 79.8122 76.8096 79.6453 77.3521 79.4158C79.1881 78.5813 80.3147 77.1417 80.8363 75.2014C80.878 75.0345 80.9406 74.8676 81.0032 74.7007C81.0032 73.3028 81.0032 71.8841 81.0032 70.4862C80.3982 68.9006 79.4593 67.7531 77.7485 67.5027ZM64.7714 25.0038C66.0232 25.0038 67.2124 25.0038 68.4225 25.0038C68.4225 37.4801 68.4225 49.8939 68.4225 62.3912C67.2333 62.3912 66.0232 62.3912 64.7714 62.3912C64.7714 49.9774 64.7714 37.5219 64.7714 25.0038ZM66.7117 3.51434C68.4225 2.24167 70.2794 2.09562 72.1362 3.11794C74.2851 4.30716 74.9111 6.26833 74.6816 8.6885C71.3643 8.6885 68.0887 8.6885 64.7714 8.6885C64.5419 6.62301 64.98 4.80788 66.7117 3.51434ZM19.7479 61.5566C19.7479 43.6975 19.7479 25.8383 19.7479 7.97914C19.7479 4.53666 21.7925 2.47117 25.2142 2.47117C37.8574 2.47117 50.5216 2.47117 63.1649 2.47117C63.4153 2.47117 63.6865 2.47117 64.1455 2.47117C62.4555 4.41147 62.2052 6.58128 62.2052 8.87627C62.2469 26.4016 62.226 43.9061 62.226 61.4315C62.226 61.7444 62.226 62.0365 62.226 62.3912C48.0597 62.3912 33.9351 62.3912 19.7479 62.3912C19.7479 62.12 19.7479 61.8279 19.7479 61.5566ZM8.50248 66.6265C8.50248 52.0429 8.50248 37.4801 8.50248 22.8966C8.50248 20.9145 9.44134 19.9757 11.4234 19.9757C13.3428 19.9757 15.2623 19.9757 17.2234 19.9757C17.2234 20.8311 17.2234 21.603 17.2234 22.4793C15.8464 22.4793 14.4903 22.4793 13.1133 22.4793C12.8004 22.4793 12.4874 22.4584 12.1745 22.5001C11.486 22.5836 11.0896 22.98 11.027 23.6685C11.0061 23.898 11.0061 24.1275 11.0061 24.3779C11.0061 37.2924 11.0061 50.2069 11.0061 63.1006C11.0061 64.6444 11.3399 64.9783 12.8838 64.9783C31.6193 64.9783 50.3547 64.9783 69.0901 64.9783C70.634 64.9783 70.9678 64.6444 70.9678 63.1214C70.9678 50.2069 70.9678 37.2924 70.9678 24.3987C70.9678 22.834 70.634 22.5001 69.111 22.5001C67.6923 22.5001 66.2527 22.5001 64.7714 22.5001C64.7714 21.6656 64.7714 20.8728 64.7714 20.0382C66.9829 20.0382 69.1944 19.9757 71.3851 20.0591C72.5326 20.1008 73.3671 21.2066 73.4506 22.3541C73.4715 22.5836 73.4506 22.8131 73.4506 23.0635C73.4506 37.5636 73.4506 52.0637 73.4506 66.5639C73.4506 66.8351 73.4506 67.1272 73.4506 67.4819C51.7525 67.4819 30.1797 67.4819 8.48162 67.4819C8.50248 67.1689 8.50248 66.8977 8.50248 66.6265ZM17.2026 25.0038C17.2026 37.4801 17.2026 49.9357 17.2026 62.412C15.9716 62.412 14.8033 62.412 13.5514 62.412C13.5514 49.9565 13.5514 37.5219 13.5514 25.0038C14.7824 25.0038 15.9716 25.0038 17.2026 25.0038ZM50.9597 69.9855C50.6259 71.0913 50.459 71.2165 49.3741 71.2165C43.8453 71.2165 38.2956 71.1956 32.7667 71.2373C31.807 71.2373 31.2646 70.9452 30.9516 69.9855C37.6488 69.9855 44.3043 69.9855 50.9597 69.9855ZM78.4578 73.4906C78.437 75.8899 76.8931 77.4546 74.4938 77.4546C68.5894 77.4546 62.685 77.4546 56.7806 77.4546C51.5022 77.4546 46.2237 77.4546 40.9244 77.4546C29.8667 77.4546 18.8091 77.4546 7.75139 77.4546C4.97655 77.4546 3.49524 75.9733 3.49524 73.2402C3.49524 72.6769 3.49524 72.0927 3.49524 71.5294C3.5161 70.4028 3.93337 69.9646 5.06 69.9646C9.04493 69.9646 13.0299 69.9646 16.9939 69.9646C20.353 69.9646 23.712 69.9646 27.071 69.9438C27.5926 69.9438 27.9264 70.0481 28.2185 70.528C28.6775 71.3208 29.2617 72.0093 29.7207 72.8021C30.0962 73.4697 30.6387 73.6784 31.3272 73.6784C32.3703 73.6992 33.4135 73.7201 34.4567 73.7201C39.8395 73.7201 45.2223 73.6992 50.6051 73.7201C51.3144 73.7201 51.8151 73.5114 52.1907 72.9273C52.754 72.0719 53.2964 71.2165 53.9015 70.4028C54.0684 70.1733 54.4231 69.9646 54.6943 69.9646C62.1426 69.9438 69.57 69.9438 77.0183 69.9438C78.0406 69.9438 78.4787 70.4028 78.4787 71.446C78.4787 72.1345 78.4578 72.8021 78.4578 73.4906ZM57.2188 56.1947C57.2397 56.9875 56.6555 57.4674 55.6123 57.4674C53.1504 57.4674 50.6676 57.4257 48.2057 57.4883C46.2863 57.5508 44.7841 56.9875 44.033 55.089C41.9258 56.612 41.9258 56.612 40.6323 54.5882C39.8812 55.1515 39.1301 55.7566 38.3373 56.2782C37.7114 56.6954 37.0438 57.071 36.3553 57.3214C34.9991 57.8221 34.0603 57.3005 33.8517 55.9026C33.7056 54.9638 33.7682 53.9832 33.7473 53.0235C33.7473 52.7522 33.7891 52.4602 33.8517 51.9594C33.1423 52.7731 32.5581 53.4407 31.9948 54.0875C31.202 55.0055 30.4092 55.9652 29.6164 56.8832C29.0322 57.5508 28.3437 57.6343 27.7595 57.1753C27.1545 56.6746 27.1127 55.9652 27.7178 55.2559C30.1379 52.4184 32.5581 49.6019 34.9783 46.7853C35.4164 46.2846 35.938 46.0551 36.5639 46.368C37.2315 46.7018 37.315 47.286 37.1898 47.9536C36.856 49.8522 36.5222 51.7299 36.2092 53.6285C36.1675 53.8997 36.1675 54.1918 36.1258 54.6508C36.5848 54.3587 36.9603 54.171 37.2733 53.8997C38.1078 53.2321 38.9424 52.5853 39.7352 51.876C40.9035 50.8328 41.6129 50.9371 42.3431 52.335C42.4057 52.481 42.4891 52.6062 42.6769 52.8983C43.0316 52.4602 43.3445 52.0846 43.6784 51.7299C44.0748 51.2918 44.5546 51.0623 45.1388 51.2918C45.723 51.5213 45.9734 51.9594 45.9734 52.5853C45.9734 52.7731 45.9942 52.94 46.0359 53.1278C46.328 54.7551 46.5784 54.9638 48.2057 54.9638C50.6676 54.9638 53.1504 54.9638 55.6123 54.9638C56.6346 54.9638 57.1979 55.4228 57.2188 56.1947ZM23.5033 28.7175C23.5033 27.9247 24.0875 27.4657 25.1307 27.4657C30.4092 27.4657 35.6876 27.4657 40.987 27.4657C46.2029 27.4657 51.3979 27.4657 56.5929 27.4657C56.8432 27.4657 57.1145 27.4448 57.3648 27.4865C58.0325 27.6117 58.4497 28.029 58.4497 28.7175C58.4497 29.406 58.0325 29.8232 57.3648 29.9484C57.1145 29.9901 56.8432 29.9693 56.5929 29.9693C46.182 29.9693 35.7711 29.9693 25.3602 29.9693C25.2767 29.9693 25.2142 29.9693 25.1307 29.9693C24.0667 29.9693 23.5033 29.5311 23.5033 28.7175ZM58.4706 34.9765C58.4706 35.7693 57.8864 36.2283 56.8432 36.2283C51.5439 36.2283 46.2237 36.2283 40.9244 36.2283C35.7502 36.2283 30.5552 36.2283 25.3811 36.2283C25.1307 36.2283 24.8595 36.2492 24.6091 36.2075C23.9415 36.0823 23.5242 35.665 23.5242 34.9765C23.5242 34.288 23.9206 33.8708 24.6091 33.7456C24.8595 33.7039 25.1307 33.7247 25.3811 33.7247C35.792 33.7247 46.2028 33.7247 56.6137 33.7247C56.6972 33.7247 56.7598 33.7247 56.8432 33.7247C57.8864 33.7247 58.4706 34.1628 58.4706 34.9765ZM44.0956 21.2275C48.2892 21.2275 52.4828 21.2275 56.6763 21.2275C56.9058 21.2275 57.1562 21.2066 57.3857 21.2483C58.0533 21.3735 58.4706 21.7908 58.4706 22.4793C58.4706 23.1678 58.0533 23.585 57.3857 23.7102C57.1562 23.752 56.9267 23.7311 56.6763 23.7311C48.2892 23.7311 39.9229 23.7311 31.5358 23.7311C31.3063 23.7311 31.0559 23.752 30.8264 23.7102C30.1588 23.585 29.7415 23.1678 29.7415 22.4793C29.7415 21.7908 30.1379 21.3735 30.8264 21.2483C31.0559 21.2066 31.2854 21.2275 31.5358 21.2275C35.7294 21.2275 39.9229 21.2275 44.0956 21.2275ZM37.2107 42.4665C33.2466 42.4665 29.3034 42.4665 25.3393 42.4665C25.1098 42.4665 24.8595 42.4874 24.63 42.4457C23.9415 42.3622 23.4616 41.8198 23.5033 41.173C23.5451 40.4845 23.9415 40.0881 24.6091 39.9629C24.8178 39.9212 25.0264 39.942 25.235 39.942C33.2257 39.942 41.2165 39.942 49.2072 39.942C49.4367 39.942 49.6871 39.9212 49.9166 39.9629C50.5425 40.0672 51.0015 40.6097 50.9806 41.2147C50.9389 41.8615 50.5633 42.2788 49.9374 42.4039C49.6871 42.4665 49.4158 42.4248 49.1655 42.4248C45.1597 42.4665 41.1747 42.4665 37.2107 42.4665ZM28.4897 16.2202C31.2437 16.2202 33.497 13.967 33.497 11.213C33.497 8.47986 31.2646 6.24746 28.5523 6.2266C25.7775 6.20574 23.5242 8.43813 23.5033 11.1921C23.4825 13.967 25.7149 16.2202 28.4897 16.2202ZM28.4689 8.73022C29.8667 8.73022 31.0142 9.85685 30.9933 11.2547C30.9725 12.6108 29.8459 13.7166 28.4897 13.7166C27.1336 13.7166 26.007 12.59 26.007 11.2338C25.9861 9.87772 27.0919 8.75109 28.4689 8.73022ZM35.9797 11.2338C35.9797 10.4828 36.543 9.98203 37.461 9.98203C40.6323 9.98203 43.8036 9.98203 46.9957 9.98203C47.9137 9.98203 48.477 10.4619 48.477 11.2338C48.477 11.9849 47.9137 12.4857 46.9957 12.4857C45.3892 12.4857 43.7618 12.4857 42.1553 12.4857C40.5906 12.4857 39.0258 12.4857 37.461 12.4857C36.543 12.4648 36.0006 11.9849 35.9797 11.2338Z" fill="white"/>
</svg>
