<svg width="80" height="80" viewBox="0 0 80 80" fill="none" xmlns="http://www.w3.org/2000/svg">
<path d="M79.9225 71.3333C79.9017 69.1042 78.3184 67.5208 76.0684 67.5C75.735 67.5 75.4017 67.5 74.9225 67.5C74.9225 67.1458 74.9225 66.8333 74.9225 66.5C74.9225 52.0417 74.9225 37.5625 74.9225 23.1042C74.9225 19.5 72.9434 17.5 69.3392 17.5C67.5059 17.5 65.6517 17.5 63.6934 17.5C63.6934 17.1875 63.6934 16.9167 63.6934 16.6458C63.6934 11.7083 63.6725 6.75 63.7142 1.8125C63.7142 1.04167 63.5475 0.4375 62.9225 0C47.6309 0 32.36 0 17.0684 0C16.4225 0.4375 16.2767 1.04167 16.2767 1.8125C16.2975 6.72917 16.2975 11.6458 16.2975 16.5625C16.2975 16.8542 16.2975 17.125 16.2975 17.5C14.235 17.5 12.2559 17.4375 10.2559 17.5208C9.42253 17.5625 8.52669 17.7083 7.79753 18.0833C5.92253 19 5.06836 20.625 5.06836 22.7083C5.06836 32.625 5.06836 42.5417 5.06836 52.4583C5.06836 57.1458 5.06836 61.8333 5.06836 66.5208C5.06836 66.8125 5.06836 67.0833 5.06836 67.5C2.65169 67.2292 0.901693 68.0833 0.0683594 70.4583C0.0683594 71.875 0.0683594 73.2708 0.0683594 74.6875C0.505859 76.375 1.23503 77.9167 2.77669 78.875C3.56836 79.3542 4.50586 79.6458 5.38086 80C28.4642 80 51.5475 80 74.6309 80C75.2142 79.7917 75.8184 79.6458 76.3809 79.375C78.61 78.25 79.7975 76.4167 79.9225 73.9167C79.9434 73.0625 79.9225 72.2083 79.9225 71.3333ZM18.8392 2.5625C32.9225 2.5625 47.0059 2.5625 61.1517 2.5625C61.1517 4.22917 61.1517 5.83333 61.1517 7.45833C47.0475 7.45833 32.9642 7.45833 18.8392 7.45833C18.8392 5.85417 18.8392 4.22917 18.8392 2.5625ZM18.8184 10.0625C32.9017 10.0625 46.985 10.0625 61.1517 10.0625C61.1517 27.5 61.1517 44.9375 61.1517 62.4583C47.0267 62.4583 32.9434 62.4583 18.8184 62.4583C18.8184 45 18.8184 27.5625 18.8184 10.0625ZM7.54753 66.5833C7.54753 52.0625 7.54753 37.5208 7.54753 23C7.54753 20.9167 8.46419 20 10.5267 20C12.4225 20 14.2975 20 16.235 20C16.235 20.8333 16.235 21.6042 16.235 22.5C14.9434 22.5 13.6725 22.5 12.3809 22.5C10.1934 22.5 10.0475 22.6458 10.0475 24.8333C10.0475 37.5833 10.0475 50.3542 10.0475 63.1042C10.0475 64.6458 10.3809 64.9792 11.9017 64.9792C30.61 64.9792 49.3184 64.9792 68.0267 64.9792C69.5684 64.9792 69.9225 64.6458 69.9225 63.125C69.9225 50.1875 69.9225 37.25 69.9225 24.3125C69.9225 22.8333 69.5684 22.5 68.0684 22.5C66.6517 22.5 65.2142 22.5 63.7142 22.5C63.7142 21.625 63.7142 20.8542 63.7142 20.0208C65.9434 20.0208 68.1517 19.9583 70.3392 20.0417C71.485 20.0833 72.3392 21.1875 72.4017 22.3333C72.4225 22.5417 72.4017 22.75 72.4017 22.9583C72.4017 37.5208 72.4017 52.0625 72.4017 66.625C72.4017 66.875 72.4017 67.125 72.4017 67.4375C50.7559 67.4375 29.1725 67.4375 7.52669 67.4375C7.54753 67.1458 7.54753 66.875 7.54753 66.5833ZM16.235 25.0625C16.235 37.5 16.235 49.9375 16.235 62.4583C15.0059 62.4583 13.8184 62.4583 12.5892 62.4583C12.5892 50 12.5892 37.5625 12.5892 25.0625C13.7767 25.0625 14.9642 25.0625 16.235 25.0625ZM63.7559 62.4375C63.7559 50 63.7559 37.5417 63.7559 25.0417C65.0059 25.0417 66.1934 25.0417 67.4017 25.0417C67.4017 37.5208 67.4017 49.9375 67.4017 62.4375C66.2142 62.4375 65.0059 62.4375 63.7559 62.4375ZM50.0059 70.0625C49.7142 70.9583 49.1934 71.2917 48.235 71.2708C42.7559 71.2083 37.2767 71.2083 31.7975 71.2708C30.8392 71.2708 30.2975 70.9583 29.985 70.0625C36.6517 70.0625 43.2975 70.0625 50.0059 70.0625ZM73.4017 77.5C68.1309 77.5 62.86 77.5 57.5684 77.5C51.6934 77.5 45.8184 77.5 39.9434 77.5C28.9017 77.5 17.86 77.5 6.81836 77.5C4.02669 77.5 2.56836 76.0208 2.56836 73.2083C2.56836 72.5625 2.54753 71.8958 2.56836 71.25C2.61003 70.5 3.06836 70.0625 3.79753 70C3.88086 70 3.94336 70 4.02669 70C11.4642 70 18.8809 70 26.3184 70.0208C26.5892 70.0208 26.9434 70.2292 27.11 70.4583C27.6725 71.2083 28.2142 71.9792 28.6725 72.7917C29.0684 73.5 29.6309 73.75 30.3809 73.75C32.235 73.75 34.0684 73.7708 35.9225 73.7708C40.4434 73.7708 44.9642 73.75 49.485 73.7708C50.2767 73.7708 50.8184 73.5 51.235 72.8542C51.735 72.0625 52.2767 71.3125 52.7767 70.5C53.0059 70.125 53.2559 69.9792 53.7142 69.9792C61.0892 70 68.4642 69.9792 75.86 70C76.985 70 77.4017 70.4375 77.4225 71.5625C77.4225 72.1875 77.4225 72.8125 77.4225 73.4375C77.4225 75.9375 75.8809 77.5 73.4017 77.5ZM39.9642 39.9792C47.5475 40 53.6934 33.9375 53.6934 26.4375C53.6934 18.6667 47.6934 12.5 40.0892 12.5C32.4434 12.5 26.2975 18.625 26.2767 26.25C26.2559 33.7917 32.4225 39.9583 39.9642 39.9792ZM44.9642 36.3125C43.4225 37.1458 41.7559 37.4583 40.0059 37.5C37.7767 37.4583 35.6934 36.875 33.8392 35.625C33.6309 35.4792 33.4642 35.0625 33.5059 34.8333C34.0892 32.2292 36.4434 30.125 39.0684 29.8542C42.0475 29.5417 44.7559 30.9583 45.8809 33.6042C46.7767 35.625 47.0684 35.1667 44.9642 36.3125ZM36.7767 22.125C37.2142 20.2292 39.1309 19.125 40.9642 19.6875C42.5059 20.1667 43.2767 21.3958 43.2767 23.3958C43.2767 25.6667 42.1934 27.0625 40.2767 27.2292C39.9642 27.25 39.6517 27.2292 39.36 27.1875C37.2975 26.8333 36.1934 24.6458 36.7767 22.125ZM31.485 18.9167C35.5684 14.1667 42.7767 13.6667 47.4017 17.8125C52.3184 22.2083 52.1725 29.2917 48.5892 33.375C47.6934 31.0833 46.2142 29.3542 44.0059 28.2292C44.0684 28.1042 44.0892 28.0208 44.1517 27.9375C45.9225 25.9583 46.1309 23.625 45.485 21.2083C44.7767 18.5 42.0059 16.7083 39.2767 17.0833C36.3392 17.4792 34.2142 19.8333 34.1725 22.75C34.1309 25.3958 34.3392 26.0625 35.8392 28.1042C34.9434 28.8542 33.9642 29.5 33.1934 30.3542C32.4225 31.2083 31.8809 32.2708 31.2559 33.2083C28.5684 30.4792 27.235 23.875 31.485 18.9167ZM53.2559 42.5C48.8392 42.5 44.4225 42.5 40.0059 42.5C35.5267 42.5 31.0684 42.5 26.5892 42.5C25.4642 42.5 25.0267 42.9375 25.0267 44.0625C25.0267 45.5417 25.0267 47.0208 25.0267 48.5208C25.0267 49.5417 25.485 50 26.5059 50C35.5059 50 44.485 50 53.485 50C54.5059 50 54.9642 49.5417 54.9642 48.5208C54.985 47.0833 54.9642 45.6667 54.9642 44.2292C54.9642 42.8958 54.5684 42.5 53.2559 42.5ZM52.4017 47.4375C44.1517 47.4375 35.8809 47.4375 27.5475 47.4375C27.5475 46.6042 27.5475 45.8333 27.5475 45.0417C35.8392 45.0417 44.0892 45.0417 52.4017 45.0417C52.4017 45.8125 52.4017 46.6042 52.4017 47.4375ZM53.2975 52.5C48.8809 52.5 44.4642 52.5 40.0475 52.5C35.5475 52.5 31.0475 52.5 26.5684 52.5C25.5059 52.5 25.0475 52.9375 25.0475 54.0208C25.0475 55.5 25.0475 56.9792 25.0475 58.4792C25.0475 59.5625 25.485 60 26.5684 60C35.5267 60 44.5059 60 53.4642 60C54.5267 60 54.985 59.5417 54.985 58.4792C54.985 57.0417 54.985 55.625 54.985 54.1875C54.9642 52.8958 54.5684 52.5 53.2975 52.5ZM52.4434 57.4583C44.1517 57.4583 35.9017 57.4583 27.5892 57.4583C27.5892 56.6875 27.5892 55.8958 27.5892 55.0417C35.8392 55.0417 44.11 55.0417 52.4434 55.0417C52.4434 55.875 52.4434 56.6458 52.4434 57.4583ZM23.7767 5C23.7767 5.66667 23.1934 6.25 22.5267 6.22917C21.86 6.22917 21.2975 5.64583 21.2975 4.97917C21.2975 4.29167 21.86 3.72917 22.5475 3.75C23.2142 3.77083 23.7767 4.33333 23.7767 5ZM28.7559 4.95833C28.7767 5.625 28.235 6.20833 27.5475 6.25C26.8809 6.27083 26.2975 5.72917 26.2767 5.04167C26.2559 4.35417 26.7975 3.79167 27.485 3.77083C28.1517 3.72917 28.735 4.29167 28.7559 4.95833ZM33.7559 5.04167C33.735 5.70833 33.1517 6.27083 32.485 6.25C31.8184 6.22917 31.2559 5.64583 31.2767 4.95833C31.2975 4.27083 31.8809 3.72917 32.5475 3.75C33.2142 3.77083 33.7767 4.35417 33.7559 5.04167Z" fill="white"/>
</svg>
