<svg width="21" height="20" viewBox="0 0 21 20" fill="none" xmlns="http://www.w3.org/2000/svg">
<path d="M15.5182 17.5288C15.7025 17.8895 15.6044 18.3287 15.2437 18.5365C14.8164 18.7835 14.3772 19.0148 13.9263 19.2108C12.9265 19.6421 11.8797 19.8852 10.7936 19.9676C10.7426 19.9715 10.6917 19.9872 10.6407 19.9989C10.2486 19.9989 9.86046 19.9989 9.46838 19.9989C9.04886 19.944 8.62933 19.9048 8.21373 19.8303C4.30861 19.1167 1.13276 16.0468 0.28979 12.1612C0.211374 11.8084 0.156483 11.4477 0.09375 11.0948C0.09375 10.3655 0.09375 9.63624 0.09375 8.90697C0.156483 8.55802 0.211374 8.20515 0.28979 7.86012C1.13668 3.95108 4.26156 0.9007 8.20196 0.179273C10.9034 -0.314748 13.4127 0.222401 15.6985 1.75151C16.0789 2.00637 16.1769 2.46118 15.9495 2.82973C15.7221 3.19437 15.2516 3.31199 14.8712 3.0689C14.1773 2.62585 13.4637 2.22985 12.6717 1.99068C9.98593 1.17516 7.46877 1.52411 5.17119 3.14732C3.50485 4.32356 2.39526 5.91148 1.8934 7.89541C1.28175 10.3106 1.65031 12.5964 3.03827 14.6666C4.42231 16.7329 6.37095 17.9836 8.84105 18.3522C10.723 18.6345 12.507 18.2894 14.1733 17.372C14.2988 17.3014 14.4204 17.2269 14.5537 17.172C14.9144 17.0191 15.3378 17.1838 15.5182 17.5288ZM9.70755 12.0515C8.89202 11.2751 8.07258 10.5027 7.25705 9.72642C6.76303 9.25593 6.26509 8.78935 5.77107 8.31493C5.55935 8.11497 5.32018 8.00127 5.02612 8.064C4.72814 8.12673 4.52425 8.30709 4.43408 8.59723C4.33213 8.92266 4.43408 9.20103 4.67324 9.42844C6.01416 10.6988 7.35507 11.973 8.69598 13.2434C9.09983 13.6276 9.58209 13.8237 10.2447 13.8276C10.7779 13.8041 11.2994 13.5531 11.6993 13.0552C14.4047 9.68721 17.1139 6.31925 19.8193 2.9552C19.8663 2.89639 19.9173 2.82973 19.9526 2.76308C20.1094 2.4847 20.082 2.15143 19.8859 1.9005C19.6899 1.65349 19.3684 1.55547 19.0626 1.63389C18.796 1.70446 18.647 1.91227 18.4901 2.10831C15.8436 5.4057 13.1931 8.70309 10.5427 11.9966C10.2721 12.3338 10.0212 12.3494 9.70755 12.0515ZM19.7487 7.53077C19.6821 7.28376 19.5448 7.09556 19.3096 6.9897C19.0234 6.86032 18.745 6.8956 18.5019 7.08772C18.2196 7.31121 18.1608 7.61311 18.2392 7.9503C18.6431 9.62056 18.5803 11.2712 17.9648 12.8787C17.7256 13.4982 17.3806 14.0785 17.0669 14.6666C16.8434 15.0862 16.9218 15.5488 17.2825 15.7684C17.6785 16.0115 18.1334 15.8978 18.4 15.49C19.4547 13.8629 20.0153 12.0828 20.0506 10.142C20.0741 9.3461 19.9487 8.29533 19.7487 7.53077Z" fill="#0072BA"/>
</svg>
