<svg width="31" height="30" viewBox="0 0 31 30" fill="none" xmlns="http://www.w3.org/2000/svg">
<path d="M25.3759 26.8813C25.3759 29.2593 22.9697 30.7161 20.9489 29.6258C19.0691 28.6201 17.2175 27.5674 15.3565 26.5241C15.1121 26.3832 14.9335 26.3832 14.6891 26.5241C12.8281 27.5674 10.9671 28.6107 9.0967 29.6258C7.51766 30.4811 5.60965 29.8138 4.89532 28.1972C4.64154 27.6332 4.59455 27.0411 4.68854 26.4395C5.0457 24.2214 5.40287 21.9938 5.77883 19.7756C5.82583 19.4748 5.78823 19.2587 5.55325 19.0331C3.97421 17.4259 2.40457 15.8186 0.853724 14.1832C-0.631327 12.6229 -0.10498 10.1134 1.85942 9.30507C2.27298 9.13588 2.74293 9.07949 3.19409 9.0043C5.13029 8.69413 7.0571 8.40276 8.99331 8.11139C9.23768 8.07379 9.35047 7.9704 9.45386 7.76362C10.3562 5.80862 11.2867 3.86301 12.189 1.90801C12.7435 0.686131 13.6834 0 15.0181 0C16.3528 0 17.2833 0.69553 17.8378 1.90801C18.7401 3.85361 19.6518 5.78982 20.5541 7.73542C20.6575 7.961 20.7891 8.05499 21.0429 8.09259C23.1483 8.40276 25.2631 8.73172 27.3685 9.07009C28.5809 9.25807 29.4551 9.9254 29.8498 11.0909C30.254 12.2658 29.9814 13.3373 29.1167 14.2396C27.5564 15.8468 25.9962 17.454 24.436 19.0613C24.2574 19.2399 24.201 19.4091 24.248 19.6534C24.6145 21.8998 24.9811 24.1368 25.3383 26.3832C25.3571 26.5711 25.3665 26.7779 25.3759 26.8813ZM26.9925 12.106C26.8421 12.0684 26.7481 12.0496 26.6635 12.0308C24.5769 11.7018 22.4998 11.3541 20.4132 11.0439C19.2477 10.8653 18.43 10.2732 17.9318 9.21107C17.0295 7.26547 16.1178 5.32927 15.2155 3.38366C15.1591 3.26147 15.1027 3.14868 15.0181 2.9795C14.9241 3.15808 14.8677 3.27087 14.8113 3.38366C13.8902 5.34806 12.9785 7.31247 12.0574 9.26747C11.5968 10.2356 10.8355 10.8371 9.78283 11.0157C8.36357 11.2507 6.93491 11.4574 5.50626 11.6736C4.69794 11.7958 3.89902 11.9274 3.02491 12.059C3.16589 12.2094 3.26928 12.3222 3.37267 12.4256C4.88592 14.0046 6.40857 15.5836 7.93121 17.1627C8.65494 17.9146 8.94631 18.8169 8.78653 19.8414C8.51396 21.6272 8.20379 23.4036 7.92182 25.1801C7.82782 25.7534 7.74323 26.3268 7.64924 26.9565C7.82782 26.8625 7.94061 26.8061 8.0534 26.7403C9.85802 25.744 11.672 24.7571 13.4767 23.7608C14.5012 23.1969 15.5257 23.1875 16.5595 23.7608C17.6216 24.353 18.6931 24.9451 19.7552 25.5372C20.6011 26.0072 21.4471 26.4771 22.3212 26.9659C22.3212 26.8343 22.3306 26.7403 22.3212 26.6557C21.964 24.4375 21.6162 22.21 21.2591 19.9918C21.0805 18.8827 21.3531 17.9334 22.1426 17.1251C22.7253 16.5329 23.3081 15.9314 23.8814 15.3299C24.8965 14.2678 25.9304 13.2057 26.9925 12.106Z" fill="#0171BB"/>
</svg>
