<svg width="21" height="20" viewBox="0 0 21 20" fill="none" xmlns="http://www.w3.org/2000/svg">
<path d="M20.6985 16.5577C20.2917 18.3518 18.7479 19.7496 16.9172 19.9635C16.8754 19.9687 16.8337 19.9844 16.7868 20C12.802 20 8.82246 20 4.83769 20C4.79596 19.9896 4.75424 19.9687 4.70729 19.9635C2.9444 19.7601 1.43707 18.4562 0.972876 16.735C0.910288 16.4846 0.868563 16.2291 0.816406 15.9787C0.816406 15.3946 0.816406 14.8052 0.816406 14.221C0.837269 14.1741 0.863347 14.1324 0.878994 14.0854C1.06676 13.5691 1.56225 13.2718 2.09424 13.3552C2.63667 13.4387 3.02785 13.8768 3.03828 14.4349C3.04871 14.7948 3.03828 15.1494 3.0435 15.5093C3.04871 16.8184 3.99796 17.7781 5.3071 17.7833C8.97893 17.7886 12.6455 17.7886 16.3174 17.7833C17.6369 17.7833 18.5862 16.8184 18.5914 15.4989C18.5914 15.1546 18.5862 14.8104 18.5914 14.4662C18.6018 13.8351 19.0921 13.3448 19.7023 13.3448C20.3178 13.3448 20.8133 13.8403 20.8081 14.4714C20.8028 15.1599 20.855 15.864 20.6985 16.5577ZM9.93339 15.139C10.4967 15.7023 11.1278 15.7075 11.6911 15.139C12.3013 14.534 12.9063 13.9237 13.5113 13.3187C14.3354 12.4947 15.1595 11.6706 15.9836 10.8517C16.2861 10.5492 16.4269 10.1945 16.333 9.77208C16.2391 9.34961 15.9784 9.06275 15.5611 8.948C15.1386 8.82804 14.7631 8.93235 14.4502 9.24008C13.6678 10.0224 12.8855 10.8048 12.1031 11.5871C12.0562 11.6341 12.0405 11.7123 12.0092 11.7749C11.9779 11.754 11.9466 11.728 11.9206 11.7071C11.9206 11.6289 11.9206 11.5558 11.9206 11.4776C11.9206 8.09263 11.9206 4.71288 11.9206 1.32791C11.9206 1.2236 11.9206 1.11928 11.9101 1.01497C11.8632 0.571639 11.6337 0.258699 11.2269 0.0917973C10.8148 -0.0803198 10.4237 -0.00730041 10.0794 0.284777C9.78214 0.535129 9.69869 0.868932 9.69869 1.24446C9.7039 4.65551 9.69869 8.06134 9.69869 11.4724C9.69869 11.5506 9.69869 11.6236 9.69869 11.7019C9.67261 11.7175 9.65175 11.728 9.62567 11.7436C9.58394 11.6862 9.54743 11.6184 9.50049 11.5715C8.72336 10.7943 7.95144 10.012 7.16909 9.24008C6.66839 8.74459 5.9069 8.79153 5.48964 9.32874C5.13498 9.78251 5.19235 10.398 5.6409 10.8465C7.06999 12.2756 8.5043 13.7047 9.93339 15.139Z" fill="white"/>
</svg>
