<svg width="20" height="21" viewBox="0 0 20 21" fill="none" xmlns="http://www.w3.org/2000/svg">
<path d="M19.9669 8.77411C19.9597 8.20964 19.9097 7.63088 19.7882 7.0807C18.9737 3.44379 15.9155 1.00728 12.1786 0.992985C10.7138 0.98584 9.25622 0.978695 7.79145 1.00013C7.22698 1.00728 6.64822 1.05729 6.09804 1.17876C2.47542 1.97188 0.0174661 5.04432 0.00317565 8.77411C-0.00396956 10.246 0.00317565 11.7179 0.00317565 13.1899C0.00317565 13.9544 0.103209 14.6975 0.317565 15.4334C1.18928 18.4773 3.98306 20.7495 7.13409 20.9353C8.07726 20.9924 9.02042 20.9424 9.97074 20.9424C9.97074 20.9567 9.97074 20.9638 9.97074 20.9781C10.621 20.9781 11.2712 20.9996 11.9214 20.971C12.5787 20.9424 13.2504 20.9353 13.8863 20.7923C17.5304 19.9849 19.9669 16.9339 19.9883 13.197C19.9883 11.7179 19.9955 10.246 19.9669 8.77411ZM18.2663 13.2113C18.2449 16.148 16.2942 18.5416 13.4433 19.1275C13.0289 19.2133 12.593 19.2347 12.1715 19.249C11.4426 19.2704 10.7067 19.2561 9.97788 19.2561C9.97788 19.2418 9.97788 19.2347 9.97788 19.2204C9.04186 19.2204 8.10584 19.2704 7.16982 19.2133C4.54038 19.0561 2.21819 16.9054 1.81091 14.2974C1.75375 13.9401 1.71802 13.5685 1.71802 13.2041C1.71088 11.7179 1.70373 10.2246 1.71802 8.73839C1.73946 5.80885 3.6901 3.40806 6.54104 2.82216C6.94117 2.73642 7.35559 2.70783 7.76287 2.70069C9.24907 2.6864 10.7424 2.6864 12.2286 2.69354C15.1653 2.71498 17.5589 4.65848 18.1449 7.51656C18.2306 7.91669 18.2592 8.33111 18.2663 8.73839C18.2735 10.2389 18.2735 11.7251 18.2663 13.2113ZM7.15553 10.4961C6.76968 10.1031 6.74825 9.58867 7.09836 9.23855C7.44848 8.88844 7.97008 8.90987 8.35592 9.28857C8.59886 9.52436 8.8275 9.77444 9.0633 10.0102C9.08473 9.99594 9.10617 9.9888 9.1276 9.97451C9.1276 9.82446 9.1276 9.67441 9.1276 9.52436C9.1276 8.10961 9.1276 6.69486 9.1276 5.27296C9.1276 4.80852 9.45628 4.45841 9.91358 4.41554C10.3209 4.37267 10.721 4.67277 10.8139 5.09433C10.8353 5.19437 10.8353 5.30869 10.8353 5.41587C10.8353 6.83776 10.8353 8.2668 10.8353 9.6887C10.8353 9.78159 10.8353 9.88162 10.8353 10.0531C11.1283 9.76015 11.3783 9.51721 11.6213 9.26713C11.8857 9.00276 12.2 8.91702 12.5502 9.03849C13.1361 9.2457 13.3004 9.96736 12.8645 10.4389C12.543 10.7819 12.2 11.1106 11.8642 11.4464C11.4569 11.8537 11.0497 12.2681 10.6352 12.6754C10.2065 13.0898 9.73495 13.0898 9.32052 12.6754C8.606 11.9537 7.87719 11.2249 7.15553 10.4961ZM13.1289 15.5549C13.1218 16.0479 12.7431 16.398 12.1929 16.398C11.4569 16.4052 10.7138 16.398 9.97788 16.398C9.24907 16.398 8.52026 16.398 7.79145 16.398C7.24127 16.398 6.85543 16.0479 6.85543 15.5549C6.84828 15.069 7.24127 14.6903 7.77716 14.6903C9.25622 14.6832 10.7353 14.6832 12.2072 14.6903C12.7431 14.6903 13.1361 15.069 13.1289 15.5549Z" fill="#0072BA"/>
</svg>
