<svg width="61" height="61" viewBox="0 0 61 61" fill="none" xmlns="http://www.w3.org/2000/svg">
<path d="M59.5103 24.652C57.0427 11.5249 46.2329 1.5418 32.9555 0.251634C25.0517 -0.499916 17.8869 1.5418 11.6115 6.42687C5.53642 11.1616 1.80372 17.387 0.45093 24.9902C0.263043 26.0674 0.15031 27.1446 0 28.2218C0 29.4744 0 30.727 0 31.9671C0.15031 33.0819 0.263043 34.2092 0.463456 35.324C1.70351 42.2383 4.98528 48.0252 10.2461 52.6598C14.7429 56.6304 19.9912 58.9728 25.9285 59.8245C26.655 59.9247 27.394 60.0124 28.1205 60.1001C29.3731 60.1001 30.6257 60.1001 31.8657 60.1001C32.016 60.0625 32.1664 60.0249 32.3167 59.9999C33.6695 59.7995 35.0348 59.6867 36.3625 59.3987C52.1451 56.0417 62.4789 40.5097 59.5103 24.652ZM29.9493 58.1085C14.53 58.0834 1.99161 45.52 1.99161 30.0882C2.00413 14.6313 14.5801 2.08041 30.037 2.09293C45.4688 2.11798 58.0197 14.6814 58.0072 30.1132C57.9946 45.5451 45.3811 58.1335 29.9493 58.1085Z" fill="url(#paint0_linear_202_618)"/>
<path d="M42.9131 33.708C40.2201 33.2445 37.5395 32.7811 34.8465 32.2926C34.2077 32.1798 33.7943 32.3928 33.5062 32.9439C32.93 34.0712 32.3413 35.1985 31.7526 36.3133C31.69 36.4386 31.5898 36.5639 31.5021 36.7017C27.7944 34.9731 25.1139 32.3051 23.3853 28.5599C24.6755 27.8835 25.903 27.2446 27.118 26.6058C27.7819 26.2551 27.9322 25.967 27.7944 25.2405C27.3184 22.5349 26.855 19.8168 26.3414 17.1238C26.2788 16.7856 26.0032 16.3973 25.7151 16.2094C21.6442 13.5038 15.8698 16.0465 15.1183 20.8815C14.7801 23.036 15.1183 25.1653 15.5943 27.2697C17.9115 37.6536 27.4813 45.2568 38.0907 45.1065C40.7587 45.0689 42.8254 43.8289 44.1156 41.4865C45.4058 39.1442 45.3055 36.7768 43.9778 34.4595C43.7273 34.0336 43.4016 33.7957 42.9131 33.708ZM38.1909 43.1024C37.9905 43.1149 37.8026 43.1024 37.7149 43.1024C27.5815 42.927 19.0764 35.637 17.3228 25.6914C17.0598 24.1758 16.8218 22.6351 17.1099 21.0945C17.6861 17.988 21.1808 16.1968 24.0367 17.5496C24.2371 17.6498 24.45 17.9129 24.4876 18.1258C24.901 20.2677 25.2642 22.4222 25.6525 24.5766C25.7151 24.9399 25.6275 25.1278 25.2893 25.3031C24.1243 25.8793 22.972 26.5056 21.8071 27.1069C21.0806 27.4952 20.9303 27.896 21.2309 28.6475C23.1974 33.47 26.5919 36.8645 31.4019 38.831C32.1659 39.1442 32.5793 38.9814 32.9801 38.2298C33.5814 37.0899 34.1826 35.9501 34.7588 34.7977C34.9216 34.4595 35.097 34.3468 35.4728 34.4094C37.6397 34.8102 39.8192 35.1735 41.9737 35.5868C42.1866 35.6244 42.4246 35.8624 42.5248 36.0754C44.0029 39.2945 41.6981 42.9771 38.1909 43.1024Z" fill="url(#paint1_linear_202_618)"/>
<defs>
<linearGradient id="paint0_linear_202_618" x1="10.6612" y1="51.4159" x2="51.3197" y2="12.7191" gradientUnits="userSpaceOnUse">
<stop stop-color="#AD2E59"/>
<stop offset="1" stop-color="#009AFD"/>
</linearGradient>
<linearGradient id="paint1_linear_202_618" x1="20.3191" y1="40.7662" x2="40.6513" y2="21.3911" gradientUnits="userSpaceOnUse">
<stop stop-color="#AD2E59"/>
<stop offset="1" stop-color="#009AFD"/>
</linearGradient>
</defs>
</svg>
