<svg width="20" height="21" viewBox="0 0 20 21" fill="none" xmlns="http://www.w3.org/2000/svg">
<path d="M19.8821 16.887C19.4753 18.6812 17.9315 20.079 16.1008 20.2928C16.059 20.2981 16.0173 20.3137 15.9704 20.3293C11.9856 20.3293 8.00605 20.3293 4.02128 20.3293C3.97955 20.3189 3.93783 20.2981 3.89089 20.2928C2.12799 20.0894 0.620664 18.7855 0.15647 17.0643C0.093882 16.814 0.0521567 16.5584 0 16.3081C0 15.7239 0 15.1345 0 14.5504C0.0208627 14.5034 0.046941 14.4617 0.062588 14.4148C0.250352 13.8984 0.745841 13.6011 1.27784 13.6846C1.82027 13.768 2.21144 14.2062 2.22187 14.7642C2.23231 15.1241 2.22187 15.4788 2.22709 15.8387C2.23231 17.1478 3.18156 18.1075 4.49069 18.1127C8.16252 18.1179 11.8291 18.1179 15.501 18.1127C16.8205 18.1127 17.7698 17.1478 17.775 15.8282C17.775 15.484 17.7698 15.1398 17.775 14.7955C17.7854 14.1644 18.2757 13.6742 18.8859 13.6742C19.5014 13.6742 19.9969 14.1696 19.9917 14.8007C19.9864 15.4892 20.0386 16.1933 19.8821 16.887ZM9.11699 15.4683C9.68028 16.0316 10.3114 16.0369 10.8747 15.4683C11.4849 14.8633 12.0899 14.2531 12.6949 13.6481C13.519 12.824 14.3431 11.9999 15.1672 11.1811C15.4697 10.8786 15.6105 10.5239 15.5166 10.1014C15.4227 9.67895 15.1619 9.39209 14.7447 9.27735C14.3222 9.15739 13.9467 9.2617 13.6338 9.56942C12.8514 10.3518 12.0691 11.1341 11.2867 11.9165C11.2398 11.9634 11.2241 12.0416 11.1928 12.1042C11.1615 12.0834 11.1302 12.0573 11.1042 12.0364C11.1042 11.9582 11.1042 11.8852 11.1042 11.8069C11.1042 8.42198 11.1042 5.04222 11.1042 1.65726C11.1042 1.55294 11.1042 1.44863 11.0937 1.34432C11.0468 0.900984 10.8173 0.588044 10.4105 0.421143C9.99844 0.249026 9.60726 0.322045 9.26303 0.614123C8.96573 0.864475 8.88228 1.19828 8.88228 1.57381C8.8875 4.98485 8.88228 8.39068 8.88228 11.8017C8.88228 11.88 8.88228 11.953 8.88228 12.0312C8.8562 12.0469 8.83534 12.0573 8.80926 12.0729C8.76754 12.0156 8.73103 11.9478 8.68409 11.9008C7.90695 11.1237 7.13503 10.3413 6.35268 9.56942C5.85198 9.07394 5.09049 9.12088 4.67324 9.65809C4.31857 10.1119 4.37595 10.7273 4.82449 11.1758C6.25359 12.6049 7.68789 14.034 9.11699 15.4683Z" fill="#0072BA"/>
</svg>
