<svg width="76" height="71" viewBox="0 0 76 71" fill="none" xmlns="http://www.w3.org/2000/svg">
<path d="M75.7098 18.5889C75.7296 18.4309 75.8086 18.2531 75.8481 18.095C75.8481 17.1467 75.8481 16.2181 75.8481 15.2697C75.8086 15.1314 75.7296 14.9931 75.7098 14.8548C74.2873 4.79836 62.4922 -0.0421675 54.4313 6.14186C54.2337 6.29991 54.0361 6.43822 53.8781 6.63579C53.5224 7.07045 53.5027 7.54462 53.8386 7.99904C54.1942 8.45346 54.6881 8.59176 55.2216 8.31516C55.4389 8.19661 55.6365 8.03855 55.834 7.90025C59.4496 5.17375 64.2901 4.89715 68.1626 7.16923C72.0152 9.44132 74.1293 13.7879 73.5168 18.2333C72.845 23.0936 69.0319 26.966 64.2309 27.697C59.2916 28.4478 54.451 25.8201 52.4358 21.2759C51.0725 18.2135 51.112 15.1512 52.4555 12.0888C52.7914 11.3183 52.6136 10.7058 52.0209 10.4292C51.3886 10.1328 50.7564 10.4094 50.4403 11.18C50.1439 11.911 49.8081 12.642 49.6698 13.4125C49.4129 14.7363 49.2746 16.0798 49.077 17.443C47.0025 17.443 44.849 17.443 42.6362 17.443C42.6362 17.0874 42.6362 16.8108 42.6362 16.5144C42.6362 12.3456 42.6362 8.17686 42.6362 3.98831C42.6362 1.67671 41.3717 0.432007 39.0601 0.432007C32.8168 0.432007 26.5735 0.432007 20.3105 0.432007C17.8606 0.451764 16.6751 1.65696 16.6554 4.0871C16.6554 8.25588 16.6554 12.4247 16.6554 16.6132C16.6554 16.8898 16.6554 17.1862 16.6554 17.522C13.5732 17.522 10.6097 17.522 7.64606 17.522C5.37398 17.522 4.14903 18.7272 4.14903 20.9796C4.14903 29.4159 4.14903 37.872 4.14903 46.3084C4.14903 46.5455 4.14903 46.8023 4.2083 47.0394C4.3466 47.6124 4.74174 47.9285 5.33446 47.889C5.92718 47.8494 6.28281 47.5136 6.36184 46.9209C6.40135 46.6443 6.3816 46.3874 6.3816 46.1108C6.3816 37.793 6.3816 29.4752 6.3816 21.1376C6.3816 19.9324 6.57917 19.7349 7.80412 19.7349C10.4714 19.7349 13.1386 19.7349 15.8058 19.7349C16.0627 19.7349 16.3195 19.7546 16.6159 19.7744C16.6159 20.8808 16.6159 21.9082 16.6159 22.9948C15.2526 22.9948 13.9091 23.0541 12.5854 22.975C10.6097 22.8565 9.08834 24.121 9.1081 26.4128C9.16737 35.3036 9.16737 44.1944 9.1081 53.0851C9.08834 55.1596 10.3528 56.6019 12.5656 56.5426C16.2405 56.4636 19.9153 56.5229 23.6099 56.5229C36.8473 56.5229 50.0847 56.5229 63.322 56.5229C65.5744 56.5229 66.6808 55.4362 66.6808 53.2432C66.6808 50.576 66.6808 47.9087 66.6808 45.2415C66.6808 40.1836 66.6808 35.1258 66.6808 30.0482C66.6808 29.8111 66.7203 29.4159 66.8783 29.3369C67.6884 28.922 68.538 28.5861 69.4073 28.2107C69.4073 38.7413 69.4073 49.2127 69.4073 59.7236C48.4053 59.7236 27.4231 59.7236 6.40135 59.7236C6.40135 59.3877 6.40135 59.1308 6.40135 58.8542C6.40135 56.5822 6.40135 54.3101 6.40135 52.038C6.40135 51.3267 5.96669 50.8723 5.35422 50.8328C4.70223 50.7933 4.24781 51.2675 4.18854 51.9985C4.16878 52.196 4.18854 52.3936 4.18854 52.5912C4.18854 54.7052 4.18854 56.839 4.18854 58.953C4.18854 59.2099 4.18854 59.4667 4.18854 59.8026C2.4499 59.7038 0.790291 59.605 0 61.5017C0 63.1416 0 64.7617 0 66.4015C0.0790291 66.6189 0.177815 66.8559 0.256844 67.0733C0.928592 69.049 2.70675 70.3727 4.78126 70.3925C6.04572 70.4122 7.29043 70.3925 8.5549 70.3925C28.9444 70.3925 49.3339 70.3727 69.7234 70.432C72.5882 70.432 74.8998 69.701 75.8679 66.2435C75.8679 64.7024 75.8679 63.1811 75.8679 61.64C75.1764 59.5853 73.4575 59.7038 71.6991 59.8026C71.6991 59.447 71.6991 59.1901 71.6991 58.9333C71.6991 48.3434 71.6991 37.7535 71.6991 27.1438C71.6991 26.6499 71.8177 26.2745 72.1733 25.8991C74.1095 23.8641 75.3147 21.4142 75.7098 18.5889ZM42.6757 19.7744C44.9675 19.7744 47.2199 19.7744 49.492 19.7744C49.8871 20.8215 50.2625 21.8686 50.6774 22.9553C48.0102 22.9553 45.3627 22.9553 42.6757 22.9553C42.6757 21.9082 42.6757 20.861 42.6757 19.7744ZM34.7135 2.72385C34.7333 2.76336 34.7333 2.78312 34.7333 2.80288C34.5357 4.26492 34.5357 4.26492 33.0934 4.26492C30.7818 4.26492 28.4702 4.26492 26.1389 4.26492C24.6966 4.26492 24.6966 4.26492 24.5385 2.74361C27.9368 2.72385 31.3153 2.72385 34.7135 2.72385ZM20.3302 2.68434C20.8637 2.68434 21.4169 2.68434 21.9503 2.68434C21.9898 2.68434 22.0491 2.70409 22.1874 2.72385C22.3257 3.29681 22.464 3.90929 22.6221 4.52176C22.9382 5.76647 23.7087 6.43822 24.9929 6.45797C28.0751 6.49749 31.1572 6.47773 34.2591 6.45797C35.5433 6.43822 36.3139 5.76647 36.6497 4.54152C36.8078 3.9488 36.9263 3.35608 37.0844 2.68434C37.8944 2.68434 38.6452 2.68434 39.3762 2.68434C40.0085 2.68434 40.3246 3.03997 40.3839 3.63268C40.4036 3.8105 40.3839 3.96856 40.3839 4.14637C40.3839 13.6496 40.3839 23.1529 40.3839 32.6759C40.3839 32.913 40.3839 33.15 40.3839 33.4464C33.212 33.4464 26.1191 33.4464 18.9275 33.4464C18.9077 33.2093 18.8879 32.9525 18.8879 32.6956C18.8879 23.1726 18.8879 13.6299 18.8879 4.10686C18.8879 2.88191 19.1053 2.68434 20.3302 2.68434ZM18.8879 35.758C26.0796 35.758 33.1725 35.758 40.3443 35.758C40.3443 37.0422 40.3839 38.3067 40.3246 39.5909C40.2851 40.1836 39.7911 40.3614 39.2379 40.3614C37.5783 40.3614 35.9385 40.3614 34.2789 40.3614C29.6161 40.3614 24.9534 40.3614 20.271 40.3614C19.1053 40.3614 18.8879 40.1441 18.8879 38.9784C18.8879 37.9115 18.8879 36.8447 18.8879 35.758ZM64.468 53.0851C64.468 54.231 64.3889 54.3101 63.243 54.3101C46.3505 54.3101 29.4581 54.3101 12.5854 54.3101C11.4592 54.3101 11.3802 54.231 11.3802 53.0851C11.3802 44.2141 11.3802 35.3629 11.3802 26.4918C11.3802 25.3262 11.4592 25.2471 12.6644 25.2471C13.9684 25.2471 15.2724 25.2471 16.6751 25.2471C16.6751 25.6028 16.6751 25.8794 16.6751 26.1757C16.6751 30.4235 16.7344 34.6713 16.6554 38.9192C16.6159 41.2505 18.1767 42.6335 20.35 42.6138C26.5735 42.5347 32.7971 42.594 39.0206 42.594C41.3915 42.594 42.6362 41.3691 42.6362 38.9982C42.6362 34.7504 42.6362 30.5026 42.6362 26.2548C42.6362 25.9584 42.6362 25.662 42.6362 25.3064C42.893 25.2866 43.1104 25.2669 43.3277 25.2669C46.1135 25.2669 48.8992 25.2471 51.7048 25.2866C52.0011 25.2866 52.3963 25.4249 52.5938 25.6225C55.6957 28.922 59.4496 30.4235 63.974 30.0086C64.1123 29.9889 64.2704 30.0086 64.4877 30.0086C64.4877 30.305 64.4877 30.5618 64.4877 30.8384C64.468 38.2079 64.468 45.6564 64.468 53.0851ZM34.2591 62.0944C36.6892 62.0944 39.0996 62.0944 41.5495 62.0944C41.5495 62.6279 41.5495 63.1218 41.5495 63.6948C39.1391 63.6948 36.7288 63.6948 34.2591 63.6948C34.2591 63.1416 34.2591 62.6476 34.2591 62.0944ZM73.5958 62.0747C73.5958 63.3391 73.6353 64.5048 73.5761 65.6507C73.5168 67.1128 72.3906 68.1402 70.9088 68.1797C70.7705 68.1797 70.6125 68.1797 70.4742 68.1797C48.7412 68.1797 27.0082 68.1797 5.27519 68.1797C3.49704 68.1797 2.3116 67.2708 2.21281 65.7495C2.15354 64.8209 2.19306 63.8726 2.19306 62.944C2.19306 62.6674 2.19306 62.4106 2.19306 62.0747C12.131 62.0747 22.0096 62.0747 31.987 62.0747C31.987 62.6279 31.987 63.1613 31.987 63.6948C32.0068 65.1371 32.8168 65.9669 34.2393 65.9669C36.6892 65.9669 39.1194 65.9669 41.5693 65.9669C42.9128 65.9669 43.7228 65.1766 43.7821 63.8133C43.8019 63.2404 43.7821 62.6872 43.7821 62.0747C53.7595 62.0747 63.6382 62.0747 73.5958 62.0747ZM58.9359 22.9355C59.8843 23.8444 61.1883 23.8839 62.1168 22.9553C64.7248 20.3868 67.2933 17.8184 69.8617 15.2104C70.7113 14.3609 70.9088 13.2545 70.573 12.1086C69.8814 9.79695 67.0364 9.08569 65.278 10.7848C63.6974 12.3061 62.1761 13.8867 60.5165 15.5661C60.2004 15.2104 59.9633 14.9141 59.6867 14.6572C58.3432 13.4718 56.4268 13.5311 55.2216 14.7955C54.0361 16.0402 54.0164 17.9369 55.2216 19.2014C56.4268 20.4659 57.6715 21.7106 58.9359 22.9355ZM56.8417 16.3366C57.2566 15.9217 57.7702 15.9415 58.2839 16.3959C58.7186 16.791 59.1137 17.2454 59.5484 17.6406C60.2399 18.2926 60.8721 18.2926 61.5439 17.6208C63.1837 15.981 64.8236 14.3411 66.4634 12.7013C66.6413 12.5235 66.8191 12.2469 67.0166 12.2271C67.392 12.1876 67.9255 12.1481 68.1428 12.3654C68.3601 12.5827 68.3009 13.0964 68.3404 13.4916C68.3404 13.5706 68.2416 13.6496 68.1823 13.7286C65.6534 16.2576 63.1245 18.7865 60.4967 21.3945C59.2718 20.1498 58.0864 18.9643 56.9207 17.7591C56.4663 17.3047 56.4465 16.7318 56.8417 16.3366ZM27.9565 20.3473C27.9565 19.399 28.6876 18.668 29.6359 18.6482C30.5842 18.6482 31.335 19.3595 31.3745 20.3078C31.3943 21.2364 30.5842 22.0662 29.6359 22.0662C28.7073 22.0465 27.9565 21.2957 27.9565 20.3473ZM33.864 20.3276C33.864 19.3792 34.595 18.6482 35.5631 18.6482C36.5114 18.6482 37.2622 19.3792 37.282 20.3276C37.3017 21.2759 36.4719 22.086 35.5433 22.0662C34.595 22.0267 33.864 21.2759 33.864 20.3276ZM22.0096 20.3276C22.0294 19.3792 22.7604 18.668 23.7087 18.668C24.6571 18.668 25.4078 19.399 25.4078 20.3473C25.4078 21.2957 24.5978 22.1057 23.6494 22.0662C22.7209 22.0267 21.9898 21.2562 22.0096 20.3276Z" fill="url(#paint0_linear_202_576)"/>
<defs>
<linearGradient id="paint0_linear_202_576" x1="13.4765" y1="60.3004" x2="60.9471" y2="11.3481" gradientUnits="userSpaceOnUse">
<stop stop-color="#AD2E59"/>
<stop offset="1" stop-color="#009AFD"/>
</linearGradient>
</defs>
</svg>
