<svg width="64" height="71" viewBox="0 0 64 71" fill="none" xmlns="http://www.w3.org/2000/svg">
<path d="M63.2568 39.0771C62.5186 36.165 60.5361 34.6064 57.5557 34.6064C55.4365 34.6064 53.3174 34.6064 51.1982 34.6064C50.0635 34.6064 48.9287 34.6064 47.7529 34.6064C47.7939 34.415 47.8076 34.2783 47.8486 34.1553C49.5029 29.4932 50.0361 24.6943 49.667 19.7725C49.4893 17.3389 47.7393 15.2744 45.415 14.7822C42.9541 14.2627 40.5342 15.3838 39.3721 17.585C38.8252 18.624 38.7021 19.7451 38.7432 20.8936C38.8662 23.9561 37.7314 26.5264 35.6807 28.7549C34.3545 30.1904 32.8232 31.3525 31.1553 32.3643C27.4639 34.5791 23.4443 36.001 19.3154 37.0537C18.0439 35.0986 17.1279 34.6064 14.8311 34.6064C10.6611 34.6064 6.49121 34.6201 2.33496 34.5928C1.50098 34.5928 0.87207 34.8252 0.475586 35.5635C0.475586 47.0889 0.475586 58.6279 0.475586 70.1533C5.71191 70.1533 10.9619 70.1533 16.1982 70.1533C17.5244 69.7842 18.6045 69.0869 19.2607 67.7334C19.917 67.8975 20.5596 68.0615 21.2158 68.2393C24.6748 69.1553 28.1475 69.9756 31.7432 70.0713C31.8525 70.0713 31.9619 70.126 32.0713 70.1533C38.2236 70.1533 44.376 70.1533 50.5283 70.1533C51.1846 69.8936 51.8682 69.7158 52.4697 69.374C54.958 67.9385 55.874 64.835 54.6025 62.2646C54.5205 62.0869 54.4111 61.9092 54.2881 61.6631C55.8877 60.9795 57.0498 59.8857 57.6104 58.2451C58.1709 56.5908 57.9385 55.0186 57.0225 53.46C58.6221 52.7764 59.7842 51.6963 60.3447 50.0557C60.9053 48.4014 60.6729 46.8291 59.7842 45.2979C59.8799 45.2295 59.9619 45.1475 60.0576 45.1064C61.7803 44.3135 62.874 43.001 63.2842 41.1279C63.2979 41.0459 63.3525 40.9639 63.3936 40.8818C63.3936 40.335 63.3936 39.7881 63.3936 39.2412C63.3252 39.2002 63.2705 39.1455 63.2568 39.0771ZM16.8682 48.6885C16.8682 54.335 16.8682 59.9951 16.8682 65.6416C16.8682 66.9541 16.417 67.4189 15.1045 67.4189C11.3721 67.4189 7.62598 67.4189 3.89355 67.4189C3.68848 67.4189 3.4834 67.4189 3.2373 67.4189C3.2373 57.3975 3.2373 47.4033 3.2373 37.3408C6.51855 37.3408 9.75879 37.3408 12.9854 37.3408C13.7646 37.3408 14.5303 37.3271 15.3096 37.3408C16.335 37.3545 16.8545 37.874 16.8545 38.9131C16.8682 42.1807 16.8682 45.4346 16.8682 48.6885ZM60.4678 40.9502C60.0986 42.085 59.0732 42.8096 57.8018 42.8096C55.6143 42.8232 53.4268 42.8096 51.2393 42.8096C50.3779 42.8096 49.8174 43.2471 49.6943 43.958C49.5576 44.8057 50.2002 45.5166 51.1572 45.5303C52.4287 45.5439 53.7139 45.5303 54.9853 45.5303C56.6533 45.5439 57.8701 46.6924 57.8838 48.251C57.8975 49.8096 56.6807 50.9854 55.0127 50.999C52.8662 51.0127 50.7334 50.999 48.5869 50.999C47.5752 50.999 46.96 51.5186 46.9463 52.3389C46.9326 53.1865 47.5615 53.7197 48.6143 53.7334C49.8447 53.7334 51.0752 53.7334 52.3057 53.7334C53.9326 53.7471 55.1357 54.8955 55.1494 56.4268C55.1631 57.999 53.9463 59.1885 52.3057 59.1885C50.1592 59.2021 48.0264 59.1885 45.8799 59.1885C44.8408 59.1885 44.2119 59.7354 44.2256 60.583C44.2393 61.4033 44.8682 61.9229 45.8662 61.9229C47.0967 61.9229 48.3271 61.9229 49.5576 61.9229C51.2119 61.9365 52.4287 63.1123 52.415 64.6709C52.4014 66.2021 51.1982 67.3779 49.585 67.3779C44.0752 67.3779 38.5518 67.3916 33.042 67.3643C29.0498 67.3506 25.1807 66.4619 21.3662 65.4092C20.8057 65.2588 20.0264 65.2451 19.7393 64.8623C19.4521 64.4795 19.6299 63.7275 19.6299 63.1396C19.6299 55.6475 19.6299 48.1416 19.6299 40.6494C19.6299 40.376 19.6299 40.1025 19.6299 39.9111C22.1455 39.0635 24.5928 38.3389 26.958 37.4229C30.9365 35.8779 34.6143 33.8135 37.5947 30.6689C40.2197 27.8936 41.6279 24.6533 41.5049 20.7842C41.4912 20.3057 41.5049 19.8135 41.6143 19.3623C41.9424 18.0498 43.1592 17.2158 44.4854 17.3389C45.7705 17.4619 46.8643 18.4873 46.9463 19.7861C47.2607 24.6123 46.8369 29.3428 45.0459 33.8818C44.8408 34.4014 44.5811 34.5928 44.0068 34.5791C42.7764 34.5244 41.5459 34.5518 40.3154 34.5654C39.3857 34.5791 38.7705 35.126 38.7705 35.9326C38.7705 36.7393 39.3857 37.2861 40.3291 37.2861C46.1396 37.2861 51.9502 37.2861 57.7607 37.2861C59.7432 37.3408 61.083 39.1182 60.4678 40.9502ZM42.8311 2.0127C42.8037 1.16504 43.0635 0.549805 43.8018 0.15332C44.0752 0.15332 44.3486 0.15332 44.6221 0.15332C45.3604 0.549805 45.6201 1.16504 45.5928 2.0127C45.5518 3.84473 45.5791 5.69043 45.5791 7.52246C45.5791 8.54785 45.0186 9.19043 44.1846 9.16309C43.3643 9.13574 42.8584 8.52051 42.8584 7.52246C42.8447 5.69043 42.8721 3.84473 42.8311 2.0127ZM31.7432 8.20605C31.1006 7.5498 31.0732 6.78418 31.6338 6.19629C32.1943 5.6084 32.9873 5.6084 33.6436 6.2373C34.9014 7.46777 36.1318 8.71191 37.3623 9.95605C37.8135 10.4072 37.9502 10.9404 37.7178 11.5146C37.5127 12.0479 37.0752 12.335 36.2686 12.3486C36.0908 12.2529 35.6943 12.1162 35.4209 11.8564C34.1768 10.667 32.96 9.43652 31.7432 8.20605ZM50.7744 11.5967C50.6104 11.2139 50.6377 10.5029 50.8838 10.2158C52.21 8.7666 53.6045 7.39941 55.0264 6.0459C55.5459 5.55371 56.3389 5.69043 56.8037 6.20996C57.2822 6.72949 57.3232 7.44043 56.8174 8.01465C56.2979 8.61621 55.71 9.16309 55.1494 9.72363C54.4521 10.4209 53.7822 11.1318 53.0576 11.7881C52.7568 12.0615 52.3604 12.2393 51.8682 12.5264C51.4717 12.2119 50.9385 11.9795 50.7744 11.5967ZM26.4385 18.7197C26.4521 17.9404 27.0537 17.3936 27.9424 17.3936C28.8037 17.3799 29.665 17.3936 30.5264 17.3936C31.3877 17.3936 32.249 17.3799 33.1104 17.3936C34.0264 17.4072 34.6416 17.9814 34.6143 18.7881C34.6006 19.5674 33.999 20.1143 33.1104 20.1143C31.3877 20.1279 29.6514 20.1279 27.9287 20.1143C27.04 20.1006 26.4248 19.5127 26.4385 18.7197ZM55.2998 17.3799C57.0225 17.3662 58.7588 17.3662 60.4814 17.3799C61.3975 17.3799 62.0127 17.9678 61.9854 18.7744C61.9717 19.5537 61.3701 20.0869 60.4814 20.1006C59.6201 20.1143 58.7588 20.1006 57.8975 20.1006C57.0361 20.1006 56.1748 20.1143 55.3135 20.1006C54.3975 20.0869 53.7822 19.5127 53.8096 18.7061C53.8096 17.9268 54.4111 17.3936 55.2998 17.3799ZM14.1338 55.1416C14.1338 56.8643 14.1338 58.6006 14.1338 60.3232C14.1338 61.3213 13.6006 61.9365 12.7803 61.9502C11.9463 61.9502 11.4131 61.335 11.3994 60.3506C11.3994 56.8779 11.3994 53.3916 11.3994 49.9189C11.3994 48.9209 11.9326 48.3057 12.7529 48.292C13.5732 48.292 14.1201 48.9072 14.1338 49.8916C14.1338 51.6416 14.1338 53.3916 14.1338 55.1416ZM11.3994 44.1494C11.4131 43.3975 12.0693 42.7822 12.8213 42.8232C13.5459 42.8643 14.1338 43.4932 14.1201 44.2178C14.1064 44.9697 13.4502 45.585 12.6982 45.5439C11.9736 45.5029 11.3857 44.874 11.3994 44.1494Z" fill="url(#paint0_linear_202_581)"/>
<defs>
<linearGradient id="paint0_linear_202_581" x1="11.6518" y1="60.0217" x2="58.5696" y2="19.8979" gradientUnits="userSpaceOnUse">
<stop stop-color="#AD2E59"/>
<stop offset="1" stop-color="#009AFD"/>
</linearGradient>
</defs>
</svg>
