<svg width="44" height="71" viewBox="0 0 44 71" fill="none" xmlns="http://www.w3.org/2000/svg">
<path d="M43.5067 50.6729C42.8095 60.2158 36.3153 67.5439 27.0185 69.8408C26.3622 70.0049 25.6923 70.1279 25.036 70.2646C24.7216 70.2646 24.3935 70.2646 24.079 70.2646C23.5868 69.9365 23.163 69.5537 23.3271 68.8838C23.5048 68.2002 24.0653 68.0361 24.6806 67.9404C32.9794 66.751 39.2821 60.8721 40.9775 52.6416C41.2372 51.3975 41.3056 50.1123 41.3192 48.8408C41.3603 44.4248 41.3466 39.9951 41.3329 35.5791C41.3329 33.9385 40.5673 32.7627 39.2138 32.2432C37.0263 31.3818 34.7157 32.8994 34.5927 35.292C34.5653 36.0029 34.5927 36.7002 34.579 37.4111C34.5653 38.2314 34.1278 38.7646 33.4442 38.7646C32.7743 38.7646 32.2958 38.2451 32.2821 37.4248C32.2548 35.9619 32.2958 34.5127 32.2685 33.0498C32.2411 31.5732 31.3525 30.3838 29.9579 29.9189C28.5907 29.4678 27.0732 29.8779 26.2665 31.0947C25.87 31.6826 25.6376 32.4619 25.5829 33.1729C25.4735 34.5811 25.5556 35.9893 25.5556 37.4111C25.5556 38.0127 25.3642 38.4912 24.7353 38.6826C23.9013 38.9424 23.2587 38.3682 23.2587 37.3428C23.245 35.1553 23.2724 32.9678 23.245 30.7803C23.2314 29.208 22.1786 27.9502 20.661 27.5811C18.6103 27.0752 16.5732 28.5928 16.5321 30.7119C16.4911 32.8584 16.5185 34.9912 16.5185 37.1377C16.5185 37.4111 16.4911 37.6846 16.4228 37.9443C16.286 38.4912 15.8759 38.751 15.37 38.751C14.8232 38.751 14.413 38.4502 14.2763 37.8896C14.2216 37.6299 14.2216 37.3428 14.2216 37.0693C14.2216 29.7549 14.2216 22.4404 14.2216 15.126C14.2216 12.9521 12.622 11.4482 10.5165 11.5986C8.97159 11.708 7.6044 13.0889 7.5087 14.6338C7.49503 14.9482 7.49503 15.2764 7.49503 15.5908C7.49503 25.708 7.49503 35.8252 7.49503 45.9424C7.49503 46.2568 7.48136 46.585 7.413 46.8857C7.27628 47.4736 6.75675 47.8701 6.22354 47.7744C5.62198 47.6787 5.23917 47.3096 5.21182 46.6807C5.18448 46.0928 5.19815 45.4912 5.19815 44.9033C5.19815 42.9619 5.19815 41.0342 5.19815 39.0928C4.11807 39.2432 3.01065 40.4736 3.01065 41.7178C3.01065 45.2861 2.65518 48.8818 3.28409 52.4229C4.03604 56.6611 6.05948 60.2432 9.24503 63.1416C12.1571 65.7803 15.5888 67.3525 19.4716 67.9268C20.1005 68.0225 20.7021 68.1045 20.9482 68.8018C21.1806 69.4717 20.7021 69.8408 20.3603 70.2646C19.9911 70.2646 19.6357 70.2646 19.2665 70.2646C18.5009 70.0869 17.7216 69.9365 16.956 69.7314C9.14933 67.626 4.03604 62.6768 1.54776 55.0205C0.918856 53.0654 0.65909 51.0283 0.672762 48.9639C0.686434 46.8037 0.672762 44.6299 0.672762 42.4697C0.672762 39.5713 2.09464 37.6025 4.84268 36.6865C4.95206 36.6455 5.04776 36.6045 5.18448 36.5498C5.18448 36.2764 5.18448 36.0029 5.18448 35.7295C5.18448 28.8525 5.17081 21.9756 5.18448 15.085C5.18448 12.0088 7.26261 9.69824 10.2841 9.31543C13.1689 8.94629 16.1357 11.2158 16.3681 14.1143C16.5321 16.0557 16.4774 18.0244 16.5048 19.9795C16.5185 22.0303 16.5048 24.0811 16.5048 26.2412C18.0907 25.2432 19.7314 24.874 21.495 25.4209C23.2314 25.9541 24.4208 27.1025 25.1728 28.8252C26.704 27.6084 28.3993 27.1436 30.286 27.6084C32.1591 28.0732 33.4169 29.29 34.1142 30.8486C35.2216 30.4658 36.2607 29.9463 37.3407 29.7822C40.4853 29.3174 43.4384 31.7373 43.5204 34.7998C43.7118 40.1045 43.8896 45.4092 43.5067 50.6729ZM10.7626 7.03223C11.2958 7.11426 11.8017 6.73145 11.9521 6.14355C12.0067 5.9248 12.0204 5.69238 12.0204 5.47363C12.0204 4.27051 12.0067 3.06738 12.0341 1.86426C12.0478 1.16699 11.8564 0.620117 11.2274 0.264648C10.954 0.264648 10.6806 0.264648 10.4071 0.264648C10.1884 0.633789 9.77823 1.00293 9.76456 1.37207C9.6962 2.88965 9.70987 4.40723 9.73722 5.93848C9.76456 6.56738 10.161 6.93652 10.7626 7.03223ZM3.87198 10.04C4.09073 10.2451 4.67862 10.2314 4.99307 10.0947C5.30753 9.95801 5.48526 9.52051 5.67667 9.27441C5.58097 8.97363 5.55362 8.80957 5.48526 8.67285C5.4169 8.53613 5.3212 8.39941 5.21182 8.27637C4.20011 7.2373 3.17472 6.19824 2.12198 5.18652C1.60245 4.68066 0.987215 4.68066 0.522372 5.10449C0.0985435 5.50098 -0.0245034 6.12988 0.385653 6.58105C1.52042 7.77051 2.66886 8.93262 3.87198 10.04ZM17.1474 10.3545C17.4892 10.2178 17.7489 10.1904 17.8993 10.0537C19.0751 8.90527 20.2372 7.77051 21.3583 6.58105C21.7685 6.14355 21.6591 5.58301 21.2353 5.17285C20.8251 4.7627 20.2646 4.63965 19.8271 5.0498C18.6376 6.1709 17.4755 7.31934 16.3681 8.52246C16.163 8.74121 16.163 9.3291 16.2997 9.64355C16.4501 9.94434 16.8739 10.1357 17.1474 10.3545Z" fill="url(#paint0_linear_202_579)"/>
<defs>
<linearGradient id="paint0_linear_202_579" x1="7.87841" y1="60.1331" x2="49.5379" y2="35.4452" gradientUnits="userSpaceOnUse">
<stop stop-color="#AD2E59"/>
<stop offset="1" stop-color="#009AFD"/>
</linearGradient>
</defs>
</svg>
