<svg width="70" height="71" viewBox="0 0 70 71" fill="none" xmlns="http://www.w3.org/2000/svg">
<path d="M7.04799 39.3178C9.40081 39.5954 11.7975 39.4639 14.1795 39.4639C14.8371 39.4639 15.2609 38.9524 15.2609 38.2364C15.2755 34.3929 15.2755 30.5495 15.2609 26.7207C15.2609 25.9462 14.8079 25.5224 14.0188 25.4931C13.668 25.4785 13.3173 25.4931 12.8789 25.4931C13.2881 16.9149 16.9123 10.2802 24.3653 6.17373C32.1545 1.87728 40.0605 2.22801 47.4843 7.15285C53.9436 11.4347 57.0563 17.704 57.334 25.5078C56.8956 25.5078 56.5595 25.4931 56.2234 25.5078C55.4342 25.537 54.9812 25.9608 54.9666 26.7207C54.952 30.5787 54.952 34.4514 54.9666 38.3094C54.9666 39.0401 55.4342 39.4493 56.1795 39.4931C56.5302 39.5078 56.8956 39.4931 57.2902 39.4931C57.2902 40.633 57.2902 41.6706 57.2902 42.7082C57.2902 43.7458 56.881 44.1549 55.8288 44.1549C53.3298 44.1549 50.8163 44.1549 48.3173 44.1696C47.952 44.1696 47.7181 44.0965 47.5282 43.7165C46.8705 42.4744 45.8037 41.8606 44.3862 41.8314C43.6117 41.8167 42.8371 41.8167 42.048 41.8314C40.1336 41.8752 38.6284 43.4096 38.6138 45.2948C38.5991 47.2092 40.1044 48.7729 42.048 48.8314C42.8517 48.846 43.6555 48.8606 44.4593 48.8314C45.8037 48.7875 46.8559 48.1883 47.4843 47.0046C47.7035 46.5808 47.952 46.4931 48.3904 46.4931C50.0856 46.5078 51.7954 46.4347 53.4906 46.5224C58.7223 46.7854 59.906 45.5871 59.6284 40.4138C59.6138 40.1362 59.6284 39.8439 59.6284 39.4931C60.5783 39.4931 61.4551 39.5224 62.3173 39.4931C66.4384 39.3178 69.5511 35.4597 68.8497 31.4117C68.2505 27.9483 65.4593 25.5516 61.9373 25.5078C61.1774 25.4931 60.4029 25.5078 59.6576 25.5078C59.5991 24.7186 59.5699 24.0318 59.4968 23.3595C58.62 13.086 51.4739 4.52237 41.5073 1.86267C39.9874 1.45348 38.4092 1.27812 36.8601 0.98584C35.691 0.98584 34.5219 0.98584 33.3528 0.98584C32.4614 1.11736 31.5845 1.24889 30.6931 1.39503C21.4133 2.9587 13.4488 10.4263 11.3444 19.6038C10.906 21.5036 10.7307 23.4618 10.4238 25.4931C9.69308 25.4931 8.84548 25.4639 7.99789 25.4931C4.47597 25.6101 1.52398 28.4744 1.29016 31.9671C1.04173 35.562 3.52607 38.894 7.04799 39.3178ZM44.4885 46.4931C44.4447 46.4931 44.3862 46.4931 44.3424 46.4931C43.977 46.4931 43.6117 46.4931 43.2463 46.4931C42.8517 46.4931 42.4718 46.5224 42.0772 46.4931C41.3904 46.4493 40.9373 45.9378 40.952 45.2948C40.9666 44.681 41.4196 44.1988 42.0772 44.1842C42.881 44.1549 43.6847 44.1549 44.4885 44.1842C45.1753 44.2134 45.6284 44.7395 45.6138 45.3679C45.5991 45.9671 45.1461 46.4201 44.4885 46.4931ZM61.9958 27.8752C64.4217 27.7729 66.5699 29.8627 66.6284 32.3616C66.6868 34.9629 64.6409 37.1111 61.9958 37.1403C61.9958 34.013 61.9958 30.9441 61.9958 27.8752ZM57.3486 27.8752C58.0647 27.8752 58.7954 27.8752 59.5991 27.8752C59.5991 30.9733 59.5991 34.0276 59.5991 37.1111C58.8538 37.1111 58.1378 37.1111 57.3486 37.1111C57.3486 34.0714 57.3486 31.0025 57.3486 27.8752ZM10.6576 27.8606C11.4175 27.8606 12.1482 27.8606 12.9081 27.8606C12.9081 30.9441 12.9081 33.9984 12.9081 37.0965C12.192 37.0965 11.4614 37.0965 10.6576 37.0965C10.6576 34.0568 10.6576 30.9879 10.6576 27.8606ZM8.23171 27.8606C8.23171 30.9295 8.23171 34.013 8.23171 37.1257C5.64507 37.1257 3.58452 35.0067 3.59914 32.4347C3.62837 29.9211 5.73275 27.8167 8.23171 27.8606ZM68.4551 50.1466C66.9645 48.5975 64.6993 48.2468 62.7703 49.3428C60.1837 50.8042 57.6409 52.2948 55.0689 53.7854C53.8559 54.4869 52.643 55.1883 51.3862 55.9044C50.5824 54.7353 49.4572 54.1654 48.1712 53.8293C43.1002 52.4848 38.0146 51.1988 32.9874 49.752C30.5031 49.0359 28.0918 48.919 25.6221 49.6936C24.1753 50.1466 22.6701 50.4389 21.1211 50.8334C21.1211 50.2197 21.1211 49.6936 21.1211 49.1529C21.1064 48.0568 20.7265 47.6623 19.6158 47.6623C17.0146 47.6623 14.4133 47.6623 11.8121 47.6623C9.56156 47.6623 9.56156 47.6623 9.41542 50.0005C9.13776 50.0005 8.88933 50.0005 8.65551 50.0005C6.3173 50.0005 3.99371 50.0005 1.65551 50.0005C0.501017 50.0005 0.106445 50.3804 0.106445 51.5203C0.106445 56.7228 0.106445 61.9253 0.106445 67.1278C0.106445 68.2823 0.486403 68.6623 1.62628 68.6623C3.96448 68.6623 6.28807 68.6623 8.62628 68.6623C8.88933 68.6623 9.13776 68.6623 9.43004 68.6623C9.43004 68.9984 9.43004 69.2468 9.43004 69.4806C9.44465 70.6059 9.82461 70.9858 10.9791 70.9858C13.8434 70.9858 16.7223 70.9858 19.5866 70.9858C20.6826 70.9858 21.0918 70.5913 21.0918 69.5098C21.0918 69.1153 21.0918 68.7207 21.0918 68.2238C21.7202 68.5307 22.1879 68.8376 22.714 68.9837C23.8685 69.3053 25.0522 69.7583 26.2359 69.7729C32.0668 69.8606 37.9123 69.8167 43.7432 69.8021C45.1607 69.8021 46.4906 69.466 47.7181 68.7499C54.2651 64.9796 60.8121 61.2092 67.3298 57.395C68.0021 57.0005 68.6012 56.4013 69.0396 55.7437C70.2087 54.0339 69.9165 51.6518 68.4551 50.1466ZM9.40081 66.2802C7.12106 66.2802 4.8267 66.2802 2.48849 66.2802C2.48849 61.6769 2.48849 57.0443 2.48849 52.3679C4.81208 52.3679 7.09183 52.3679 9.40081 52.3679C9.40081 57.0005 9.40081 61.6038 9.40081 66.2802ZM18.739 68.633C16.43 68.633 14.1503 68.633 11.8267 68.633C11.8267 62.4514 11.8267 56.2698 11.8267 50.0297C14.1503 50.0297 16.43 50.0297 18.739 50.0297C18.739 56.2405 18.739 62.4222 18.739 68.633ZM66.1315 55.466C59.643 59.2217 53.1545 63.0067 46.6221 66.6894C45.7599 67.1863 44.6492 67.4493 43.6409 67.4493C37.9269 67.5224 32.2129 67.4639 26.4989 67.4931C24.833 67.5078 23.4739 66.7332 22.0417 66.0756C21.311 65.7541 21.0772 65.3595 21.0918 64.5558C21.1503 61.0631 21.1211 57.5558 21.1211 54.0631C21.1211 53.8 21.1211 53.537 21.1211 53.2155C23.5616 52.6163 25.9436 51.9879 28.3549 51.4618C29.7286 51.1549 31.0438 51.6664 32.3591 52.0172C37.5323 53.4055 42.7202 54.7938 47.8935 56.1821C49.1064 56.5036 49.7787 57.2197 49.8664 58.2426C50.0271 59.9524 48.5365 61.1654 46.8121 60.7124C44.2547 60.0401 41.6973 59.3387 39.1545 58.6518C37.1816 58.1257 35.2234 57.5996 33.2505 57.0735C32.4175 56.8543 31.8037 57.1466 31.6284 57.8334C31.4384 58.5495 31.8183 59.0902 32.6367 59.324C37.2108 60.5516 41.7703 61.7938 46.3591 62.9775C49.3695 63.752 52.073 61.6915 52.2338 58.5934C52.2484 58.3449 52.453 58.0088 52.6722 57.8773C56.3841 55.7144 60.1106 53.5662 63.8371 51.418C65.0647 50.7165 66.4822 51.0673 67.1399 52.2071C67.7682 53.3762 67.3737 54.7499 66.1315 55.466ZM30.4593 39.1863C30.4593 40.2677 30.8685 40.6623 31.9645 40.6623C33.0167 40.6623 34.0543 40.6623 35.1064 40.6623C36.2025 40.6623 37.2985 40.6623 38.3945 40.6623C39.3883 40.6476 39.7975 40.2385 39.7975 39.2301C39.8121 38.061 39.7829 36.8919 39.8121 35.7374C39.8121 35.5036 39.9582 35.2698 40.0313 35.0359C40.2651 35.1529 40.5574 35.2113 40.7327 35.3867C41.5511 36.1758 42.3549 36.9942 43.1586 37.7979C43.9039 38.5286 44.5031 38.5433 45.2338 37.8126C46.7536 36.3073 48.2588 34.7875 49.7641 33.2823C50.5094 32.5224 50.524 31.9671 49.7787 31.2071C48.9457 30.3595 48.0835 29.5266 47.2505 28.679C47.1044 28.5328 47.0605 28.2844 46.9728 28.0798C47.1774 27.9921 47.382 27.846 47.5866 27.846C48.7996 27.8167 50.0125 27.846 51.2254 27.8314C52.1753 27.8167 52.6138 27.4076 52.6138 26.4577C52.6284 24.2656 52.6284 22.0881 52.6138 19.8961C52.6138 18.9316 52.19 18.5078 51.2401 18.5078C50.0271 18.4931 48.8142 18.5224 47.6012 18.4931C47.3966 18.4931 47.192 18.347 46.9728 18.2739C47.0605 18.0693 47.0897 17.8209 47.2359 17.6748C48.0689 16.8126 48.9165 15.9942 49.7641 15.1466C50.5094 14.3867 50.5094 13.8314 49.7641 13.086C48.2588 11.5662 46.739 10.061 45.2338 8.55578C44.4593 7.78125 43.9186 7.79586 43.1148 8.585C42.2818 9.40338 41.4781 10.251 40.6305 11.0547C40.4843 11.2009 40.2359 11.2447 40.0313 11.3324C39.9436 11.1278 39.7975 10.9232 39.7829 10.7186C39.7536 9.50567 39.7829 8.29273 39.7682 7.07979C39.7536 6.11528 39.3444 5.69148 38.3945 5.69148C36.2025 5.67686 34.025 5.67686 31.833 5.69148C30.8538 5.69148 30.4447 6.11528 30.43 7.13824C30.43 8.30734 30.4446 9.47645 30.4154 10.6309C30.4154 10.8648 30.2693 11.0986 30.1962 11.3324C29.977 11.2301 29.6993 11.1863 29.5386 11.0255C28.6764 10.2071 27.858 9.34492 27.0104 8.51194C26.309 7.82509 25.7244 7.82509 25.0522 8.49732C23.5031 10.0318 21.954 11.5808 20.405 13.1299C19.7035 13.846 19.7035 14.4159 20.4342 15.1466C21.238 15.965 22.0563 16.7541 22.8455 17.5725C23.0209 17.7625 23.1085 18.0401 23.2401 18.2739C22.9624 18.3616 22.6993 18.5224 22.4217 18.5224C21.311 18.5516 20.1858 18.537 19.0751 18.537C18.0083 18.537 17.5991 18.9316 17.5991 19.9691C17.5991 22.132 17.5991 24.2948 17.5991 26.4577C17.5991 27.4514 18.0229 27.8606 19.0313 27.8606C20.215 27.8752 21.4133 27.846 22.597 27.8752C22.8163 27.8752 23.0208 28.0067 23.2254 28.0798C23.1231 28.299 23.0793 28.5767 22.9332 28.7374C22.1294 29.585 21.2818 30.3888 20.4634 31.2217C19.7181 31.9817 19.7035 32.5516 20.4342 33.2823C21.954 34.8167 23.4885 36.3512 25.0229 37.871C25.739 38.5725 26.309 38.5725 27.0396 37.8564C27.8726 37.038 28.6764 36.1904 29.524 35.3867C29.6993 35.2259 29.9478 35.1529 30.167 35.0359C30.2547 35.2844 30.4154 35.5328 30.4154 35.7812C30.4739 36.8919 30.4447 38.0318 30.4593 39.1863ZM28.1649 33.3992C27.4634 34.1007 26.7766 34.8167 26.0897 35.5036C24.9791 34.3783 23.9123 33.3115 22.787 32.1863C23.5908 31.3971 24.4238 30.5495 25.2568 29.7165C26.0459 28.9274 26.0897 28.6497 25.6221 27.6706C25.4906 27.4076 25.3737 27.1445 25.2714 26.8668C24.7599 25.5516 24.6868 25.4931 23.2401 25.4931C22.2171 25.4931 21.1941 25.4931 20.1712 25.4931C20.1273 25.4931 20.0689 25.4785 19.9666 25.4639C19.9666 23.9587 19.9666 22.4389 19.9666 20.8314C21.1064 20.8314 22.2609 20.8314 23.43 20.8314C24.6138 20.8314 24.7891 20.6998 25.1983 19.6184C25.2714 19.443 25.3298 19.2531 25.4175 19.0777C26.2651 17.441 25.9728 17.324 24.8476 16.2134C24.1461 15.5119 23.43 14.8251 22.7432 14.1529C23.8684 13.0276 24.9206 11.9608 26.0459 10.8355C26.8789 11.6685 27.7265 12.5161 28.5887 13.3783C29.3048 14.0944 29.6263 14.1529 30.5177 13.7144C30.7954 13.5829 31.0877 13.4514 31.3799 13.3345C32.6952 12.823 32.739 12.7499 32.7536 11.3032C32.7536 10.2802 32.7536 9.25724 32.7536 8.23427C32.7536 8.19043 32.7682 8.14659 32.7829 8.02968C34.2881 8.02968 35.8079 8.02968 37.4154 8.02968C37.4154 9.22801 37.4154 10.4263 37.4154 11.6393C37.4154 12.6476 37.6054 12.8815 38.5553 13.2322C38.9645 13.3783 39.3591 13.5537 39.7536 13.7583C40.4112 14.0944 40.952 13.9921 41.4634 13.466C42.3403 12.56 43.2463 11.6831 44.1085 10.8209C45.263 11.9462 46.3152 13.013 47.4551 14.1529C46.6367 14.9712 45.7745 15.8188 44.9123 16.6664C44.1962 17.3825 44.1378 17.6894 44.5762 18.5954C44.7077 18.8731 44.8392 19.1654 44.9561 19.4577C45.4676 20.7729 45.5407 20.8167 46.9874 20.8167C48.0543 20.8167 49.1211 20.8167 50.2463 20.8167C50.2463 22.3658 50.2463 23.871 50.2463 25.4785C49.048 25.4785 47.8497 25.4785 46.6367 25.4785C45.6284 25.4785 45.3945 25.6539 45.0438 26.6184C44.8977 27.0276 44.7223 27.4222 44.5177 27.8167C44.1816 28.4744 44.2839 29.0151 44.81 29.5266C45.716 30.4034 46.6075 31.2948 47.4697 32.1424C46.3444 33.2677 45.2776 34.3345 44.167 35.4451C43.3486 34.6268 42.501 33.7792 41.6388 32.9169C40.9227 32.2009 40.6012 32.1424 39.7098 32.5662C39.4175 32.6977 39.1399 32.8293 38.8476 32.9462C37.5323 33.4577 37.4739 33.5161 37.4739 34.9775C37.4739 36.0443 37.4739 37.1111 37.4739 38.2364C35.9394 38.2364 34.4196 38.2364 32.8121 38.2364C32.8121 37.1111 32.8121 35.9858 32.8121 34.846C32.8121 33.56 32.7098 33.4284 31.5407 32.9754C31.3799 32.9169 31.2192 32.8585 31.073 32.7854C29.3778 31.9671 29.2755 32.2739 28.1649 33.3992ZM14.1064 65.7541C14.1064 64.5558 14.4718 64.0151 15.2609 64.0005C16.0501 64.0005 16.43 64.5558 16.43 65.7395C16.43 66.9378 16.0647 67.4931 15.2755 67.4931C14.4864 67.4931 14.1064 66.9378 14.1064 65.7541ZM42.1211 23.1988C42.1503 19.3846 39.0376 16.1988 35.238 16.1549C31.3653 16.1111 28.1649 19.2092 28.1211 23.038C28.0772 26.9107 31.1753 30.1111 35.0042 30.1549C38.906 30.1988 42.0918 27.086 42.1211 23.1988ZM30.4593 23.0965C30.4739 20.5537 32.5783 18.4931 35.1357 18.4931C37.7077 18.4931 39.8121 20.5975 39.7975 23.1842C39.7829 25.7562 37.6639 27.846 35.0918 27.8314C32.5052 27.8021 30.43 25.6831 30.4593 23.0965Z" fill="url(#paint0_linear_202_585)"/>
<defs>
<linearGradient id="paint0_linear_202_585" x1="12.4793" y1="60.8543" x2="59.9013" y2="15.957" gradientUnits="userSpaceOnUse">
<stop stop-color="#AD2E59"/>
<stop offset="1" stop-color="#009AFD"/>
</linearGradient>
</defs>
</svg>
