<svg width="70" height="63" viewBox="0 0 70 63" fill="none" xmlns="http://www.w3.org/2000/svg">
<path d="M22.4431 54.7588C22.4294 55.6881 21.8554 56.3031 21.0081 56.2895C20.1608 56.2758 19.6278 55.6608 19.6415 54.7042C19.6551 53.7885 20.2564 53.1325 21.0628 53.1599C21.8827 53.1735 22.4567 53.8295 22.4431 54.7588ZM15.4459 6.88566C15.3092 6.20235 14.7762 5.79236 14.0929 5.79236C13.2319 5.79236 12.699 6.38001 12.699 7.36398C12.699 11.3819 12.699 31.7994 12.699 35.8036C12.699 39.3842 12.699 42.9785 12.699 46.559C12.699 47.1467 12.6716 47.7343 12.7126 48.322C12.7673 49.0053 13.3549 49.5383 14.0246 49.5656C14.6669 49.6066 15.2819 49.1693 15.4322 48.5133C15.5006 48.2127 15.5142 47.8847 15.5142 47.5703C15.5142 39.7669 15.5142 15.5638 15.5142 7.76031C15.5006 7.45965 15.5006 7.15899 15.4459 6.88566ZM27.9779 53.1462C27.1579 53.1462 26.584 53.8022 26.584 54.7315C26.584 55.6881 27.1306 56.2895 27.9916 56.2758C28.8389 56.2758 29.3856 55.6608 29.3856 54.7178C29.3856 53.7885 28.7979 53.1462 27.9779 53.1462ZM22.3884 6.89933C22.2654 6.22968 21.7324 5.79236 21.0491 5.77869C20.1608 5.76502 19.6415 6.35268 19.6278 7.39132C19.6278 11.4092 19.6278 31.8267 19.6278 35.831C19.6278 38.9195 19.6278 41.9945 19.6278 45.0831C19.6278 46.1217 19.6141 47.174 19.6415 48.2127C19.6688 48.9643 20.2838 49.5383 21.0081 49.552C21.7187 49.5656 22.2927 49.06 22.4021 48.322C22.4431 48.0487 22.4431 47.7753 22.4431 47.502C22.4431 39.7259 22.4431 15.5365 22.4431 7.76031C22.4431 7.48698 22.4431 7.18632 22.3884 6.89933ZM34.9204 53.1462C34.0868 53.1462 33.5265 53.8022 33.5265 54.7315C33.5265 55.6745 34.0731 56.2758 34.9341 56.2758C35.7814 56.2758 36.3281 55.6608 36.3281 54.7178C36.3281 53.7885 35.7541 53.1462 34.9204 53.1462ZM29.3446 6.94033C29.2489 6.27068 28.7159 5.80602 28.0326 5.79236C27.1169 5.76502 26.584 6.35268 26.584 7.44598C26.584 11.4366 26.584 31.8404 26.584 35.831C26.584 39.7532 26.584 43.6891 26.584 47.6113C26.584 47.8847 26.5703 48.158 26.6113 48.4313C26.707 49.0736 27.3083 49.5656 27.9506 49.5656C28.6066 49.5793 29.2079 49.101 29.3309 48.4723C29.3856 48.1853 29.3856 47.8847 29.3856 47.584C29.3856 39.7669 29.3856 15.5638 29.3856 7.74664C29.3856 7.47331 29.3856 7.19999 29.3446 6.94033ZM5.7428 54.9638C5.79746 55.7155 6.33045 56.2485 7.05476 56.2758C7.79275 56.3168 8.3804 55.8795 8.51706 55.1278C8.57173 54.8408 8.57173 54.5402 8.57173 54.2532C8.57173 44.2358 8.57173 17.8324 8.57173 7.81497C8.57173 7.51431 8.57173 7.22732 8.51706 6.94033C8.3804 6.17501 7.76541 5.72402 7.0001 5.79236C6.20745 5.86069 5.75646 6.44834 5.75646 7.44598C5.75646 12.5572 5.75646 34.068 5.75646 39.1655C5.75646 44.2084 5.75646 49.2513 5.75646 54.2805C5.74279 54.5128 5.72913 54.7315 5.7428 54.9638ZM0.0302679 8.53929C0.0439342 9.29094 0.481257 9.82392 1.15091 9.97425C1.75223 10.1109 2.43554 9.79659 2.68154 9.22261C2.80453 8.92195 2.84553 8.56662 2.8592 8.23863C2.87287 6.48934 2.87287 4.75371 2.87287 2.90876C3.20086 2.90876 3.41952 2.90876 3.63818 2.90876C5.25081 2.90876 6.86343 2.92243 8.47606 2.89509C9.39171 2.88143 9.97936 2.28011 9.97936 1.47379C9.97936 0.653814 9.37804 0.0934948 8.4624 0.0798284C6.15279 0.0661621 3.85684 0.0661621 1.5609 0.0798284C0.590588 0.0798284 0.0439342 0.626482 0.0302679 1.59679C0.0166016 2.29377 0.0166016 3.00442 0.0166016 3.70141C0.0166016 5.31403 0.0166016 6.92666 0.0302679 8.53929ZM8.83139 59.2141C8.57173 59.1594 8.28473 59.1594 8.02507 59.1594C6.34411 59.1594 4.66316 59.1594 2.87287 59.1594C2.87287 58.8314 2.87287 58.5854 2.87287 58.3531C2.87287 56.7678 2.88653 55.1825 2.87287 53.5835C2.8592 52.6815 2.25788 52.0666 1.46523 52.0529C0.672586 52.0529 0.0576006 52.6815 0.0439342 53.5562C0.0302679 55.8658 0.0302679 58.1891 0.0439342 60.4987C0.0439342 61.428 0.61792 61.9747 1.54723 61.9747C3.63818 61.9883 5.72913 61.9747 7.82008 61.9747C8.0934 61.9747 8.36673 61.9883 8.64006 61.961C9.37804 61.9063 9.92469 61.3733 9.97936 60.6627C10.0067 59.9657 9.5557 59.3644 8.83139 59.2141ZM14.0793 53.1462C13.2593 53.1599 12.6853 53.8158 12.699 54.7315C12.699 55.6745 13.2593 56.2758 14.1066 56.2758C14.9402 56.2621 15.5142 55.6335 15.5142 54.7042C15.5006 53.8022 14.8992 53.1462 14.0793 53.1462ZM55.8026 53.1462C54.9826 53.1325 54.3676 53.7885 54.3539 54.6905C54.3403 55.6198 54.9006 56.2621 55.7342 56.2758C56.5952 56.2895 57.1555 55.6881 57.1692 54.7452C57.1829 53.8159 56.6226 53.1735 55.8026 53.1462ZM64.1117 7.06332C64.0434 6.35268 63.5377 5.83335 62.8407 5.79236C62.0891 5.73769 61.5014 6.16135 61.3511 6.89933C61.2964 7.18632 61.2964 7.48698 61.2964 7.77397C61.2964 17.8051 61.2964 44.2494 61.2964 54.2805C61.2964 54.5675 61.2964 54.8682 61.3511 55.1552C61.5014 55.8931 62.0891 56.3168 62.8271 56.2621C63.647 56.2075 64.1117 55.6335 64.1117 54.6495C64.1117 49.5246 64.1117 44.3861 64.1117 39.2612C64.1117 34.2183 64.1117 12.7759 64.1117 7.74664C64.1254 7.51431 64.139 7.28199 64.1117 7.06332ZM57.1692 7.71931C57.1692 7.48698 57.1829 7.26832 57.1555 7.03599C57.0872 6.32534 56.5679 5.81969 55.8709 5.77869C55.1193 5.73769 54.5453 6.17501 54.4086 6.91299C54.3539 7.17266 54.3539 7.45965 54.3539 7.71931C54.3539 15.5501 54.3539 39.7669 54.3539 47.5977C54.3539 47.8847 54.3129 48.2263 54.4359 48.4723C54.6273 48.8276 54.8869 49.2376 55.2286 49.4153C56.1716 49.9073 57.1692 49.1693 57.1692 48.0077C57.1829 43.9761 57.1692 39.9309 57.1692 35.8993C57.1692 31.9771 57.1692 11.6415 57.1692 7.71931ZM68.1433 52.0939C67.4736 52.2442 67.05 52.7772 67.009 53.5289C66.9953 53.8432 67.009 54.1575 67.009 54.4855C67.009 56.0161 67.009 57.5604 67.009 59.1731C66.6946 59.1731 66.4486 59.1731 66.2027 59.1731C64.7267 59.1731 63.2507 59.1731 61.7748 59.1731C61.5698 59.1731 61.3648 59.1731 61.1598 59.2004C60.3535 59.3234 59.8478 59.9384 59.9025 60.7037C59.9571 61.428 60.5311 61.9883 61.3101 61.9883C63.4967 62.002 65.6697 61.961 67.8563 62.0156C68.7309 62.043 69.3869 61.797 69.8516 61.0453C69.8516 58.4077 69.8516 55.7701 69.8516 53.1462C69.8106 53.0642 69.7559 52.9959 69.7149 52.9139C69.3322 52.2579 68.7446 51.9572 68.1433 52.0939ZM68.3346 0.0661621C66.0113 0.0798284 63.7017 0.0661621 61.3784 0.0798284C60.5038 0.0798284 59.9161 0.653814 59.8888 1.4328C59.8615 2.22544 60.4218 2.84043 61.2828 2.88143C62.2121 2.92243 63.1414 2.89509 64.0707 2.89509C65.0137 2.89509 65.9703 2.89509 66.9816 2.89509C66.9816 3.20942 66.9816 3.45541 66.9816 3.70141C66.9816 5.2867 66.9816 6.88566 66.9816 8.47096C66.9816 9.05861 67.1866 9.61893 67.7469 9.79659C68.1706 9.93325 68.7173 9.89226 69.1546 9.74193C69.4416 9.64626 69.6056 9.22261 69.8379 8.93561C69.8379 6.29801 69.8379 3.66041 69.8379 1.03647C69.4689 0.517151 69.0726 0.0661621 68.3346 0.0661621ZM43.2705 35.8446C43.2705 31.9497 43.2705 11.6415 43.2705 7.74664C43.2705 7.50065 43.2705 7.24099 43.2432 6.99499C43.1612 6.28434 42.6282 5.80602 41.9176 5.77869C41.1659 5.75136 40.5919 6.21601 40.4963 6.95399C40.4689 7.17266 40.4689 7.40498 40.4689 7.63731C40.4689 15.5365 40.4689 39.8215 40.4689 47.7207C40.4689 47.953 40.4689 48.1717 40.5099 48.404C40.6466 49.2786 41.5349 49.7843 42.3549 49.47C43.0792 49.1966 43.2842 48.6226 43.2842 47.8983C43.2705 43.8804 43.2705 39.8625 43.2705 35.8446ZM50.1994 7.03599C50.1584 6.32534 49.6117 5.81969 48.9147 5.77869C48.1631 5.73769 47.5891 6.18868 47.4524 6.91299C47.4114 7.11799 47.4114 7.32298 47.4114 7.52798C47.4114 15.4955 47.4114 39.8489 47.4114 47.8163C47.4114 48.0623 47.4251 48.322 47.4934 48.5543C47.6438 49.1556 48.2451 49.5793 48.8737 49.5656C49.5297 49.5383 50.1037 49.0463 50.1994 48.4176C50.2404 48.1443 50.2267 47.871 50.2267 47.5977C50.2267 43.6754 50.2267 39.7532 50.2267 35.831C50.2267 32.3187 50.2267 12.3932 50.2267 8.88095C50.2267 8.26596 50.2404 7.65098 50.1994 7.03599ZM36.3007 6.95399C36.2051 6.28434 35.6857 5.81969 35.0024 5.77869C34.0868 5.73769 33.5265 6.33901 33.5265 7.40498C33.5128 11.4229 33.5265 31.8404 33.5265 35.8583C33.5265 39.7669 33.5265 43.6754 33.5265 47.5703C33.5265 47.8437 33.5265 48.117 33.5675 48.3903C33.6631 49.06 34.2918 49.5656 34.9614 49.552C35.6174 49.5383 36.1914 49.0463 36.3007 48.404C36.3417 48.1307 36.3417 47.8573 36.3417 47.584C36.3417 39.7532 36.3417 15.5091 36.3417 7.67831C36.328 7.44598 36.328 7.19999 36.3007 6.95399ZM41.8902 53.1462C41.0703 53.1462 40.4826 53.7885 40.4826 54.7178C40.4826 55.6608 41.0293 56.2758 41.8766 56.2758C42.7376 56.2758 43.2842 55.6745 43.2842 54.7315C43.2842 53.8022 42.7102 53.1599 41.8902 53.1462ZM48.8464 53.1462C48.0264 53.1325 47.4251 53.7885 47.4251 54.7042C47.4251 55.6335 47.9718 56.2758 48.8191 56.2758C49.6801 56.2895 50.2267 55.6881 50.2267 54.7315C50.2267 53.8022 49.6664 53.1599 48.8464 53.1462Z" fill="url(#paint0_linear_202_584)"/>
<defs>
<linearGradient id="paint0_linear_202_584" x1="12.4215" y1="53.051" x2="54.351" y2="8.08036" gradientUnits="userSpaceOnUse">
<stop stop-color="#AD2E59"/>
<stop offset="1" stop-color="#009AFD"/>
</linearGradient>
</defs>
</svg>
