<svg width="71" height="71" viewBox="0 0 71 71" fill="none" xmlns="http://www.w3.org/2000/svg">
<path d="M43.0331 69.4785C41.499 69.7889 39.9284 69.8985 38.3761 70.1177C38.2847 70.1359 38.2117 70.1725 38.1204 70.209C36.6593 70.209 35.1983 70.209 33.7373 70.209C32.4406 70.0264 31.1257 69.8985 29.829 69.6611C21.209 68.1088 14.1595 63.8718 8.62587 57.0963C8.07798 56.4205 8.07798 55.8361 8.60761 55.4161C9.13723 54.996 9.68511 55.1239 10.233 55.8179C14.5796 61.1689 20.0402 64.8762 26.6513 66.8121C44.5306 72.0718 63.3231 61.3332 67.8706 43.2713C71.998 26.8712 63.104 9.75895 47.1057 4.24357C33.993 -0.267354 22.1952 2.54513 12.2602 12.334C7.20137 17.338 4.29757 23.5474 3.31138 30.5786C2.34345 37.5733 3.51227 44.221 6.76306 50.5034C6.87263 50.7225 7.00047 50.9417 7.11005 51.1791C7.38399 51.7818 7.21963 52.3114 6.69001 52.5853C6.17865 52.8593 5.6125 52.6949 5.30203 52.1105C4.64457 50.8138 3.96884 49.5172 3.42096 48.1657C2.08777 44.8967 1.30247 41.4998 1.04679 37.9751C1.02852 37.7742 0.973734 37.5733 0.918945 37.3724C0.918945 35.9114 0.918945 34.4503 0.918945 32.9893C1.10157 31.7109 1.22941 30.4142 1.44857 29.1541C3.85926 15.1648 14.6709 3.9331 28.5689 0.992783C45.1333 -2.53195 61.6612 6.08812 68.2358 21.6846C76.728 41.865 64.4554 65.1684 43.0331 69.4785ZM33.5912 43.0339C33.5364 43.2348 33.5729 43.527 33.6825 43.6913C34.1391 44.3305 34.6687 44.9332 35.2714 45.7002C35.2714 43.1069 35.1983 40.678 35.3079 38.249C35.3627 36.9889 35.034 36.1853 33.993 35.3817C30.9796 33.0076 30.0299 29.1724 31.3996 25.2276C33.2259 19.9496 37.0794 16.8815 42.4304 15.6761C47.1605 14.5986 51.7993 15.2561 56.3102 16.918C56.6572 17.0458 57.059 17.4659 57.1137 17.7946C57.1503 18.1233 56.8581 18.6164 56.5659 18.8539C54.9405 20.0957 53.5342 21.5202 52.5115 23.3283C52.1462 23.9674 51.5436 24.1318 51.014 23.8031C50.5209 23.4926 50.3565 22.8899 50.7583 22.3055C51.7262 20.9358 52.7489 19.6026 53.8082 18.1964C52.8402 17.9955 51.7627 17.7033 50.667 17.5207C47.2153 16.9728 43.7819 17.0458 40.5311 18.4155C36.6228 20.0592 33.9747 22.8717 33.0616 27.1087C32.4772 29.8116 33.4268 32.4231 35.5453 33.9755C35.6549 33.4459 35.7462 32.9528 35.8558 32.4597C36.4585 29.9211 37.4812 27.5835 39.3988 25.7389C39.8736 25.2824 40.4215 24.8989 40.9694 24.5519C41.4807 24.2414 41.9556 24.424 42.266 24.8989C42.5765 25.392 42.5217 25.9216 42.0286 26.232C39.0883 28.1862 38.0839 31.163 37.5725 34.4138C37.536 34.633 37.4994 34.8521 37.4629 35.1443C39.4536 35.9661 41.4077 36.0027 43.3618 35.1078C45.7908 33.9938 47.2153 31.9848 48.1284 29.5741C48.2563 29.2089 48.3658 28.8254 48.5302 28.4784C48.7859 27.967 49.2059 27.7479 49.7721 27.9305C50.3382 28.1131 50.5939 28.5697 50.4295 29.1176C48.9868 34.3225 45.0237 38.0481 39.8553 37.7742C39.0518 37.7376 38.2482 37.5367 37.3351 37.4089C37.3351 37.6646 37.3351 37.9203 37.3351 38.1942C37.3351 44.2392 37.3351 50.266 37.3351 56.311C37.3351 56.5119 37.3351 56.7127 37.3351 56.9319C37.2985 57.5528 36.9333 57.9364 36.3671 57.9729C35.7827 57.9911 35.3262 57.6076 35.3079 56.9684C35.2714 56.2379 35.2896 55.5074 35.2896 54.7769C35.2896 53.7359 35.3262 52.6767 35.2896 51.6357C35.1983 49.1702 33.8469 47.2708 32.4041 45.3532C31.217 46.7777 29.8108 47.7457 28.0758 48.0744C25.1538 48.6406 22.6152 47.8005 20.4967 45.7733C19.5288 44.8419 18.6887 43.7826 17.8121 42.7599C16.7346 41.518 15.511 40.5866 13.849 40.2944C12.8811 40.1301 12.662 39.2535 13.3559 38.4134C15.4562 35.8383 18.1591 34.1946 21.3368 33.318C23.7658 32.6423 26.1947 32.6423 28.6054 33.4459C32.7511 34.8338 34.8148 38.7969 33.5912 43.0339ZM27.8749 35.3452C25.2268 34.4686 22.6152 34.7791 20.0949 35.8566C18.5061 36.5323 17.0816 37.4272 15.8032 38.6873C17.5016 39.4178 18.7252 40.6232 19.821 41.9746C20.241 42.486 20.6611 42.9791 21.0994 43.4904C22.1039 44.641 23.2727 45.5541 24.7885 45.9559C27.2357 46.6134 29.7012 45.7368 30.9248 43.6731C29.8108 42.9243 28.715 42.0842 27.5279 41.4633C26.5417 40.9519 25.4094 40.678 24.3319 40.3127C23.711 40.1118 23.364 39.6552 23.5101 39.0891C23.6562 38.4864 24.0762 38.249 24.6789 38.3038C24.8798 38.3221 25.0807 38.3586 25.2816 38.4134C27.4731 38.9247 29.3907 39.9657 31.1622 41.3354C31.3449 41.4815 31.5457 41.6094 31.7649 41.792C32.2945 38.7969 30.7787 36.2949 27.8749 35.3452Z" fill="url(#paint0_linear_202_580)"/>
<defs>
<linearGradient id="paint0_linear_202_580" x1="13.3586" y1="60.0774" x2="60.7938" y2="14.9251" gradientUnits="userSpaceOnUse">
<stop stop-color="#AD2E59"/>
<stop offset="1" stop-color="#009AFD"/>
</linearGradient>
</defs>
</svg>
