<svg width="71" height="71" viewBox="0 0 71 71" fill="none" xmlns="http://www.w3.org/2000/svg">
<path d="M70.914 32.9261C70.914 34.3867 70.914 35.8473 70.914 37.3078C70.7314 38.6041 70.6036 39.9186 70.3662 41.2149C68.8144 49.8322 64.5787 56.8795 57.8053 62.4114C57.1298 62.9591 56.5456 62.9591 56.1257 62.4297C55.7058 61.9002 55.8336 61.3525 56.5273 60.8048C61.8767 56.4596 65.5829 51.0007 67.5181 44.3916C72.7762 26.5179 62.041 7.73127 43.9847 3.18524C27.6263 -0.977387 10.5193 7.91384 5.00568 23.9071C0.477913 37.034 3.28951 48.8463 13.0753 58.76C18.0778 63.8172 24.2852 66.7201 31.3142 67.706C38.3067 68.6736 44.9523 67.5051 51.2328 64.2554C51.4518 64.1458 51.6709 64.018 51.9083 63.9085C52.5108 63.6346 53.0402 63.7989 53.3141 64.3284C53.5879 64.8396 53.4236 65.4056 52.8394 65.7159C51.5431 66.3732 50.2469 67.0487 48.8958 67.5964C45.6278 68.9292 42.232 69.7143 38.7084 69.9699C38.5075 69.9881 38.3067 70.0429 38.1059 70.0977C36.6453 70.0977 35.1847 70.0977 33.7242 70.0977C32.4462 69.9151 31.1499 69.7873 29.8902 69.5682C15.9052 67.1583 4.67705 56.3683 1.73766 42.4746C-1.78597 25.8971 6.8314 9.39267 22.423 2.8201C42.5971 -5.68773 65.8932 6.58107 70.2019 27.9967C70.5123 29.5303 70.6218 31.1004 70.8409 32.6523C70.8409 32.7435 70.8957 32.8348 70.914 32.9261ZM51.4153 28.1428C51.7987 27.6316 51.7074 26.9195 51.178 26.4996C47.7822 23.8158 43.9664 22.1179 39.6942 21.4424C38.8909 21.3146 38.0694 21.2416 37.2478 21.1503C36.3714 21.1503 35.4951 21.1503 34.637 21.1503C34.5275 21.1685 34.4179 21.205 34.3266 21.205C30.9308 21.4241 27.7176 22.337 24.6869 23.9071C23.2811 24.6374 21.9483 25.4955 20.7068 26.4996C20.2504 26.8648 20.1043 27.4307 20.3417 27.9237C20.579 28.4166 21.1085 28.6905 21.6379 28.5444C21.8753 28.4714 22.1126 28.3253 22.3317 28.161C25.6728 25.5685 29.452 24.0349 33.6511 23.5967C36.9739 23.2498 40.2237 23.6332 43.3639 24.7469C45.6826 25.5685 47.8004 26.7735 49.7357 28.2888C50.2834 28.7452 51.0137 28.654 51.4153 28.1428ZM32.793 47.0572C32.3001 47.5866 32.3366 48.3534 32.8843 48.7916C33.0121 48.9011 33.1764 48.9559 33.3225 49.0472C33.5233 49.0472 33.7059 49.0472 33.9067 49.0472C34.3997 48.609 34.8926 48.1891 35.3856 47.7509C35.5681 47.5866 35.7324 47.3858 35.8785 47.2397C36.6088 47.8605 37.2843 48.4629 37.9781 49.0472C38.1789 49.0472 38.3615 49.0472 38.5623 49.0472C39.6212 48.4629 39.7308 47.6961 38.8544 46.8381C38.4345 46.4181 38.0146 46.0165 37.5582 45.5783C38.0694 45.0671 38.544 44.6107 39.0005 44.1543C39.5482 43.6065 39.5847 42.8945 39.0918 42.4198C38.5988 41.9269 37.905 41.9817 37.3573 42.5294C36.9009 42.9858 36.4445 43.4605 35.9698 43.9352C35.8602 43.8256 35.769 43.7526 35.6777 43.6613C35.2578 43.2414 34.8561 42.8215 34.4179 42.4016C33.9432 41.9634 33.2495 41.9817 32.8113 42.4198C32.3731 42.858 32.3549 43.5518 32.7748 44.0265C33.0486 44.3368 33.3408 44.6289 33.6511 44.9028C33.8702 45.1219 34.1258 45.3045 34.3997 45.5235C34.0528 45.8704 33.7972 46.0895 33.5598 46.3269C33.286 46.5642 33.0304 46.8016 32.793 47.0572ZM47.0336 33.5834C47.4353 33.0539 47.3257 32.3419 46.7415 31.8855C43.5648 29.4025 39.9498 28.161 36.2436 28.1245C33.4138 28.1428 31.0221 28.654 28.74 29.6764C27.4072 30.2788 26.184 31.0274 25.0338 31.9402C24.5956 32.2871 24.4495 32.8531 24.6686 33.346C24.8877 33.839 25.4172 34.1493 25.9466 34.0033C26.2752 33.912 26.5674 33.6929 26.8412 33.4921C30.1275 31.1004 33.7789 30.0963 37.8138 30.5892C40.6071 30.9178 43.0901 32.0133 45.3174 33.7294C45.9199 34.1676 46.632 34.1128 47.0336 33.5834ZM41.6295 39.4439C42.1772 39.5169 42.6336 39.2066 42.8345 38.7136C43.017 38.2207 42.871 37.7095 42.3963 37.3261C40.4976 35.8473 38.3432 35.117 35.915 35.0805C33.5416 35.117 31.369 35.829 29.4702 37.3078C28.886 37.7643 28.7582 38.458 29.1599 38.9875C29.5798 39.5169 30.2736 39.59 30.8578 39.1518C34.0163 36.8149 37.7772 36.8149 40.954 39.1518C41.1731 39.2979 41.4104 39.4074 41.6295 39.4439Z" fill="url(#paint0_linear_202_583)"/>
<defs>
<linearGradient id="paint0_linear_202_583" x1="13.3812" y1="59.9661" x2="60.814" y2="14.8617" gradientUnits="userSpaceOnUse">
<stop stop-color="#AD2E59"/>
<stop offset="1" stop-color="#009AFD"/>
</linearGradient>
</defs>
</svg>
