<svg width="71" height="71" viewBox="0 0 71 71" fill="none" xmlns="http://www.w3.org/2000/svg">
<path d="M69.376 32.463C67.749 30.754 66.04 29.0997 64.3584 27.4181C63.1143 26.174 61.6787 25.9552 60.3525 26.7755C58.999 27.6232 58.5889 29.0314 59.1904 30.713C59.2314 30.8361 59.2725 30.9728 59.3271 31.1505C56.2373 31.1505 53.1885 31.1505 50.167 31.1505C49.7842 30.2618 49.3877 29.4005 49.0459 28.5118C48.9912 28.3615 49.0186 28.088 49.1143 27.9923C51.1787 25.9005 53.2568 23.8224 55.3896 21.6896C55.5264 21.9493 55.6357 22.1681 55.7451 22.3732C56.4287 23.754 57.7002 24.3829 59.1768 24.0822C60.5713 23.8087 61.5967 22.6876 61.624 21.1974C61.6787 18.3536 61.6787 15.4962 61.624 12.6525C61.5967 10.9298 60.2568 9.64465 58.5342 9.63098C55.7588 9.60364 52.9697 9.60364 50.1943 9.63098C48.6357 9.64465 47.46 10.629 47.1729 12.0919C46.8721 13.5958 47.5283 14.881 48.9502 15.5646C49.1279 15.6466 49.3193 15.7286 49.5518 15.8517C49.3877 16.0294 49.2783 16.1935 49.1279 16.3302C47.2412 18.2169 45.3545 20.09 43.4814 21.9904C43.1533 22.3322 42.9072 22.3595 42.4834 22.1544C41.7178 21.7716 40.8975 21.4708 40.0771 21.129C40.0771 18.1212 40.0771 15.0724 40.0771 11.9962C40.6104 12.1193 41.1299 12.3107 41.6494 12.3517C43.0029 12.4747 43.9736 11.8458 44.6025 10.6837C45.2041 9.56262 45.0947 8.23645 44.2061 7.32043C42.1416 5.18762 40.0361 3.1095 37.917 1.04504C37.5752 0.716919 37.0557 0.552856 36.6318 0.320435C36.1807 0.320435 35.7158 0.320435 35.2646 0.320435C34.5537 0.826294 33.7744 1.26379 33.1455 1.86536C31.4092 3.51965 29.7412 5.22864 28.0596 6.92395C26.8154 8.16809 26.583 9.58997 27.417 10.9298C28.2646 12.2833 29.6729 12.6935 31.3545 12.0919C31.4775 12.0509 31.6143 12.0099 31.792 11.9689C31.792 15.0587 31.792 18.1075 31.792 21.129C30.9033 21.5118 30.042 21.9083 29.1533 22.2638C29.0029 22.3185 28.7295 22.2911 28.6338 22.1818C26.542 20.1173 24.4639 18.0392 22.3311 15.9064C22.6045 15.7697 22.8096 15.6603 23.0146 15.5509C24.3955 14.8673 25.0244 13.5958 24.7236 12.1193C24.4365 10.7111 23.3154 9.69934 21.8389 9.672C18.9951 9.63098 16.1377 9.61731 13.2939 9.672C11.585 9.69934 10.2998 11.0255 10.2725 12.7618C10.2314 15.5372 10.2451 18.3263 10.2725 21.1017C10.2861 22.6329 11.2568 23.8087 12.665 24.1232C14.1963 24.4513 15.5088 23.795 16.2061 22.3595C16.2881 22.1818 16.3838 22.004 16.4932 21.7579C16.6982 21.9357 16.8623 22.0861 17.0127 22.2365C18.8721 24.0822 20.7041 25.9552 22.5772 27.7872C22.96 28.1564 22.9873 28.4298 22.7412 28.8947C22.3584 29.6329 22.085 30.4396 21.7568 31.2325C18.7354 31.2325 15.6865 31.2325 12.6104 31.2325C12.7334 30.713 12.9111 30.2208 12.9658 29.715C13.1162 28.3888 12.4463 27.2404 11.2432 26.6525C10.0811 26.0782 8.78223 26.2423 7.8252 27.172C5.77441 29.1818 3.75098 31.2052 1.74121 33.2697C1.37207 33.6388 1.19434 34.1993 0.920898 34.6642C0.920898 35.1154 0.920898 35.5802 0.920898 36.0314C1.44043 36.756 1.8916 37.549 2.50684 38.2052C4.13379 39.9142 5.84277 41.5685 7.52441 43.2501C8.76855 44.4943 10.2041 44.713 11.5303 43.879C12.8838 43.0314 13.2939 41.6232 12.6924 39.9279C12.6514 39.8048 12.6104 39.6681 12.5557 39.4493C14.1006 39.4493 15.6182 39.4493 17.1357 39.4493C18.667 39.4493 20.1846 39.4493 21.7158 39.4493C22.126 40.379 22.5361 41.2814 22.9053 42.1974C22.96 42.3204 22.8916 42.5665 22.7959 42.6622C20.7314 44.754 18.6533 46.8185 16.5205 48.965C16.3838 48.6915 16.2744 48.4865 16.165 48.2677C15.4814 46.8868 14.21 46.2579 12.7334 46.5587C11.3252 46.8458 10.3135 47.9532 10.2861 49.4435C10.2314 52.2872 10.2314 55.1447 10.2861 57.9884C10.3135 59.7111 11.6396 60.9962 13.376 61.0099C16.1514 61.0509 18.9404 61.0372 21.7158 61.0099C23.2471 60.9962 24.4229 60.0255 24.7373 58.6173C25.0654 57.0861 24.4229 55.7872 22.9736 55.0763C22.7959 54.9943 22.6045 54.9122 22.3721 54.8029C22.5088 54.6388 22.6182 54.4884 22.7412 54.3654C24.6416 52.465 26.5557 50.5646 28.4287 48.6505C28.7568 48.3087 29.0029 48.295 29.4268 48.5001C30.1924 48.8829 30.999 49.1837 31.833 49.5255C31.833 49.6212 31.8604 49.7579 31.8604 49.8947C31.8604 52.8068 31.8604 55.7189 31.8604 58.672C31.3408 58.5353 30.876 58.3575 30.3975 58.3029C29.0576 58.1388 27.9229 58.7677 27.3076 59.9572C26.7061 61.1329 26.8564 62.4591 27.7998 63.4298C29.7959 65.4669 31.8057 67.4767 33.8428 69.4591C34.2393 69.8419 34.7998 70.047 35.2783 70.3204C35.7295 70.3204 36.1943 70.3204 36.6455 70.3204C37.3701 69.8009 38.1631 69.3497 38.8193 68.7345C40.5283 67.1075 42.1826 65.3986 43.8643 63.7169C45.1084 62.4728 45.3271 61.0372 44.4932 59.7111C43.6455 58.3575 42.251 57.9474 40.5557 58.549C40.4326 58.59 40.2959 58.631 40.1182 58.672C40.1182 55.6095 40.1182 52.5743 40.1182 49.5118C40.9932 49.129 41.8955 48.7189 42.8115 48.3497C42.9346 48.295 43.1807 48.3634 43.2764 48.4591C45.3682 50.5236 47.4326 52.6017 49.5654 54.7482C49.3193 54.8712 49.1279 54.9669 48.9365 55.0626C47.501 55.7599 46.8447 57.0724 47.1729 58.6036C47.4736 60.0118 48.6631 60.9825 50.1943 60.9962C52.9697 61.0236 55.7588 61.0372 58.5342 60.9962C60.2842 60.9689 61.6104 59.6564 61.624 57.9064C61.665 55.131 61.6514 52.3419 61.624 49.5665C61.6104 48.0079 60.626 46.8322 59.1631 46.545C57.6592 46.2443 56.374 46.9005 55.6904 48.3087C55.6084 48.4865 55.5127 48.6779 55.4033 48.9103C55.2256 48.7462 55.0615 48.6368 54.9248 48.5001C53.0381 46.6134 51.165 44.7267 49.2646 42.8536C48.9228 42.5255 48.8955 42.2794 49.1006 41.8556C49.4834 41.09 49.7842 40.2833 50.126 39.4493C53.1338 39.4493 56.1963 39.4493 59.2588 39.4493C59.1357 39.9552 58.958 40.4474 58.9033 40.9532C58.7529 42.2521 59.3955 43.3732 60.5713 43.9747C61.7334 44.5763 63.0459 44.4532 63.9893 43.5372C66.0811 41.5001 68.1318 39.4357 70.1689 37.3439C70.5244 36.9884 70.6885 36.4552 70.9482 36.004C70.9482 35.5529 70.9482 35.088 70.9482 34.6368C70.4424 33.9122 69.9912 33.1056 69.376 32.463ZM68.5146 36.1134C66.6006 38.0411 64.6865 39.9552 62.7725 41.8693C62.3623 42.2794 61.9111 42.3751 61.4189 42.047C60.9541 41.7325 60.8857 41.295 61.0771 40.7892C61.3232 40.1466 61.5693 39.5177 61.8018 38.8751C62.1025 38.0001 61.665 37.3712 60.7354 37.3712C56.9756 37.3575 53.2158 37.3712 49.4561 37.3575C48.7725 37.3575 48.458 37.6857 48.2393 38.3009C47.8018 39.5177 47.2959 40.7072 46.749 41.8693C46.4619 42.4845 46.4893 42.9357 46.9678 43.4005C49.6201 46.0392 52.2451 48.6915 54.8975 51.3165C55.6084 52.0275 56.3603 51.8771 56.7978 50.9611C57.0713 50.3868 57.3311 49.799 57.5771 49.2247C57.8096 48.6915 58.1924 48.4454 58.7666 48.5548C59.3408 48.6642 59.5596 49.047 59.5596 49.5802C59.5596 52.3146 59.5732 55.049 59.5596 57.7833C59.5596 58.5353 59.2041 58.8634 58.4521 58.8634C55.7451 58.8771 53.0244 58.8634 50.3174 58.8634C49.7842 58.8634 49.374 58.6857 49.251 58.1115C49.1279 57.5099 49.3604 57.1134 49.9346 56.8673C50.5225 56.6212 51.0967 56.3615 51.6709 56.088C52.5596 55.6642 52.7236 54.9259 52.04 54.2286C49.3877 51.5626 46.7217 48.9103 44.0693 46.2443C43.6318 45.8068 43.1807 45.7521 42.5928 46.0255C41.4033 46.5861 40.1865 47.0919 38.9561 47.5431C38.3271 47.7755 38.0264 48.1036 38.0264 48.7872C38.04 52.5197 38.0264 56.2657 38.04 59.9982C38.04 60.9962 38.6689 61.42 39.626 61.0782C40.2412 60.8595 40.8564 60.6134 41.4717 60.381C41.9775 60.1896 42.415 60.2853 42.7158 60.7501C43.0166 61.215 42.9346 61.6661 42.5518 62.049C40.624 63.9904 38.6963 65.9181 36.7549 67.8458C36.2217 68.379 35.7295 68.379 35.1963 67.8458C33.2549 65.9181 31.3271 63.9904 29.3994 62.049C29.0166 61.6661 28.9209 61.2286 29.2217 60.7501C29.5498 60.2443 30.001 60.1759 30.5342 60.3947C31.1631 60.6407 31.8057 60.8868 32.4482 61.1193C33.2822 61.4064 33.9111 60.9689 33.9111 60.0802C33.9248 56.2931 33.9111 52.5197 33.9248 48.7325C33.9248 48.09 33.6104 47.7755 33.0088 47.5568C31.7783 47.1056 30.5615 46.5997 29.3721 46.0392C28.7842 45.7657 28.333 45.7931 27.8955 46.2443C25.2432 48.9103 22.5771 51.5626 19.9248 54.2286C19.2412 54.9122 19.4053 55.6642 20.2803 56.0743C20.8818 56.3615 21.4834 56.6212 22.085 56.881C22.6182 57.1134 22.8369 57.5236 22.7139 58.0978C22.5908 58.6583 22.1807 58.8497 21.6475 58.8497C18.9404 58.8497 16.2197 58.8634 13.5127 58.8497C12.7197 58.8497 12.3916 58.5079 12.3916 57.7013C12.3779 55.0079 12.3916 52.3282 12.3916 49.6349C12.3916 49.0743 12.5693 48.6368 13.1709 48.5275C13.7861 48.4181 14.1553 48.6915 14.3877 49.2521C14.6338 49.8673 14.9072 50.4689 15.1943 51.0568C15.5635 51.8087 16.3291 51.9865 16.9307 51.3986C19.6514 48.7052 22.3584 45.9982 25.0518 43.2911C25.4482 42.881 25.4482 42.4435 25.2158 41.924C24.6553 40.6798 24.1494 39.422 23.6572 38.1642C23.4521 37.631 23.1377 37.3439 22.5498 37.3439C18.749 37.3439 14.9346 37.3439 11.1338 37.3575C10.2861 37.3575 9.84863 37.9865 10.1221 38.7794C10.3408 39.4493 10.6006 40.1056 10.8604 40.7618C11.0518 41.2677 10.9834 41.7052 10.5186 42.0197C10.0264 42.3615 9.5752 42.2521 9.16504 41.8556C7.25098 39.9415 5.32324 38.0275 3.42285 36.0997C2.87598 35.5392 2.8623 35.047 3.42285 34.5001C5.33691 32.5724 7.25098 30.6583 9.16504 28.7443C9.5752 28.3341 10.0264 28.2384 10.5186 28.5665C10.9834 28.881 11.0518 29.3185 10.8604 29.8243C10.6143 30.4669 10.3682 31.0958 10.1357 31.7384C9.83496 32.6134 10.2725 33.2286 11.2021 33.2423C13.0889 33.256 14.9893 33.2423 16.876 33.2423C18.6943 33.2423 20.5264 33.2423 22.3447 33.2423C23.2334 33.2423 23.4111 33.0372 23.7119 32.2306C24.1494 31.0411 24.6416 29.8654 25.1885 28.7306C25.4756 28.1154 25.4482 27.6642 24.9697 27.1993C22.3174 24.5607 19.6924 21.9083 17.04 19.2833C16.3154 18.5724 15.5771 18.7228 15.1533 19.6525C14.8799 20.2267 14.6201 20.8146 14.374 21.3888C14.1416 21.922 13.7588 22.1681 13.1846 22.0587C12.624 21.9493 12.3916 21.5665 12.3916 21.0333C12.3916 18.299 12.3779 15.5646 12.3916 12.8302C12.3916 12.0782 12.7334 11.7501 13.499 11.7501C16.2061 11.7365 18.9268 11.7501 21.6338 11.7501C22.167 11.7501 22.5771 11.9279 22.7002 12.5021C22.8232 13.1036 22.5771 13.5138 22.0166 13.7462C21.415 14.006 20.7998 14.2657 20.2119 14.5529C19.4053 14.9357 19.2412 15.7013 19.8564 16.3302C22.5361 19.0372 25.2295 21.7169 27.9229 24.4103C28.3467 24.8341 28.7979 24.8341 29.3447 24.5743C30.5615 24.0138 31.792 23.5079 33.0498 23.0431C33.6104 22.8243 33.9111 22.5099 33.9111 21.8947C33.9111 18.1075 33.9111 14.3341 33.8975 10.547C33.8975 9.63098 33.2549 9.20715 32.3799 9.52161C31.7373 9.75403 31.1084 10.0001 30.4658 10.2462C29.96 10.4376 29.5225 10.3419 29.2217 9.87708C28.9209 9.41223 28.9893 8.97473 29.3857 8.57825C31.3135 6.63684 33.2412 4.70911 35.1826 2.78137C35.7158 2.24817 36.208 2.24817 36.7412 2.7677C38.6826 4.66809 40.6104 6.6095 42.5381 8.5509C42.9209 8.93372 43.0166 9.37122 42.7158 9.84973C42.3877 10.3556 41.9365 10.424 41.4033 10.2052C40.7744 9.95911 40.1318 9.71301 39.4893 9.49426C38.6553 9.20715 38.0264 9.64465 38.0264 10.5333C38.0127 14.3204 38.0264 18.0939 38.0127 21.881C38.0127 22.5236 38.3408 22.838 38.9287 23.0568C40.1592 23.5079 41.376 24.0138 42.5654 24.5743C43.1533 24.8478 43.6045 24.8204 44.042 24.3693C46.6943 21.7169 49.3603 19.0646 52.0127 16.3849C52.6963 15.7013 52.5322 14.9493 51.6572 14.5255C51.0693 14.2384 50.4541 13.9786 49.8525 13.7189C49.3193 13.4865 49.1006 13.0763 49.2236 12.5157C49.3467 11.9552 49.7432 11.7638 50.2764 11.7638C52.9834 11.7638 55.7041 11.7501 58.4111 11.7638C59.2041 11.7638 59.5322 12.1056 59.5322 12.9122C59.5459 15.6056 59.5322 18.2853 59.5322 20.9786C59.5322 21.5392 59.3545 21.9767 58.7529 22.0861C58.1377 22.1954 57.7686 21.922 57.5361 21.3615C57.3037 20.7736 57.0303 20.1993 56.7568 19.6251C56.3604 18.7911 55.5947 18.6271 54.9385 19.2697C52.2588 21.9357 49.5791 24.6154 46.9131 27.2814C46.4619 27.7325 46.4619 28.1837 46.7353 28.7579C47.2959 29.9474 47.7881 31.1642 48.2529 32.3947C48.4717 32.9962 48.7998 33.2833 49.4424 33.2833C53.2021 33.2697 56.9619 33.2833 60.7217 33.2697C61.6514 33.2697 62.0889 32.6544 61.7881 31.7794C61.5693 31.1368 61.3096 30.5079 61.0635 29.8654C60.8721 29.3595 60.9268 28.922 61.3916 28.6075C61.8838 28.2657 62.335 28.3615 62.7451 28.7716C64.6592 30.6857 66.5869 32.5997 68.4873 34.5275C69.0615 35.0743 69.0615 35.5665 68.5146 36.1134ZM35.9482 26.7482C31.2725 26.7618 27.376 30.6583 27.3896 35.3204C27.4033 39.9962 31.2998 43.8927 35.9756 43.879C40.6514 43.8654 44.5479 39.9689 44.5342 35.3068C44.5205 30.631 40.624 26.7482 35.9482 26.7482ZM35.9756 41.7736C32.3799 41.7736 29.5088 38.9161 29.5088 35.3204C29.5088 31.7247 32.3662 28.8536 35.9619 28.8536C39.5713 28.8536 42.4287 31.6974 42.4287 35.3068C42.4287 38.9161 39.5713 41.7736 35.9756 41.7736Z" fill="url(#paint0_linear_202_582)"/>
<defs>
<linearGradient id="paint0_linear_202_582" x1="13.36" y1="60.1889" x2="60.7951" y2="15.0388" gradientUnits="userSpaceOnUse">
<stop stop-color="#AD2E59"/>
<stop offset="1" stop-color="#009AFD"/>
</linearGradient>
</defs>
</svg>
