<svg width="72" height="71" viewBox="0 0 72 71" fill="none" xmlns="http://www.w3.org/2000/svg">
<path d="M68.2761 31.891C67.7369 31.7491 67.1693 31.7633 66.5875 31.7066C64.7002 26.9813 62.7987 22.256 60.8831 17.5307C60.6702 17.0056 60.6844 16.6935 61.0817 16.2394C62.5433 14.5933 62.4582 12.3087 60.9398 10.8897C59.4215 9.47072 57.1227 9.48491 55.5618 11.0032C55.2071 11.3438 54.9658 11.287 54.5827 11.131C49.8574 9.10177 45.1321 7.07259 40.3926 5.0576C39.9527 4.87313 39.7683 4.64609 39.7541 4.13525C39.6405 2.10607 37.8242 0.460019 35.8234 0.488399C33.8226 0.516779 32.1482 2.17702 32.1056 4.22039C32.0914 4.73123 31.9353 4.95827 31.4671 5.14274C26.9688 6.94488 22.4847 8.74702 18.0149 10.5917C17.4047 10.8472 17.0216 10.8472 16.4682 10.3931C14.8789 9.07339 12.5943 9.27206 11.2178 10.7478C9.8272 12.252 9.81301 14.494 11.2604 15.9982C11.601 16.3529 11.5016 16.5941 11.3597 16.9205C9.31636 21.6742 7.28718 26.4279 5.25799 31.1815C5.08771 31.5789 4.90324 31.7491 4.43497 31.7633C2.27808 31.8201 0.688791 33.5371 0.717171 35.694C0.745551 37.7941 2.41998 39.4402 4.54849 39.426C5.00257 39.426 5.20123 39.5679 5.37152 39.9652C7.21623 44.5628 9.07513 49.1604 10.9482 53.7579C11.0901 54.1269 11.1043 54.3681 10.8063 54.6945C9.37312 56.2554 9.38731 58.4974 10.7921 59.9448C12.2679 61.4631 14.5525 61.5767 16.1702 60.186C16.4823 59.9164 16.7094 59.8597 17.0925 60.03C21.903 62.1017 26.7276 64.1451 31.5522 66.1884C31.9211 66.3445 32.1624 66.5006 32.1056 66.9405C32.0914 67.125 32.1482 67.3095 32.1908 67.4939C32.6165 69.1542 33.78 70.0481 35.3693 70.488C35.7525 70.488 36.1214 70.488 36.5045 70.488C36.5897 70.4455 36.6748 70.4029 36.76 70.3745C38.6331 69.8353 39.6831 68.5724 39.7683 66.6425C39.7824 66.1601 40.0662 66.0749 40.3926 65.933C45.0328 64.0741 49.6871 62.2152 54.3273 60.3421C54.682 60.2002 54.9233 60.186 55.2496 60.4698C56.7963 61.8179 59.0384 61.747 60.4574 60.3279C61.8622 58.9373 61.9899 56.7237 60.6844 55.1769C60.3439 54.7654 60.3581 54.4816 60.5425 54.0559C62.5433 49.3874 64.5157 44.7189 66.4882 40.0361C66.6726 39.5962 66.8713 39.3976 67.3963 39.3834C69.2978 39.3692 70.9297 37.8651 71.1283 36.0487C71.327 34.1331 70.1492 32.3735 68.2761 31.891ZM58.1728 11.9114C59.1093 11.9256 59.8046 12.6493 59.7904 13.6C59.7763 14.5224 58.9816 15.3028 58.0593 15.2886C57.1653 15.2745 56.4558 14.5082 56.4842 13.5575C56.5125 12.6351 57.2504 11.9114 58.1728 11.9114ZM35.9937 2.67367C36.9019 2.71624 37.5972 3.46831 37.583 4.41905C37.5688 5.3414 36.76 6.10767 35.8234 6.07929C34.8443 6.05091 34.2057 5.38397 34.2341 4.39067C34.2483 3.38317 35.0146 2.6311 35.9937 2.67367ZM14.1268 11.7269C15.035 11.7695 15.787 12.55 15.7445 13.4439C15.7019 14.3663 14.8647 15.1609 13.9707 15.1184C13.0625 15.0616 12.353 14.267 12.3814 13.3588C12.4098 12.3655 13.1477 11.6844 14.1268 11.7269ZM4.50592 37.2975C3.62614 37.2975 2.87406 36.4886 2.88825 35.5805C2.91663 34.7007 3.66871 33.9486 4.5343 33.9486C5.42828 33.9486 6.19454 34.729 6.18035 35.6372C6.18035 36.5312 5.3999 37.2975 4.50592 37.2975ZM13.6301 59.0225C12.6368 59.0225 11.9415 58.3555 11.9415 57.4048C11.9415 56.4682 12.722 55.7162 13.6727 55.7304C14.5809 55.7445 15.3471 56.525 15.3329 57.419C15.3188 58.3555 14.6234 59.0225 13.6301 59.0225ZM35.9653 68.5014C35.0855 68.5298 34.2767 67.721 34.2909 66.8412C34.3051 65.9756 35.0713 65.2235 35.9369 65.2235C36.8167 65.2235 37.5688 65.9756 37.583 66.8412C37.583 67.6926 36.8167 68.473 35.9653 68.5014ZM57.7187 59.3488C56.8531 59.3488 56.101 58.5968 56.0868 57.7312C56.0727 56.8514 56.8673 56.0567 57.7471 56.0567C58.6411 56.0567 59.3506 56.7662 59.3647 57.6744C59.3647 58.5826 58.6127 59.363 57.7187 59.3488ZM64.5583 39.0003C62.5291 43.8533 60.4574 48.7063 58.3998 53.5451C58.3573 53.6302 58.3147 53.7154 58.2579 53.8289C55.6611 53.4883 53.7455 55.4607 53.9016 58.2988C51.6879 59.1927 49.4601 60.1009 47.2322 60.9949C44.678 62.0308 42.1096 63.0666 39.5554 64.1167C39.229 64.2586 39.002 64.287 38.6898 63.989C37.1289 62.499 34.8585 62.5132 33.3402 64.0174C33.0138 64.3437 32.7867 64.3579 32.3752 64.1876C27.6357 62.1301 22.8821 60.1009 18.1142 58.0859C17.6885 57.9014 17.504 57.6886 17.5182 57.2061C17.575 55.3898 15.9289 53.2471 13.6159 53.3748C13.4315 53.389 13.1335 53.0768 13.0342 52.864C11.4307 48.9759 9.84139 45.0878 8.26629 41.1997C7.99668 40.5186 7.72707 39.8375 7.42908 39.1705C7.2588 38.7874 7.27299 38.5178 7.55679 38.163C8.91903 36.446 8.83389 34.5304 7.38651 32.8843C7.2588 32.7424 7.20204 32.4161 7.27299 32.2316C9.33055 27.3786 11.4023 22.5398 13.5024 17.7151C13.5876 17.5165 13.9281 17.3036 14.1552 17.2894C16.2979 17.1475 17.7595 15.7853 17.9297 13.6142C17.9723 13.1601 18.1426 12.9615 18.5399 12.8054C23.1659 10.9465 27.7776 9.08758 32.3894 7.21449C32.7584 7.0584 33.0138 7.08678 33.3402 7.3422C35.0288 8.67607 36.9019 8.64769 38.5763 7.25706C38.931 6.95907 39.1865 6.95907 39.5696 7.12935C44.2523 9.13015 48.9492 11.131 53.6461 13.1034C54.086 13.2878 54.2847 13.5149 54.3273 14.0115C54.4834 15.8704 55.9875 17.3178 57.8748 17.4313C58.3289 17.4597 58.5275 17.6158 58.6836 18.0131C60.5709 22.7526 62.4866 27.4779 64.3738 32.2174C64.459 32.4444 64.459 32.8418 64.3171 33.0262C63.0542 34.729 63.0826 36.5596 64.3738 38.2482C64.5725 38.4043 64.6576 38.7874 64.5583 39.0003ZM67.2686 37.3258C66.3888 37.3116 65.651 36.5596 65.6651 35.6798C65.6793 34.8142 66.4456 34.0479 67.3112 34.0479C68.191 34.0479 68.9998 34.8851 68.9572 35.7507C68.9147 36.6163 68.1484 37.34 67.2686 37.3258ZM55.4199 31.6214C54.6395 31.5789 53.859 31.5079 53.0785 31.5079C52.6812 31.5079 52.5109 31.3802 52.369 31.0112C51.9433 29.9044 51.4893 28.826 50.9926 27.7617C50.8365 27.4212 50.8649 27.2225 51.1061 26.9671C51.6453 26.3995 52.1704 25.8177 52.667 25.2359C53.2346 24.5831 53.2346 24.1007 52.6387 23.5047C51.3332 22.1708 50.0135 20.8512 48.6796 19.5457C48.0836 18.9497 47.5728 18.9639 46.9342 19.5173C46.2247 20.1417 45.5294 20.766 44.9051 21.3194C43.5712 20.7944 42.3225 20.3119 41.0879 19.7727C40.8751 19.6876 40.648 19.3612 40.6197 19.1342C40.5487 18.3821 40.5771 17.6158 40.5345 16.8637C40.4778 15.9698 40.0662 15.5724 39.1865 15.5724C37.3701 15.5583 35.5396 15.5583 33.7233 15.5724C32.7726 15.5724 32.4036 15.9414 32.361 16.8921C32.3327 17.6442 32.3327 18.4105 32.2617 19.1625C32.2475 19.3612 32.063 19.6308 31.8786 19.7018C30.7434 20.2268 29.594 20.7093 28.4304 21.1775C28.2317 21.2485 27.8912 21.1917 27.7209 21.064C27.1533 20.6099 26.6282 20.0991 26.0748 19.6024C25.3511 18.9639 24.7977 18.9639 24.1024 19.6308C22.8395 20.8512 21.5908 22.0715 20.342 23.2918C19.6467 23.973 19.6325 24.4554 20.2853 25.1791C20.8955 25.8603 21.5056 26.5414 22.0874 27.1941C21.7752 27.8611 21.4773 28.457 21.2218 29.053C20.9664 29.6632 20.7394 30.2876 20.5407 30.9119C20.4272 31.2809 20.2285 31.437 19.8312 31.437C19.0933 31.4228 18.3696 31.4511 17.6317 31.4937C16.7094 31.5363 16.2979 31.962 16.2979 32.8701C16.2979 34.6865 16.2837 36.517 16.2979 38.3333C16.2979 39.2273 16.681 39.6246 17.575 39.6672C18.3271 39.7098 19.0933 39.6956 19.8454 39.7381C20.0441 39.7523 20.342 39.8659 20.3988 40.0219C20.9522 41.3416 21.4631 42.6755 22.0165 44.0519C21.4914 44.6479 20.8955 45.2865 20.3137 45.9392C19.6751 46.6629 19.6751 47.2163 20.3562 47.9116C21.605 49.1745 22.8537 50.4233 24.1166 51.672C24.8119 52.3673 25.266 52.3815 26.0181 51.7146C26.6992 51.1044 27.3803 50.4942 28.0331 49.9124C28.7142 50.2246 29.296 50.5226 29.9062 50.778C30.5163 51.0334 31.1265 51.2747 31.7651 51.4591C32.1624 51.5727 32.2759 51.7855 32.2759 52.1687C32.2759 52.9065 32.3043 53.6302 32.3468 54.3681C32.3894 55.2763 32.8151 55.702 33.7375 55.702C35.5396 55.702 37.3276 55.702 39.1297 55.702C40.0804 55.702 40.4778 55.3472 40.5203 54.3965C40.5629 53.6444 40.5345 52.8782 40.6055 52.1261C40.6197 51.9132 40.8325 51.6294 41.017 51.5443C42.2657 51.0051 43.5428 50.5226 44.9334 49.9834C45.5294 50.5084 46.1822 51.1186 46.8633 51.7146C47.516 52.2822 48.0695 52.3106 48.6796 51.7146C50.0135 50.4091 51.3332 49.0894 52.6387 47.7555C53.2204 47.1737 53.2204 46.6913 52.6812 46.0669C52.1562 45.4567 51.5886 44.8891 51.0777 44.2648C50.95 44.0945 50.8933 43.7539 50.9642 43.5553C51.3899 42.4343 51.9008 41.3416 52.3265 40.2206C52.4684 39.8517 52.6387 39.6956 53.036 39.6956C53.7881 39.6956 54.5543 39.6814 55.3064 39.6388C56.1436 39.5962 56.5693 39.1564 56.5835 38.3333C56.5977 36.517 56.5977 34.6865 56.5835 32.8701C56.6261 32.1039 56.1862 31.664 55.4199 31.6214ZM54.2705 37.5529C53.3765 37.5954 52.5393 37.6664 51.6879 37.6806C51.0352 37.6948 50.6662 37.9928 50.5527 38.6171C50.2263 40.3909 49.5168 41.9944 48.5377 43.4985C48.1546 44.0945 48.2113 44.5911 48.708 45.0878C49.2898 45.6696 49.8432 46.294 50.3824 46.8758C49.5026 47.7413 48.6371 48.5786 47.7147 49.4867C47.1755 49.0043 46.5511 48.4509 45.9126 47.8974C45.2172 47.2873 44.9618 47.2589 44.153 47.7555C42.7198 48.6495 41.2015 49.3306 39.527 49.657C38.704 49.8273 38.4911 50.0969 38.4486 50.9767C38.406 51.7713 38.3634 52.5802 38.3209 53.4174C37.0863 53.4174 35.8944 53.4174 34.6173 53.4174C34.5747 52.5944 34.5463 51.7997 34.5037 51.0051C34.4754 50.1537 34.2483 49.8557 33.4253 49.6712C31.7509 49.3023 30.1758 48.6495 28.7426 47.7272C28.104 47.3156 27.579 47.344 27.0398 47.8974C26.4722 48.465 25.8762 48.9901 25.3228 49.5151C24.4572 48.6353 23.62 47.7839 22.6976 46.8474C23.1517 46.3791 23.6767 45.8115 24.2017 45.2581C24.8403 44.577 24.8971 44.1654 24.3862 43.3708C23.4922 41.966 22.8395 40.4618 22.5273 38.8158C22.3996 38.1063 21.9739 37.709 21.1934 37.709C20.3988 37.709 19.6042 37.6238 18.7669 37.5813C18.7669 36.3467 18.7669 35.1406 18.7669 33.7641C19.5758 33.7641 20.3704 33.7783 21.1651 33.7641C22.059 33.7499 22.3287 33.5513 22.4989 32.7141C22.8679 31.0112 23.5348 29.4362 24.4714 27.9604C24.8687 27.3502 24.8261 26.8252 24.3011 26.3143C23.7193 25.7325 23.1801 25.1082 22.6266 24.5264C23.5206 23.6324 24.3578 22.781 25.2518 21.887C25.8194 22.4121 26.4154 22.9513 26.9688 23.5189C27.4797 24.0439 28.0331 24.1149 28.629 23.7459C30.1332 22.8236 31.7225 22.1283 33.4537 21.7451C34.149 21.589 34.4895 21.1491 34.4754 20.4255C34.4612 19.645 34.4754 18.8645 34.4754 18.0415C35.8092 18.0415 37.0012 18.0415 38.2925 18.0415C38.3351 18.8504 38.406 19.7018 38.4202 20.539C38.4344 21.2201 38.7466 21.6032 39.3851 21.7451C41.1589 22.1283 42.8049 22.8236 44.3233 23.8027C44.8625 24.1433 45.345 24.0439 45.799 23.6182C46.395 23.0506 46.991 22.483 47.5302 21.9722C48.4242 22.8661 49.2756 23.7176 50.1696 24.6115C49.7155 25.1082 49.1621 25.69 48.6087 26.2718C47.9985 26.9387 47.9559 27.2225 48.4384 27.9604C49.3749 29.4078 50.0277 30.9687 50.3966 32.6431C50.5385 33.31 50.9217 33.5938 51.5886 33.6222C52.4542 33.6506 53.334 33.7216 54.2279 33.7641C54.2705 35.027 54.2705 36.2758 54.2705 37.5529ZM36.4904 26.6691C31.5522 26.6691 27.4513 30.7558 27.4371 35.694C27.4229 40.6179 31.5096 44.7047 36.462 44.7189C41.4143 44.7331 45.4869 40.6605 45.4869 35.7082C45.4869 30.6991 41.4711 26.6691 36.4904 26.6691ZM36.4052 42.4059C32.6732 42.3775 29.6365 39.2699 29.6649 35.5237C29.6933 31.7775 32.7867 28.755 36.5471 28.7834C40.2791 28.8118 43.33 31.9336 43.3016 35.6656C43.2732 39.3834 40.1656 42.4201 36.4052 42.4059Z" fill="url(#paint0_linear_202_577)"/>
<defs>
<linearGradient id="paint0_linear_202_577" x1="13.228" y1="60.3565" x2="60.6758" y2="14.9324" gradientUnits="userSpaceOnUse">
<stop stop-color="#AD2E59"/>
<stop offset="1" stop-color="#009AFD"/>
</linearGradient>
</defs>
</svg>
