<svg width="71" height="71" viewBox="0 0 71 71" fill="none" xmlns="http://www.w3.org/2000/svg">
<path d="M51.8545 64.8823C52.2196 65.6671 51.9275 66.525 51.0149 66.89C49.0254 67.6749 47.0359 68.478 45.0099 69.0986C42.6553 69.8287 40.2095 70.1572 37.7454 70.2667C37.5264 70.285 37.3074 70.3397 37.0701 70.3762C36.3035 70.3762 35.5186 70.3762 34.752 70.3762C33.5656 70.2485 32.361 70.1389 31.1746 69.9747C24.6402 69.062 18.7995 66.5432 13.7253 62.3269C6.80764 56.5409 2.57309 49.1852 1.35018 40.278C-0.091761 29.6917 2.77386 20.2734 9.76452 12.1511C10.0018 11.8773 10.2391 11.6218 10.4946 11.3298C8.96142 11.3298 7.51948 11.3298 6.07754 11.3298C5.73075 11.3298 5.40221 11.348 5.05541 11.348C4.2158 11.3115 3.61347 10.7457 3.61347 9.94259C3.59522 9.13949 4.1793 8.5189 5.00065 8.46415C6.35133 8.40939 7.68375 8.39114 9.03443 8.35463C10.7136 8.31813 12.4111 8.28162 14.0903 8.24512C15.368 8.22687 16.0251 8.93871 15.7878 10.1799C15.222 13.1185 14.6197 16.0754 14.0173 19.014C13.8348 19.9266 13.123 20.456 12.3199 20.3282C11.462 20.1822 10.9509 19.4521 11.1152 18.503C11.3525 17.0975 11.6445 15.6921 11.8088 14.2136C11.2612 14.9072 10.6771 15.5826 10.1478 16.2944C5.45696 22.701 3.39444 29.8924 3.94202 37.7957C4.92764 52.3976 16.0251 64.5172 30.554 66.9448C37.0518 68.0217 43.2941 67.2003 49.2809 64.4807C49.4635 64.3894 49.646 64.2982 49.8468 64.2252C50.7046 63.8601 51.4895 64.1157 51.8545 64.8823ZM54.6471 23.5589C54.4646 24.654 54.4464 25.6214 54.6471 26.7165C54.9392 28.3957 54.8297 30.1662 54.7566 31.882C54.7201 32.5755 54.1543 33.2509 54.1543 33.9262C54.1543 34.5833 54.7201 35.2404 54.7566 35.9157C54.8479 37.4489 54.8297 39.0186 54.7566 40.5518C54.7201 41.1542 54.4098 41.7565 54.2456 42.3588C54.2091 42.5231 54.1361 42.7421 54.2091 42.8334C54.7566 43.6 54.7931 44.4943 54.8114 45.3887C54.8296 46.6116 54.8296 47.8528 54.8114 49.0757C54.7566 51.3207 53.2234 52.8357 50.9784 52.8357C46.0137 52.8357 41.0491 52.8539 36.0845 52.8357C34.9346 52.8357 33.7482 52.8539 32.799 51.9961C32.6713 51.8866 32.3245 51.9596 32.1054 52.0326C24.8227 54.4054 17.0472 51.4485 13.1777 44.8411C7.53773 35.2221 13.5245 22.6645 24.5307 21.0035C26.6662 20.675 28.8018 20.748 30.9008 21.2773C31.0651 21.3138 31.2476 21.3503 31.4666 21.3868C31.4666 20.456 31.4666 19.5798 31.4666 18.6855C31.4849 16.55 32.9816 14.9985 35.1171 14.9802C40.4468 14.962 45.7765 14.962 51.1062 14.9802C53.1322 14.9802 54.6471 16.3492 54.7566 18.3752C54.8479 20.1092 54.9209 21.8796 54.6471 23.5589ZM51.8728 27.5196C51.8728 26.8991 51.5625 26.607 50.9419 26.6253C50.1935 26.6435 49.4452 26.6253 48.6968 26.6253C45.6852 26.6253 42.6553 26.6253 39.4794 26.6253C40.8483 28.3592 41.7975 30.148 42.4363 32.1192C42.491 32.2835 42.8013 32.4478 42.9839 32.4478C45.6487 32.466 48.2953 32.466 50.9601 32.466C51.5625 32.466 51.891 32.174 51.8728 31.5534C51.8545 30.2027 51.8545 28.8703 51.8728 27.5196ZM34.387 22.0804C34.387 22.2995 34.5148 22.5732 34.6608 22.701C35.5916 23.4676 36.6685 23.7779 37.8914 23.7596C40.3555 23.7231 42.8013 23.7414 45.2654 23.7414C47.1271 23.7414 49.0071 23.7231 50.8689 23.7231C51.453 23.7231 51.8545 23.5406 51.8545 22.8653C51.8545 21.4963 51.8545 20.1274 51.8545 18.7767C51.8545 18.1197 51.5442 17.8641 50.8689 17.8641C48.2953 17.8824 45.7217 17.8824 43.1481 17.8824C40.5745 17.8824 38.001 17.8824 35.4274 17.8824C34.606 17.8824 34.3687 18.1197 34.3687 18.941C34.3687 19.9814 34.3687 21.04 34.387 22.0804ZM40.2095 37.0656C40.2825 29.6917 34.4965 23.7961 27.1225 23.7414C19.9494 23.6866 14.0538 29.5091 13.9808 36.7553C13.9078 43.965 19.7851 49.9153 26.9948 49.9701C34.168 50.0066 40.1365 44.1658 40.2095 37.0656ZM51.8728 49.0392C51.8728 47.725 51.8728 46.3926 51.8728 45.0784C51.8728 44.3301 51.6355 44.111 50.8871 44.111C47.8755 44.111 44.8821 44.111 41.8705 44.0928C41.5054 44.0928 41.3229 44.2206 41.1221 44.5308C40.538 45.4435 39.954 46.3926 39.2421 47.214C38.4208 48.1631 37.4534 49.0027 36.486 49.9518C36.778 49.9518 37.0153 49.9518 37.2344 49.9518C41.834 49.9518 46.4336 49.9518 51.0149 49.9518C51.599 49.9518 51.8728 49.6233 51.8728 49.0392ZM51.8728 40.278C51.8545 38.9639 51.8728 37.6315 51.8728 36.3173C51.8728 35.5872 51.6355 35.3682 50.8689 35.3682C48.4596 35.3682 46.0503 35.3682 43.6409 35.3682C43.4949 35.3682 43.3307 35.4047 43.3489 35.4047C43.1299 37.3577 42.9291 39.2559 42.7101 41.2089C45.4479 41.2089 48.2405 41.2089 51.0332 41.2089C51.6172 41.2089 51.8728 40.8621 51.8728 40.278ZM66.5294 59.3883C64.7954 59.3883 63.0797 59.3883 61.3275 59.3883C61.3457 59.3518 61.3457 59.297 61.364 59.2788C61.437 59.1875 61.51 59.1145 61.583 59.0232C69.3585 50.4629 72.3154 40.4606 70.2347 29.1076C68.5554 19.9997 63.9558 12.5527 56.4541 7.07697C47.5469 0.57912 37.5994 -1.04534 26.9583 1.56475C24.7862 2.09407 22.7237 3.06144 20.6429 3.8828C19.7851 4.2296 19.493 5.01445 19.8033 5.78105C20.1136 6.5659 20.716 6.82143 21.6468 6.54765C22.1214 6.40163 22.5959 6.23736 23.0523 6.01833C29.9882 2.87892 37.1613 2.44086 44.4623 4.44862C57.9508 8.13561 67.5516 20.4925 67.9531 34.5651C68.1721 42.085 65.9271 48.8202 61.364 54.7887C60.9077 55.391 60.3966 55.9568 59.9221 56.5409C60.1046 55.026 60.3966 53.584 60.6339 52.1238C60.7799 51.2477 60.2506 50.5724 59.4475 50.4081C58.6809 50.2621 57.9143 50.7732 57.75 51.631C57.1477 54.6244 56.5454 57.5996 55.9795 60.5929C55.7423 61.8524 56.1621 62.4182 57.4215 62.4182C60.5609 62.4182 63.7003 62.3452 66.8397 62.2539C67.6976 62.2357 68.2634 61.4326 68.1356 60.5747C67.9896 59.8446 67.4055 59.3883 66.5294 59.3883ZM31.3936 29.0711H22.7237C21.9754 29.0711 21.3548 29.6734 21.3548 30.44C21.3548 31.1884 21.9571 31.8089 22.7237 31.8089H31.3936C32.1419 31.8089 32.7625 31.2066 32.7625 30.44C32.7625 29.6917 32.1419 29.0711 31.3936 29.0711ZM31.3936 33.2691H22.7237C21.9754 33.2691 21.3548 33.8715 21.3548 34.6381C21.3548 35.4047 21.9571 36.007 22.7237 36.007H25.6989V43.9285C25.6989 44.5491 26.2099 45.0602 26.8305 45.0602H27.2868C27.9074 45.0602 28.4185 44.5491 28.4185 43.9285V36.007H31.3936C32.1419 36.007 32.7625 35.4047 32.7625 34.6381C32.7625 33.8715 32.1419 33.2691 31.3936 33.2691Z" fill="url(#paint0_linear_202_578)"/>
<defs>
<linearGradient id="paint0_linear_202_578" x1="13.4027" y1="60.2446" x2="60.8332" y2="15.1849" gradientUnits="userSpaceOnUse">
<stop stop-color="#AD2E59"/>
<stop offset="1" stop-color="#009AFD"/>
</linearGradient>
</defs>
</svg>
