<svg width="40" height="41" viewBox="0 0 40 41" fill="none" xmlns="http://www.w3.org/2000/svg">
<path d="M34.7441 40.5635C31.018 40.5635 27.3017 40.5635 23.5756 40.5635C23.5756 35.8301 23.5756 31.0967 23.5756 26.3339C25.6196 26.3339 27.6049 26.3339 29.6098 26.3339C29.8738 24.7692 30.1281 23.2337 30.3921 21.6494C28.0939 21.6494 25.8446 21.6494 23.5952 21.6494C23.5854 21.5614 23.5854 21.5223 23.5854 21.4832C23.5854 20.0358 23.5756 18.5981 23.5854 17.1507C23.5952 15.6251 24.5732 14.6373 26.1086 14.6373C27.4582 14.6373 28.8176 14.6373 30.1672 14.6373C30.3041 14.6373 30.441 14.6373 30.5877 14.6373C30.5877 13.053 30.5877 11.5078 30.5877 9.95283C28.6905 9.95283 26.8127 9.95283 24.9448 9.95283C21.4534 9.96261 18.9107 12.5053 18.9009 15.9869C18.9009 17.7277 18.9009 19.4783 18.9009 21.2191C18.9009 21.356 18.9009 21.4929 18.9009 21.6788C17.3166 21.6788 15.7714 21.6788 14.236 21.6788C14.236 23.2533 14.236 24.7789 14.236 26.3535C15.791 26.3535 17.3362 26.3535 18.9009 26.3535C18.9009 31.1162 18.9009 35.8399 18.9009 40.5635C14.3436 40.5635 9.78618 40.5635 5.2386 40.5635C5.17992 40.5439 5.12124 40.5048 5.05278 40.495C2.04061 39.9865 0.00642388 37.6393 0.00642388 34.6272C-0.00335588 25.2582 -0.00335588 15.8794 0.0162036 6.51035C0.0162036 5.85511 0.123781 5.18031 0.329156 4.56418C1.15066 2.0899 3.34132 0.574039 6.02098 0.574039C14.8521 0.574039 23.693 0.574039 32.5241 0.574039C33.1207 0.574039 33.727 0.544699 34.3236 0.583818C36.6121 0.720735 38.3235 1.80629 39.3602 3.85026C39.6634 4.4566 39.7807 5.15097 39.9861 5.80621C39.9861 15.6446 39.9861 25.4929 39.9861 35.3313C39.9567 35.4291 39.9274 35.5269 39.9078 35.6247C39.546 37.61 38.48 39.077 36.661 39.9571C36.0644 40.2407 35.3896 40.3679 34.7441 40.5635ZM25.9423 38.2163C28.6318 38.2163 31.2723 38.2163 33.9129 38.2163C36.1426 38.2163 37.6389 36.72 37.6389 34.5C37.6389 25.2093 37.6389 15.9087 37.6389 6.61793C37.6389 4.42726 36.1329 2.92118 33.9324 2.92118C24.6416 2.92118 15.3509 2.92118 6.0601 2.92118C5.69824 2.92118 5.32661 2.95052 4.98432 3.04832C3.32176 3.51775 2.34379 4.82823 2.34379 6.57881C2.34379 15.8989 2.34379 25.219 2.34379 34.5391C2.34379 34.8912 2.37313 35.2433 2.47092 35.5758C2.93057 37.2384 4.25084 38.2163 6.03076 38.2163C9.41455 38.2163 12.7984 38.2163 16.1821 38.2163C16.2995 38.2163 16.4071 38.2066 16.5244 38.1968C16.5244 35.0184 16.5244 31.8595 16.5244 28.6615C14.9597 28.6615 13.4145 28.6615 11.8888 28.6615C11.8888 25.5222 11.8888 22.4318 11.8888 19.2925C13.4536 19.2925 14.989 19.2925 16.5538 19.2925C16.5538 18.1483 16.5538 17.0432 16.5538 15.938C16.5538 14.9894 16.6711 14.0701 16.9939 13.1801C18.2163 9.72789 21.2187 7.60569 24.8861 7.59591C27.4484 7.58613 30.0107 7.59591 32.573 7.59591C32.7002 7.59591 32.8175 7.59591 32.9349 7.59591C32.9349 10.7548 32.9349 13.8452 32.9349 16.9845C30.5877 16.9845 28.2699 16.9845 25.9521 16.9845C25.9521 17.7766 25.9521 18.5297 25.9521 19.3121C28.358 19.3121 30.7442 19.3121 33.1696 19.3121C32.6513 22.4514 32.1329 25.5515 31.6048 28.6908C29.7076 28.6908 27.8298 28.6908 25.9423 28.6908C25.9423 31.8888 25.9423 35.0281 25.9423 38.2163Z" fill="#0072BA"/>
</svg>
