<svg width="69" height="71" viewBox="0 0 69 71" fill="none" xmlns="http://www.w3.org/2000/svg">
<path d="M58.7655 4.69537C58.7655 2.04725 56.7015 0.0222168 53.9366 0.0222168C41.5916 0.0222168 29.2662 0.0222168 16.9213 0.0222168C16.3955 0.0222168 15.8503 0.100103 15.3441 0.255875C13.2022 0.917905 11.8392 3.11818 12.1702 5.29899C12.5207 7.57715 14.3705 9.27117 16.6487 9.32959C17.4665 9.34906 18.2843 9.32959 19.1215 9.32959C19.1215 12.5424 19.141 15.6578 19.1021 18.7733C19.1021 19.1627 18.9852 19.5911 18.7905 19.9221C17.2133 22.726 15.5583 25.5104 13.9811 28.3338C12.0534 31.7413 11.2356 35.4409 11.5861 39.3352C12.0534 44.3393 12.696 49.324 13.2022 54.3282C13.3385 55.6328 13.2217 56.9763 13.2217 58.3393C13.027 58.3393 12.8907 58.3393 12.7349 58.3393C11.1966 58.3588 10.9435 58.6314 10.9435 60.1891C10.9435 62.9346 10.9435 65.6801 10.9435 68.4256C10.9435 69.6328 11.3135 70.0027 12.5012 70.0027C19.2384 70.0027 25.956 70.0027 32.6932 70.0027C33.9004 70.0027 34.2704 69.6328 34.2704 68.445C34.2704 65.7385 34.2704 63.0514 34.2704 60.3449C34.2704 58.573 34.1341 58.4172 32.3622 58.3004C32.3232 58.3004 32.3037 58.242 32.1869 58.1446C35.8865 53.1794 36.3927 47.7858 34.1925 41.9833C34.4845 41.9833 34.7571 41.9833 35.0103 41.9833C40.0144 41.9833 45.0186 41.9833 50.0228 41.9833C51.4637 41.9833 51.7752 41.6717 51.7752 40.2308C51.7752 30.2225 51.7752 20.2142 51.7752 10.1863C51.7752 9.91373 51.7752 9.62166 51.7752 9.31012C52.5541 9.31012 53.2356 9.31012 53.9171 9.31012C56.682 9.32959 58.7655 7.32403 58.7655 4.69537ZM19.0826 6.99301C18.2259 6.99301 17.4275 7.03195 16.6292 6.99301C15.422 6.91512 14.4679 5.88313 14.4679 4.6759C14.4679 3.46867 15.422 2.41721 16.6292 2.3588C17.4275 2.31985 18.2259 2.3588 19.0631 2.3588C19.0826 3.89704 19.0826 5.39635 19.0826 6.99301ZM31.9143 67.6078C25.7418 67.6078 19.5694 67.6078 13.3385 67.6078C13.3385 65.3296 13.3385 63.032 13.3385 60.6954C19.5304 60.6954 25.7029 60.6954 31.9143 60.6954C31.9143 63.0125 31.9143 65.2906 31.9143 67.6078ZM31.3691 55.1071C30.7071 56.1196 30.1229 57.1905 29.4804 58.3004C24.924 58.3004 20.3093 58.3004 15.6361 58.3004C15.6361 58.1057 15.6361 57.9499 15.6361 57.7747C15.7919 54.3671 15.1688 50.9986 14.8378 47.63C14.5652 44.8261 14.1563 42.0417 13.9227 39.2378C13.6306 35.7329 14.3705 32.4228 16.084 29.3657C17.0381 27.6717 18.0117 26.0167 19.1215 24.3421C19.1215 24.5952 19.1215 24.8484 19.1215 25.082C19.1215 30.1251 19.1215 35.1877 19.1215 40.2308C19.1215 41.6912 19.4331 42.0027 20.8545 42.0027C21.7891 42.0027 22.7432 42.0027 23.7363 42.0027C23.7558 42.3922 23.7752 42.7427 23.8142 43.1321C24.5541 43.1321 25.2745 43.1321 26.1118 43.1321C26.1118 42.8984 26.1118 42.6453 26.1118 42.3922C26.1118 38.8678 26.1118 35.3435 26.1118 31.8192C26.1118 30.2614 27.0464 29.1905 28.4094 29.171C29.8114 29.1516 30.785 30.242 30.785 31.8192C30.785 34.2141 30.7655 36.6286 30.8044 39.0236C30.8044 39.5883 30.9407 40.1724 31.1355 40.7176C31.6807 42.3143 32.4985 43.872 32.8295 45.5076C33.511 48.8567 33.2773 52.1279 31.3691 55.1071ZM21.4971 39.6272C21.4971 36.9596 21.4971 34.331 21.4971 31.5466C22.2175 31.7413 22.899 31.9165 23.5805 32.1307C23.6779 32.1696 23.7947 32.4033 23.7947 32.5396C23.8142 34.8957 23.7947 37.2322 23.7947 39.6467C22.9769 39.6272 22.2565 39.6272 21.4971 39.6272ZM33.5499 39.6662C33.0242 39.6662 33.1215 39.3157 33.1215 39.0041C33.1215 36.5313 33.1215 34.0389 33.1215 31.566C33.1021 29.1905 31.6028 27.3797 29.3051 26.9123C27.4359 26.5424 25.4498 27.4381 24.4567 29.1321C24.3399 29.3268 24.2231 29.541 24.1062 29.7552C23.23 29.5605 22.3733 29.3852 21.4971 29.1905C21.4971 20.2531 21.4971 11.3352 21.4971 2.37827C30.8044 2.37827 40.0729 2.37827 49.3997 2.37827C49.3997 11.2962 49.3997 20.2336 49.3997 29.2295C46.6932 29.5799 44.2982 30.6703 42.351 32.637C40.4234 34.5841 39.3329 36.9402 39.0019 39.6856C37.1327 39.6662 35.3413 39.6662 33.5499 39.6662ZM49.4386 35.5772C49.4386 36.9012 49.4386 38.2448 49.4386 39.6467C46.7126 39.6467 44.0645 39.6467 41.4359 39.6467C41.4553 35.9666 45.4275 31.9555 49.4386 31.6439C49.4386 32.9485 49.4386 34.2531 49.4386 35.5772ZM54.326 6.97354C53.5082 7.03195 52.6904 6.99301 51.8142 6.99301C51.8142 5.39635 51.8142 3.89704 51.8142 2.3588C52.6904 2.3588 53.5277 2.30038 54.3649 2.37827C55.5332 2.47562 56.4484 3.52708 56.4289 4.71485C56.4289 5.86366 55.5138 6.89565 54.326 6.97354ZM14.1174 22.9596C12.2676 25.2767 10.3594 27.5354 8.45117 29.8136C7.84755 30.534 7.08816 30.5146 6.46508 29.7746C4.59581 27.5354 2.72655 25.2962 0.857288 23.057C0.506801 22.6286 0.331557 22.1808 0.604158 21.655C0.876759 21.1293 1.3246 20.9735 1.8698 20.993C2.55131 21.0125 3.21334 20.993 3.95325 20.993V0.878962C3.95325 0.431118 4.32321 0.0611598 4.77106 0.0611598H5.4915C5.93935 0.0611598 6.3093 0.431118 6.3093 0.878962V0.898434C6.3093 7.67451 6.3093 14.4506 6.3093 21.2461C6.3093 23.1349 6.19248 23.2712 4.16744 23.388C5.27732 24.7315 6.32878 25.9972 7.47759 27.3602C8.568 26.0556 9.63893 24.79 10.7683 23.4269C10.4957 23.388 10.3399 23.3685 10.1647 23.3491C9.01584 23.3296 8.66535 22.9596 8.66535 21.7913C8.66535 21.0709 8.66535 20.331 8.66535 19.6105C8.66535 13.3602 8.66535 7.12931 8.66535 0.878962C8.66535 0.431118 9.03531 0.0611598 9.48316 0.0611598H10.1452C10.593 0.0611598 10.963 0.431118 10.963 0.878962V21.032C11.8003 21.032 12.5012 20.9541 13.2022 21.0709C13.6111 21.1488 14.1563 21.4214 14.3316 21.7524C14.4679 22.025 14.351 22.6676 14.1174 22.9596ZM67.8392 39.1989C65.9894 41.516 64.0812 43.7747 62.173 46.0528C61.5694 46.7733 60.81 46.7538 60.1869 46.0139C58.3176 43.7747 56.4484 41.5354 54.5791 39.2962C54.2286 38.8678 54.0534 38.42 54.326 37.8943C54.5986 37.3685 55.0464 37.2128 55.5916 37.2322C56.2731 37.2517 56.9352 37.2322 57.6751 37.2322V17.1182C57.6751 16.6703 58.045 16.3004 58.4929 16.3004H59.2133C59.6612 16.3004 60.0311 16.6703 60.0311 17.1182V17.1377C60.0311 23.9137 60.0311 30.6898 60.0311 37.4854C60.0311 39.3741 59.9143 39.5104 57.8893 39.6272C58.9991 40.9708 60.0506 42.2364 61.1994 43.5994C62.2898 42.2948 63.3608 41.0292 64.4901 39.6662C64.2175 39.6272 64.0617 39.6078 63.8865 39.5883C62.7377 39.5688 62.3872 39.1989 62.3872 38.0306C62.3872 37.3101 62.3872 36.5702 62.3872 35.8498C62.3872 29.5994 62.3872 23.3685 62.3872 17.1182C62.3872 16.6703 62.7571 16.3004 63.205 16.3004H63.867C64.3149 16.3004 64.6848 16.6703 64.6848 17.1182V37.2712C65.5221 37.2712 66.2231 37.1933 66.924 37.3101C67.3329 37.388 67.8782 37.6606 68.0534 37.9916C68.1897 38.2642 68.0729 38.9068 67.8392 39.1989ZM35.536 4.6759C30.9992 4.65643 27.2996 8.27813 27.2801 12.7955C27.2606 17.2934 30.9213 20.993 35.3802 20.993C39.9171 21.0125 43.5777 17.3518 43.5972 12.8345C43.6361 8.39496 39.9755 4.69537 35.536 4.6759ZM35.4192 18.6759C32.2064 18.6564 29.5972 16.0278 29.6167 12.7955C29.6167 9.62166 32.2453 7.01248 35.4386 7.01248C38.6709 7.01248 41.2801 9.62166 41.2801 12.8539C41.2801 16.0667 38.632 18.6954 35.4192 18.6759Z" fill="#9ADDFF"/>
</svg>
