<svg width="66" height="71" viewBox="0 0 66 71" fill="none" xmlns="http://www.w3.org/2000/svg">
<path d="M20.3703 21.1158C29.3286 21.1158 38.3063 21.1158 47.2646 21.1158C47.3815 21.1158 47.4983 21.1158 47.6346 21.1158C48.472 21.1352 48.9978 21.6026 48.9784 22.3232C48.9589 23.0048 48.4525 23.4527 47.6346 23.4527C43.0192 23.4527 38.4037 23.4527 33.7883 23.4527C29.2896 23.4527 24.791 23.4527 20.3119 23.4527C20.0393 23.4527 19.7666 23.4722 19.5134 23.3943C18.9682 23.2385 18.6566 22.8295 18.676 22.2453C18.6955 21.6416 19.0655 21.2521 19.6498 21.1352C19.8835 21.0963 20.1366 21.1158 20.3703 21.1158ZM47.5373 28.1266C45.6872 28.1266 43.8371 28.1266 42.0065 28.1266C40.1564 28.1266 38.3063 28.1266 36.4757 28.1266C35.5604 28.1266 35.0151 28.555 35.0151 29.2951C35.0151 30.0156 35.541 30.4635 36.4757 30.4635C40.1759 30.4635 43.8566 30.4635 47.5567 30.4635C48.472 30.4635 49.0173 30.0156 49.0173 29.2951C48.9784 28.555 48.4525 28.1266 47.5373 28.1266ZM31.6461 30.4246C32.2692 30.3077 32.6587 29.9182 32.6587 29.2756C32.6587 28.6329 32.2887 28.2434 31.6461 28.1266C31.4318 28.0876 31.2176 28.1071 30.9839 28.1071C23.5447 28.1071 16.1054 28.1071 8.68563 28.1071C8.47141 28.1071 8.23771 28.0876 8.02349 28.1266C7.40031 28.2434 7.01082 28.6329 7.01082 29.2756C7.01082 29.9182 7.40031 30.3077 8.02349 30.4246C8.23771 30.4635 8.45193 30.4441 8.68563 30.4441C12.3858 30.4441 16.0665 30.4441 19.7666 30.4441C23.5057 30.4441 27.2448 30.4441 30.9839 30.4441C31.1981 30.4441 31.4318 30.4635 31.6461 30.4246ZM35.9499 35.1179C34.4893 35.1179 33.0287 35.1179 31.5682 35.1179C30.0686 35.1179 28.5496 35.1179 27.0501 35.1179C26.1932 35.1179 25.6674 35.5658 25.6674 36.2864C25.6674 36.9875 26.1932 37.4549 27.0501 37.4549C30.0102 37.4549 32.9703 37.4549 35.9499 37.4549C36.8068 37.4549 37.3326 36.9875 37.3326 36.2864C37.3131 35.5853 36.8068 35.1179 35.9499 35.1179ZM8.33508 51.4376C10.5747 51.457 12.8142 51.457 15.0343 51.4376C15.8328 51.4376 16.3391 50.9507 16.3196 50.2496C16.3002 49.568 15.8133 49.1201 14.9954 49.1006C13.9048 49.0812 12.8142 49.1006 11.7236 49.1006C10.6136 49.1006 9.48408 49.1006 8.37403 49.1006C7.51716 49.1006 6.99134 49.568 7.01082 50.2886C7.01082 50.9897 7.51716 51.4376 8.33508 51.4376ZM8.37403 23.4527C10.5552 23.4527 12.7558 23.4527 14.9369 23.4527C15.7938 23.4527 16.3196 23.0048 16.3196 22.3037C16.3196 21.6026 15.7938 21.1352 14.9369 21.1352C13.8464 21.1352 12.7558 21.1352 11.6652 21.1352C10.5747 21.1352 9.48408 21.1352 8.39351 21.1352C7.53663 21.1352 7.01082 21.5832 7.01082 22.2842C6.99134 22.9853 7.51716 23.4527 8.37403 23.4527ZM15.1512 35.1179C12.9116 35.1179 10.672 35.1179 8.45193 35.1179C7.53663 35.1179 7.01082 35.5658 7.01082 36.2864C7.01082 37.007 7.55611 37.4549 8.47141 37.4549C12.9505 37.4549 17.4102 37.4549 21.8893 37.4549C22.8046 37.4549 23.3499 37.007 23.3304 36.2864C23.3304 35.5658 22.7852 35.1374 21.8699 35.1179C19.6303 35.1179 17.3907 35.1179 15.1512 35.1179ZM26.6216 49.1201C24.4405 49.1201 22.2399 49.1201 20.0587 49.1201C19.1824 49.1201 18.676 49.568 18.6566 50.2691C18.6566 50.9702 19.1629 51.4376 20.0198 51.457C21.1104 51.4765 22.2009 51.457 23.2915 51.457C24.3821 51.457 25.4726 51.457 26.5632 51.457C27.4201 51.457 27.9459 51.0091 27.9654 50.308C28.0043 49.5875 27.4785 49.1201 26.6216 49.1201ZM29.3091 42.1288C29.0949 42.0898 28.8807 42.1093 28.647 42.1093C21.9867 42.1093 15.3264 42.1093 8.66615 42.1093C8.43246 42.1093 8.17929 42.0898 7.94559 42.1288C7.36136 42.2651 7.01082 42.6546 7.01082 43.2583C7.01082 43.8815 7.36136 44.2515 7.94559 44.4073C8.17929 44.4657 8.43246 44.4462 8.66615 44.4462C12.0158 44.4462 15.3654 44.4462 18.7345 44.4462C22.0451 44.4462 25.3363 44.4462 28.647 44.4462C28.8612 44.4462 29.0949 44.4657 29.3091 44.4267C29.9323 44.3099 30.3218 43.9204 30.3218 43.2777C30.3218 42.6351 29.9323 42.2456 29.3091 42.1288ZM8.45193 16.4419C12.9311 16.4419 17.3907 16.4419 21.8699 16.4419C22.7852 16.4419 23.3304 15.994 23.3304 15.2734C23.3304 14.5529 22.8046 14.1049 21.8699 14.1049C19.6303 14.1049 17.3907 14.1049 15.1706 14.1049C12.9505 14.1049 10.6915 14.1049 8.47141 14.1049C7.55611 14.1049 7.01082 14.5334 7.01082 15.2734C7.01082 16.0134 7.53663 16.4419 8.45193 16.4419ZM65.1227 56.3062C63.8958 63.4533 58.443 68.8867 51.4127 69.9189C50.5363 70.0552 49.621 70.0941 48.7252 70.0941C34.5672 70.1136 20.3898 70.0941 6.23184 70.0941C2.45379 70.0941 0 67.6404 0 63.8233C0 54.2419 0 44.6799 0 35.0985C0 25.556 0 15.994 0 6.45147C0 2.51762 2.41484 0.122258 6.36816 0.122258C17.6634 0.122258 28.9586 0.122258 40.2733 0.102783C41.0133 0.102783 41.5586 0.317003 42.0649 0.842814C46.4662 5.283 50.8869 9.68424 55.3076 14.0855C55.7944 14.5723 56.0087 15.0787 56.0087 15.7603C55.9892 23.2385 56.0087 30.7362 55.9892 38.2144C55.9892 38.7986 56.145 39.0907 56.6903 39.3828C62.7858 42.6156 66.2717 49.6264 65.1227 56.3062ZM42.0065 10.8722C42.0454 12.5665 43.4866 14.0465 45.2003 14.1049C47.3815 14.1828 49.5626 14.1244 51.7632 14.1049C51.7827 14.1049 51.8216 14.0465 51.8022 14.066C48.5499 10.8138 45.3172 7.58099 42.0065 4.27033C42.0065 6.49042 41.9481 8.67156 42.0065 10.8722ZM40.468 67.7767C32.9703 63.0054 31.1008 54.0861 33.9635 47.309C36.5536 41.194 44.324 35.449 53.6133 38.0586C53.6133 30.892 53.6133 23.7253 53.6133 16.4614C53.3017 16.4614 53.0291 16.4614 52.7759 16.4614C50.3221 16.4614 47.8683 16.4808 45.4145 16.4614C42.6102 16.4224 40.2538 14.4555 39.7864 11.6901C39.6306 10.7943 39.6696 9.85951 39.6696 8.92473C39.6501 6.80201 39.6696 4.65982 39.6696 2.4592C39.3385 2.4592 39.0853 2.4592 38.8127 2.4592C27.9654 2.4592 17.1376 2.4592 6.29026 2.4592C3.71963 2.4592 2.33694 3.84189 2.33694 6.41252C2.33694 25.5365 2.33694 44.6604 2.33694 63.8039C2.33694 66.4329 3.70015 67.7961 6.34869 67.7961C17.4297 67.7961 28.5107 67.7961 39.5917 67.7961C39.8448 67.7767 40.098 67.7767 40.468 67.7767ZM62.9805 53.8134C63 46.1015 56.7097 39.7918 48.9978 39.7918C41.2665 39.7918 34.9957 46.0431 34.9762 53.7745C34.9762 61.5059 41.2275 67.7961 48.9394 67.7961C56.6903 67.7961 62.9805 61.5253 62.9805 53.8134ZM26.758 56.1309C25.9985 56.1114 25.2584 56.1309 24.4989 56.1309C23.7394 56.1309 22.9994 56.1114 22.2399 56.1309C21.4998 56.1504 21.013 56.6178 20.9935 57.2799C20.9935 57.942 21.4804 58.4289 22.2204 58.4484C23.7199 58.4679 25.2389 58.4679 26.7385 58.4484C27.4785 58.4484 27.9849 57.9615 27.9849 57.2994C27.9849 56.6178 27.498 56.1504 26.758 56.1309ZM17.1765 56.1114C15.7354 56.1114 14.3138 56.1114 12.8726 56.1114C11.3926 56.1114 9.91252 56.1114 8.43246 56.1114C7.51716 56.1114 6.99134 56.5594 6.99134 57.2994C7.01082 58.0005 7.51716 58.4484 8.39351 58.4484C11.3342 58.4484 14.2748 58.4484 17.2155 58.4484C18.1308 58.4484 18.6566 57.981 18.6566 57.2604C18.6371 56.5399 18.1113 56.1114 17.1765 56.1114ZM51.2179 53.3071L55.736 46.9C56.3981 45.9652 55.736 44.6604 54.5675 44.6604C54.0807 44.6604 53.6522 44.8941 53.3796 45.3031L51.2958 48.4774C50.7116 49.4317 50.1079 50.3665 49.5236 51.4376H49.4068C48.8226 50.4444 48.2578 49.5096 47.5957 48.5164L45.4729 45.3031C45.2003 44.9136 44.7719 44.6604 44.285 44.6604H44.1487C42.9997 44.6604 42.3181 45.9458 42.9802 46.9L47.4983 53.424L42.7076 60.3179C42.0454 61.2527 42.727 62.5575 43.876 62.5575H43.9539C44.4408 62.5575 44.8887 62.3043 45.1419 61.8954L47.3036 58.5263C47.9657 57.4552 48.5889 56.5009 49.1926 55.4298H49.2705C49.8937 56.5009 50.4974 57.4941 51.1985 58.5263L53.3991 61.9148C53.6522 62.3238 54.1196 62.5575 54.587 62.5575H54.8207C55.9697 62.5575 56.6318 61.2722 55.9892 60.3374L51.2179 53.3071Z" fill="#9ADDFF"/>
</svg>
