<svg width="56" height="71" viewBox="0 0 56 71" fill="none" xmlns="http://www.w3.org/2000/svg">
<path d="M7.12062 16.8976C7.14008 16.3723 7.47082 15.9053 7.99611 15.7886C8.24903 15.7302 8.54086 15.7108 8.79377 15.7108C16.1868 15.7108 23.5992 15.7108 30.9922 15.7108C31.2646 15.7108 31.537 15.7302 31.7899 15.7886C32.2568 15.9053 32.5486 16.2166 32.6265 16.703C32.7821 17.559 32.2179 18.1427 31.2451 18.1427C27.4514 18.1427 23.677 18.1427 19.8833 18.1427C16.1479 18.1427 12.4125 18.1427 8.67704 18.1427C8.42412 18.1427 8.17121 18.1232 7.91829 18.0649C7.43191 17.8898 7.10117 17.4034 7.12062 16.8976ZM7.93774 25.0882C8.17121 25.166 8.44358 25.1855 8.6965 25.1855C12.4319 25.1855 16.1673 25.1855 19.9027 25.1855C23.677 25.1855 27.4319 25.1855 31.2062 25.1855C32.0817 25.1855 32.5876 24.7964 32.6654 24.096C32.7237 23.5318 32.4125 23.0065 31.8677 22.8509C31.6537 22.7925 31.4008 22.7536 31.1673 22.7536C23.6576 22.7536 16.1673 22.7536 8.65759 22.7536C8.1323 22.7536 7.64592 22.8314 7.33463 23.3373C6.88716 23.9598 7.19844 24.8548 7.93774 25.0882ZM15.7004 29.7769C15.2529 29.7769 14.8249 29.7769 14.3774 29.7769C12.4125 29.7769 10.4475 29.7769 8.48249 29.7769C7.52918 29.7769 6.98444 30.4384 7.15953 31.275C7.27626 31.8197 7.74319 32.1699 8.38521 32.2088C8.81323 32.2283 9.24125 32.2088 9.64981 32.2088C13.1518 32.2088 16.6732 32.2088 20.1751 32.2088C20.9339 32.2088 21.4202 31.917 21.5953 31.3723C21.8677 30.5357 21.284 29.7769 20.3113 29.7575C18.7938 29.7769 17.2374 29.7769 15.7004 29.7769ZM17.2179 43.8625C15.6809 43.8431 17.2374 43.8625 15.7004 43.8625C15.2529 43.8625 14.8249 43.8625 14.3774 43.8625C12.4125 43.8625 10.4475 43.8625 8.48249 43.8625C7.52918 43.8625 6.98444 44.524 7.15953 45.3606C7.27626 45.9053 7.74319 46.2555 8.38521 46.2944C8.81323 46.3139 9.24125 46.2944 9.64981 46.2944C13.1518 46.2944 13.5603 46.2944 17.0623 46.2944C17.821 46.2944 18.3074 46.0026 18.4825 45.4579C18.7743 44.6213 18.1907 43.882 17.2179 43.8625ZM17.2179 50.9053C15.6809 50.8859 17.2374 50.9053 15.7004 50.9053C15.2529 50.9053 14.8249 50.9053 14.3774 50.9053C12.4125 50.9053 10.4475 50.9053 8.48249 50.9053C7.52918 50.9053 6.98444 51.5668 7.15953 52.4034C7.27626 52.9481 7.74319 53.2983 8.38521 53.3373C8.81323 53.3567 9.24125 53.3373 9.64981 53.3373C13.1518 53.3373 13.5603 53.3373 17.0623 53.3373C17.821 53.3373 18.3074 53.0454 18.4825 52.5007C18.7743 51.6641 18.1907 50.9248 17.2179 50.9053ZM26.0311 38.4345C26.3035 37.598 25.7198 36.8392 24.7471 36.8197C23.2101 36.8003 17.2568 36.8197 15.7004 36.8197C15.2529 36.8197 14.8249 36.8197 14.3774 36.8197C12.4125 36.8197 10.4475 36.8197 8.48249 36.8197C7.52918 36.8197 6.98444 37.4812 7.15953 38.3178C7.27626 38.8625 7.74319 39.2127 8.38521 39.2516C8.81323 39.2711 9.24125 39.2516 9.64981 39.2516C13.1518 39.2516 21.0895 39.2516 24.5914 39.2516C25.3697 39.2711 25.856 38.9793 26.0311 38.4345ZM46.5759 53.4345C44.3969 53.4345 42.2179 53.4151 40.0195 53.454C39.5136 53.454 39.1829 53.3373 38.8521 52.9287C37.2568 50.9637 35.642 49.0376 34.0078 47.1116C33.4047 46.3917 32.7626 46.2555 32.1984 46.7225C31.6148 47.1894 31.6148 47.8703 32.1984 48.5707C34.0272 50.7692 35.8366 52.9871 37.7237 55.1466C38.0156 55.4773 38.5798 55.7108 39.0272 55.7497C40.2918 55.8275 41.5564 55.7692 42.8016 55.7692C44.0467 55.7692 45.3307 55.7692 46.5953 55.7692C47.5292 55.7692 48.0545 55.3606 48.0739 54.6408C48.0934 53.882 47.5486 53.4345 46.5759 53.4345ZM55.1362 54.524C55.1556 63.5513 47.8016 70.9248 38.7938 70.9248C35.5642 70.9248 32.5292 69.991 30 68.3567C29.4747 68.8236 28.9494 69.2906 28.4047 69.738C27.8599 70.205 27.2179 70.5552 26.6342 70.9443C26.3035 70.9443 25.9533 70.9443 25.6226 70.9443C24.9611 70.4773 24.2802 70.0688 23.677 69.5435C22.4125 68.4734 21.1868 67.345 19.9222 66.2166C19.0272 67.0143 18.1518 67.7925 17.2957 68.5707C16.8093 68.9987 16.3619 69.4657 15.856 69.8548C15.3113 70.2633 14.7082 70.5941 14.1245 70.9637C13.8132 70.9637 13.5214 70.9637 13.2101 70.9637C12.607 70.5552 11.9844 70.205 11.4202 69.7575C10.6615 69.1349 9.94164 68.454 9.20234 67.7925C8.61868 67.2672 8.03502 66.7614 7.45136 66.2166C7.29572 66.3528 7.15953 66.4501 7.0428 66.5668C6.08949 67.4034 5.13619 68.2594 4.18288 69.096C3.59922 69.6213 2.93774 69.9131 2.14008 69.7964C0.77821 69.5824 0.0389105 68.6291 0.0389105 67.0727C0 52.3061 0 19.6602 0 4.89367C0 4.58239 0 4.23219 0.077821 3.94036C0.544747 2.24776 2.52918 1.54737 3.91051 2.65632C4.98055 3.51235 5.99222 4.46565 7.02335 5.3606C7.15953 5.47733 7.29572 5.59406 7.43191 5.71079C7.607 5.55515 7.72374 5.45787 7.85992 5.34114C9.18288 4.15437 10.5253 2.94814 11.8677 1.76137C13.035 0.730245 14.2607 0.730245 15.428 1.74192C16.0311 2.26721 16.6148 2.81196 17.2179 3.33725C18.0934 4.13491 18.9883 4.91312 19.8833 5.71079C20.0584 5.5746 20.1946 5.45787 20.3307 5.32168C21.6537 4.13491 22.9767 2.94814 24.3191 1.76137C25.5253 0.691335 26.751 0.71079 27.9572 1.78083C29.2996 2.98705 30.642 4.17383 31.9844 5.38005C32.1012 5.49678 32.2374 5.59406 32.3735 5.71079C32.5292 5.5746 32.6654 5.47733 32.7821 5.3606C33.7549 4.50456 34.7082 3.62908 35.6809 2.7925C36.8093 1.83919 38.2296 1.89756 39.144 2.88978C39.6693 3.47344 39.786 4.17383 39.786 4.91313C39.786 12.7536 39.786 25.633 39.786 38.2011C48.3269 38.7458 55.1167 45.847 55.1362 54.524ZM27.9767 66.8781C24.5525 63.882 22.393 59.4851 22.3735 54.5824C22.3541 46.0221 28.93 38.9793 37.2957 38.24C37.2957 25.5746 37.2957 12.5785 37.2957 4.6213C36.7121 5.12713 36.1673 5.59406 35.642 6.08044C35.1167 6.54737 34.6109 7.01429 34.0856 7.46176C32.9767 8.41507 31.751 8.41507 30.642 7.44231C29.2218 6.19717 27.8405 4.93258 26.4202 3.68744C26.3424 3.60962 26.2451 3.5318 26.1284 3.43453C24.9805 4.46565 23.8521 5.47733 22.7043 6.489C22.3541 6.80028 22.0039 7.13102 21.6342 7.44231C20.5253 8.41507 19.2607 8.41507 18.1518 7.44231C16.8483 6.27499 15.5447 5.10768 14.2412 3.94036C14.0467 3.76526 13.8521 3.60962 13.6576 3.43453C12.1595 4.77694 10.7004 6.08044 9.24125 7.4034C8.59922 7.98705 7.85992 8.33725 7.02335 8.12324C6.53696 7.98706 6.05058 7.73414 5.66148 7.4034C4.6109 6.52791 3.59922 5.59406 2.47082 4.60184C2.47082 19.6408 2.47082 52.3839 2.47082 67.345C2.607 67.2478 2.72374 67.1894 2.82101 67.0921C3.77432 66.2555 4.72763 65.3995 5.68093 64.5629C6.84825 63.5513 8.07393 63.5513 9.24125 64.5824C10.7198 65.8859 12.179 67.2088 13.677 68.5513C13.8521 68.4151 14.0078 68.2594 14.1829 68.1232C15.5058 66.9365 16.8288 65.7497 18.1712 64.5629C19.2996 63.5707 20.5642 63.5707 21.6926 64.5629C22.9961 65.7108 24.2802 66.8781 25.5642 68.026C25.7588 68.2011 25.9339 68.3567 26.1673 68.5513C26.751 67.9676 27.3735 67.4229 27.9767 66.8781ZM52.7432 54.524C52.7237 46.8197 46.4591 40.5551 38.7354 40.5551C31.0311 40.5746 24.7665 46.8392 24.786 54.5629C24.786 62.2672 31.07 68.5318 38.7938 68.5318C46.4786 68.5318 52.7432 62.2478 52.7432 54.524Z" fill="#9ADDFF"/>
</svg>
