<svg width="66" height="71" viewBox="0 0 66 71" fill="none" xmlns="http://www.w3.org/2000/svg">
<path d="M21.8443 35.0276C22.7594 35.0276 23.3045 35.4559 23.3045 36.1957C23.3045 36.9161 22.7788 37.3639 21.8638 37.3639C17.3859 37.3639 12.9275 37.3639 8.44958 37.3639C7.53453 37.3639 6.9894 36.9355 6.9894 36.1957C6.9894 35.4754 7.51506 35.0276 8.43011 35.0276C10.6691 35.0276 12.908 35.0276 15.1275 35.0276C17.3664 35.0276 19.6054 35.0276 21.8443 35.0276ZM47.5046 28.0382C45.655 28.0382 43.8054 28.0382 41.9753 28.0382C40.1258 28.0382 38.2762 28.0382 36.4461 28.0382C35.5311 28.0382 34.9859 28.4665 34.9859 29.2063C34.9859 29.9267 35.5116 30.3745 36.4461 30.3745C40.1452 30.3745 43.8249 30.3745 47.524 30.3745C48.4391 30.3745 48.9842 29.9267 48.9842 29.2063C48.9647 28.4665 48.4196 28.0382 47.5046 28.0382ZM8.31329 51.3427C10.5522 51.3621 12.7912 51.3621 15.0107 51.3427C15.8089 51.3427 16.3151 50.8559 16.2956 50.155C16.2761 49.4736 15.7894 49.0258 14.9717 49.0064C13.8815 48.9869 12.7912 49.0064 11.7009 49.0064C10.5912 49.0064 9.46197 49.0064 8.35223 49.0064C7.4956 49.0064 6.96993 49.4736 6.9894 50.194C6.9894 50.8949 7.49559 51.3427 8.31329 51.3427ZM8.35223 23.3656C10.5328 23.3656 12.7328 23.3656 14.9133 23.3656C15.77 23.3656 16.2956 22.9178 16.2956 22.2169C16.2956 21.516 15.77 21.0488 14.9133 21.0488C13.823 21.0488 12.7328 21.0488 11.6425 21.0488C10.5522 21.0488 9.46197 21.0488 8.37171 21.0488C7.51507 21.0488 6.9894 21.4966 6.9894 22.1974C6.9894 22.8983 7.4956 23.3656 8.35223 23.3656ZM19.6248 21.0488C19.0408 21.1656 18.6708 21.5355 18.6514 22.1585C18.6319 22.7426 18.9434 23.132 19.4886 23.3072C19.7417 23.3851 20.0142 23.3656 20.2868 23.3656C24.7841 23.3656 29.2815 23.3656 33.7594 23.3656C38.3736 23.3656 42.9877 23.3656 47.6019 23.3656C48.4196 23.3656 48.9258 22.9178 48.9453 22.2364C48.9647 21.5355 48.4391 21.0488 47.6019 21.0293C47.4851 21.0293 47.3683 21.0293 47.232 21.0293C38.2762 21.0293 29.301 21.0293 20.3452 21.0293C20.1116 21.0293 19.8585 21.0098 19.6248 21.0488ZM35.9205 35.0276C34.4603 35.0276 33.0001 35.0276 31.5399 35.0276C30.0408 35.0276 28.5222 35.0276 27.0231 35.0276C26.1664 35.0276 25.6408 35.4754 25.6408 36.1957C25.6408 36.8966 26.1664 37.3639 27.0231 37.3639C29.9824 37.3639 32.9417 37.3639 35.9205 37.3639C36.7771 37.3639 37.3028 36.8966 37.3028 36.1957C37.3028 35.4948 36.7771 35.0276 35.9205 35.0276ZM31.6178 30.3355C32.2408 30.2187 32.6302 29.8293 32.6302 29.1868C32.6302 28.5444 32.2603 28.155 31.6178 28.0382C31.4036 27.9992 31.1895 28.0187 30.9558 28.0187C23.5186 28.0187 16.0815 28.0187 8.66374 28.0187C8.44958 28.0187 8.21595 27.9992 8.00179 28.0382C7.37878 28.155 6.9894 28.5444 6.9894 29.1868C6.9894 29.8293 7.37878 30.2187 8.00179 30.3355C8.21595 30.3745 8.43011 30.355 8.66374 30.355C12.3629 30.355 16.0425 30.355 19.7416 30.355C23.4797 30.355 27.2178 30.355 30.9558 30.355C31.17 30.355 31.4036 30.3745 31.6178 30.3355ZM29.2815 42.0364C29.0673 41.9975 28.8532 42.017 28.6195 42.017C21.9611 42.017 15.3027 42.017 8.64427 42.017C8.41064 42.017 8.15754 41.9975 7.92391 42.0364C7.33984 42.1727 6.9894 42.5621 6.9894 43.1656C6.9894 43.7887 7.33984 44.1586 7.92391 44.3143C8.15754 44.3727 8.41064 44.3533 8.64427 44.3533C11.993 44.3533 15.3416 44.3533 18.7098 44.3533C22.0195 44.3533 25.3098 44.3533 28.6195 44.3533C28.8337 44.3533 29.0673 44.3727 29.2815 44.3338C29.9045 44.217 30.2939 43.8276 30.2939 43.1851C30.2939 42.5426 29.9045 42.1533 29.2815 42.0364ZM26.5948 49.0258C24.4142 49.0258 22.2142 49.0258 20.0337 49.0258C19.1576 49.0258 18.6514 49.4736 18.6319 50.1745C18.6319 50.8754 19.1381 51.3427 19.9947 51.3621C21.085 51.3816 22.1753 51.3621 23.2656 51.3621C24.3558 51.3621 25.4461 51.3621 26.5364 51.3621C27.393 51.3621 27.9187 50.9143 27.9381 50.2134C27.9771 49.4931 27.4514 49.0258 26.5948 49.0258ZM65.1046 56.2099C63.8781 63.3551 58.4267 68.787 51.3984 69.8188C50.5223 69.9551 49.6072 69.994 48.7116 69.994C34.5576 70.0135 20.3841 69.994 6.23011 69.994C2.4531 69.994 0 67.5409 0 63.725C0 54.1462 0 44.5869 0 35.0081C0 25.4682 0 15.9089 0 6.36907C0 2.43632 2.41416 0.0221546 6.36639 0.0221546C17.6585 0.0221546 28.9505 0.0221546 40.2621 0.00268555C41.0019 0.00268555 41.547 0.216845 42.0532 0.742511C46.4532 5.18146 50.8727 9.58147 55.2922 13.9815C55.7789 14.4682 55.9931 14.9744 55.9931 15.6558C55.9736 23.132 55.9931 30.6276 55.9736 38.1037C55.9736 38.6878 56.1294 38.9798 56.6745 39.2718C62.7489 42.5232 66.2338 49.532 65.1046 56.2099ZM41.9948 10.7886C42.0337 12.4824 43.4745 13.962 45.1877 14.0204C47.3683 14.0983 49.5488 14.0399 51.7488 14.0204C51.7683 14.0204 51.8072 13.962 51.7878 13.9815C48.5364 10.7301 45.3046 7.49828 41.9948 4.18854C41.9753 6.40801 41.9364 8.58855 41.9948 10.7886ZM40.4373 67.6772C32.9417 62.9073 31.0727 53.9905 33.9346 47.2152C36.524 41.1019 44.2922 35.3585 53.5789 37.9674C53.5789 30.8028 53.5789 23.6382 53.5789 16.3762C53.2674 16.3762 52.9948 16.3762 52.7417 16.3762C50.2886 16.3762 47.8355 16.3957 45.3824 16.3762C42.5789 16.3372 40.2231 14.3709 39.7559 11.6063C39.6001 10.7107 39.6391 9.77616 39.6391 8.84165C39.6196 6.71952 39.6391 4.57792 39.6391 2.37791C39.3081 2.37791 39.055 2.37791 38.7824 2.37791C27.9381 2.37791 17.1133 2.37791 6.26904 2.37791C3.69912 2.37791 2.31682 3.76022 2.31682 6.33014C2.31682 25.4488 2.31682 44.5674 2.31682 63.7055C2.31682 66.3339 3.67966 67.6967 6.32745 67.6967C17.4054 67.6967 28.4833 67.6967 39.5612 67.6967C39.8143 67.6772 40.0674 67.6772 40.4373 67.6772ZM62.963 53.7179C62.9825 46.0081 56.694 39.7001 48.9842 39.7001C41.255 39.7001 34.9859 45.9497 34.9665 53.6789C34.9665 61.4082 41.2161 67.6967 48.9258 67.6967C56.655 67.6967 62.9435 61.4276 62.963 53.7179ZM26.731 56.0347C25.9718 56.0152 25.2319 56.0347 24.4726 56.0347C23.7133 56.0347 22.9735 56.0152 22.2142 56.0347C21.4744 56.0542 20.9877 56.5214 20.9682 57.1834C20.9682 57.8453 21.4549 58.3321 22.1948 58.3515C23.6939 58.371 25.2125 58.371 26.7116 58.3515C27.4514 58.3515 27.9576 57.8648 27.9576 57.2029C27.9771 56.5214 27.4903 56.0542 26.731 56.0347ZM8.43011 16.3567C12.908 16.3567 17.3664 16.3567 21.8443 16.3567C22.7594 16.3567 23.3045 15.9089 23.3045 15.1886C23.3045 14.4682 22.7788 14.0204 21.8443 14.0204C19.6054 14.0204 17.3664 14.0204 15.1469 14.0204C12.9275 14.0204 10.6691 14.0204 8.44958 14.0204C7.53453 14.0204 6.9894 14.4487 6.9894 15.1886C6.9894 15.9284 7.51506 16.3567 8.43011 16.3567ZM17.1717 56.0152C15.731 56.0152 14.3098 56.0152 12.8691 56.0152C11.3894 56.0152 9.90976 56.0152 8.43011 56.0152C7.51506 56.0152 6.9894 56.463 6.9894 57.2029C7.00887 57.9037 7.51507 58.3515 8.39118 58.3515C11.331 58.3515 14.2708 58.3515 17.2107 58.3515C18.1257 58.3515 18.6514 57.8843 18.6514 57.1639C18.6319 56.4436 18.0868 56.0152 17.1717 56.0152ZM55.2338 59.8506H46.0833V59.7922C46.901 58.8772 47.6408 57.9816 48.3807 56.9887L56.0904 46.9426C56.2656 46.7285 56.3435 46.4559 56.363 46.1833V45.8913C56.3825 45.171 55.7984 44.5674 55.078 44.5674H44.0585C43.3382 44.5674 42.7736 45.1515 42.7736 45.8524V45.8913C42.7736 46.6117 43.3577 47.1763 44.0585 47.1763H52.4497V47.2542C51.632 48.2081 50.8922 49.0648 50.1134 50.0188L42.2868 60.2011C42.1116 60.4347 42.0143 60.7073 42.0143 60.9799V61.1356C42.0143 61.856 42.5984 62.4206 43.2992 62.4206H55.2338C55.9541 62.4206 56.5187 61.8365 56.5187 61.1356C56.5187 60.4347 55.9541 59.8506 55.2338 59.8506Z" fill="#9ADDFF"/>
</svg>
