<svg width="66" height="71" viewBox="0 0 66 71" fill="none" xmlns="http://www.w3.org/2000/svg">
<path d="M56.6778 40.2681C56.1519 39.9954 55.9766 39.6838 55.9766 39.0995C55.9961 31.6203 55.9766 24.1217 55.9961 16.6426C55.9961 15.9609 55.7819 15.4545 55.2949 14.9676C50.8737 10.5658 46.4524 6.14453 42.0506 1.72328C41.5248 1.1974 40.9989 0.983154 40.2588 0.983154C28.9622 1.00263 17.6656 1.00263 6.34947 1.00263C2.41514 0.983154 0 3.37881 0 7.33263C0 16.8763 0 26.4395 0 35.9832C0 45.5658 0 55.1289 0 64.7116C0 68.5291 2.43461 70.9832 6.23261 70.9832C20.3923 70.9832 34.5715 70.9832 48.7312 70.9832C49.6272 70.9832 50.5426 70.9442 51.419 70.8079C58.4502 69.7756 63.9037 64.3415 65.1308 57.1935C66.2799 50.4934 62.7935 43.4818 56.6778 40.2681ZM42.0117 5.13173C45.3033 8.44281 48.5559 11.676 51.8086 14.9286C51.828 14.9091 51.8086 14.9676 51.7696 14.9676C49.5882 14.9676 47.3873 15.026 45.2059 14.9676C43.4919 14.9091 42.0701 13.4484 42.0117 11.7344C41.9533 9.55299 42.0117 7.37158 42.0117 5.13173ZM39.5965 68.6654C28.5142 68.6654 17.4318 68.6654 6.34947 68.6654C3.72009 68.6654 2.33723 67.302 2.33723 64.6726C2.33723 45.5463 2.33723 26.42 2.33723 7.27419C2.33723 4.70324 3.72009 3.32038 6.29104 3.32038C17.1397 3.32038 27.9688 3.32038 38.8175 3.32038C39.0707 3.32038 39.3433 3.32038 39.6745 3.32038C39.6745 5.52127 39.655 7.64426 39.6745 9.78672C39.6745 10.7021 39.6355 11.637 39.7913 12.5524C40.2588 15.3182 42.6155 17.2853 45.4201 17.3243C47.8742 17.3632 50.3283 17.3243 52.7824 17.3243C53.0551 17.3243 53.3083 17.3243 53.6199 17.3243C53.6199 24.5892 53.6199 31.7567 53.6199 38.9242C44.3294 36.3143 36.5582 42.0599 33.9677 48.1757C31.1046 54.9537 32.9744 63.8936 40.473 68.6459C40.1029 68.6654 39.8498 68.6654 39.5965 68.6654ZM48.9649 68.6654C41.2521 68.6459 34.9805 62.3744 35 54.642C35 46.9292 41.291 40.6576 49.0234 40.6576C56.7362 40.6576 63.0078 46.9681 63.0078 54.681C62.9883 62.3938 56.6973 68.6654 48.9649 68.6654ZM20.3728 21.9793C29.3322 21.9793 38.3111 21.9793 47.2705 21.9793C47.3873 21.9793 47.5042 21.9793 47.6405 21.9793C48.478 21.9987 49.0039 22.4662 48.9844 23.1868C48.9649 23.8685 48.4585 24.3165 47.6405 24.3165C43.0245 24.3165 38.4085 24.3165 33.7924 24.3165C29.2933 24.3165 24.7941 24.3165 20.3144 24.3165C20.0417 24.3165 19.7691 24.336 19.5159 24.2581C18.9705 24.1022 18.6589 23.6932 18.6784 23.1089C18.6978 22.5051 19.0679 22.1156 19.6522 21.9987C19.8859 21.9598 20.1391 21.9793 20.3728 21.9793ZM30.9878 31.3282C27.2482 31.3282 23.5086 31.3282 19.7691 31.3282C16.0684 31.3282 12.3873 31.3282 8.6867 31.3282C8.47245 31.3282 8.23873 31.3476 8.02449 31.3087C7.40122 31.1918 7.01169 30.8023 7.01169 30.1596C7.01169 29.5168 7.38175 29.1273 8.02449 29.0104C8.23873 28.9715 8.45298 28.9909 8.6867 28.9909C16.1269 28.9909 23.5671 28.9909 30.9878 28.9909C31.202 28.9909 31.4357 28.9715 31.65 29.0104C32.2732 29.1273 32.6628 29.5168 32.6628 30.1596C32.6628 30.8023 32.2732 31.1918 31.65 31.3087C31.4357 31.3476 31.202 31.3282 30.9878 31.3282ZM30.3061 44.1634C30.3061 44.8062 29.9165 45.1957 29.2933 45.3126C29.079 45.3515 28.8648 45.3321 28.6311 45.3321C25.32 45.3321 22.0284 45.3321 18.7173 45.3321C15.3673 45.3321 12.0173 45.3321 8.64775 45.3321C8.41402 45.3321 8.16082 45.3515 7.9271 45.2931C7.34279 45.1568 6.99221 44.7672 6.99221 44.144C6.99221 43.5402 7.34279 43.1507 7.9271 43.0143C8.16082 42.9559 8.41402 42.9948 8.64775 42.9948C15.3088 42.9948 21.9699 42.9948 28.6311 42.9948C28.8453 42.9948 29.079 42.9754 29.2933 43.0143C29.936 43.1312 30.3255 43.5207 30.3061 44.1634ZM7.01169 16.1557C7.01169 15.435 7.53756 14.987 8.47245 14.987C10.7123 14.987 12.9521 14.987 15.1725 14.987C17.3929 14.987 19.6522 14.987 21.8726 14.987C22.788 14.987 23.3333 15.4155 23.3333 16.1557C23.3333 16.8763 22.788 17.3243 21.8726 17.3243C17.3929 17.3243 12.9327 17.3243 8.45298 17.3243C7.53756 17.3243 7.01169 16.8763 7.01169 16.1557ZM21.8726 35.9832C22.788 35.9832 23.3333 36.4116 23.3333 37.1518C23.3333 37.8724 22.8075 38.3204 21.892 38.3204C17.4124 38.3204 12.9521 38.3204 8.47245 38.3204C7.55704 38.3204 7.01169 37.8919 7.01169 37.1518C7.01169 36.4311 7.53756 35.9832 8.45298 35.9832C10.6928 35.9832 12.9327 35.9832 15.153 35.9832C17.3929 35.9832 19.6327 35.9832 21.8726 35.9832ZM48.9844 30.1596C48.9844 30.8802 48.4391 31.3282 47.5237 31.3282C43.823 31.3282 40.1419 31.3282 36.4413 31.3282C35.5259 31.3282 34.9805 30.8802 34.9805 30.1596C34.9805 29.4389 35.5064 28.9909 36.4413 28.9909C38.2916 28.9909 40.1419 28.9909 41.9727 28.9909C43.823 28.9909 45.6733 28.9909 47.5042 28.9909C48.4585 28.9909 48.9844 29.4194 48.9844 30.1596ZM37.3178 37.1518C37.3178 37.8529 36.7919 38.3204 35.9349 38.3204C32.9744 38.3204 30.0139 38.3204 27.0339 38.3204C26.177 38.3204 25.6511 37.8724 25.6511 37.1518C25.6511 36.4506 26.177 36.0026 27.0339 35.9832C28.5337 35.9832 30.0529 35.9832 31.5526 35.9832C33.0134 35.9832 34.4741 35.9832 35.9349 35.9832C36.8114 36.0026 37.3178 36.4506 37.3178 37.1518ZM18.6589 58.1479C18.6784 58.8685 18.133 59.336 17.2176 59.336C14.2766 59.336 11.3356 59.336 8.39455 59.336C7.51809 59.336 7.01169 58.9075 6.99221 58.1868C6.97273 57.4662 7.51809 56.9987 8.4335 56.9987C9.91374 56.9987 11.394 56.9987 12.8742 56.9987C14.3155 56.9987 15.7373 56.9987 17.1786 56.9987C18.1135 56.9987 18.6394 57.4077 18.6589 58.1479ZM7.01169 23.1479C7.01169 22.4467 7.53756 21.9987 8.39455 21.9987C9.48525 21.9987 10.576 21.9987 11.6667 21.9987C12.7574 21.9987 13.8481 21.9987 14.9388 21.9987C15.7958 21.9987 16.3216 22.4662 16.3216 23.1673C16.3216 23.8685 15.7958 24.3165 14.9388 24.3165C12.7574 24.3165 10.5565 24.3165 8.37507 24.3165C7.51809 24.3165 6.99221 23.849 7.01169 23.1479ZM7.01169 51.1751C6.99221 50.474 7.51809 50.0065 8.37507 49.987C9.48525 49.9676 10.6149 49.987 11.7251 49.987C12.8158 49.987 13.9065 49.987 14.9972 49.987C15.7958 49.987 16.3022 50.4545 16.3216 51.1362C16.3411 51.8179 15.8152 52.3048 15.0362 52.3243C12.7963 52.3438 10.5565 52.3438 8.33612 52.3243C7.51809 52.3243 7.01169 51.8568 7.01169 51.1751ZM27.9883 51.1751C27.9883 51.8763 27.4624 52.3243 26.586 52.3243C25.4953 52.3243 24.4046 52.3243 23.3139 52.3243C22.2231 52.3243 21.1324 52.3243 20.0417 52.3243C19.1848 52.3243 18.6589 51.8568 18.6784 51.1362C18.6784 50.435 19.2042 49.987 20.0807 49.987C22.2621 49.987 24.463 49.987 26.6444 49.987C27.4819 49.987 28.0078 50.4545 27.9883 51.1751ZM27.9883 58.1673C27.9883 58.8296 27.5014 59.3165 26.7418 59.3165C25.2421 59.336 23.7229 59.336 22.2231 59.3165C21.483 59.297 20.9961 58.8101 20.9961 58.1479C20.9961 57.4857 21.483 57.0182 22.2426 56.9987C23.0022 56.9793 23.7423 56.9987 24.5019 56.9987C25.2615 56.9987 26.0017 56.9793 26.7613 56.9987C27.5014 57.0182 27.9883 57.5051 27.9883 58.1673ZM58.3139 54.681C58.2944 55.4016 57.7685 55.8106 56.8336 55.8106C55.5676 55.8106 54.3016 55.8106 53.0356 55.8106C51.7696 55.8106 50.5036 55.8691 49.2571 55.7912C48.8091 55.7717 48.2443 55.5185 47.9521 55.1874C46.0824 53.0254 44.2515 50.8051 42.4207 48.6042C41.8364 47.903 41.8364 47.2213 42.4207 46.7539C43.005 46.2864 43.6283 46.4228 44.2321 47.1434C45.8486 49.0911 47.4847 51.0193 49.0818 52.967C49.4129 53.376 49.744 53.4929 50.2504 53.4929C52.4318 53.4734 54.6132 53.4734 56.8141 53.4734C57.788 53.4929 58.3333 53.9409 58.3139 54.681Z" fill="#9ADDFF"/>
</svg>
