<svg width="68" height="71" viewBox="0 0 68 71" fill="none" xmlns="http://www.w3.org/2000/svg">
<path d="M55.3214 58.3588C55.1851 58.3588 55.0293 58.3588 54.8346 58.3588C54.8346 56.9958 54.7178 55.6717 54.8541 54.3477C55.3604 49.3435 56.0029 44.3588 56.4702 39.3546C56.8402 35.4603 56.0029 31.7607 54.0752 28.3532C52.4981 25.5299 50.843 22.7649 49.2658 19.961C49.0711 19.63 48.9543 19.2016 48.9543 18.8122C48.9348 15.6968 48.9348 12.6008 48.9348 9.36853C49.772 9.36853 50.5899 9.388 51.4077 9.36853C53.6858 9.31012 55.5356 7.6161 55.8861 5.33793C56.2171 3.15713 54.8541 0.97632 52.6928 0.294818C52.1865 0.139046 51.6413 0.0611598 51.1156 0.0611598C38.8096 0.0222168 26.4647 0.0222168 14.1392 0.0222168C11.3937 0.0222168 9.31029 2.04725 9.31029 4.69537C9.31029 7.3435 11.3937 9.32959 14.1587 9.34906C14.8402 9.34906 15.5217 9.34906 16.3006 9.34906C16.3006 9.6606 16.3006 9.95268 16.3006 10.2253C16.3006 20.2336 16.3006 30.242 16.3006 40.2698C16.3006 41.7107 16.6121 42.0222 18.053 42.0222C23.0572 42.0222 28.0613 42.0222 33.0655 42.0222C33.3186 42.0222 33.5912 42.0222 33.8833 42.0222C31.683 47.8052 32.1893 53.2183 35.8889 58.1836C35.772 58.2809 35.7526 58.3393 35.7136 58.3393C33.9417 58.4562 33.8054 58.5924 33.8054 60.3838C33.8054 63.0904 33.8054 65.7774 33.8054 68.484C33.8054 69.6717 34.1949 70.0417 35.3826 70.0417C42.1198 70.0417 48.8374 70.0417 55.5746 70.0417C56.7623 70.0417 57.1323 69.6523 57.1323 68.4645C57.1323 65.719 57.1323 62.9735 57.1323 60.2281C57.1128 58.6314 56.8597 58.3588 55.3214 58.3588ZM48.9932 2.3588C49.8499 2.3588 50.6483 2.31985 51.4271 2.3588C52.6344 2.43668 53.5885 3.46867 53.5885 4.6759C53.5885 5.88313 52.6344 6.91512 51.4271 6.99301C50.6288 7.03195 49.8305 6.99301 48.9737 6.99301C48.9932 5.41582 48.9932 3.91651 48.9932 2.3588ZM16.2616 7.01248C15.3854 7.01248 14.5676 7.05142 13.7498 6.99301C12.562 6.91512 11.6469 5.88313 11.6274 4.69537C11.6079 3.52708 12.5231 2.45615 13.6914 2.3588C14.5287 2.30038 15.3659 2.33932 16.2422 2.33932C16.2616 3.91651 16.2616 5.41582 16.2616 7.01248ZM18.6371 39.6467C18.6371 38.2447 18.6371 36.9207 18.6371 35.5772C18.6371 34.2726 18.6371 32.9485 18.6371 31.6439C22.6483 31.9555 26.6204 35.9666 26.6399 39.6467C23.9918 39.6467 21.3632 39.6467 18.6371 39.6467ZM34.5259 39.6856C32.7345 39.6856 30.9431 39.6856 29.0933 39.6856C28.7428 36.9402 27.6719 34.5841 25.7442 32.637C23.7971 30.6703 21.4021 29.5799 18.6956 29.2294C18.6956 20.2336 18.6956 11.3157 18.6956 2.37827C28.0224 2.37827 37.2908 2.37827 46.5982 2.37827C46.5982 11.3352 46.5982 20.2726 46.5982 29.1905C45.722 29.3852 44.8652 29.5605 43.989 29.7552C43.8722 29.541 43.7554 29.3268 43.6385 29.1321C42.6455 27.4381 40.6594 26.5424 38.7901 26.9123C36.4925 27.3797 34.9932 29.21 34.9737 31.566C34.9542 34.0389 34.9737 36.5313 34.9737 39.0041C34.9542 39.3351 35.0516 39.6856 34.5259 39.6856ZM46.5787 31.566C46.5787 34.3504 46.5787 36.9791 46.5787 39.6467C45.8193 39.6467 45.0989 39.6467 44.2811 39.6467C44.2811 37.2322 44.2811 34.8956 44.2811 32.5396C44.2811 32.4033 44.3784 32.1696 44.4953 32.1307C45.1768 31.936 45.8583 31.7607 46.5787 31.566ZM35.2463 45.5271C35.5968 43.8915 36.3951 42.3338 36.9403 40.7371C37.1156 40.1919 37.2519 39.6077 37.2714 39.0431C37.3103 36.6481 37.2908 34.2336 37.2908 31.8386C37.2908 30.2614 38.2644 29.171 39.6663 29.1905C41.0294 29.21 41.964 30.2809 41.964 31.8386C41.964 35.363 41.964 38.8873 41.964 42.4116C41.964 42.6648 41.964 42.9179 41.964 43.1516C42.8013 43.1516 43.5217 43.1516 44.2616 43.1516C44.2811 42.7621 44.3006 42.4116 44.3395 42.0222C45.352 42.0222 46.2867 42.0222 47.2213 42.0222C48.6427 42.0222 48.9543 41.7107 48.9543 40.2503C48.9543 35.2072 48.9543 30.1446 48.9543 25.1015C48.9543 24.8484 48.9543 24.5952 48.9543 24.3616C50.0641 26.0167 51.0572 27.6912 51.9918 29.3852C53.7248 32.4617 54.4452 35.7719 54.1531 39.2573C53.9195 42.0612 53.5301 44.8456 53.238 47.6495C52.907 51.018 52.2839 54.3866 52.4396 57.7941C52.4396 57.9499 52.4396 58.1251 52.4396 58.3198C47.7665 58.3198 43.1517 58.3198 38.5954 58.3198C37.9334 57.21 37.3492 56.1585 36.7067 55.1265C34.7985 52.1474 34.5648 48.8762 35.2463 45.5271ZM54.7373 67.6272C48.5064 67.6272 42.3339 67.6272 36.1615 67.6272C36.1615 65.3101 36.1615 63.032 36.1615 60.7148C42.3729 60.7148 48.5453 60.7148 54.7373 60.7148C54.7373 63.0514 54.7373 65.3491 54.7373 67.6272ZM67.53 16.3977C67.3548 16.7482 66.8096 17.0208 66.4007 17.0792C65.7192 17.1961 64.9988 17.1182 64.1615 17.1182V27.8275C64.1615 28.2753 63.7915 28.6453 63.3437 28.6453H62.6817C62.2338 28.6453 61.8638 28.2753 61.8638 27.8275C61.8638 21.5772 61.8638 24.7705 61.8638 18.5201C61.8638 17.7997 61.8638 17.0598 61.8638 16.3393C61.8638 15.171 62.2338 14.8011 63.3632 14.7816C63.5384 14.7816 63.7136 14.7427 63.9668 14.7037C62.8374 13.3407 61.7665 12.0751 60.6761 10.7705C59.5467 12.1335 58.4953 13.3991 57.3659 14.7427C59.3715 14.8595 59.5078 14.9958 59.5078 16.8845C59.5078 23.6606 59.5078 21.0125 59.5078 27.7886V27.808C59.5078 28.2559 59.1378 28.6258 58.69 28.6258H57.9695C57.5217 28.6258 57.1517 28.2559 57.1517 27.808V17.1182C56.4313 17.1182 55.7498 17.0987 55.0683 17.1182C54.5231 17.1377 54.0558 16.9819 53.8026 16.4562C53.53 15.9304 53.7053 15.4826 54.0558 15.0542C55.925 12.815 57.7748 10.5758 59.6636 8.33654C60.2867 7.59663 61.0266 7.57715 61.6497 8.2976C63.5579 10.5563 65.4661 12.8345 67.3159 15.1516C67.5885 15.4436 67.6858 16.0862 67.53 16.3977ZM13.5551 23.5632C13.9056 23.9916 14.1003 24.42 13.8471 24.9652C13.594 25.4909 13.1462 25.6662 12.5815 25.6467C11.8805 25.6272 11.199 25.6467 10.4202 25.6467V45.7023C10.4202 46.2086 10.0113 46.598 9.52449 46.598H9.0377C8.53144 46.598 8.142 46.1891 8.142 45.7023C8.142 38.9652 8.142 32.2475 8.142 25.5104C8.142 23.5243 8.14201 23.5048 10.1086 23.2906C10.1281 23.2906 10.1281 23.2517 10.1865 23.1543C9.13505 21.9082 8.08359 20.6231 6.97371 19.299C5.86384 20.6425 4.79291 21.9082 3.70251 23.2322C3.85828 23.2712 3.91669 23.2906 3.99458 23.3101C5.61071 23.388 5.8249 23.5827 5.8249 25.2183C5.8249 32.0528 5.8249 38.8873 5.8249 45.7218C5.47441 46.0723 5.2797 46.267 4.92921 46.6175H4.38401C3.87775 46.6175 3.48832 46.2086 3.48832 45.7218V25.6662C2.72893 25.6662 2.0669 25.6662 1.3854 25.6662C0.8402 25.6856 0.372884 25.5104 0.119755 24.9847C-0.133375 24.4395 0.0418675 24.0111 0.392354 23.5827C2.24215 21.363 4.09194 19.1432 5.94173 16.9235C6.5064 16.242 7.44104 16.242 8.02518 16.9235C9.87497 19.1237 11.7053 21.3435 13.5551 23.5632ZM40.7957 12.815C40.7762 8.2976 37.0961 4.65643 32.5398 4.69537C28.1003 4.71485 24.4591 8.41443 24.4591 12.8539C24.4786 17.3908 28.1392 21.032 32.6761 21.0125C37.1545 21.0125 40.7957 17.3129 40.7957 12.815ZM32.6566 18.6954C29.4438 18.7148 26.8152 16.0862 26.8152 12.8734C26.8152 9.6606 29.4243 7.03195 32.6566 7.03195C35.8499 7.03195 38.4591 9.64113 38.4786 12.815C38.4591 16.0473 35.8694 18.6759 32.6566 18.6954Z" fill="#9ADDFF"/>
</svg>
