<svg width="87" height="71" viewBox="0 0 87 71" fill="none" xmlns="http://www.w3.org/2000/svg">
<path d="M70.2725 37.8698C68.3283 38.2212 66.548 39.041 64.8615 40.0248C60.5515 42.5312 56.2414 45.061 51.9314 47.5674C51.3692 47.8953 50.7602 48.1764 49.9872 48.5512C50.1043 48.1999 50.1277 48.0593 50.1746 47.9422C51.2052 44.6628 49.3781 41.6177 46.0051 40.9618C45.6068 40.8915 45.1852 40.8213 44.8104 40.7041C40.9689 39.4861 37.1507 38.268 33.3326 37.0031C31.3415 36.3472 29.3739 36.2301 27.4063 36.9094C26.2819 37.3076 25.1575 37.7761 24.1269 38.3383C20.8944 40.142 17.7087 42.0393 14.4996 43.8898C14.2653 44.0304 14.0076 44.1475 13.75 44.288C13.586 44.0069 13.4455 43.7727 13.3283 43.5385C12.1103 41.4537 10.3066 40.9384 8.22188 42.1096C7.12094 42.7186 6.02001 43.3276 4.9425 43.9601C3.04514 45.061 2.50639 46.935 3.56047 48.8323C7.19122 55.274 10.822 61.6922 14.4761 68.1104C15.5771 70.0546 17.451 70.5465 19.4186 69.4456C20.5664 68.8131 21.7142 68.1572 22.8386 67.5014C24.6422 66.4473 25.1575 64.5265 24.1737 62.676C23.7989 61.9967 23.4007 61.3174 23.026 60.6147C24.1269 59.8651 25.0639 59.3263 26.5161 59.748C31.646 61.2471 36.8228 62.5354 41.9761 63.9409C45.1384 64.8076 48.0898 64.3625 50.8773 62.6291C58.7946 57.7335 66.7354 52.8613 74.6528 47.9656C76.7375 46.6773 77.7214 44.3115 77.1592 41.9222C76.3862 38.9239 73.6221 37.2608 70.2725 37.8698ZM21.1989 65.2292C20.1448 65.7914 19.1141 66.4004 18.06 66.986C17.8726 67.0797 17.6852 67.15 17.3573 67.314C17.1231 67.0329 16.842 66.7518 16.6546 66.4239C13.9608 61.6688 11.267 56.9137 8.59667 52.182C7.7534 50.6828 6.91013 49.1837 6.04343 47.6845C5.66865 47.0521 5.78577 46.6773 6.41822 46.3494C7.40203 45.834 8.339 45.2718 9.32282 44.7097C10.3066 44.1475 10.4003 44.1709 10.9391 45.1313C13.6094 49.8396 16.2564 54.5244 18.9267 59.2326C19.7934 60.7786 20.6601 62.3481 21.5737 63.8706C21.925 64.4797 21.8547 64.8779 21.1989 65.2292ZM73.1302 45.5998C65.1426 50.5189 57.1784 55.4379 49.1907 60.357C47.0826 61.6688 44.8573 61.903 42.468 61.2471C37.0336 59.748 31.5758 58.3425 26.1648 56.8434C25.017 56.5154 24.08 56.5623 23.1196 57.265C22.6512 57.6164 22.1124 57.8506 21.5502 58.1786C19.4186 54.3604 17.287 50.6125 15.0852 46.7241C19.0673 44.4754 22.9088 42.2267 26.8441 40.0951C28.7649 39.041 30.8028 39.041 32.9344 39.7906C36.7291 41.1258 40.5941 42.2501 44.4356 43.4682C44.8338 43.5853 45.2321 43.6322 45.6303 43.7493C47.0123 44.0772 47.879 45.2484 47.6682 46.4899C47.4339 47.8953 46.3798 48.6683 44.8104 48.3638C42.7491 47.9656 40.7346 47.38 38.6967 46.8647C37.7832 46.6304 36.8931 46.3494 36.0029 46.1151C35.2065 45.9277 34.5038 46.3494 34.2695 47.0755C34.0587 47.8017 34.4335 48.5981 35.2299 48.7855C38.9544 49.7224 42.6788 50.6828 46.4501 51.4792C48.7925 51.9712 51.0178 51.3387 53.0791 50.1206C57.436 47.5674 61.7929 45.0142 66.1733 42.5078C67.4616 41.7816 68.867 41.2897 70.2491 40.751C70.6941 40.587 71.2329 40.5636 71.7248 40.5636C73.1068 40.5636 73.9969 41.196 74.3014 42.3672C74.6528 43.7024 74.2312 44.9205 73.1302 45.5998ZM17.8726 38.1743C22.8151 35.2931 27.7811 32.4354 32.747 29.6011C33.4731 29.1794 33.7776 28.6407 33.7776 27.8208C33.7542 22.0819 33.7542 16.3664 33.7776 10.6275C33.7776 9.85451 33.4731 9.31575 32.7938 8.91754C27.8045 6.05979 22.862 3.20205 17.9195 0.320875C17.2168 -0.0773359 16.5843 -0.0773359 15.8816 0.320875C10.9625 3.17862 6.04343 6.03637 1.10094 8.87069C0.28109 9.31575 0 9.90136 0 10.7915C0.0234242 13.6258 0.0234242 16.4601 0.0234242 19.2944C0.0234242 22.1288 0.0468483 24.9631 0.0234242 27.7974C0.0234242 28.5704 0.28109 29.1326 0.983815 29.5308C5.97316 32.3886 10.9391 35.2697 15.9284 38.1509C16.5843 38.5491 17.1699 38.5725 17.8726 38.1743ZM30.9433 12.8294C30.9433 14.9376 30.9433 16.8818 30.9433 18.826C30.9433 21.426 30.9667 24.0261 30.9199 26.6262C30.9199 26.9541 30.7091 27.4461 30.4514 27.61C26.5864 29.8822 22.6746 32.1309 18.7862 34.3796C18.6691 34.4499 18.5285 34.4967 18.3177 34.5904C18.2943 34.3328 18.2708 34.1454 18.2708 33.958C18.2708 29.5777 18.2708 25.1973 18.2943 20.817C18.2943 20.4891 18.4817 19.9737 18.7393 19.8332C22.6277 17.5376 26.563 15.2889 30.4748 13.0402C30.5685 12.9465 30.6857 12.9231 30.9433 12.8294ZM27.1486 8.94097C27.9216 9.33918 28.6477 9.80766 29.5144 10.323C28.2027 11.0726 27.0081 11.7753 25.8134 12.478C23.0494 14.0709 20.2619 15.6637 17.4744 17.28C17.0528 17.5376 16.7248 17.5611 16.2798 17.28C15.6473 16.8583 14.9915 16.507 14.195 16.0385C18.4114 13.6024 22.4403 11.26 26.4927 8.94097C26.6801 8.87069 26.9846 8.84727 27.1486 8.94097ZM23.9161 7.16073C23.6584 7.3247 23.4242 7.48867 23.1665 7.65264C19.6997 9.64369 16.2095 11.5879 12.813 13.6726C11.6887 14.3519 10.822 14.4925 9.86157 13.415C10.6814 12.9231 11.5013 12.4546 12.2977 12.0095C15.2491 10.2996 18.2474 8.65988 21.1286 6.85622C22.2061 6.15349 23.0025 6.24719 23.9161 7.16073ZM10.0021 20.5359C8.29215 19.88 8.29215 19.88 8.29215 18.2169C8.29215 17.5142 8.29215 16.8115 8.29215 16.1088C9.55706 16.2727 10.0021 16.7412 10.0021 17.889C10.0021 18.7791 10.0021 19.6458 10.0021 20.5359ZM6.62904 8.91754C9.83815 7.06703 13.0473 5.23995 16.2329 3.36602C16.7249 3.0615 17.0996 3.0615 17.5681 3.36602C18.1771 3.76423 18.8096 4.11559 19.5592 4.53722C18.8564 4.93543 18.2708 5.2868 17.6852 5.63816C14.2887 7.58237 10.9157 9.52657 7.54258 11.4942C7.0741 11.7753 6.74616 11.7987 6.27767 11.4942C5.66865 11.096 5.03619 10.7446 4.23977 10.2996C5.12989 9.78424 5.85604 9.33918 6.62904 8.91754ZM15.4599 34.2625C15.4599 34.3328 15.4131 34.4265 15.3662 34.5904C14.6869 34.1922 14.0311 33.8174 13.3752 33.4426C10.0724 31.5219 6.74616 29.6245 3.44335 27.7037C3.16226 27.5397 2.83432 27.1181 2.83432 26.8136C2.8109 22.2459 2.8109 17.7016 2.83432 13.1339C2.83432 13.0636 2.85775 12.9699 2.9046 12.7825C3.72444 13.251 4.52086 13.6726 5.24701 14.1646C5.41098 14.2817 5.48125 14.6799 5.48125 14.9376C5.50468 16.6241 5.50468 18.3341 5.48125 20.0206C5.45783 20.9107 5.78577 21.5197 6.58219 21.9414C7.89394 22.6441 9.15885 23.4405 10.4472 24.1667C11.7589 24.8928 12.7896 24.3072 12.7896 22.8081C12.813 21.426 12.7896 20.0674 12.7896 18.5214C13.6797 19.0368 14.4527 19.4584 15.2023 19.9503C15.3428 20.044 15.4365 20.3485 15.4365 20.5359C15.4599 25.1036 15.4599 29.6948 15.4599 34.2625ZM86.9505 33.0679C86.5757 30.257 85.5919 27.7037 83.9288 25.4082C81.9611 22.7378 79.4079 20.8639 76.2691 19.6692C78.2835 17.889 79.525 15.7808 79.6656 13.1105C79.8061 10.4635 78.9394 8.16797 77.0889 6.27061C73.8564 2.96781 68.6328 2.71014 65.0489 5.66158C63.3389 7.06703 62.2614 8.89412 61.9101 11.0726C61.3479 14.5159 62.5894 17.3502 65.1894 19.6458C64.9318 19.7629 64.7678 19.8332 64.6038 19.9035C58.982 22.3162 55.6558 26.5559 54.5783 32.5759C54.2738 34.2859 54.7657 34.8481 56.4991 34.8481C59.9424 34.8481 63.3858 34.8481 66.8526 34.8481C72.9663 34.8481 79.08 34.8481 85.1702 34.8481C86.5054 34.8481 87.1145 34.2391 86.9505 33.0679ZM64.5804 12.5717C64.5804 9.17521 67.3913 6.38773 70.7878 6.41116C74.1609 6.43458 76.8781 9.22206 76.8547 12.5951C76.8312 15.9916 74.114 18.7088 70.7175 18.6854C67.3445 18.6854 64.5804 15.9448 64.5804 12.5717ZM57.7171 31.9903C57.6703 27.0947 64.1822 21.7071 70.413 21.5197C76.7375 21.3089 83.5071 26.5794 83.8116 31.9903C75.0979 31.9903 66.4075 31.9903 57.7171 31.9903ZM36.4011 23.909C37.9003 22.8081 39.4697 21.754 41.0391 20.7702C41.695 20.3485 42.3743 20.5828 42.7959 21.2152C43.1942 21.8243 43.1239 22.4333 42.632 22.972C42.468 23.136 42.304 23.2766 41.9761 23.5811C42.4212 23.5811 42.7022 23.5811 42.9599 23.5811C46.4267 23.5811 49.9169 23.5811 53.3837 23.5811C54.2269 23.5811 54.8125 23.8856 55.0233 24.7289C55.2342 25.619 54.508 26.392 53.3837 26.392C49.9872 26.392 46.6141 26.392 43.2176 26.392C42.8662 26.392 42.5383 26.392 41.9527 26.392C42.304 26.6965 42.468 26.8136 42.6085 26.9541C43.1473 27.5163 43.1941 28.1722 42.7257 28.7812C42.2572 29.3903 41.6013 29.5542 40.9454 29.1326C39.3994 28.1254 37.8769 27.1181 36.3777 26.0172C35.675 25.5018 35.675 24.4478 36.4011 23.909ZM35.8858 13.5087C35.8858 12.7123 36.4246 12.1735 37.3615 12.0798C37.6192 12.0564 37.8769 12.0798 38.158 12.0564C41.3671 12.0564 44.5762 12.0564 47.7853 12.0564C48.0898 12.0564 48.3943 12.0564 48.8159 12.0564C48.6754 11.869 48.652 11.7987 48.5817 11.7284C47.7853 10.9554 47.6682 10.2527 48.2069 9.59684C48.7223 8.98781 49.4718 8.94097 50.3151 9.50315C51.6269 10.3698 52.9386 11.26 54.2269 12.1501C55.3513 12.9231 55.3513 13.9772 54.2269 14.7502C52.962 15.6403 51.6737 16.507 50.3854 17.3502C49.4718 17.9593 48.652 17.9124 48.1367 17.2097C47.6447 16.5538 47.8321 15.8277 48.652 15.1015C48.6988 15.0547 48.7223 15.0078 48.8628 14.797C47.7384 14.797 46.7546 14.797 45.7708 14.797C42.9599 14.797 40.1724 14.797 37.3615 14.797C36.448 14.8673 35.8858 14.3051 35.8858 13.5087ZM10.658 47.8251C10.6346 48.5512 10.0021 49.1603 9.29939 49.1603C8.57324 49.1368 7.96421 48.5044 7.98764 47.8017C8.01106 47.0755 8.64352 46.4665 9.34624 46.4665C10.049 46.4665 10.6814 47.1224 10.658 47.8251Z" fill="#9ADDFF"/>
</svg>
