<svg width="71" height="71" viewBox="0 0 71 71" fill="none" xmlns="http://www.w3.org/2000/svg">
<path d="M68.9653 48.9839C67.2851 46.7376 64.144 46.0801 61.4594 47.4681C58.7383 48.8926 56.0355 50.3535 53.3326 51.7963C53.1135 51.9059 52.8943 52.0154 52.6569 52.125V36.1636C54.2457 36.1636 55.798 36.2549 57.3321 36.1454C59.8158 35.9627 61.6055 34.5931 62.5734 32.3285C63.5413 30.1005 63.2674 27.909 61.7881 25.9549C60.4185 24.1287 58.5009 23.3982 56.2546 23.3982C48.2374 23.4164 40.2202 23.3982 32.203 23.3982C30.9246 23.3982 29.7193 23.179 28.6053 22.5216C26.5599 21.3162 25.4093 18.6864 25.9572 16.3489C26.5233 13.8834 28.5687 11.9841 30.9794 11.8198C32.3673 11.7285 33.7553 11.765 35.1432 11.7102C35.5815 11.6919 35.8554 11.8563 36.0929 12.2033C38.0835 14.8879 40.1106 17.5542 42.1012 20.2388C42.5212 20.8049 43.0143 21.0606 43.7083 21.0606C51.9995 21.0606 60.2906 21.0606 68.5818 21.0606C69.7323 21.0606 70.1341 20.6405 70.1341 19.4717C70.1341 13.5182 70.1341 7.58287 70.1341 1.62931C70.1341 0.442253 69.7323 0.0404793 68.527 0.0404793C60.2724 0.0404793 52.036 0.0404793 43.7814 0.0222168C43.0143 0.0222168 42.503 0.296154 42.0647 0.898815C40.0923 3.56513 38.0835 6.21319 36.0929 8.89777C35.8372 9.24476 35.5632 9.3726 35.125 9.3726C33.9927 9.33607 32.8421 9.33607 31.7099 9.3726C25.7928 9.50043 21.9395 15.1253 24.0579 20.5492C25.2997 23.7269 28.3131 25.6992 31.9473 25.7175C38.4852 25.7358 45.0232 25.7175 51.5612 25.7175C53.3691 25.7175 55.1589 25.681 56.9668 25.7358C59.067 25.8088 60.6559 27.4524 60.802 29.6257C60.9298 31.4884 59.5053 33.479 57.5878 33.7164C55.9807 33.9173 54.3371 33.753 52.6386 33.753C52.6386 32.4198 52.6386 31.0867 52.6386 29.7352C52.6386 28.3473 52.3099 28.0186 50.9037 28.0186C40.4028 28.0186 29.9019 28.0186 19.401 28.0186C19.2183 28.0186 19.0357 28.0186 18.8531 28.0186C18.2504 28.0551 17.7391 28.5117 17.666 29.096C17.6478 29.3152 17.6478 29.5526 17.6478 29.79C17.6478 35.214 17.6478 40.6379 17.666 46.0619C17.666 46.5367 17.5565 46.8106 17.0451 46.9202C16.7529 46.9933 16.4607 47.0846 16.205 47.2489C15.4563 47.742 14.6345 47.8516 13.7579 47.8516C9.6123 47.8333 5.46672 47.8333 1.32114 47.8516C0.681955 47.8516 0.152344 48.3812 0.152344 49.0204C0.152344 49.6596 0.663693 50.1892 1.32114 50.1892H14.1049V67.6846H1.32114C0.681955 67.6846 0.152344 68.196 0.152344 68.8534C0.152344 69.4926 0.663693 70.0222 1.32114 70.0222H45.2241C46.5938 69.3465 48.0182 68.7438 49.3331 67.9586C55.2684 64.4339 61.1672 60.891 67.0843 57.3298C70.2254 55.4853 71.0472 51.778 68.9653 48.9839ZM45.2424 13.993C46.7764 13.6277 47.9087 12.2763 47.9635 10.724C48.0182 9.17171 47.0321 7.7655 45.5528 7.29067C43.9457 6.76106 42.2108 7.45504 41.4255 8.95256C41.2429 9.31781 41.042 9.44565 40.6402 9.42738C40.0376 9.39086 39.4166 9.42738 38.7044 9.42738C38.8505 9.18997 38.9601 9.00735 39.0696 8.86125C40.5672 6.85238 42.0647 4.84351 43.5987 2.8529C43.7631 2.63375 44.1101 2.45112 44.3658 2.45112C52.036 2.43286 59.7245 2.43286 67.3947 2.43286C67.5043 2.43286 67.6139 2.45112 67.7965 2.46939C67.7965 7.9116 67.7965 13.2808 67.7965 18.7412C67.5408 18.7595 67.3034 18.7778 67.066 18.7778C59.5419 18.7778 52.036 18.7778 44.5119 18.7595C44.2197 18.7595 43.8179 18.6134 43.6535 18.4125C42.0647 16.3489 40.5124 14.2669 38.9601 12.2033C38.887 12.0937 38.8322 11.9841 38.7227 11.7832C39.5079 11.7832 40.2202 11.7467 40.9142 11.8015C41.115 11.8198 41.3342 12.0937 41.4438 12.3129C42.1743 13.6277 43.7266 14.34 45.2424 13.993ZM43.3065 10.5414C43.3248 9.93873 43.8544 9.42738 44.4571 9.42738C45.078 9.42738 45.6259 9.99352 45.6076 10.6144C45.5893 11.2354 45.0597 11.7285 44.4571 11.7102C43.7814 11.7285 43.2883 11.1988 43.3065 10.5414ZM32.8239 30.4657C34.3762 30.4657 35.8737 30.4657 37.4078 30.4657C37.4078 31.9998 37.4078 33.4973 37.4078 35.0313C35.892 35.0313 34.3945 35.0313 32.8239 35.0313C32.8239 33.5338 32.8239 32.018 32.8239 30.4657ZM19.9854 30.484C23.437 30.484 26.9068 30.484 30.468 30.484C30.468 31.3423 30.468 32.2007 30.468 33.059C30.468 34.0634 30.4498 35.0679 30.468 36.0723C30.4863 36.9854 30.9063 37.4055 31.8194 37.4055C34.0109 37.4237 36.2024 37.4237 38.3757 37.4055C39.3436 37.4055 39.7636 36.9672 39.7636 35.9627C39.7636 34.3739 39.7636 32.7668 39.7636 31.178C39.7636 30.9588 39.7636 30.7397 39.7636 30.4657C43.27 30.4657 46.7216 30.4657 50.2828 30.4657C50.2828 30.7214 50.2828 30.9771 50.2828 31.251C50.2828 38.3734 50.2645 45.514 50.301 52.6364C50.301 53.2573 50.1002 53.6043 49.5523 53.8234C49.187 53.9695 48.8401 54.1887 48.3652 54.4261C48.7487 52.2711 48.2191 50.5727 46.7034 49.2213C45.7537 48.3629 44.6214 47.9246 43.3431 47.9246C39.7271 47.9064 36.0929 47.9246 32.4769 47.9064C32.1482 47.9064 31.8012 47.8333 31.509 47.6872C28.0574 45.9888 24.4414 45.3679 20.6246 45.9888C20.4237 46.0253 20.2228 46.0253 19.9854 46.0436C19.9854 40.8753 19.9854 35.7071 19.9854 30.484ZM66.4816 54.9557C66.2259 55.1566 65.9702 55.3209 65.6963 55.4853C59.3592 59.3022 53.0039 63.1007 46.6668 66.9176C45.7354 67.4837 44.7858 67.7577 43.69 67.7577C34.8875 67.7394 26.1033 67.7577 17.3008 67.7577C17.0451 67.7577 16.8077 67.7577 16.4242 67.7577C16.4242 67.4655 16.4242 67.2281 16.4242 67.0089C16.4242 61.4936 16.4242 55.9784 16.4059 50.4631C16.4059 49.9518 16.552 49.7144 17.0269 49.5135C21.5194 47.5594 25.9389 47.669 30.3584 49.7691C30.9611 50.0614 31.6916 50.2257 32.3673 50.244C35.965 50.2805 39.5627 50.2622 43.1604 50.2622C44.4753 50.2622 45.498 50.9562 45.9363 52.1067C46.3746 53.2573 46.1372 54.2982 45.3154 55.2114C44.6397 55.9419 43.7631 56.1062 42.8134 56.1062C39.654 56.1062 36.4764 56.1062 33.317 56.1062C32.1482 56.1062 31.582 56.4897 31.6003 57.275C31.6186 58.0603 32.1847 58.4438 33.3535 58.4438C37.2434 58.4438 41.1516 58.4621 45.0415 58.4256C45.5711 58.4256 46.1372 58.2795 46.5938 58.0238C51.8351 55.2661 57.0399 52.472 62.263 49.6778C63.0665 49.2395 63.8883 49.0021 64.8197 49.13C66.1711 49.3126 67.2486 50.2074 67.6139 51.4858C67.9974 52.7825 67.5591 54.1156 66.4816 54.9557ZM11.7673 61.9137C11.7673 59.9779 10.2332 58.4438 8.2974 58.4438C6.37984 58.4438 4.80927 59.9779 4.79101 61.8954C4.77275 63.7947 6.3981 65.4383 8.31566 65.4201C10.215 65.4018 11.7673 63.8312 11.7673 61.9137ZM7.1286 61.9319C7.11034 61.2928 7.65821 60.7631 8.2974 60.7631C8.95485 60.7814 9.44794 61.2928 9.42967 61.9502C9.41141 62.5711 8.8818 63.0642 8.27914 63.0642C7.67648 63.0642 7.1286 62.5163 7.1286 61.9319ZM54.5745 10.1031C54.5745 9.40912 55.1406 8.84298 55.8346 8.84298H60.802C61.4959 8.84298 62.0621 9.40912 62.0621 10.1031C62.0621 10.7971 61.4959 11.3632 60.802 11.3632H59.5784V15.7279C59.5784 16.4219 59.0122 16.988 58.3183 16.988C57.6243 16.988 57.0582 16.4219 57.0582 15.7279V11.3632H55.8346C55.1406 11.3632 54.5745 10.7971 54.5745 10.1031ZM54.5745 6.19493C54.5745 5.50095 55.1406 4.93482 55.8346 4.93482H60.802C61.4959 4.93482 62.0621 5.50095 62.0621 6.19493C62.0621 6.8889 61.4959 7.45504 60.802 7.45504H55.8346C55.1406 7.45504 54.5745 6.8889 54.5745 6.19493Z" fill="#9ADDFF"/>
</svg>
