<svg width="21" height="20" viewBox="0 0 21 20" fill="none" xmlns="http://www.w3.org/2000/svg">
<path d="M20.7833 7.78827C20.7761 7.2238 20.7261 6.64504 20.6047 6.09486C19.7901 2.45795 16.732 0.0214356 12.995 0.00714521C11.5302 0 10.0726 -0.00714521 8.60786 0.0142904C8.04338 0.0214356 7.46462 0.0714521 6.91444 0.192921C3.29182 0.986038 0.833872 4.05848 0.819582 7.78827C0.812437 9.26019 0.819582 10.7321 0.819582 12.204C0.819582 12.9685 0.919615 13.7116 1.13397 14.4476C2.00569 17.4915 4.79946 19.7636 7.9505 19.9494C8.89366 20.0066 9.83683 19.9566 10.7871 19.9566C10.7871 19.9708 10.7871 19.978 10.7871 19.9923C11.4374 19.9923 12.0876 20.0137 12.7378 19.9851C13.3951 19.9566 14.0668 19.9494 14.7027 19.8065C18.3468 18.9991 20.7833 15.9481 20.8047 12.2112C20.8047 10.7321 20.8119 9.26019 20.7833 7.78827ZM19.0827 12.2254C19.0613 15.1621 17.1106 17.5558 14.2597 18.1417C13.8453 18.2274 13.4094 18.2489 12.9879 18.2631C12.2591 18.2846 11.5231 18.2703 10.7943 18.2703C10.7943 18.256 10.7943 18.2489 10.7943 18.2346C9.85827 18.2346 8.92224 18.2846 7.98622 18.2274C5.35679 18.0702 3.0346 15.9195 2.62732 13.3115C2.57016 12.9543 2.53443 12.5827 2.53443 12.2183C2.52729 10.7321 2.52014 9.23875 2.53443 7.75255C2.55587 4.82301 4.50651 2.42222 7.35744 1.83632C7.75758 1.75058 8.172 1.72199 8.57927 1.71485C10.0655 1.70056 11.5588 1.70056 13.045 1.7077C15.9817 1.72914 18.3754 3.67264 18.9613 6.53072C19.047 6.93085 19.0756 7.34527 19.0827 7.75255C19.0899 9.25304 19.0899 10.7392 19.0827 12.2254ZM7.97193 9.51027C7.58609 9.11728 7.56466 8.60283 7.91477 8.25271C8.26489 7.9026 8.78649 7.92403 9.17233 8.30273C9.41526 8.53852 9.64391 8.7886 9.8797 9.02439C9.90114 9.0101 9.92257 9.00296 9.94401 8.98867C9.94401 8.83862 9.94401 8.68857 9.94401 8.53852C9.94401 7.12377 9.94401 5.70902 9.94401 4.28712C9.94401 3.82268 10.2727 3.47257 10.73 3.4297C11.1373 3.38683 11.5374 3.68693 11.6303 4.10849C11.6517 4.20853 11.6517 4.32285 11.6517 4.43003C11.6517 5.85192 11.6517 7.28096 11.6517 8.70286C11.6517 8.79575 11.6517 8.89578 11.6517 9.06727C11.9447 8.77431 12.1947 8.53137 12.4377 8.28129C12.7021 8.01692 13.0164 7.93118 13.3666 8.05265C13.9525 8.25986 14.1168 8.98152 13.681 9.45311C13.3594 9.79608 13.0164 10.1248 12.6806 10.4606C12.2733 10.8679 11.8661 11.2823 11.4516 11.6896C11.0229 12.104 10.5514 12.104 10.1369 11.6896C9.42241 10.9679 8.6936 10.2391 7.97193 9.51027ZM13.9453 14.5691C13.9382 15.0621 13.5595 15.4122 13.0093 15.4122C12.2733 15.4194 11.5302 15.4122 10.7943 15.4122C10.0655 15.4122 9.33667 15.4122 8.60786 15.4122C8.05767 15.4122 7.67183 15.0621 7.67183 14.5691C7.66469 14.0832 8.05767 13.7045 8.59356 13.7045C10.0726 13.6974 11.5517 13.6974 13.0236 13.7045C13.5595 13.7045 13.9525 14.0832 13.9453 14.5691Z" fill="white"/>
</svg>
