<svg width="20" height="21" viewBox="0 0 20 21" fill="none" xmlns="http://www.w3.org/2000/svg">
<g clip-path="url(#clip0_202_131)">
<path d="M15.4244 18.0299C15.6087 18.3906 15.5107 18.8298 15.15 19.0376C14.7226 19.2846 14.2835 19.5159 13.8326 19.7119C12.8328 20.1432 11.7859 20.3863 10.6999 20.4686C10.6489 20.4726 10.5979 20.4883 10.547 20.5C10.1549 20.5 9.76671 20.5 9.37463 20.5C8.95511 20.4451 8.53558 20.4059 8.11998 20.3314C4.21486 19.6178 1.03901 16.5478 0.19604 12.6623C0.117624 12.3095 0.0627328 11.9488 0 11.5959C0 10.8666 0 10.1373 0 9.40807C0.0627328 9.05912 0.117624 8.70625 0.19604 8.36122C1.04293 4.45218 4.16781 1.4018 8.10821 0.680371C10.8096 0.186351 13.319 0.7235 15.6048 2.25261C15.9851 2.50746 16.0831 2.96228 15.8557 3.33083C15.6283 3.69547 15.1578 3.81309 14.7775 3.57C14.0835 3.12695 13.3699 2.73095 12.5779 2.49178C9.89218 1.67625 7.37502 2.02521 5.07744 3.64842C3.4111 4.82466 2.30151 6.41258 1.79965 8.39651C1.188 10.8117 1.55656 13.0975 2.94452 15.1677C4.32856 17.234 6.2772 18.4847 8.7473 18.8533C10.6293 19.1356 12.4133 18.7905 14.0796 17.8731C14.2051 17.8025 14.3266 17.728 14.4599 17.6731C14.8206 17.5202 15.2441 17.6849 15.4244 18.0299ZM9.6138 12.5526C8.79827 11.7762 7.97883 11.0038 7.1633 10.2275C6.66928 9.75702 6.17134 9.29045 5.67732 8.81603C5.4656 8.61607 5.22643 8.50237 4.93237 8.5651C4.63439 8.62783 4.4305 8.80819 4.34033 9.09833C4.23838 9.42376 4.34033 9.70213 4.57949 9.92954C5.92041 11.1999 7.26132 12.4741 8.60223 13.7445C9.00608 14.1287 9.48834 14.3248 10.151 14.3287C10.6842 14.3052 11.2056 14.0542 11.6056 13.5563C14.3109 10.1883 17.0202 6.82034 19.7255 3.4563C19.7726 3.39749 19.8236 3.33083 19.8589 3.26418C20.0157 2.9858 19.9882 2.65253 19.7922 2.4016C19.5962 2.15459 19.2747 2.05657 18.9688 2.13499C18.7022 2.20556 18.5532 2.41336 18.3964 2.6094C15.7499 5.9068 13.0994 9.20419 10.4489 12.4977C10.1784 12.8349 9.92747 12.8505 9.6138 12.5526ZM19.655 8.03187C19.5883 7.78486 19.4511 7.59666 19.2158 7.4908C18.9296 7.36141 18.6512 7.3967 18.4082 7.58882C18.1259 7.81231 18.067 8.11421 18.1455 8.4514C18.5493 10.1217 18.4866 11.7723 17.871 13.3798C17.6318 13.9993 17.2868 14.5796 16.9731 15.1677C16.7497 15.5873 16.8281 16.0499 17.1888 16.2695C17.5848 16.5126 18.0396 16.3989 18.3062 15.9911C19.3609 14.364 19.9216 12.5839 19.9569 10.6431C19.9804 9.8472 19.8549 8.79643 19.655 8.03187Z" fill="white"/>
</g>
<defs>
<clipPath id="clip0_202_131">
<rect width="19.9608" height="20" fill="white" transform="translate(0 0.5)"/>
</clipPath>
</defs>
</svg>
