<svg width="18" height="21" viewBox="0 0 18 21" fill="none" xmlns="http://www.w3.org/2000/svg">
<path d="M2.42588 20.4974C2.02972 20.4045 1.63356 20.3018 1.2863 20.0719C0.49398 19.5388 0.0635815 18.8003 0.00489089 17.8466C0 17.783 0 17.7145 0 17.6509C0 12.8774 0.00489089 8.10881 0 3.3402C0 2.51853 0.254326 1.79957 0.870578 1.2469C1.86832 0.356754 3.10571 0.263827 4.25996 0.973006C7.39991 2.90491 10.5399 4.8417 13.6749 6.77849C14.5015 7.28714 15.3427 7.77134 16.1399 8.31912C17.661 9.37066 17.6561 11.6987 16.1204 12.7307C15.152 13.3812 14.1347 13.9681 13.1369 14.5795C11.2686 15.7239 9.40029 16.8684 7.53197 18.0129C7.30699 18.1498 7.07711 18.2378 6.81301 18.1596C6.51955 18.0715 6.32881 17.8759 6.26523 17.5825C6.20165 17.289 6.28479 17.0249 6.51955 16.8293C6.59292 16.7657 6.67606 16.7168 6.75921 16.663C9.51278 14.9756 12.2712 13.2883 15.0248 11.6009C15.3427 11.4053 15.5922 11.1705 15.6753 10.789C15.7927 10.2412 15.5824 9.78639 15.0493 9.4587C13.6211 8.57834 12.193 7.69798 10.7648 6.81762C8.31451 5.30633 5.85928 3.79505 3.40895 2.28376C2.80737 1.91206 2.11775 2.03922 1.76561 2.59678C1.65801 2.76307 1.62867 2.98316 1.56997 3.1788C1.5553 3.22771 1.56508 3.28151 1.56508 3.3353C1.56508 8.09903 1.56508 12.8628 1.56508 17.6265C1.56508 18.2574 1.86343 18.6976 2.39653 18.8785C2.70955 18.9861 2.98833 18.9226 3.28179 18.7856C3.45786 18.7025 3.66328 18.6389 3.85402 18.6487C4.19638 18.6682 4.45071 18.9323 4.51429 19.2698C4.57787 19.5926 4.44582 19.9252 4.13769 20.0768C3.81978 20.2333 3.47742 20.336 3.14484 20.4632C3.10571 20.4779 3.0617 20.4876 3.01768 20.5023C2.81715 20.4974 2.62152 20.4974 2.42588 20.4974Z" fill="white"/>
</svg>
