<svg width="41" height="41" viewBox="0 0 41 41" fill="none" xmlns="http://www.w3.org/2000/svg">
<path d="M39.5101 3.98723C38.6199 2.08949 37.1135 0.974327 35.0397 0.631952C34.9614 0.622169 34.8929 0.583041 34.8245 0.563477C24.9641 0.563477 15.1036 0.563477 5.24324 0.563477C4.59761 0.75912 3.92264 0.876505 3.32593 1.16997C1.50645 2.05036 0.440196 3.51769 0.078256 5.50346C0.0586917 5.60128 0.0293465 5.69911 0 5.79693C0 15.6378 0 25.4786 0 35.3195C0.205425 35.9749 0.322813 36.6694 0.62606 37.2759C1.66297 39.3301 3.37484 40.4062 5.67365 40.5431C6.29971 40.5823 6.92576 40.5529 7.55182 40.5529C16.3851 40.5529 25.2086 40.5529 34.0419 40.5529C36.732 40.5529 38.9232 39.0171 39.7644 36.5227C39.9014 36.1314 39.9699 35.7205 40.0677 35.3195C40.0677 25.4786 40.0677 15.6378 40.0677 5.79693C39.8818 5.19043 39.7742 4.55459 39.5101 3.98723ZM37.7102 34.5956C37.7102 36.6987 36.1842 38.2052 34.0615 38.2052C24.7097 38.215 15.358 38.215 6.00624 38.2052C3.83461 38.2052 2.33794 36.6792 2.33794 34.4978C2.33794 29.8512 2.33794 25.2047 2.33794 20.5582C2.33794 15.9117 2.33794 11.2652 2.33794 6.61863C2.33794 5.11218 2.96399 3.93832 4.35306 3.28291C4.84216 3.04814 5.42909 2.92098 5.96711 2.92098C15.3482 2.90141 24.7195 2.90141 34.1006 2.91119C36.1842 2.91119 37.7102 4.43721 37.7102 6.52081C37.72 15.8823 37.72 25.2341 37.7102 34.5956ZM20.0338 10.013C14.233 10.013 9.4789 14.7476 9.46912 20.5386C9.45934 26.3394 14.2428 31.1131 20.0534 31.0936C25.864 31.074 30.6083 26.3297 30.5986 20.5484C30.579 14.7574 25.8347 10.0228 20.0338 10.013ZM20.0436 28.7556C15.5341 28.7654 11.8266 25.0775 11.8168 20.568C11.8071 16.0682 15.5047 12.3705 20.0241 12.3608C24.5336 12.351 28.2411 16.0388 28.2509 20.5484C28.2509 25.0482 24.563 28.7459 20.0436 28.7556ZM31.7822 5.32738C29.8747 5.30782 28.2704 6.89253 28.2509 8.80983C28.2215 10.7271 29.8453 12.351 31.7724 12.351C33.6897 12.351 35.2842 10.7565 35.2842 8.84896C35.294 6.94144 33.6995 5.34695 31.7822 5.32738ZM31.7724 10.013C31.1366 10.0228 30.5986 9.49458 30.5888 8.85874C30.579 8.2229 31.1072 7.68488 31.7529 7.68488C32.3887 7.6751 32.9267 8.20334 32.9365 8.83918C32.9463 9.46523 32.418 10.0033 31.7724 10.013Z" fill="#0072BA"/>
</svg>
