<svg width="19" height="20" viewBox="0 0 19 20" fill="none" xmlns="http://www.w3.org/2000/svg">
<path d="M7.7924 19.3184C7.78659 19.6788 7.51335 19.9695 7.15291 19.9927C6.89712 20.0044 6.64713 19.9985 6.39134 19.9985C5.11818 19.9985 3.84501 19.9985 2.57766 19.9985C1.49053 19.9927 0.816162 19.3184 0.816162 18.237C0.816162 15.4872 0.816162 12.7433 0.816162 9.99346C0.816162 7.23785 0.816162 4.48223 0.816162 1.73243C0.816162 0.860403 1.31613 0.203474 2.11839 0.0348812C2.25792 0.00581353 2.40907 0 2.55441 0C6.82735 0 11.1003 0 15.3791 0C16.4313 0 17.1115 0.680183 17.1115 1.73243C17.1115 3.27883 17.1115 4.83104 17.1115 6.37744C17.1115 6.92973 16.6697 7.27854 16.1988 7.12158C15.8965 7.02275 15.7221 6.76695 15.7221 6.41814C15.7162 5.46472 15.7221 4.5113 15.7221 3.56369C15.7221 2.95909 15.7221 2.35448 15.7221 1.75569C15.7221 1.4592 15.6581 1.39525 15.3674 1.39525C11.1061 1.39525 6.85061 1.39525 2.58929 1.39525C2.28699 1.39525 2.22885 1.45338 2.22885 1.77313C2.22885 7.2611 2.22885 12.7491 2.22885 18.237C2.22885 18.5452 2.28699 18.6033 2.60092 18.6033C4.07755 18.6033 5.55419 18.6033 7.03083 18.6033C7.4901 18.6033 7.79821 18.8882 7.7924 19.3184ZM18.9602 14.6443C18.966 17.6034 16.5708 19.9927 13.6117 19.9927C10.6585 19.9869 8.26911 17.6034 8.2633 14.6617C8.25748 11.7085 10.6527 9.30165 13.6059 9.30165C16.565 9.29584 18.9544 11.6852 18.9602 14.6443ZM17.5649 14.6617C17.5708 12.4758 15.8151 10.7027 13.6292 10.6969C11.4375 10.6911 9.65854 12.4584 9.65854 14.6501C9.65854 16.8302 11.42 18.5975 13.6059 18.6033C15.7918 18.6033 17.5591 16.8476 17.5649 14.6617ZM11.2282 6.04026C11.6817 6.04026 11.9781 5.7554 11.9781 5.34264C11.9781 4.9415 11.6758 4.64501 11.2456 4.64501C9.25741 4.64501 7.26918 4.6392 5.27514 4.65083C5.11817 4.65083 4.94377 4.71477 4.81006 4.80198C4.56589 4.95894 4.4845 5.2845 4.5717 5.55774C4.66472 5.8426 4.9147 6.03445 5.23445 6.03445C6.246 6.04026 7.25174 6.03445 8.2633 6.03445C9.2516 6.04026 10.2399 6.04026 11.2282 6.04026ZM7.5366 7.9064C6.78084 7.90059 6.02509 7.90059 5.27514 7.9064C4.84494 7.9064 4.54845 8.20289 4.54845 8.60403C4.54845 9.00516 4.85075 9.29584 5.28095 9.30165C5.65302 9.30746 6.01927 9.30165 6.39134 9.30165C6.77503 9.30165 7.15872 9.30746 7.54242 9.30165C7.95518 9.29584 8.25748 8.99935 8.2633 8.61565C8.26911 8.21452 7.95518 7.9064 7.5366 7.9064ZM14.3094 15.5744C14.2861 15.1617 13.978 14.871 13.5885 14.8826C13.2048 14.8943 12.9199 15.1908 12.9141 15.5919C12.9083 16.0395 12.9083 16.493 12.9141 16.9406C12.9199 17.3592 13.2106 17.6615 13.5943 17.6673C13.9838 17.6731 14.2861 17.3766 14.3036 16.9639C14.3152 16.7372 14.3036 16.5162 14.3036 16.2895C14.3152 16.057 14.3268 15.8128 14.3094 15.5744ZM13.6117 11.8654C13.0943 11.8654 12.6816 12.284 12.6816 12.7956C12.6816 13.3072 13.1002 13.7199 13.6176 13.7199C14.135 13.7199 14.5477 13.3072 14.5419 12.7898C14.5419 12.2724 14.1291 11.8596 13.6117 11.8654Z" fill="#0072BA"/>
</svg>
