<svg width="19" height="20" viewBox="0 0 19 20" fill="none" xmlns="http://www.w3.org/2000/svg">
<path d="M7.79264 19.3184C7.78683 19.6788 7.51359 19.9695 7.15315 19.9927C6.89736 20.0044 6.64738 19.9985 6.39158 19.9985C5.11842 19.9985 3.84526 19.9985 2.57791 19.9985C1.49078 19.9927 0.816406 19.3184 0.816406 18.237C0.816406 15.4872 0.816406 12.7433 0.816406 9.99346C0.816406 7.23785 0.816406 4.48223 0.816406 1.73243C0.816406 0.860403 1.31637 0.203474 2.11864 0.0348812C2.25816 0.00581353 2.40931 0 2.55465 0C6.8276 0 11.1005 0 15.3793 0C16.4316 0 17.1117 0.680183 17.1117 1.73243C17.1117 3.27883 17.1117 4.83104 17.1117 6.37744C17.1117 6.92973 16.6699 7.27854 16.199 7.12158C15.8967 7.02275 15.7223 6.76695 15.7223 6.41814C15.7165 5.46472 15.7223 4.5113 15.7223 3.56369C15.7223 2.95909 15.7223 2.35448 15.7223 1.75569C15.7223 1.4592 15.6584 1.39525 15.3677 1.39525C11.1064 1.39525 6.85085 1.39525 2.58953 1.39525C2.28723 1.39525 2.22909 1.45338 2.22909 1.77313C2.22909 7.2611 2.22909 12.7491 2.22909 18.237C2.22909 18.5452 2.28723 18.6033 2.60116 18.6033C4.0778 18.6033 5.55443 18.6033 7.03107 18.6033C7.49034 18.6033 7.79846 18.8882 7.79264 19.3184ZM18.9604 14.6443C18.9662 17.6034 16.5711 19.9927 13.612 19.9927C10.6587 19.9869 8.26935 17.6034 8.26354 14.6617C8.25773 11.7085 10.6529 9.30165 13.6062 9.30165C16.5653 9.29584 18.9546 11.6852 18.9604 14.6443ZM17.5652 14.6617C17.571 12.4758 15.8153 10.7027 13.6294 10.6969C11.4377 10.6911 9.65879 12.4584 9.65879 14.6501C9.65879 16.8302 11.4203 18.5975 13.6062 18.6033C15.7921 18.6033 17.5594 16.8476 17.5652 14.6617ZM11.2284 6.04026C11.6819 6.04026 11.9784 5.7554 11.9784 5.34264C11.9784 4.9415 11.6761 4.64501 11.2459 4.64501C9.25765 4.64501 7.26943 4.6392 5.27538 4.65083C5.11842 4.65083 4.94401 4.71477 4.8103 4.80198C4.56613 4.95894 4.48474 5.2845 4.57195 5.55774C4.66496 5.8426 4.91495 6.03445 5.23469 6.03445C6.24624 6.04026 7.25199 6.03445 8.26354 6.03445C9.25184 6.04026 10.2401 6.04026 11.2284 6.04026ZM7.53685 7.9064C6.78109 7.90059 6.02533 7.90059 5.27538 7.9064C4.84518 7.9064 4.54869 8.20289 4.54869 8.60403C4.54869 9.00516 4.851 9.29584 5.2812 9.30165C5.65326 9.30746 6.01952 9.30165 6.39158 9.30165C6.77528 9.30165 7.15897 9.30746 7.54266 9.30165C7.95542 9.29584 8.25773 8.99935 8.26354 8.61565C8.26935 8.21452 7.95542 7.9064 7.53685 7.9064ZM14.3096 15.5744C14.2864 15.1617 13.9782 14.871 13.5887 14.8826C13.205 14.8943 12.9202 15.1908 12.9144 15.5919C12.9086 16.0395 12.9086 16.493 12.9144 16.9406C12.9202 17.3592 13.2109 17.6615 13.5945 17.6673C13.9841 17.6731 14.2864 17.3766 14.3038 16.9639C14.3154 16.7372 14.3038 16.5162 14.3038 16.2895C14.3154 16.057 14.3271 15.8128 14.3096 15.5744ZM13.612 11.8654C13.0946 11.8654 12.6818 12.284 12.6818 12.7956C12.6818 13.3072 13.1004 13.7199 13.6178 13.7199C14.1352 13.7199 14.548 13.3072 14.5422 12.7898C14.5422 12.2724 14.1294 11.8596 13.612 11.8654Z" fill="white"/>
</svg>
