<svg width="71" height="71" viewBox="0 0 71 71" fill="none" xmlns="http://www.w3.org/2000/svg">
<path d="M22.6264 17.6999C22.6653 19.6472 24.1647 21.166 26.112 21.166C32.3239 21.1855 38.5357 21.1855 44.767 21.166C46.7532 21.166 48.2526 19.6472 48.2721 17.6415C48.2916 16.4731 48.2526 15.3047 48.2916 14.1363C48.3111 12.8901 48.3111 11.6438 47.3764 10.6702C48.0969 9.7939 48.3305 8.8592 48.2916 7.82714C48.2526 6.44457 48.2916 5.062 48.2721 3.67943C48.2526 1.6932 46.7338 0.174316 44.7475 0.174316C38.5552 0.174316 32.3628 0.174316 26.1704 0.174316C24.1453 0.174316 22.6459 1.6932 22.6264 3.73785C22.6069 5.00358 22.6459 6.26932 22.6069 7.53505C22.568 8.68395 22.7043 9.75496 23.3469 10.4755C23.0743 11.4491 22.7043 12.228 22.6459 13.0459C22.5485 14.5842 22.6069 16.142 22.6264 17.6999ZM34.3296 2.51106C37.8541 2.51106 41.3203 2.51106 44.7865 2.51106C45.4875 2.51106 45.9159 2.95893 45.9354 3.65996C45.9549 5.21778 45.9549 6.77561 45.9354 8.31396C45.9159 9.03446 45.4875 9.46286 44.7865 9.46286C41.3203 9.48234 37.8541 9.46286 34.3296 9.46286C34.3296 7.18454 34.3296 4.88674 34.3296 2.51106ZM34.3101 11.8385C34.7774 11.8385 35.2058 11.8385 35.6342 11.8385C38.5746 11.8385 41.515 11.8385 44.436 11.8385C45.5459 11.8385 45.9354 12.228 45.9354 13.3185C45.9354 14.7205 45.9549 16.142 45.9354 17.5441C45.9354 18.323 45.5459 18.8098 44.8449 18.8293C41.3593 18.8488 37.8541 18.8488 34.3101 18.8488C34.3101 16.4731 34.3101 14.1948 34.3101 11.8385ZM31.9149 18.8293C29.9092 18.8293 27.923 18.8682 25.9368 18.8098C25.2942 18.7904 24.9437 18.3035 24.9437 17.6609C24.9242 16.1031 24.9242 14.5453 24.9437 13.0069C24.9631 12.3059 25.3915 11.8775 26.0926 11.858C28.0009 11.8385 29.9092 11.858 31.8955 11.858C31.9149 14.2142 31.9149 16.4926 31.9149 18.8293ZM24.9631 3.77679C24.9631 2.97841 25.3915 2.53053 26.1704 2.53053C28.0593 2.51106 29.9482 2.53053 31.9344 2.53053C31.9344 4.88674 31.9344 7.14559 31.9344 9.52128C31.6228 9.52128 31.3113 9.52128 31.0192 9.52128C29.4419 9.52128 27.8646 9.52128 26.2873 9.52128C25.411 9.52128 24.9826 9.09288 24.9826 8.23607C24.9437 6.73666 24.9437 5.25673 24.9631 3.77679ZM26.1315 56.5092C26.0926 55.263 26.1315 54.0362 26.1315 52.7899C26.112 50.6674 24.6321 49.168 22.5096 49.168C16.3951 49.1485 10.2806 49.1485 4.14666 49.168C1.9657 49.168 0.485764 50.6674 0.485764 52.8289C0.485764 54.1336 0.505237 55.4577 0.466291 56.7624C0.427345 57.8139 0.641546 58.7876 1.38151 59.6638C0.641546 60.5401 0.427345 61.4943 0.466291 62.5653C0.505237 63.87 0.466291 65.1941 0.485764 66.4988C0.505237 68.6603 1.98517 70.1597 4.14666 70.1597C10.2611 70.1597 16.3756 70.1597 22.5096 70.1597C24.6321 70.1597 26.1315 68.6603 26.151 66.5378C26.1704 65.272 26.1315 64.0063 26.1704 62.7406C26.2094 61.6111 26.0536 60.5596 25.2357 59.6444C26.0341 58.7486 26.151 57.6581 26.1315 56.5092ZM9.73536 67.823C7.76861 67.823 5.86027 67.8424 3.93246 67.823C3.23143 67.823 2.80303 67.3751 2.78356 66.6741C2.76409 65.1162 2.76409 63.5584 2.78356 62.0201C2.80303 61.2996 3.23143 60.8712 3.93246 60.8517C5.8408 60.8322 7.76861 60.8517 9.73536 60.8517C9.73536 63.169 9.73536 65.4473 9.73536 67.823ZM9.73536 58.4955C7.76861 58.4955 5.86027 58.5149 3.93246 58.4955C3.23143 58.4955 2.80303 58.0476 2.78356 57.3271C2.76409 55.7693 2.76409 54.2115 2.78356 52.6731C2.80303 51.9526 3.23143 51.5242 3.93246 51.5242C5.8408 51.5047 7.76861 51.5242 9.73536 51.5242C9.73536 53.822 9.73536 56.1198 9.73536 58.4955ZM23.7753 66.5183C23.7753 67.3362 23.3858 67.823 22.6264 67.823C19.1602 67.8424 15.6941 67.823 12.15 67.823C12.15 65.4668 12.15 63.1884 12.15 60.8712C12.3837 60.8517 12.5979 60.8322 12.8121 60.8322C15.9667 60.8322 19.1213 60.8322 22.2759 60.8322C23.4248 60.8322 23.7948 61.2022 23.7948 62.3706C23.7948 63.7531 23.7948 65.1357 23.7753 66.5183ZM23.7753 57.3271C23.7558 58.0476 23.3469 58.476 22.6264 58.4955C19.1602 58.5149 15.6941 58.4955 12.1695 58.4955C12.1695 56.1782 12.1695 53.8804 12.1695 51.5047C15.6941 51.5047 19.1602 51.5047 22.6264 51.5047C23.3274 51.5047 23.7558 51.9526 23.7753 52.6536C23.7948 54.2115 23.7948 55.7693 23.7753 57.3271ZM70.4322 56.5092C70.3933 55.263 70.4322 54.0362 70.4127 52.7899C70.3933 50.6674 68.9133 49.168 66.7908 49.168C60.6569 49.1485 54.5034 49.1485 48.3695 49.168C46.2859 49.168 44.806 50.6869 44.767 52.751C44.7475 54.0946 44.7865 55.4188 44.7475 56.7624C44.7281 57.8139 44.9228 58.7876 45.6628 59.6638C44.9228 60.5401 44.7281 61.4943 44.7475 62.5653C44.7865 63.9089 44.7475 65.2331 44.767 66.5767C44.7865 68.6603 46.2859 70.1597 48.3695 70.1597C54.5424 70.1792 60.6958 70.1792 66.8687 70.1597C68.9133 70.1597 70.3933 68.6408 70.4322 66.6157C70.4517 65.3304 70.4127 64.0452 70.4517 62.76C70.4906 61.6306 70.3349 60.5791 69.5365 59.6833C70.3543 58.7486 70.4712 57.6581 70.4322 56.5092ZM54.0556 67.823C52.0888 67.823 50.1805 67.8424 48.2721 67.823C47.5711 67.823 47.1427 67.3751 47.1232 66.6741C47.1037 65.1162 47.1037 63.5779 47.1232 62.0201C47.1427 61.2996 47.5711 60.8712 48.2526 60.8517C50.161 60.8322 52.0888 60.8517 54.0361 60.8517C54.0556 63.169 54.0556 65.4473 54.0556 67.823ZM54.075 58.4955C52.8482 58.4955 51.6409 58.4955 50.4531 58.4955C49.7521 58.4955 49.051 58.5149 48.35 58.4955C47.5711 58.476 47.1427 58.0476 47.1232 57.2687C47.1037 55.7693 47.1037 54.2699 47.1232 52.751C47.1232 51.9916 47.5516 51.5242 48.2721 51.5242C50.1805 51.5047 52.1083 51.5242 54.0945 51.5242C54.075 53.8609 54.075 56.1393 54.075 58.4955ZM68.0955 66.4988C68.0955 67.3946 67.6865 67.823 66.8297 67.823C63.4025 67.8424 59.9753 67.823 56.4702 67.823C56.4702 65.4668 56.4702 63.2079 56.4702 60.8517C56.7039 60.8322 56.9375 60.8127 57.1712 60.8127C60.3063 60.8127 63.4415 60.8127 66.5571 60.8127C67.7255 60.8127 68.0955 61.1827 68.0955 62.3316C68.0955 63.7337 68.115 65.1162 68.0955 66.4988ZM68.0955 57.3271C68.076 58.0281 67.6671 58.476 66.9466 58.476C63.4804 58.4955 60.0142 58.476 56.4897 58.476C56.4897 56.1587 56.4897 53.8609 56.4897 51.4853C60.0142 51.4853 63.4804 51.4853 66.9466 51.4853C67.6476 51.4853 68.076 51.9331 68.0955 52.6342C68.115 54.2115 68.115 55.7693 68.0955 57.3271ZM46.5585 46.1497C47.1037 45.585 47.1232 45.0982 46.6753 44.4556C46.3833 44.0272 46.0522 43.6377 45.7796 43.2093C45.6822 43.0535 45.6043 42.8004 45.6433 42.6446C46.1885 40.8531 46.2469 40.8336 48.0774 40.5805C48.1748 40.561 48.2721 40.561 48.3695 40.5415C49.051 40.3857 49.421 39.9963 49.421 39.2758C49.421 38.1074 49.4405 36.939 49.421 35.7707C49.421 35.0112 49.051 34.6023 48.3111 34.466C47.8632 34.3881 47.3958 34.3297 46.948 34.2713C46.5585 34.2323 46.3638 34.0376 46.1691 33.6676C45.507 32.5187 45.6043 31.5645 46.578 30.6688C46.6364 30.6298 46.6753 30.5519 46.7143 30.4935C47.1038 29.9093 47.0843 29.3641 46.578 28.8383C45.7407 28.001 44.9033 27.1442 44.0465 26.3069C43.5402 25.8006 42.9755 25.8006 42.3913 26.2095C41.9629 26.5211 41.5345 26.8521 41.1061 27.1442C40.9698 27.2416 40.7556 27.3 40.5998 27.261C38.9446 26.8132 38.7304 26.56 38.4967 24.8464C38.4773 24.7685 38.4773 24.7101 38.4773 24.6322C38.341 23.8338 37.9515 23.4833 37.1531 23.4638C36.0042 23.4444 34.8748 23.4444 33.7259 23.4638C32.9275 23.4638 32.5186 23.8338 32.3823 24.6127C32.3044 25.0996 32.2849 25.5864 32.1486 26.0537C32.0902 26.2874 31.876 26.5211 31.6618 26.6574C30.5324 27.3974 29.4808 27.3389 28.5656 26.2679C28.5072 26.19 28.4098 26.1511 28.3319 26.0927C27.8062 25.8006 27.2999 25.8006 26.852 26.229C25.9562 27.0858 25.08 27.9621 24.2232 28.8578C23.7753 29.3252 23.7558 29.8509 24.1063 30.3962C24.4179 30.8635 24.7684 31.2919 25.08 31.7593C25.1773 31.8956 25.2552 32.1098 25.2163 32.2656C24.7879 33.9013 24.5153 34.135 22.8016 34.3881C22.7238 34.4076 22.6653 34.4076 22.5874 34.4076C21.7696 34.5439 21.4191 34.9333 21.4191 35.7901C21.4191 36.5691 21.4191 37.348 21.4191 38.1269C21.4191 40.3273 21.4775 40.3857 23.639 40.6584C23.9311 40.6973 24.3595 40.6973 24.4568 40.8726C24.7879 41.4567 25.0994 42.0799 25.2357 42.742C25.2942 43.0146 24.9047 43.3846 24.6905 43.7156C24.3789 44.2024 24.0674 44.6698 23.7558 45.1566C23.9505 45.5266 24.0674 45.8381 24.2621 46.0523C25.0994 46.9286 25.9562 47.7854 26.8325 48.6422C27.3193 49.1096 27.8841 49.1096 28.4293 48.7396C28.8772 48.428 29.2861 48.097 29.734 47.8049C29.8898 47.7075 30.1429 47.6296 30.2987 47.688C32.0707 48.2333 32.1097 48.2722 32.3628 50.1222C32.3823 50.2 32.3823 50.2585 32.3823 50.3364C32.5186 51.0763 32.9275 51.4463 33.687 51.4463C34.8359 51.4658 35.9653 51.4658 37.1142 51.4463C37.9515 51.4463 38.3604 51.0763 38.4773 50.239C38.5552 49.7911 38.5552 49.3043 38.6915 48.8759C38.7694 48.6227 39.003 48.3891 39.2367 48.2333C40.3467 47.4349 41.3593 47.6102 42.255 48.6033C42.294 48.6422 42.3329 48.6617 42.3718 48.6812C43.0145 49.129 43.5207 49.1096 44.066 48.5643C44.9228 47.8244 45.7601 46.987 46.5585 46.1497ZM43.326 43.8324C43.6571 44.2414 43.9492 44.6892 44.2802 45.1371C43.8518 45.5266 43.4623 45.8965 43.0339 46.286C42.625 45.9744 42.1771 45.6823 41.7682 45.3513C41.2229 44.9229 40.6972 44.9619 40.0741 45.2734C39.3146 45.6434 38.5357 45.9939 37.7373 46.2471C36.9779 46.4807 36.5689 46.8897 36.4911 47.6686C36.4521 48.1554 36.3547 48.6227 36.2768 49.129C35.7121 49.129 35.1864 49.129 34.5827 49.129C34.4853 48.5449 34.388 47.9607 34.2906 47.3765C34.2127 46.8312 33.8817 46.5392 33.3754 46.3639C32.4407 46.0134 31.5255 45.6239 30.6297 45.2345C30.1234 45.0008 29.6561 44.9813 29.1887 45.3318C28.7409 45.6629 28.293 45.9939 27.7867 46.3639C27.3583 45.955 26.9688 45.585 26.5599 45.1955C26.9104 44.7282 27.2025 44.2803 27.5335 43.8714C27.9425 43.3456 27.923 42.8393 27.6309 42.2357C27.2415 41.4373 26.8909 40.5999 26.6183 39.7626C26.4041 39.12 26.0536 38.7111 25.3526 38.6332C24.8268 38.5748 24.3011 38.4774 23.7558 38.38C23.7558 37.8153 23.7558 37.2896 23.7558 36.7054C24.3011 36.608 24.8463 36.5106 25.3915 36.4327C26.0147 36.3549 26.3652 36.0043 26.5599 35.4007C26.8715 34.5049 27.2414 33.6481 27.6504 32.7913C27.923 32.2266 27.9035 31.7203 27.5335 31.2335C27.2025 30.8051 26.9104 30.3767 26.5599 29.9093C26.9688 29.5394 27.3778 29.1889 27.8256 28.7799C28.2151 29.0525 28.663 29.3641 29.0914 29.6951C29.6171 30.1041 30.1429 30.0457 30.7271 29.773C31.506 29.4031 32.3044 29.0525 33.1417 28.7799C33.8233 28.5657 34.2322 28.1957 34.3101 27.4752C34.3685 26.9689 34.4659 26.4627 34.5438 25.9369C35.1085 25.9369 35.6537 25.9369 36.2379 25.9369C36.3158 26.4821 36.4132 27.0079 36.4911 27.5337C36.5689 28.1957 36.9389 28.5462 37.5621 28.7604C38.4189 29.0525 39.2757 29.4225 40.0935 29.812C40.6777 30.1041 41.2035 30.0846 41.7098 29.6951C42.1187 29.3641 42.5666 29.072 43.0339 28.7215C43.4429 29.1304 43.8128 29.5004 44.2023 29.9288C43.9102 30.3377 43.6376 30.7467 43.3455 31.1167C42.8392 31.7203 42.8392 32.285 43.2092 32.9861C43.5986 33.7066 43.8907 34.4855 44.1439 35.2644C44.3581 35.9654 44.7281 36.4133 45.4875 36.4912C45.9938 36.5496 46.4806 36.6469 47.0259 36.7248C47.0259 37.2896 47.0259 37.8153 47.0259 38.419C46.5001 38.4969 45.9548 38.6137 45.4096 38.6721C44.7475 38.75 44.397 39.12 44.1828 39.7431C43.8907 40.5999 43.5207 41.4567 43.1313 42.2941C42.9171 42.8198 42.9171 43.3261 43.326 43.8324ZM5.43187 45.8187C4.24402 42.1772 3.7572 38.4384 3.99088 34.6218C4.49717 26.3653 7.72966 19.3161 13.6884 13.5911C15.0709 12.267 16.6677 11.1765 18.1671 10.0081C18.4008 9.81337 18.7123 9.71601 19.1602 9.50181C19.4913 9.81337 19.9002 10.0665 20.1144 10.4365C20.387 10.9039 20.1728 11.3907 19.7444 11.7217C19.1602 12.1696 18.5371 12.5396 17.9724 12.9874C9.36538 19.7835 5.50976 28.6631 6.4834 39.5873C6.65866 41.4762 7.28179 43.3261 7.6323 45.215C7.71019 45.6434 7.61282 46.1886 7.35968 46.5392C7.18442 46.7728 6.56129 46.9286 6.2692 46.8118C5.91869 46.6365 5.56818 46.2081 5.43187 45.8187ZM50.8425 10.1639C51.232 9.5797 51.9135 9.44339 52.5561 9.91074C54.114 11.0791 55.7302 12.1891 57.1128 13.5132C63.5778 19.725 66.7908 27.3779 66.9466 35.2449C66.9271 39.5484 66.4598 42.703 65.4861 45.7797C65.233 46.5781 64.8046 46.9091 64.1425 46.8312C63.383 46.7339 63.0325 46.0718 63.2273 45.1761C63.6751 43.0535 64.3177 40.9115 64.4541 38.7695C65.2135 27.5531 60.8711 18.693 51.7772 12.1501C51.6215 12.0333 51.4462 11.9359 51.2904 11.8191C50.6283 11.3712 50.4531 10.7481 50.8425 10.1639ZM20.017 20.9324C20.387 22.5486 20.718 24.1649 21.0101 25.7811C21.1465 26.5016 20.7375 27.0274 20.1144 27.1442C19.4523 27.261 18.9071 26.9105 18.7318 26.1706C18.576 25.5669 18.4787 24.9632 18.3618 24.3596C18.2839 24.3401 18.2061 24.3012 18.1282 24.2817C17.4271 25.6643 16.6093 27.0274 16.0251 28.4684C13.8247 33.9402 13.961 39.4121 16.2393 44.8255C16.2977 44.9619 16.3561 45.0982 16.4145 45.2345C16.6482 45.8965 16.4145 46.4807 15.8109 46.7534C15.2267 47.0065 14.5646 46.8118 14.3115 46.1497C13.7468 44.6503 13.1042 43.1704 12.7537 41.6125C11.2932 35.1865 12.3837 29.1889 15.9083 23.6196C16.0056 23.4638 16.1225 23.2886 16.2198 23.1328C16.2393 23.0939 16.2393 23.0354 16.2393 22.9381C15.6162 23.0549 14.993 23.1912 14.3699 23.2886C13.6299 23.4249 13.0847 23.0744 12.9289 22.4123C12.7731 21.7697 13.1626 21.205 13.9026 21.0297C15.4604 20.6792 17.0377 20.3677 18.5955 20.0561C19.316 19.9003 19.8612 20.2119 20.017 20.9324ZM51.0373 22.2955C50.492 21.6139 50.492 20.9713 51.0373 20.504C51.563 20.0561 52.2835 20.1535 52.8093 20.8155C53.6466 21.8865 54.5424 22.9186 55.2434 24.087C58.4564 29.3641 59.4495 35.0696 58.2422 41.1452C58.2033 41.3788 58.1838 41.6125 58.1254 41.963C58.7485 41.5736 59.2353 41.2425 59.7611 40.931C60.4426 40.522 61.1242 40.6584 61.4747 41.2425C61.8252 41.8073 61.6694 42.4499 61.0268 42.8783C59.7027 43.7545 58.3785 44.5919 57.0349 45.4292C56.3144 45.8771 55.7302 45.7602 55.2823 45.0592C54.4061 43.7351 53.5687 42.4109 52.7314 41.0673C52.303 40.3857 52.4393 39.7237 53.043 39.3537C53.6077 39.0032 54.2503 39.1784 54.6787 39.8015C55.0292 40.3078 55.3602 40.8336 55.7692 41.4957C56.2949 39.2368 56.5286 37.1143 56.3534 34.9528C56.0028 30.2599 54.2892 26.1121 51.1931 22.5486C51.1736 22.4512 51.0957 22.3734 51.0373 22.2955ZM42.4303 65.9146C42.5471 66.5962 42.1187 67.1414 41.2424 67.2583C39.2951 67.5114 37.3479 67.7256 35.4006 67.9398C33.4338 67.7061 31.506 67.4919 29.5977 67.2388C28.7603 67.1219 28.3319 66.5378 28.4682 65.8562C28.6045 65.1747 29.2082 64.8242 30.0455 64.9799C33.648 65.642 37.231 65.642 40.8335 64.9799C41.6903 64.8436 42.3134 65.2136 42.4303 65.9146ZM40.0935 7.18454C39.3341 7.18454 38.5941 7.20401 37.8347 7.18454C37.0947 7.16507 36.6079 6.67825 36.6079 6.01617C36.6079 5.35409 37.0947 4.86727 37.8347 4.86727C39.3536 4.8478 40.8919 4.8478 42.4108 4.86727C43.1702 4.86727 43.6181 5.35409 43.6181 6.03564C43.6181 6.71719 43.1508 7.16507 42.3913 7.18454C41.6514 7.18454 40.8724 7.18454 40.0935 7.18454ZM40.0351 16.512C39.3146 16.512 38.5746 16.5315 37.8541 16.512C37.0947 16.4926 36.6274 16.0252 36.6079 15.3631C36.6079 14.7011 37.0947 14.2142 37.8347 14.1948C39.3536 14.1753 40.8919 14.1753 42.4108 14.1948C43.1702 14.1948 43.6376 14.6621 43.6376 15.3437C43.6376 16.0252 43.1702 16.4926 42.4303 16.512C41.6319 16.5315 40.8335 16.512 40.0351 16.512ZM27.2804 6.01617C27.2804 5.37357 27.8062 4.8478 28.4488 4.86727C29.0914 4.86727 29.6171 5.39304 29.5977 6.03564C29.5977 6.65877 29.0719 7.20401 28.4293 7.20401C27.8062 7.16507 27.2804 6.6393 27.2804 6.01617ZM28.4682 14.1753C29.0914 14.1948 29.6171 14.7205 29.6171 15.3631C29.5977 15.9863 29.0719 16.512 28.4293 16.512C27.8062 16.4926 27.2804 15.9668 27.2804 15.3242C27.2999 14.6816 27.8256 14.1753 28.4682 14.1753ZM21.4775 54.9904C21.4775 55.6719 21.0296 56.1393 20.2702 56.1587C19.4718 56.1782 18.6734 56.1587 17.875 56.1587C17.174 56.1587 16.473 56.1782 15.7719 56.1587C14.9736 56.1393 14.4673 55.6914 14.4478 55.0098C14.4478 54.3283 14.9541 53.8415 15.733 53.8415C17.2324 53.822 18.7318 53.822 20.2312 53.8415C21.0101 53.8415 21.4775 54.3088 21.4775 54.9904ZM21.4775 64.3373C21.4775 65.0384 20.9907 65.4862 20.1923 65.5057C19.4718 65.5252 18.7318 65.5057 18.0113 65.5057C17.2519 65.5057 16.5119 65.5252 15.7525 65.5057C14.9541 65.4862 14.4478 65.0189 14.4478 64.3373C14.4478 63.6558 14.9541 63.1884 15.7525 63.169C17.2324 63.1495 18.7123 63.1495 20.1923 63.169C21.0101 63.169 21.4775 63.6363 21.4775 64.3373ZM6.2692 53.8415C6.89233 53.822 7.43757 54.3478 7.45704 54.9709C7.47651 55.594 6.95075 56.1393 6.32762 56.1587C5.70449 56.1782 5.15925 55.6524 5.13977 55.0293C5.1203 54.3867 5.62659 53.8609 6.2692 53.8415ZM6.30814 63.169C6.95075 63.1884 7.45704 63.7142 7.45704 64.3373C7.43757 64.9605 6.9118 65.4862 6.28867 65.4862C5.64607 65.4668 5.13977 64.941 5.13977 64.2984C5.13977 63.6753 5.66554 63.169 6.30814 63.169ZM65.7977 64.3373C65.7977 65.0384 65.3109 65.4862 64.493 65.4862C63.0131 65.5057 61.5331 65.5057 60.0532 65.4862C59.2548 65.4862 58.7485 64.9994 58.768 64.3179C58.768 63.6363 59.2743 63.1884 60.0727 63.169C60.8321 63.1495 61.5721 63.169 62.3315 63.169C63.052 63.169 63.792 63.1495 64.5125 63.169C65.3303 63.1884 65.8172 63.6363 65.7977 64.3373ZM65.7977 54.9514C65.8172 55.6524 65.3498 56.1198 64.5514 56.1587C64.5125 56.1587 64.4541 56.1587 64.4151 56.1587C63.7141 56.1587 63.0131 56.1587 62.312 56.1587C61.5526 56.1587 60.8126 56.1782 60.0532 56.1587C59.2743 56.1393 58.768 55.6524 58.7875 54.9709C58.8069 54.3088 59.2938 53.8609 60.0532 53.8415C61.5526 53.822 63.052 53.822 64.5709 53.8415C65.3109 53.8415 65.7782 54.2893 65.7977 54.9514ZM50.6089 63.169C51.2515 63.169 51.7772 63.6947 51.7578 64.3373C51.7578 64.9605 51.232 65.5057 50.5894 65.5057C49.9468 65.5057 49.421 64.9799 49.4405 64.3373C49.4405 63.6947 49.9663 63.169 50.6089 63.169ZM50.6089 53.8415C51.2515 53.8415 51.7578 54.3867 51.7578 55.0098C51.7578 55.633 51.2125 56.1587 50.5894 56.1587C49.9663 56.1587 49.4405 55.6135 49.4405 54.9904C49.46 54.3478 49.9857 53.8415 50.6089 53.8415ZM35.459 31.6814C32.246 31.6814 29.6171 34.3102 29.6171 37.5232C29.6171 40.7362 32.2654 43.3456 35.4785 43.3456C38.6525 43.3261 41.2619 40.7168 41.2814 37.5427C41.2814 34.3102 38.6525 31.6814 35.459 31.6814ZM35.4785 40.9894C33.5117 41.0089 31.9539 39.451 31.9539 37.4843C31.9539 35.537 33.5312 33.9792 35.4785 33.9792C37.4063 33.9986 38.9446 35.5565 38.9446 37.4843C38.9446 39.4316 37.4063 40.9894 35.4785 40.9894Z" fill="#9ADDFF"/>
</svg>
