<svg width="66" height="71" viewBox="0 0 66 71" fill="none" xmlns="http://www.w3.org/2000/svg">
<path d="M61.7038 18.836C55.8909 18.836 50.0591 18.836 44.2462 18.836C43.9828 18.836 43.7006 18.8172 43.362 18.7983C43.362 17.726 43.3808 16.729 43.362 15.7131C43.3056 13.2299 41.6689 11.2547 39.2045 10.8596C38.1698 10.6903 37.0976 10.7844 36.0441 10.7656C35.5173 10.7467 34.9906 10.7656 34.4262 10.7656C34.4262 7.64274 34.4262 4.65161 34.4262 1.64166C34.4262 0.494123 34.1252 0.174316 32.9589 0.174316C25.7162 0.174316 18.4735 0.174316 11.212 0.174316C10.0269 0.174316 9.72588 0.475311 9.72588 1.67929C9.72588 4.46349 9.72588 7.2665 9.72588 10.0507C9.72588 10.2953 9.72588 10.5586 9.72588 10.8784C8.2021 10.8784 6.75356 10.8784 5.30503 10.8784C2.14459 10.8972 0 12.9854 0 16.1082C0 32.3995 0 48.6908 0 64.9633C0 68.0485 2.1634 70.1743 5.24859 70.1743C16.2161 70.1743 27.1647 70.1743 38.1322 70.1743C41.2362 70.1743 43.3432 68.0674 43.3808 64.9822C43.3996 63.0821 43.3808 61.1821 43.3808 59.2821C43.3808 59.0375 43.3808 58.793 43.3808 58.492C43.7571 58.492 44.0392 58.492 44.3214 58.492C50.1344 58.492 55.9661 58.492 61.7791 58.492C64.2247 58.492 65.4663 57.2692 65.4663 54.8236C65.4663 44.0819 65.4663 33.3213 65.4663 22.5796C65.4475 20.0399 64.2435 18.836 61.7038 18.836ZM11.9833 2.37534C18.7181 2.37534 25.434 2.37534 32.1876 2.37534C32.1876 7.32293 32.1876 12.2517 32.1876 17.2557C25.4716 17.2557 18.7369 17.2557 11.9833 17.2557C11.9833 12.2893 11.9833 7.34174 11.9833 2.37534ZM41.2738 65.4525C41.1234 66.8446 40.1451 67.8604 38.7718 67.9545C37.6807 68.0297 36.5708 68.0109 35.4609 68.0109C25.5657 68.0109 15.6517 68.0109 5.75652 68.0109C5.36146 68.0109 4.94759 68.0109 4.57135 67.9545C3.29213 67.7664 2.31389 66.6941 2.23865 65.4148C2.21983 65.1891 2.21983 64.9445 2.21983 64.7188C2.21983 48.5592 2.21983 32.3807 2.21983 16.2211C2.21983 15.7508 2.23865 15.2805 2.38914 14.829C2.70895 13.8696 3.405 13.1359 4.38323 13.0606C6.13276 12.9478 7.88229 13.023 9.66944 13.023C9.66944 14.4339 9.66944 15.826 9.66944 17.2746C9.31201 17.2934 8.95458 17.2934 8.61596 17.3498C7.97635 17.4251 7.65654 17.8013 7.67536 18.4409C7.69417 19.0617 8.0516 19.438 8.6724 19.4944C8.86052 19.5132 9.04864 19.4944 9.23676 19.4944C17.8715 19.4944 26.5063 19.4944 35.1411 19.4944C35.3292 19.4944 35.5173 19.4944 35.7055 19.4944C36.3263 19.438 36.7025 19.0241 36.7213 18.4409C36.7401 17.8389 36.3639 17.4251 35.7619 17.3498C35.348 17.3122 34.9342 17.3122 34.4827 17.2934C34.4827 15.8448 34.4827 14.4527 34.4827 12.8725C36.1005 12.9854 37.6995 13.0042 39.2609 13.2111C40.3521 13.3616 41.1234 14.3775 41.2738 15.4874C41.3115 15.8072 41.3303 16.1458 41.3303 16.4656C41.3303 32.5124 41.3303 48.5592 41.3303 64.6247C41.3115 64.8881 41.3115 65.1703 41.2738 65.4525ZM51.5077 56.2721C48.8175 56.2721 46.1462 56.2721 43.4184 56.2721C43.4184 44.5522 43.4184 32.8698 43.4184 21.1122C46.0709 21.1122 48.7611 21.1122 51.5077 21.1122C51.5077 32.7946 51.5077 44.5145 51.5077 56.2721ZM56.8879 56.2533C55.8721 56.2533 54.875 56.2533 53.8216 56.2533C53.8216 44.571 53.8216 32.851 53.8216 21.0746C54.8562 21.0746 55.8533 21.0746 56.8879 21.0746C56.8879 32.8134 56.8879 44.4957 56.8879 56.2533ZM63.2652 54.7107C63.2652 56.1405 63.0959 56.3098 61.685 56.3098C60.8573 56.3098 60.0484 56.3098 59.1642 56.3098C59.1642 44.5522 59.1642 32.851 59.1642 21.037C60.2177 21.037 61.2147 21.0182 62.2306 21.037C62.8702 21.0558 63.2088 21.4132 63.2464 22.0528C63.2653 22.241 63.2464 22.4291 63.2464 22.6172C63.2653 33.3213 63.2652 44.0066 63.2652 54.7107ZM36.2886 23.1251C31.4351 23.1251 26.5816 23.1251 21.728 23.1251C16.8557 23.1251 11.9645 23.1251 7.09218 23.1251C6.00107 23.1251 5.71889 23.4261 5.70008 24.4984C5.70008 27.4519 5.70008 30.4054 5.70008 33.3589C5.70008 34.5065 6.01989 34.8075 7.16743 34.8075C16.8745 34.8075 26.5816 34.8075 36.2886 34.8075C37.4738 34.8075 37.7936 34.4877 37.7936 33.3025C37.7936 30.4242 37.7936 27.5272 37.7936 24.6489C37.8124 23.4073 37.5302 23.1251 36.2886 23.1251ZM35.5926 32.6629C26.3746 32.6629 17.1755 32.6629 7.91991 32.6629C7.91991 30.2361 7.91991 27.8094 7.91991 25.3262C17.1191 25.3262 26.3182 25.3262 35.5926 25.3262C35.5926 27.7905 35.5926 30.1985 35.5926 32.6629ZM8.44665 45.8314C9.31201 45.8502 10.1774 45.8314 11.0427 45.8314C11.8893 45.8314 12.7358 45.8314 13.5824 45.8314C14.4665 45.8314 14.8616 45.474 14.8616 44.6086C14.8804 42.9155 14.8804 41.2224 14.8616 39.5481C14.8616 38.7392 14.4665 38.3253 13.6576 38.3065C11.8893 38.2877 10.1397 38.2877 8.37141 38.3065C7.5813 38.3253 7.22386 38.664 7.22386 39.4353C7.20505 41.2036 7.20505 42.9531 7.22386 44.7215C7.24268 45.4928 7.63773 45.8126 8.44665 45.8314ZM9.4437 40.4135C10.4972 40.4135 11.5507 40.4135 12.623 40.4135C12.623 41.4482 12.623 42.464 12.623 43.5175C11.5695 43.5175 10.5348 43.5175 9.4437 43.5175C9.4437 42.464 9.4437 41.4482 9.4437 40.4135ZM19.1884 45.8314C20.0349 45.8502 20.8815 45.8314 21.728 45.8314C22.6122 45.8314 23.5152 45.8502 24.3994 45.8314C25.1895 45.8126 25.5657 45.4552 25.5845 44.665C25.6033 42.9531 25.6033 41.2412 25.5845 39.5293C25.5845 38.758 25.1895 38.3253 24.4182 38.3065C22.631 38.2689 20.8439 38.2689 19.0755 38.3065C18.3042 38.3253 17.9656 38.6828 17.9468 39.4541C17.928 41.1848 17.928 42.9343 17.9468 44.665C17.9468 45.474 18.323 45.8126 19.1884 45.8314ZM20.1666 40.4135C21.2013 40.4135 22.236 40.4135 23.3271 40.4135C23.3271 41.4858 23.3271 42.4828 23.3271 43.5175C22.2548 43.5175 21.2389 43.5175 20.1666 43.5175C20.1666 42.4828 20.1666 41.467 20.1666 40.4135ZM29.8361 45.8126C30.7014 45.8314 31.5668 45.8126 32.4321 45.8126C33.2787 45.8126 34.1252 45.8126 34.9718 45.8126C35.8936 45.8126 36.2698 45.4552 36.2698 44.5522C36.2886 42.8779 36.2886 41.2224 36.2698 39.5481C36.2698 38.7204 35.8936 38.2877 35.0847 38.2877C33.2975 38.2689 31.5103 38.2689 29.742 38.2877C28.9707 38.3065 28.6509 38.664 28.6321 39.4541C28.6133 41.1848 28.6133 42.9343 28.6321 44.665C28.6509 45.474 29.0271 45.8126 29.8361 45.8126ZM30.8707 40.4135C31.9054 40.4135 32.9401 40.4135 34.0312 40.4135C34.0312 41.467 34.0312 42.464 34.0312 43.5175C32.9777 43.5175 31.943 43.5175 30.8707 43.5175C30.8707 42.5016 30.8707 41.4858 30.8707 40.4135ZM7.22386 53.5068C7.24268 54.4285 7.5813 54.786 8.50309 54.8048C9.34964 54.8236 10.1962 54.8048 11.0239 54.8048C11.8893 54.8048 12.7546 54.8236 13.62 54.8048C14.4854 54.786 14.8616 54.4097 14.8616 53.5256C14.8804 51.983 14.8804 50.4404 14.8616 48.879C14.8616 48.0136 14.4101 47.5809 13.5447 47.5809C11.8517 47.5621 10.1774 47.5621 8.48428 47.5809C7.54367 47.5809 7.20505 47.9195 7.20505 48.8601C7.20505 50.4027 7.20505 51.9453 7.22386 53.5068ZM9.46251 49.7819C10.516 49.7819 11.5507 49.7819 12.623 49.7819C12.623 50.6849 12.623 51.5879 12.623 52.5473C11.5883 52.5473 10.5536 52.5473 9.46251 52.5473C9.46251 51.6632 9.46251 50.7602 9.46251 49.7819ZM17.928 53.5632C17.9468 54.4097 18.2854 54.786 19.132 54.786C20.8627 54.8048 22.5934 54.8048 24.3241 54.786C25.1895 54.7672 25.5657 54.3909 25.5657 53.5256C25.5845 51.983 25.5845 50.4404 25.5657 48.879C25.5657 48.0136 25.1142 47.5809 24.2677 47.5621C23.4211 47.5433 22.5746 47.5621 21.7468 47.5621C20.8815 47.5621 20.0161 47.5433 19.1508 47.5621C18.2854 47.5809 17.9468 47.9007 17.9468 48.7661C17.9092 50.3839 17.9092 51.9642 17.928 53.5632ZM20.1666 49.7819C21.2389 49.7819 22.2548 49.7819 23.3271 49.7819C23.3271 50.7037 23.3271 51.5879 23.3271 52.5473C22.2924 52.5473 21.2577 52.5473 20.1666 52.5473C20.1666 51.6632 20.1666 50.7602 20.1666 49.7819ZM28.6509 53.5256C28.6697 54.4097 29.0083 54.786 29.8925 54.786C31.6044 54.8048 33.3163 54.8048 35.0282 54.786C35.9312 54.7672 36.3074 54.3909 36.3074 53.4879C36.3263 51.9642 36.3263 50.4404 36.3074 48.9166C36.3074 48.0136 35.8748 47.5809 34.9718 47.5621C34.1252 47.5433 33.2787 47.5621 32.451 47.5621C31.6044 47.5621 30.7579 47.5433 29.9301 47.5621C29.0271 47.5809 28.6885 47.9007 28.6885 48.8037C28.6321 50.3839 28.6321 51.9642 28.6509 53.5256ZM30.8519 49.8008C31.943 49.8008 32.9777 49.8008 34.05 49.8008C34.05 50.7226 34.05 51.6067 34.05 52.5473C32.9965 52.5473 31.943 52.5473 30.8519 52.5473C30.8519 51.6443 30.8519 50.7602 30.8519 49.8008ZM13.6012 56.6484C11.8893 56.6296 10.1774 56.6296 8.46547 56.6484C7.60011 56.6484 7.24268 56.987 7.22386 57.8147C7.20505 59.4326 7.20505 61.0504 7.22386 62.6683C7.24268 63.496 7.61892 63.8346 8.46547 63.8346C9.31201 63.8534 10.1586 63.8346 11.0051 63.8346C11.8705 63.8346 12.7358 63.8346 13.6012 63.8346C14.4665 63.8158 14.8616 63.4772 14.8616 62.593C14.8804 61.0316 14.8804 59.4514 14.8616 57.8712C14.8616 57.0434 14.4665 56.6672 13.6012 56.6484ZM12.623 61.5207C11.5695 61.5207 10.516 61.5207 9.4437 61.5207C9.4437 60.5989 9.4437 59.6959 9.4437 58.7553C10.5348 58.7553 11.5507 58.7553 12.623 58.7553C12.623 59.6771 12.623 60.5801 12.623 61.5207ZM24.3241 56.6484C23.4776 56.6296 22.631 56.6484 21.7845 56.6484C20.9003 56.6484 19.9973 56.6296 19.1131 56.6484C18.323 56.6672 17.9468 56.987 17.9468 57.7395C17.9092 59.395 17.928 61.0692 17.9468 62.7247C17.9656 63.4772 18.3418 63.8346 19.1131 63.8346C20.8627 63.8534 22.631 63.8534 24.3805 63.8346C25.1707 63.8346 25.5657 63.4584 25.5845 62.6871C25.6033 61.0692 25.6033 59.4514 25.5845 57.8335C25.5657 57.0434 25.1518 56.6672 24.3241 56.6484ZM23.3459 61.5207C22.2924 61.5207 21.2577 61.5207 20.1666 61.5207C20.1666 60.6366 20.1666 59.7336 20.1666 58.7742C21.2013 58.7742 22.236 58.7742 23.3459 58.7742C23.3459 59.6959 23.3459 60.5801 23.3459 61.5207ZM35.0847 56.6484C33.3351 56.6296 31.5668 56.6296 29.8173 56.6484C29.046 56.6484 28.6697 56.987 28.6697 57.7583C28.6509 59.395 28.6509 61.0316 28.6697 62.6871C28.6885 63.496 29.046 63.8346 29.8549 63.8346C30.7014 63.8534 31.548 63.8346 32.3945 63.8346C33.2787 63.8346 34.1817 63.8346 35.0658 63.8346C35.9124 63.8346 36.3074 63.4772 36.3074 62.6495C36.3263 61.0316 36.3263 59.4138 36.3074 57.7959C36.2698 57.0622 35.856 56.6672 35.0847 56.6484ZM34.0312 61.5207C32.9965 61.5207 31.943 61.5207 30.8707 61.5207C30.8707 60.5989 30.8707 59.6771 30.8707 58.7553C31.943 58.7553 32.9589 58.7553 34.0312 58.7553C34.0312 59.6771 34.0312 60.5801 34.0312 61.5207Z" fill="#9ADDFF"/>
</svg>
