<svg width="69" height="71" viewBox="0 0 69 71" fill="none" xmlns="http://www.w3.org/2000/svg">
<path d="M68.2971 47.3769C68.2971 46.08 67.8039 45.5868 66.5252 45.5868C64.1505 45.5868 61.7758 45.5685 59.4193 45.605C58.6886 45.6233 58.0676 45.4224 57.4282 45.0936C55.839 44.2715 54.2132 43.4861 52.5509 42.7919C51.5827 42.39 50.5232 42.2074 49.482 41.9151C49.5368 41.6959 49.5916 41.4767 49.6464 41.2575C51.0165 36.0148 50.7972 30.8087 48.8427 25.767C43.9653 13.1809 30.6486 6.71435 17.7338 10.6418C13.2218 12.0118 9.42223 14.5144 6.29855 18.04C5.69573 18.7158 5.69574 19.4465 6.22548 19.9945C6.84656 20.6339 7.70512 20.5426 8.47234 19.7205C15.1033 12.5598 24.6022 10.3495 33.6444 13.8385C44.3855 17.9852 50.2858 30.352 46.815 41.3305C46.6871 41.7324 46.5227 41.9334 46.0843 41.9699C44.0384 42.1526 42.1386 42.8284 40.2389 43.5409C39.7822 43.7053 39.2707 43.8331 38.7958 43.8331C35.7269 43.8697 32.6397 43.7601 29.5709 43.9245C25.2964 44.1437 22.6842 48.8018 24.5474 52.6744C24.657 52.8936 24.7483 53.1128 24.9127 53.4416C24.4743 53.332 24.1455 53.259 23.8167 53.1676C18.4462 51.6332 13.0939 50.117 7.74165 48.5826C7.54071 48.5278 7.33978 48.3634 7.21191 48.199C3.99689 43.8149 2.49899 38.901 2.79126 33.4574C2.84606 32.3979 3.047 31.3384 3.17487 30.2789C3.26621 29.53 2.80953 28.8906 2.11538 28.7445C1.34816 28.5984 0.708812 29.0002 0.507873 29.7492C0.471339 29.8953 0.434805 30.0597 0.398271 30.2241C-0.697756 36.6359 0.471339 42.6275 3.86902 48.1807C4.01516 48.4182 4.17956 48.6739 4.3257 48.8931C4.23437 48.9662 4.2161 49.0027 4.1613 49.021C1.89617 50.1901 0.690545 52.0533 0.836681 54.5925C1.00109 57.296 2.49899 59.0679 5.09292 59.963C11.1759 62.0637 17.2771 64.1279 23.3418 66.3017C27.1413 67.6717 30.9957 68.4207 35.0145 67.9275C40.7503 67.2333 46.4679 66.3565 52.2038 65.5893C53.6835 65.3883 55.1631 65.3701 56.7158 65.2787C56.7158 66.4296 56.7523 67.3794 56.6975 68.3293C56.6427 69.1696 56.9167 69.7907 57.684 70.1743C60.9172 70.1743 64.1505 70.1743 67.4021 70.1743C68.1145 69.7359 68.352 69.1148 68.3337 68.2928C68.2971 61.333 68.2971 54.355 68.2971 47.3769ZM56.7341 49.8978C56.5697 53.8618 56.6793 57.8257 56.6793 61.7897C56.6793 62.0454 56.6793 62.2829 56.6793 62.5935C56.4966 62.6117 56.4053 62.6483 56.3322 62.6483C52.8249 62.5021 49.409 63.2876 45.9565 63.726C42.1752 64.201 38.4304 64.8038 34.6491 65.2422C30.9957 65.6623 27.5067 64.9134 24.0725 63.6712C18.0078 61.4974 11.9066 59.4515 5.82361 57.3325C4.59971 56.9124 3.83249 56.1086 3.59502 54.8117C3.21141 52.7475 5.09292 50.8112 7.13884 51.2861C9.22129 51.7611 11.2672 52.4187 13.3131 53.0032C16.7473 53.9896 20.1816 54.9761 23.6158 55.9625C23.9629 56.0538 24.3282 56.1269 24.6935 56.1269C29.6257 56.1452 34.5395 56.1269 39.4716 56.1269C39.5812 56.1269 39.6908 56.1269 39.8187 56.1269C40.5859 56.0721 41.1157 55.5606 41.1522 54.8299C41.1887 54.0627 40.6773 53.4782 39.8918 53.4051C39.6908 53.3868 39.4899 53.3868 39.2707 53.3868C36.2566 53.3868 33.2425 53.3868 30.2467 53.3868C28.2008 53.3868 26.6847 51.962 26.6481 50.0622C26.6116 48.1807 28.1095 46.6463 30.1371 46.628C33.1695 46.5732 36.2018 46.628 39.2342 46.5915C39.8004 46.5915 40.4033 46.4453 40.9513 46.2444C42.9241 45.4589 44.9335 44.7648 47.0708 44.6552C49.8839 44.509 52.35 45.5685 54.8343 46.7193C56.2774 47.377 56.8071 48.2172 56.7341 49.8978ZM65.5205 67.416C63.5112 67.416 61.5201 67.416 59.4741 67.416C59.4741 61.0956 59.4741 54.7569 59.4741 48.3634C59.7116 48.3451 59.9308 48.3268 60.15 48.3268C61.9219 48.3268 63.6938 48.3268 65.5023 48.3268C65.5206 54.7203 65.5205 61.0408 65.5205 67.416ZM8.69154 35.2476C8.76461 37.8232 10.7557 39.9422 13.3131 40.1249C14.2265 40.198 15.1398 40.198 16.0349 40.1249C18.4462 39.9422 20.4556 38.0607 20.5652 35.6129C20.693 32.7085 20.6748 29.7857 20.5652 26.863C20.5104 24.6527 18.7933 22.8259 16.6012 22.4606C15.6696 22.2962 14.7014 22.3327 13.7333 22.3327C10.9201 22.3693 8.72808 24.5613 8.69154 27.3927C8.67328 28.6714 8.69154 29.9501 8.69154 31.2288C8.69154 32.5623 8.67328 33.9141 8.69154 35.2476ZM11.4316 27.5937C11.4316 26.0044 12.3815 25.0728 13.989 25.0545C14.5188 25.0545 15.0302 25.0363 15.56 25.0545C16.8935 25.0911 17.8434 25.9679 17.9164 27.3197C17.9712 28.3244 17.9347 29.329 17.9347 30.3155C17.9347 31.8134 17.953 33.3113 17.9347 34.8274C17.9164 36.4897 17.0213 37.4031 15.359 37.4396C14.7928 37.4579 14.2265 37.4579 13.6602 37.4214C12.3267 37.3118 11.4499 36.3801 11.4316 35.0466C11.4133 33.7862 11.4316 32.5441 11.4316 31.2836C11.4316 30.0597 11.4133 28.8358 11.4316 27.5937ZM41.4993 23.648C41.8829 24.1594 41.8829 24.7075 41.5176 25.2372C41.3897 25.4199 41.2253 25.5843 41.0609 25.7487C36.4941 30.3155 31.9273 34.9005 27.3423 39.449C27.0135 39.7778 26.5568 39.997 26.0636 40.3441C25.6069 39.997 25.1137 39.7961 24.931 39.4308C24.7483 39.0654 24.8762 38.5357 24.931 38.0973C24.9493 37.9329 25.1685 37.7684 25.3146 37.6223C29.9727 32.9642 34.6126 28.3061 39.2707 23.6662C39.4716 23.4653 39.7274 23.2461 39.9831 23.173C40.5677 23.0086 41.1339 23.1365 41.4993 23.648ZM28.0182 22.5885C25.8261 22.5702 24.0359 24.3421 24.0359 26.4976C24.0359 28.6532 25.7896 30.3885 27.9451 30.4068C30.1189 30.4068 31.8725 28.6897 31.8908 26.5342C31.9273 24.4152 30.1554 22.6067 28.0182 22.5885ZM27.9086 27.685C27.2692 27.6667 26.7577 27.1005 26.776 26.4794C26.7943 25.84 27.3423 25.3285 27.9816 25.3468C28.621 25.3651 29.1507 25.8948 29.1507 26.5342C29.1507 27.1735 28.5844 27.7033 27.9086 27.685ZM38.4669 33.0555C36.3114 33.0373 34.5395 34.7909 34.5395 36.9464C34.5212 39.1385 36.2932 40.9287 38.4669 40.9104C40.6225 40.8921 42.3578 39.1385 42.3578 36.983C42.3578 34.8092 40.6225 33.0738 38.4669 33.0555ZM38.4121 38.1703C37.7728 38.1521 37.2613 37.6223 37.2613 36.983C37.2613 36.3253 37.7728 35.8139 38.4121 35.8139C39.0698 35.8139 39.5812 36.3071 39.5995 36.9647C39.6178 37.6223 39.0698 38.1886 38.4121 38.1703ZM5.51306 7.15276C4.94678 6.44034 4.98332 5.65486 5.58613 5.14338C6.20721 4.61363 7.02924 4.72323 7.63205 5.41738C8.4906 6.42207 9.31262 7.44503 10.1529 8.46799C10.5365 8.92467 10.6644 9.49095 10.3173 9.98416C10.0616 10.3495 9.6049 10.587 9.16649 10.9158C8.69154 10.6052 8.2714 10.4226 8.01566 10.1303C7.1571 9.18041 6.33508 8.15745 5.51306 7.15276ZM41.3349 10.0572C40.9878 9.63709 41.0243 9.08907 41.3714 8.65066C42.2848 7.48157 43.2347 6.34901 44.2028 5.23471C44.6778 4.6867 45.4633 4.6867 45.993 5.10684C46.541 5.54525 46.7237 6.36727 46.267 6.95182C45.3719 8.10265 44.4403 9.21694 43.4721 10.313C43.2529 10.5687 42.8693 10.66 42.4309 10.9158C42.029 10.6052 41.6089 10.386 41.3349 10.0572ZM23.8715 3.408C23.8715 2.82345 23.8533 2.22064 23.8715 1.63609C23.8898 0.759268 24.4743 0.156453 25.2598 0.17472C26.027 0.17472 26.5933 0.759268 26.6116 1.59956C26.6299 2.80519 26.6299 4.01082 26.6116 5.21644C26.5933 6.075 26.0453 6.62301 25.2598 6.64128C24.4561 6.65955 23.8898 6.075 23.8715 5.19818C23.8533 4.59536 23.8715 4.01082 23.8715 3.408ZM2.46246 24.1412C2.46246 23.374 3.08354 22.7346 3.83249 22.7529C4.58144 22.7711 5.16599 23.374 5.14772 24.1229C5.14772 24.8719 4.56317 25.4747 3.81422 25.4747C3.08354 25.4747 2.48072 24.8901 2.46246 24.1412Z" fill="#9ADDFF"/>
</svg>
