<svg width="71" height="71" viewBox="0 0 71 71" fill="none" xmlns="http://www.w3.org/2000/svg">
<path d="M2.64913 30.5812C1.49813 38.3277 2.99626 45.526 7.25314 52.1031C7.3993 52.3224 7.54546 52.5599 7.72816 52.8157C7.10698 53.2542 6.54061 53.6561 5.93771 54.0763C5.82809 53.9484 5.71847 53.8753 5.64539 53.7657C2.46643 49.0521 0.602906 43.8634 0.127889 38.1815C0.109619 37.944 0.0548096 37.7065 0 37.4507C0 36.0439 0 34.6189 0 33.2121C0.164429 32.0976 0.292318 30.9649 0.475017 29.8504C1.05965 26.4157 2.15584 23.1454 3.80013 20.0761C3.83667 20.003 3.87321 19.9116 3.96456 19.6924C3.12415 20.0213 2.37508 20.3136 1.55294 20.6242C1.27889 19.9482 1.02311 19.2905 0.712525 18.5414C1.53467 18.2125 2.302 17.902 3.08761 17.5914C4.09245 17.1894 5.11556 16.7875 6.12041 16.3673C6.70504 16.1298 7.23487 16.0932 7.67335 16.6231C8.09355 17.1529 7.92912 17.6827 7.582 18.1943C5.00594 21.9396 3.30685 26.0686 2.64913 30.5812ZM17.74 7.99968C17.9593 7.87179 18.1603 7.72563 18.3795 7.59774C24.6461 3.54183 31.5155 2.00716 38.9148 2.90239C43.7381 3.48702 48.1777 5.18612 52.1788 7.94487C52.7086 8.31027 53.2384 8.52951 53.8048 8.05449C54.3711 7.59774 54.2615 7.03138 54.024 6.42847C53.4576 5.03996 52.9095 3.63318 52.3615 2.24467C52.2153 1.87927 52.0509 1.51388 51.8682 1.11194C51.1374 1.40426 50.4979 1.66004 49.8037 1.93408C50.1143 2.73796 50.4066 3.50529 50.7537 4.40052C47.4651 2.62834 44.1583 1.47734 40.6505 0.874431C39.5177 0.673462 38.3667 0.545573 37.2157 0.399414C35.8089 0.399414 34.3839 0.399414 32.9771 0.399414C32.7944 0.435954 32.63 0.490763 32.4473 0.509033C27.5144 0.892701 22.9104 2.33602 18.617 4.80245C17.8314 5.2592 17.1006 5.75249 16.2967 6.26404C16.7717 6.94003 17.1737 7.50639 17.5573 8.05449C17.6487 8.01795 17.7035 8.01795 17.74 7.99968ZM59.8521 28.6629C59.8886 36.9209 59.8886 45.1606 59.8521 53.4186C59.8338 56.7254 57.4039 59.0457 54.0971 59.0822C51.7768 59.1005 49.4565 59.0822 47.118 59.0822C46.8805 59.0822 46.6247 59.0822 46.3507 59.0822C46.3507 60.6169 46.3507 62.0785 46.3507 63.6132C47.7392 63.6132 49.1094 63.5949 50.4614 63.6314C50.9547 63.6497 51.4662 63.7228 51.9047 63.9238C52.6538 64.2892 53.0374 64.9651 53.0557 65.8055C53.074 66.6094 53.074 67.395 53.0557 68.1989C53.0192 69.423 52.1057 70.3365 50.8816 70.3913C50.4066 70.4096 49.9316 70.3913 49.4383 70.3913C39.5177 70.3913 29.6155 70.3913 19.6949 70.3913C17.7583 70.3913 16.9362 69.5874 16.9362 67.6691C16.9362 67.121 16.9362 66.5729 16.9362 66.0248C16.9544 64.5449 17.8314 63.6497 19.3113 63.6132C20.5353 63.5949 21.7777 63.6132 23.0018 63.6132C23.2027 63.6132 23.4037 63.5949 23.6412 63.5766C23.6412 62.0968 23.6412 60.6534 23.6412 59.0822C23.3854 59.0822 23.1479 59.0822 22.9104 59.0822C20.6267 59.0822 18.343 59.0822 16.0775 59.0822C12.5514 59.064 10.158 56.6889 10.1398 53.1628C10.1215 45.0692 10.1215 36.9757 10.1398 28.8821C10.1398 25.3743 12.5697 22.9627 16.0775 22.9444C17.466 22.9444 18.8545 22.9444 20.4257 22.9444C19.8411 21.2453 20.7363 20.679 22.07 20.3867C22.5268 20.2953 22.6364 19.9116 22.4354 19.4732C22.4171 19.4549 22.4171 19.4366 22.3989 19.4184C22.1614 18.8703 21.6681 18.2856 21.7594 17.8106C21.869 17.299 22.5268 16.8971 22.947 16.4586C24.3355 15.0519 25.7605 13.6633 27.149 12.2383C27.4413 11.946 27.6606 11.8729 28.026 12.0921C28.3914 12.3114 28.7933 12.4758 29.1953 12.6585C29.652 12.8777 29.9809 12.7498 30.1636 12.2748C30.3097 11.8729 30.4741 11.471 30.5838 11.0507C30.6934 10.6854 30.8578 10.5027 31.2963 10.5027C33.7262 10.5209 36.1743 10.5209 38.6042 10.5027C39.0244 10.5027 39.2254 10.6488 39.335 11.0325C39.4447 11.4527 39.6091 11.8546 39.7552 12.2566C39.9379 12.7316 40.2303 12.8777 40.7235 12.6585C41.2899 12.4027 41.9294 11.9277 42.4409 12.0191C42.9342 12.1104 43.3361 12.8047 43.7746 13.2431C45.1266 14.5951 46.4603 15.9653 47.8488 17.299C48.2325 17.6644 48.2873 17.975 48.0132 18.4135C47.8123 18.7424 47.6844 19.1078 47.5017 19.4549C47.2642 19.9299 47.4286 20.3136 47.9219 20.4049C49.3469 20.6424 50.0412 21.3732 49.5662 22.9444C51.1008 22.9444 52.4893 22.9444 53.8596 22.9444C54.901 22.9444 55.9058 23.1089 56.8193 23.6387C58.829 24.7532 59.8521 26.4522 59.8521 28.6629ZM22.545 22.7069C22.5816 22.78 22.5998 22.8714 22.6364 22.9444C23.6229 22.9444 24.5912 22.9079 25.5778 22.9627C26.0894 22.981 26.3086 22.8348 26.4913 22.3233C27.6606 18.852 30.9126 16.3673 34.457 16.2211C38.3302 16.0567 41.8197 18.0847 43.2265 21.6107C43.6833 22.78 44.2496 23.1089 45.3824 22.9627C46.0583 22.8714 46.7526 22.9444 47.4286 22.9444C47.4469 22.8531 47.4651 22.78 47.4651 22.6887C47.1363 22.5425 46.8074 22.3781 46.4603 22.2867C46.0035 22.1771 45.766 21.9396 45.6564 21.4828C45.6016 21.2271 45.5103 20.953 45.3641 20.7155C44.9256 20.0578 44.9256 19.4184 45.3824 18.7789C45.6381 18.4135 45.5468 18.1395 45.2362 17.8471C44.3044 16.9519 43.3727 16.0384 42.4775 15.0884C42.0938 14.6865 41.7832 14.5768 41.3264 14.9057C40.7601 15.3259 40.212 15.3076 39.6456 14.9422C39.4995 14.8509 39.3168 14.7595 39.1523 14.7413C38.3667 14.5951 37.9283 14.1201 37.8004 13.3528C37.7273 12.8777 37.4532 12.8047 37.033 12.8229C35.6811 12.8412 34.3474 12.8595 32.9954 12.8229C32.5569 12.8047 32.3559 12.9691 32.2281 13.3893C32.1184 13.773 31.9723 14.3211 31.6982 14.4307C30.5838 14.8692 29.451 15.7826 28.1904 14.7047C28.1721 14.6865 28.0991 14.7047 28.0077 14.7047C26.9298 15.7826 25.8153 16.8971 24.7191 18.0298C24.5912 18.176 24.5364 18.5597 24.6278 18.7058C25.1393 19.4549 25.0663 20.1674 24.6095 20.9165C24.5182 21.0626 24.4451 21.2453 24.4085 21.428C24.3172 22.0127 23.9335 22.2502 23.422 22.3963C23.1114 22.4511 22.8373 22.5973 22.545 22.7069ZM34.7493 18.45C32.0088 18.5597 29.1039 20.7155 28.7568 22.9262C32.9223 22.9262 37.0878 22.9262 41.2899 22.9262C40.6505 20.3684 37.6542 18.3404 34.7493 18.45ZM12.4235 28.9735C12.4235 35.0025 12.4235 41.0499 12.4235 47.0789C12.4235 47.2982 12.4418 47.5174 12.4601 47.7732C27.4962 47.7732 42.514 47.7732 57.5501 47.7732C57.5684 47.5174 57.5866 47.2982 57.5866 47.0789C57.5866 41.0499 57.5866 35.0025 57.5866 28.9735C57.5866 26.5801 56.2529 25.2282 53.8778 25.2282C41.3082 25.2282 28.7202 25.2282 16.1506 25.2282C13.7755 25.2464 12.4418 26.5801 12.4235 28.9735ZM19.2382 65.9334C19.2382 66.6642 19.2382 67.3585 19.2382 68.1076C29.7616 68.1076 40.2668 68.1076 50.7902 68.1076C50.7902 67.3768 50.7902 66.6825 50.7902 65.9334C40.2303 65.9334 29.7434 65.9334 19.2382 65.9334ZM43.9939 63.5766C43.9939 62.0785 43.9939 60.6169 43.9939 59.1371C37.9648 59.1371 31.9905 59.1371 26.0163 59.1371C26.0163 60.6352 26.0163 62.0785 26.0163 63.5766C32.0271 63.5766 38.0013 63.5766 43.9939 63.5766ZM57.5684 50.1117C42.4775 50.1117 27.4779 50.1117 12.4601 50.1117C12.4601 51.4089 12.387 52.6695 12.4783 53.9119C12.6245 55.6658 14.1592 56.8533 16.1506 56.8533C28.7385 56.8533 41.3082 56.8533 53.8961 56.8533C54.0788 56.8533 54.2615 56.8533 54.4442 56.835C56.0702 56.7072 57.4587 55.4648 57.5684 53.8936C57.6414 52.6695 57.5684 51.4089 57.5684 50.1117ZM67.2879 50.6233C66.9225 50.7694 66.5389 50.9156 66.009 51.1166C68.987 45.5443 70.3025 39.7344 69.9553 33.5775C69.6082 27.4206 67.6716 21.7934 64.1273 16.6779C63.4695 17.1346 62.9032 17.5366 62.282 17.9568C62.4464 18.1943 62.5743 18.3952 62.7205 18.6145C68.1832 27.2744 69.188 36.4276 65.8081 46.0741C64.9677 48.4492 63.7619 50.6416 62.3368 52.7243C62.0262 53.1811 61.9531 53.6561 62.3003 54.1128C62.6291 54.5513 63.1041 54.6792 63.5792 54.4965C65.4609 53.784 67.3428 53.0166 69.2794 52.231C68.987 51.5002 68.7313 50.8425 68.4572 50.1483C68.037 50.331 67.6716 50.4771 67.2879 50.6233ZM41.3082 43.0778C44.3958 40.8672 47.4103 38.7113 50.4979 36.5189C47.4103 34.3083 44.3775 32.1524 41.3082 29.9601C40.8514 30.5995 40.4495 31.1841 40.011 31.8053C42.2217 33.3948 44.3775 34.9295 46.6247 36.5372C44.3775 38.145 42.2034 39.6979 40.011 41.2691C40.4678 41.8903 40.8697 42.4567 41.3082 43.0778ZM30.0174 41.2508C27.8067 39.6614 25.6326 38.1267 23.4037 36.5189C25.6509 34.9112 27.825 33.3583 30.0174 31.7871C29.5424 31.1293 29.1222 30.5447 28.702 29.9601C25.5961 32.1707 22.5816 34.3266 19.5122 36.5189C22.5998 38.7296 25.6326 40.8854 28.702 43.0778C29.1587 42.4567 29.5607 41.8903 30.0174 41.2508ZM38.3667 27.7677C37.6177 27.585 36.9234 27.4206 36.1743 27.2379C34.6579 33.3035 33.1598 39.2777 31.6617 45.2885C32.4656 45.4895 33.1415 45.6356 33.8541 45.8183C35.3705 39.771 36.8503 33.815 38.3667 27.7677ZM35.0051 52.3407C34.3656 52.3407 33.8906 52.8339 33.9089 53.4734C33.9272 54.1128 34.4204 54.5879 35.0599 54.5513C35.6628 54.533 36.1195 54.058 36.1378 53.4551C36.1195 52.8339 35.6445 52.3407 35.0051 52.3407ZM30.5107 52.3407C29.8712 52.3407 29.378 52.8157 29.378 53.4551C29.378 54.0946 29.853 54.5696 30.5107 54.5696C31.1501 54.5513 31.6251 54.0763 31.6069 53.4186C31.5886 52.8157 31.1136 52.3589 30.5107 52.3407ZM39.5177 52.3407C38.8783 52.3407 38.4033 52.8522 38.4215 53.4734C38.4398 54.0763 38.8966 54.5513 39.5177 54.5513C40.1572 54.5696 40.6505 54.0946 40.6505 53.4551C40.6322 52.8157 40.1572 52.3407 39.5177 52.3407Z" fill="#9ADDFF"/>
</svg>
