<svg width="60" height="48" viewBox="0 0 60 48" fill="none" xmlns="http://www.w3.org/2000/svg">
<path d="M60 34.7895C60 35.8696 59.7339 36.1357 58.6538 36.1357C52.9872 36.1357 47.3206 36.1357 41.6697 36.1357C41.5132 36.1357 41.3566 36.1514 41.2001 36.1357C40.6835 36.0888 40.3235 35.6974 40.3235 35.2122C40.3235 34.7269 40.6679 34.3356 41.1845 34.273C41.3566 34.2573 41.5288 34.2573 41.7167 34.2573C46.9293 34.2573 52.1419 34.2573 57.3546 34.2573C57.5894 34.2573 57.8242 34.2573 58.0903 34.2573C58.0903 23.6286 58.0903 13.0311 58.0903 2.40238C39.3686 2.40238 20.647 2.40238 1.90973 2.40238C1.90973 12.9998 1.90973 23.5816 1.90973 34.2573C2.12888 34.2573 2.34803 34.2573 2.58283 34.2573C7.81111 34.2573 13.055 34.2573 18.2833 34.2573C18.4712 34.2573 18.6747 34.2417 18.8625 34.273C19.3634 34.3669 19.6765 34.6643 19.6765 35.1809C19.6765 35.6974 19.3791 36.0105 18.8782 36.1044C18.706 36.1357 18.5338 36.1201 18.3459 36.1201C12.6794 36.1201 7.01278 36.1201 1.36186 36.1357C0.782677 36.1357 0.328724 36.0105 0 35.5409C0 24.0825 0 12.5928 0 1.10314C0.328724 0.617876 0.782677 0.508301 1.36186 0.508301C20.4592 0.523954 39.5565 0.523954 58.6538 0.523954C59.7339 0.523954 60 0.790064 60 1.87016C60 12.8433 60 23.8164 60 34.7895ZM39.7287 27.9333C40.48 29.0134 40.4957 30.1248 39.7443 31.2049C39.353 31.7684 39.1965 32.3319 39.2434 33.0207C39.353 34.3826 38.7582 35.3531 37.5215 35.9166C36.958 36.1671 36.6293 36.6054 36.3005 37.1219C35.9405 37.6698 35.3926 38.1081 34.9543 38.609C34.8135 38.7655 34.6882 39.016 34.6882 39.2195C34.6726 41.5206 34.6726 43.8216 34.6726 46.1384C34.6726 46.608 34.6256 47.0463 34.156 47.2967C33.6708 47.5472 33.2951 47.328 32.9194 47.0463C31.9645 46.3105 30.994 45.5905 29.9765 44.8391C28.9434 45.6061 27.9572 46.3419 26.9867 47.0776C26.6267 47.3593 26.251 47.5315 25.797 47.2967C25.3431 47.0619 25.2805 46.6549 25.2805 46.201C25.2961 43.9156 25.2805 41.6301 25.2961 39.3447C25.2961 38.9534 25.2178 38.7186 24.8422 38.4681C24.3726 38.1707 23.9812 37.6698 23.6995 37.1845C23.3707 36.621 23.0107 36.1827 22.4159 35.9009C21.2418 35.3531 20.6314 34.4139 20.7409 33.0833C20.8035 32.3632 20.6314 31.7684 20.2244 31.1579C19.4887 30.0935 19.52 28.9821 20.2557 27.9333C20.6314 27.3854 20.8035 26.8375 20.7409 26.1801C20.6157 24.7713 21.2732 23.8164 22.5254 23.1746C22.9637 22.9555 23.3864 22.5328 23.6055 22.0945C24.263 20.8109 25.2335 20.1848 26.658 20.31C27.2685 20.3726 27.8007 20.2004 28.3016 19.8404C29.413 19.0577 30.5557 19.0577 31.6671 19.8404C32.1837 20.2161 32.7315 20.357 33.3733 20.31C34.7822 20.1848 35.784 20.8109 36.3475 22.0945C36.5823 22.6267 36.958 22.9868 37.4902 23.2059C38.7582 23.7695 39.353 24.7713 39.2434 26.1488C39.1965 26.8375 39.353 27.4011 39.7287 27.9333ZM32.7785 38.8438C31.8549 39.2038 30.9314 39.8143 30.0235 39.8143C29.0843 39.8143 28.1607 39.2038 27.2215 38.8595C27.2215 40.7379 27.2215 42.6007 27.2215 44.5574C27.9416 44.0251 28.5834 43.5399 29.2408 43.0546C29.8669 42.585 30.1331 42.585 30.7592 43.0546C31.4166 43.5399 32.0584 44.0251 32.7785 44.5574C32.7785 42.6007 32.7785 40.7379 32.7785 38.8438ZM38.1477 28.9195C37.5059 28.0898 37.2554 27.1506 37.3963 26.1175C37.4746 25.5227 37.2241 25.147 36.6919 24.9278C35.7683 24.5365 35.0952 23.879 34.7039 22.9555C34.4534 22.3606 34.0621 22.1258 33.4203 22.2041C32.4341 22.3293 31.5262 22.0789 30.7279 21.4684C30.2426 21.0927 29.773 21.124 29.2878 21.484C28.5051 22.0789 27.6128 22.3293 26.6423 22.2041C25.9849 22.1258 25.5622 22.3763 25.3118 22.9711C24.9361 23.8477 24.3099 24.5052 23.4177 24.8809C22.8072 25.1313 22.5411 25.5383 22.635 26.1958C22.7602 27.1506 22.5411 28.0272 21.9463 28.7942C21.5236 29.3421 21.5393 29.843 21.9463 30.3752C22.4472 31.0483 22.7133 31.8154 22.6507 32.6763C22.6037 33.2868 22.5254 33.9129 23.2768 34.2104C24.2943 34.6174 24.983 35.3531 25.4057 36.3392C25.6092 36.8088 25.9536 37.0123 26.4701 36.9654C27.5502 36.8402 28.5207 37.075 29.3817 37.7481C29.773 38.0611 30.2113 38.0611 30.6183 37.7481C31.4793 37.0906 32.4498 36.8245 33.5299 36.9497C34.0777 37.0123 34.4378 36.7932 34.6413 36.2923C35.0483 35.3061 35.737 34.6017 36.7388 34.1947C37.2241 33.9912 37.4589 33.6312 37.3963 33.0833C37.2711 32.0345 37.5059 31.064 38.1477 30.2187C38.4764 29.8117 38.4764 29.3578 38.1477 28.9195ZM10.1905 15.5357C9.68954 15.6296 9.37647 15.9427 9.37647 16.4593C9.37647 16.9758 9.68954 17.2889 10.1905 17.3828C10.3783 17.4141 10.5818 17.3985 10.7696 17.3985C17.1719 17.3985 23.5742 17.3985 29.9922 17.3985C36.3945 17.3985 42.7968 17.3985 49.2147 17.3985C49.4026 17.3985 49.6061 17.4141 49.7939 17.3828C50.2948 17.2889 50.6079 16.9758 50.6079 16.4593C50.6079 15.9427 50.2948 15.6296 49.7939 15.5357C49.6217 15.5044 49.4495 15.52 49.2617 15.52C36.4101 15.52 23.5586 15.52 10.707 15.52C10.5505 15.52 10.3626 15.5044 10.1905 15.5357ZM19.2225 11.7632C26.4075 11.7632 33.5925 11.7632 40.7775 11.7632C40.9653 11.7632 41.1688 11.7788 41.3566 11.7475C41.8576 11.6536 42.1706 11.3405 42.1706 10.824C42.1706 10.3074 41.8732 9.99434 41.3566 9.90042C41.1845 9.86911 41.0123 9.88477 40.8244 9.88477C37.2241 9.88477 33.6394 9.88477 30.0391 9.88477C26.3606 9.88477 22.6976 9.88477 19.019 9.88477C18.2207 9.88477 17.7981 10.2135 17.7981 10.824C17.7981 11.4188 18.2364 11.7632 19.019 11.7632C19.0973 11.7632 19.1599 11.7632 19.2225 11.7632ZM7.45108 4.2808C6.55883 4.26515 5.65093 4.26515 4.75867 4.2808C4.11688 4.29646 3.75685 4.65649 3.75685 5.31394C3.74119 6.19053 3.74119 7.06713 3.75685 7.94373C3.7725 8.55422 4.14819 8.94556 4.66475 8.96121C5.21263 8.97686 5.60397 8.56987 5.61962 7.92808C5.63527 7.36455 5.61962 6.80102 5.61962 6.14357C6.26141 6.14357 6.85625 6.15923 7.43543 6.14357C8.03026 6.12792 8.4216 5.75224 8.43726 5.22002C8.43726 4.68779 8.04592 4.2808 7.45108 4.2808ZM56.2432 5.31394C56.2275 4.62518 55.8675 4.2808 55.1787 4.2808C54.3178 4.26515 53.4568 4.26515 52.6115 4.2808C51.9697 4.29646 51.5627 4.67214 51.5784 5.22002C51.5784 5.76789 51.9854 6.12792 52.6272 6.14357C53.1907 6.15923 53.7542 6.14357 54.3804 6.14357C54.3804 6.5036 54.3804 6.76971 54.3804 7.05148C54.3804 7.3489 54.3804 7.63066 54.3804 7.92808C54.396 8.55422 54.7874 8.96121 55.3352 8.96121C55.8675 8.94556 56.2432 8.55422 56.2432 7.94373C56.2588 7.06713 56.2588 6.19053 56.2432 5.31394ZM5.61962 28.7942C5.60397 28.1368 5.25959 27.7298 4.71171 27.7141C4.14819 27.6985 3.75685 28.1211 3.75685 28.7942C3.74119 29.6395 3.74119 30.4692 3.75685 31.3145C3.7725 32.0502 4.10123 32.3946 4.83694 32.3946C5.68223 32.4102 6.51187 32.4102 7.35716 32.3946C8.03026 32.3946 8.45291 32.0032 8.43726 31.4397C8.4216 30.8918 8.01461 30.5318 7.37282 30.5318C6.80929 30.5161 6.24576 30.5318 5.63527 30.5318C5.61962 29.9056 5.63527 29.3421 5.61962 28.7942ZM53.4725 30.5318C53.1751 30.5318 52.8933 30.5318 52.5959 30.5318C51.9541 30.5474 51.5471 30.9388 51.5627 31.4866C51.5784 32.0189 51.9697 32.3946 52.5646 32.4102C53.4412 32.4259 54.3178 32.4259 55.1944 32.4102C55.8831 32.3946 56.2275 32.0502 56.2275 31.3458C56.2432 30.4848 56.2432 29.6239 56.2275 28.7786C56.2118 28.1368 55.8362 27.7298 55.2883 27.7298C54.7404 27.7298 54.3647 28.1368 54.3647 28.7786C54.3491 29.3421 54.3647 29.9056 54.3647 30.5318C54.0204 30.5318 53.7542 30.5161 53.4725 30.5318ZM35.6274 29.5143C35.6431 32.645 33.1385 35.1965 30.0078 35.2122C26.9241 35.2278 24.3726 32.692 24.3726 29.5926C24.3726 26.4932 26.8771 23.973 29.9765 23.9573C33.0603 23.9573 35.5961 26.4619 35.6274 29.5143ZM33.749 29.6395C33.7647 27.5576 32.1054 25.867 30.0235 25.8514C27.9572 25.8357 26.251 27.5106 26.251 29.5769C26.251 31.6432 27.9259 33.3338 29.9922 33.3494C32.0428 33.3338 33.7334 31.6745 33.749 29.6395Z" fill="url(#paint0_linear_202_804)"/>
<defs>
<linearGradient id="paint0_linear_202_804" x1="10.6579" y1="40.6189" x2="41.8721" y2="2.62346" gradientUnits="userSpaceOnUse">
<stop stop-color="#AD2E59"/>
<stop offset="1" stop-color="#009AFD"/>
</linearGradient>
</defs>
</svg>
