<svg width="60" height="55" viewBox="0 0 60 55" fill="none" xmlns="http://www.w3.org/2000/svg">
<path fill-rule="evenodd" clip-rule="evenodd" d="M59.8061 27.6605C59.9354 28.1291 60 28.6462 60 29.1472V43.6906C60 45.1612 59.4506 46.3893 58.4002 47.4073C58.2225 47.5851 58.0932 47.8759 58.077 48.1183C58.0528 48.8703 58.0558 49.6313 58.0589 50.3878L58.0589 50.3893C58.0599 50.6403 58.0609 50.8907 58.0609 51.1402C58.0609 53.3378 56.9459 54.469 54.7643 54.469H26.1621H5.23566C3.08645 54.469 1.93913 53.3217 1.93913 51.1886C1.93913 50.9296 1.94015 50.6715 1.94116 50.414C1.94419 49.6434 1.9472 48.8773 1.92297 48.1022C1.90681 47.8598 1.77754 47.5528 1.59978 47.3912C0.56558 46.3893 0 45.2096 0 43.7876C0 36.6936 0 36.0634 0.0323189 28.9532C0.0323189 26.2708 2.14921 24.17 4.83167 24.1377C5.88107 24.127 6.93756 24.1305 8.01996 24.1341C8.57098 24.1359 9.12873 24.1377 9.69566 24.1377V23.4105C9.69566 17.6578 9.69566 11.9212 9.67951 6.16843C9.67951 5.57053 9.85726 5.13422 10.2774 4.73024C11.0736 3.96864 11.8534 3.18232 12.6343 2.39482L12.6343 2.39474L12.6344 2.39467L12.6345 2.39462L12.6345 2.39459L12.6345 2.39458C12.9471 2.07936 13.2598 1.76396 13.5739 1.44987C14.3173 0.706537 14.7213 0.706537 15.4323 1.43371C16.4018 2.38712 17.3714 3.35669 18.3733 4.37473C19.3589 3.37297 20.3122 2.41968 21.2655 1.4664L21.2655 1.46637L21.2658 1.46603C22.0576 0.674218 22.4455 0.690378 23.2373 1.48219C24.1745 2.41944 25.1118 3.35669 26.1137 4.37473C26.7439 3.74451 27.3579 3.13045 27.9558 2.51639C28.0965 2.37573 28.2353 2.23507 28.3736 2.09501L28.3737 2.09489C28.6484 1.81666 28.9207 1.54081 29.2001 1.27212C29.7657 0.738856 30.2343 0.722696 30.7837 1.27212C31.2764 1.76478 31.7691 2.26526 32.2694 2.77355L32.2705 2.77465L32.2709 2.77503C32.7876 3.29993 33.3125 3.83316 33.854 4.37473C34.8236 3.389 35.7608 2.45176 36.6981 1.51451C37.5545 0.674218 37.91 0.658059 38.7503 1.51451C39.3084 2.06295 39.855 2.61711 40.4106 3.18042L40.411 3.18084L40.4112 3.18105L40.4113 3.18107L40.4113 3.18114C40.7886 3.56366 41.1701 3.95039 41.5621 4.34241C41.7235 4.21328 41.8526 4.10027 41.9818 3.98728L41.9818 3.98726L41.9819 3.98722L41.9819 3.9872L41.9819 3.98715L41.982 3.98713L41.982 3.98708L41.9822 3.9869C42.2845 3.68466 42.5849 3.38242 42.8848 3.08078C43.4826 2.47929 44.0782 1.8802 44.6809 1.28828C45.2464 0.738856 45.7151 0.738856 46.2645 1.27212C46.4212 1.42676 46.5778 1.58115 46.7344 1.73541L46.7344 1.73543L46.7344 1.73545L46.7346 1.73558L46.735 1.73604L46.7355 1.73646L46.7359 1.73689C47.8221 2.8072 48.9021 3.87141 49.9327 4.97263C50.1751 5.24734 50.3043 5.73212 50.3043 6.11995C50.3205 11.8727 50.3205 17.6093 50.3205 23.3621V24.1377C50.8796 24.1377 51.4332 24.1359 51.9825 24.1341C53.0687 24.1305 54.1382 24.127 55.2006 24.1377C57.3822 24.17 59.2405 25.5759 59.8061 27.6605ZM54.1503 26.1253H50.3528V31.8619H54.1503V26.1253ZM13.9558 3.77854C13.2949 4.45459 12.6687 5.09521 12.0226 5.71596C11.7318 6.00683 11.6025 6.2977 11.6025 6.70169C11.6186 14.8622 11.6186 23.0389 11.6186 31.1994V31.8135H48.3652C48.3652 31.764 48.3713 31.7267 48.3759 31.6977L48.376 31.6977L48.376 31.6976C48.3789 31.6793 48.3814 31.6644 48.3814 31.6519V6.49162C48.3814 6.33002 48.349 6.11995 48.2359 6.00683C47.6423 5.38082 47.0342 4.76922 46.4166 4.14797C46.1095 3.8391 45.8001 3.52785 45.4888 3.21125C44.6162 4.10002 43.7921 4.92415 42.968 5.74828C41.6752 7.04104 41.5459 7.0572 40.2693 5.76444C39.8543 5.34129 39.4352 4.91813 39.012 4.49085L39.0094 4.48819L39.0089 4.48776L39.0087 4.48754L39.0082 4.48701L39.0059 4.4847C38.5907 4.0655 38.1715 3.64232 37.7485 3.21125C37.2149 3.74481 36.7022 4.26169 36.1976 4.77036C35.7089 5.26306 35.2278 5.74806 34.7428 6.23307C34.0964 6.87944 33.6601 6.86328 32.9976 6.21691L31.1554 4.37473L29.9919 3.21125L29.81 3.39613L29.8096 3.39648L29.8092 3.39698C28.8756 4.34564 27.9956 5.23992 27.1155 6.11995C26.3237 6.91176 25.9359 6.91176 25.1441 6.11995C24.1907 5.16654 23.2373 4.21314 22.3162 3.27589C22.2746 3.29371 22.244 3.30498 22.2202 3.31371C22.1793 3.32873 22.1589 3.33625 22.1384 3.35669C21.6698 3.82531 21.1971 4.29394 20.7245 4.76257C20.2518 5.23119 19.7792 5.69981 19.3105 6.16843C18.5995 6.87944 18.1632 6.87944 17.4684 6.18459C16.9914 5.70764 16.5184 5.23068 16.0377 4.74604L16.0376 4.74598C15.5412 4.24544 15.0366 3.73668 14.5112 3.21125C14.3227 3.40325 14.1379 3.59224 13.9558 3.77854ZM9.64719 26.1253H5.84972V31.8619H9.64719V26.1253ZM55.3317 52.4558C55.6356 52.2653 56.0432 52.0098 56.0733 51.7542C56.138 51.0528 56.1307 50.3443 56.1235 49.6478V49.6477V49.6477V49.6476V49.6476V49.6475V49.6475V49.6475V49.6474V49.6474V49.6474V49.6473V49.6473C56.1199 49.3008 56.1164 48.9574 56.1217 48.6193H3.87827V51.0109C3.87827 52.2875 4.12066 52.5299 5.39725 52.5299H54.6189C54.6778 52.5299 54.7419 52.535 54.807 52.5401C54.9742 52.5534 55.149 52.5673 55.2653 52.4975L55.3317 52.4558ZM54.7967 46.7125C56.8974 46.7125 58.0609 45.549 58.0609 43.4644C58.0719 39.5106 58.0679 38.576 58.059 36.5388V36.5378V36.5369V36.536V36.5353V36.5346V36.5339C58.0549 35.5912 58.0498 34.412 58.0447 32.5891C58.0447 32.1851 58.0465 31.7811 58.0483 31.3772C58.0519 30.5692 58.0555 29.7612 58.0447 28.9532C58.0286 27.709 57.2529 26.6586 56.1217 26.3354V26.9333V32.5568C56.1217 33.494 55.7985 33.8172 54.8451 33.8172H5.1387C4.1853 33.8172 3.86211 33.494 3.86211 32.5406V26.3193C2.63399 26.7071 1.92297 27.7574 1.92297 29.131V43.4159C1.92297 45.5651 3.07029 46.7125 5.20334 46.7125H54.7967ZM15.9171 26.0769H30.0081H44.0991C45.2141 26.0769 45.4888 25.8021 45.4888 24.6871V10.0467C45.4888 8.93169 45.2141 8.65698 44.0991 8.65698H15.9171C14.8021 8.65698 14.5273 8.93169 14.5273 10.0467V24.6871C14.5273 25.786 14.8021 26.0769 15.9171 26.0769ZM16.4826 10.6123H43.5012V24.0892H16.4826V10.6123ZM25.209 22.1663H26.0978V12.5353H25.209V22.1663ZM18.4375 22.1501H20.2958V12.5514H18.4375V22.1501ZM7.7562 37.033C5.62315 37.033 3.87793 38.7782 3.87793 40.9112C3.87793 43.0281 5.60699 44.7572 7.70772 44.7733C9.84076 44.7895 11.6021 43.0604 11.6183 40.9274C11.6183 38.7782 9.88924 37.033 7.7562 37.033ZM7.74004 42.8342C6.67351 42.8342 5.78474 41.9131 5.81706 40.8466C5.84938 39.7962 6.73815 38.9398 7.78851 38.9721C8.83888 38.9883 9.69533 39.877 9.67917 40.9274C9.66301 41.9777 8.77424 42.8504 7.74004 42.8342ZM29.9754 22.1501H27.1475V12.5514H29.9754V22.1501ZM24.1427 22.1663H23.2539V12.5353H24.1427V22.1663ZM14.5596 29.8905H16.4341V28.0483H14.5596V29.8905ZM45.4568 29.9067H22.2842V28.0483H45.4568V29.9067ZM18.4219 29.9228C18.5512 29.939 18.6481 29.939 18.7451 29.939H20.2964V28.0483H18.438C18.4219 28.6947 18.4219 29.2926 18.4219 29.9228ZM22.2188 22.1663H21.3301V12.5353H22.2188V22.1663ZM52.2272 37.0329C50.1265 37.0491 48.3975 38.7782 48.3975 40.8951C48.3975 43.0281 50.1427 44.7733 52.2757 44.7733C54.4088 44.7733 56.154 43.0119 56.1378 40.8789C56.1217 38.7458 54.3603 37.0168 52.2272 37.0329ZM52.2757 42.8342C51.2092 42.8342 50.3204 41.9454 50.3366 40.8627C50.3528 39.8124 51.2415 38.9559 52.2919 38.9721C53.3423 38.9882 54.2149 39.8609 54.1987 40.9112C54.1987 41.9616 53.3261 42.8342 52.2757 42.8342ZM38.7178 40.8951C38.7178 38.7943 40.4468 37.0491 42.5476 37.0329C44.6806 37.0168 46.442 38.7458 46.4581 40.8789C46.4581 43.0119 44.7291 44.7733 42.596 44.7733C40.463 44.7733 38.7178 43.0281 38.7178 40.8951ZM40.6569 40.8951C40.6569 41.9454 41.5134 42.818 42.5637 42.8342C43.6302 42.8503 44.5352 41.9616 44.519 40.8789C44.5029 39.8285 43.6302 38.9721 42.5799 38.9721C41.5295 38.9721 40.6569 39.8447 40.6569 40.8951ZM33.9189 22.1501H34.8077V12.519H33.9189V22.1501ZM32.8681 22.1501H31.0098V12.5514H32.8681V22.1501ZM35.8418 22.1663H37.7001V12.5676H35.8418V22.1663ZM40.6083 22.1663H38.75V12.5676H40.6083V22.1663Z" fill="url(#paint0_linear_202_809)"/>
<defs>
<linearGradient id="paint0_linear_202_809" x1="10.6579" y1="46.7107" x2="46.9539" y2="8.05526" gradientUnits="userSpaceOnUse">
<stop stop-color="#AD2E59"/>
<stop offset="1" stop-color="#009AFD"/>
</linearGradient>
</defs>
</svg>
