<svg width="60" height="61" viewBox="0 0 60 61" fill="none" xmlns="http://www.w3.org/2000/svg">
<path d="M38.6391 58.79C36.5882 59.4006 34.5059 59.792 32.3767 59.9485C32.2045 59.9642 32.0323 60.0112 31.8757 60.0425C30.6232 60.0425 29.3708 60.0425 28.1183 60.0425C27.993 60.0112 27.8521 59.9642 27.7269 59.9485C26.3648 59.745 24.9714 59.6198 23.625 59.338C11.9925 57.0209 2.36406 47.0323 0.469682 35.3372C0.281809 34.21 0.156561 33.0671 0 31.9242C0 30.7187 0 29.4975 0 28.292C0.156561 27.1335 0.266153 25.9749 0.469682 24.832C1.45601 19.2741 3.83573 14.3894 7.54622 10.1623C7.93762 9.70827 8.43861 9.64564 8.83002 9.97442C9.23707 10.3189 9.26838 10.8512 8.86133 11.3208C6.9826 13.4657 5.37003 15.7985 4.2741 18.4287C-0.187873 29.2157 1.11158 39.2512 8.50124 48.3318C12.5875 53.3417 17.9418 56.5042 24.2982 57.7097C34.3024 59.6041 43.0228 56.9582 50.2246 49.7251C54.5457 45.3884 57.1446 40.1123 57.9274 34.0378C59.1329 24.7068 56.4244 16.6282 49.7706 9.94311C45.4026 5.5281 40.0638 2.89788 33.911 2.08377C25.8168 1.01916 18.5524 3.0701 12.1648 8.15832C11.9769 8.29922 11.8047 8.47144 11.6168 8.59669C11.1784 8.89415 10.7087 8.84718 10.4113 8.48709C10.0825 8.11135 10.1138 7.57904 10.5365 7.23461C11.5855 6.42049 12.6188 5.57507 13.7304 4.85489C19.6014 1.09744 26.036 -0.46817 32.9873 0.173728C46.3263 1.42621 57.3325 11.6809 59.5713 24.879C62.1076 39.9558 53.168 54.4533 38.6391 58.79ZM46.7177 45.7955C46.201 46.3434 46.1854 46.8444 46.6237 47.2202C47.0151 47.5646 47.5474 47.502 48.0015 46.9853C54.3109 39.9088 56.3305 31.7363 53.5437 22.6715C49.3166 8.89415 34.412 1.84893 20.9791 7.04674C9.84766 11.3522 3.31908 23.376 5.77708 35.0241C8.21943 46.5626 18.2863 54.7507 30.0127 54.7821C33.6136 54.7821 37.2614 54.0149 40.4866 52.4336C41.9113 51.7291 43.2577 50.8367 44.6041 49.9913C45.1677 49.6312 45.293 49.0832 44.9642 48.6605C44.6511 48.2222 44.1344 48.2065 43.5708 48.5823C43.4925 48.6449 43.4142 48.6918 43.336 48.7545C37.8407 52.5902 31.7818 53.8897 25.2532 52.5119C13.1667 49.96 5.32306 38.3432 7.374 26.2254C9.56585 13.2309 22.2003 4.77661 35.0852 7.65732C47.5474 10.4441 55.3911 23.1255 52.3069 35.5094C51.3362 39.4235 49.4575 42.8521 46.7177 45.7955ZM21.5271 35.619C21.9028 35.212 21.8872 34.711 21.5427 34.3666C21.1983 34.0221 20.6817 34.0221 20.2902 34.3979C19.6014 35.0711 18.8969 35.713 18.2706 36.4488C17.3782 37.4821 17.1434 38.7033 17.5504 40.0184C18.3959 42.7425 21.7619 43.6036 23.8442 41.5996C25.7855 39.7366 27.6642 37.7952 29.5743 35.8852C29.7152 35.7443 29.8561 35.619 30.0127 35.4625C30.1849 35.6347 30.3414 35.7756 30.498 35.9165C32.3767 37.7952 34.2398 39.6896 36.1342 41.5527C37.7154 43.1026 40.0952 43.0713 41.5825 41.5214C43.0228 40.0184 43.0228 37.7326 41.5199 36.1983C39.6568 34.2883 37.7467 32.4095 35.8524 30.5152C35.7115 30.3743 35.5706 30.2177 35.367 29.9985C35.5862 29.8263 35.7584 29.701 35.915 29.5445C37.7624 27.7127 39.5942 25.8653 41.4259 24.0336C42.334 23.1255 42.788 22.0296 42.6158 20.7458C42.3966 19.1958 41.5355 18.1312 40.0482 17.6302C38.5609 17.1292 37.2301 17.4893 36.1185 18.5853C34.2241 20.4483 32.3611 22.3427 30.4823 24.2214C30.3414 24.3623 30.1849 24.5032 29.9813 24.7068C29.5586 24.2684 29.1985 23.8613 28.8071 23.4699C27.1476 21.8104 25.5037 20.1352 23.8285 18.507C22.7482 17.458 21.4175 17.1605 19.9771 17.6459C18.5368 18.1312 17.6913 19.1645 17.4408 20.6518C17.2217 21.9826 17.6757 23.1098 18.615 24.0492C20.6034 26.0375 22.5917 28.0259 24.6739 30.1081C24.126 30.6248 23.625 31.0944 23.1397 31.5798C22.67 32.0495 22.6543 32.5348 23.0301 32.9105C23.3901 33.2706 23.9225 33.2393 24.3765 32.8166C24.8462 32.3626 25.2845 31.9086 25.7386 31.4545C26.7562 30.4369 26.7562 29.748 25.7386 28.7147C23.7815 26.7577 21.8245 24.785 19.8519 22.828C19.3196 22.2957 19.0221 21.6851 19.1474 20.9337C19.2726 20.1352 19.7423 19.5716 20.4938 19.3054C21.3079 19.0236 22.0437 19.2271 22.6387 19.8221C24.6426 21.8261 26.6466 23.83 28.6506 25.8183C29.6526 26.8203 30.3414 26.8203 31.3434 25.8183C33.3161 23.8457 35.2887 21.873 37.2614 19.8847C37.7937 19.3524 38.4043 19.0706 39.1558 19.2115C39.9543 19.3524 40.5022 19.8221 40.7527 20.5892C41.0189 21.419 40.7997 22.1235 40.2048 22.7341C38.2008 24.7381 36.1968 26.7421 34.1928 28.746C33.2221 29.7167 33.2378 30.4212 34.2085 31.3919C36.1811 33.3646 38.1538 35.3372 40.1265 37.3099C40.6588 37.8422 40.9562 38.4528 40.8153 39.2043C40.6744 40.0027 40.2204 40.5663 39.4533 40.8168C38.6391 41.0987 37.9033 40.8951 37.3084 40.2845C35.3201 38.2962 33.3317 36.3079 31.3434 34.3196C30.3101 33.2863 29.6369 33.2863 28.6193 34.3039C26.6466 36.2766 24.6739 38.2649 22.6856 40.2219C21.7619 41.13 20.5564 41.1769 19.711 40.3472C18.8499 39.5017 18.8812 38.2649 19.8049 37.3255C20.3998 36.7463 20.9791 36.1983 21.5271 35.619Z" fill="url(#paint0_linear_202_807)"/>
<defs>
<linearGradient id="paint0_linear_202_807" x1="10.6579" y1="51.357" x2="51.3215" y2="12.6731" gradientUnits="userSpaceOnUse">
<stop stop-color="#AD2E59"/>
<stop offset="1" stop-color="#009AFD"/>
</linearGradient>
</defs>
</svg>
