<svg width="60" height="61" viewBox="0 0 60 61" fill="none" xmlns="http://www.w3.org/2000/svg">
<path d="M58.2316 51.4282C57.6056 51.4595 56.964 51.4282 56.2911 51.4282C56.2911 50.2701 56.3067 49.2216 56.2911 48.1731C56.2754 47.5627 55.9624 47.1872 55.446 47.1715C54.9139 47.1402 54.5383 47.5158 54.5383 48.1574C54.5227 49.2216 54.5383 50.3014 54.5383 51.4125C46.6197 51.4125 38.7637 51.4125 30.8764 51.4125C30.8764 43.5252 30.8764 35.6692 30.8764 27.7975C33.5211 27.7975 36.1189 27.7975 38.7637 27.7975C38.7637 28.0479 38.7637 28.267 38.7637 28.4704C38.7637 30.1292 38.7637 31.7881 38.7637 33.4469C38.7793 34.7928 39.8592 35.497 40.9859 34.7771C42.1753 34.0103 43.1768 34.0103 44.3662 34.7771C45.493 35.497 46.5728 34.7928 46.5884 33.4469C46.5884 31.7724 46.5884 30.0823 46.5884 28.4078C46.5884 28.2044 46.5884 28.0009 46.5884 27.7975C49.2801 27.7975 51.8779 27.7975 54.5227 27.7975C54.5227 28.0792 54.5227 28.2983 54.5227 28.533C54.5227 33.5095 54.5227 38.4861 54.5227 43.4626C54.5227 43.6347 54.5227 43.8069 54.5227 43.9947C54.554 44.5424 54.8826 44.918 55.3678 44.9336C55.8372 44.9493 56.2128 44.5893 56.2754 44.0416C56.2911 43.8851 56.2754 43.7286 56.2754 43.5721C56.2754 38.4391 56.2754 33.3061 56.2754 28.1731C56.2754 26.6707 55.6025 25.9821 54.1002 25.9821C50.8138 25.9821 47.543 25.9821 44.2566 25.9821C44.0376 25.9821 43.8028 25.9821 43.5368 25.9821C43.5368 25.6692 43.5368 25.4344 43.5368 25.2153C43.5368 17.6566 43.5368 10.0979 43.5368 2.53926C43.5681 1.30296 42.8638 0.536133 41.6901 0.536133C33.8654 0.536133 26.0407 0.536133 18.2003 0.536133C17.1049 0.536133 16.3693 1.28731 16.3693 2.38277C16.3537 3.77557 16.3693 5.15272 16.3693 6.54552C16.3693 7.18715 16.698 7.56274 17.23 7.57839C17.7621 7.57839 18.1064 7.2028 18.1221 6.56117C18.1377 5.32487 18.1221 4.10421 18.1221 2.8679C18.1221 2.68011 18.1221 2.49231 18.1221 2.32017C20.7981 2.32017 23.3959 2.32017 26.0563 2.32017C26.0563 2.55491 26.0563 2.75836 26.0563 2.97745C26.0563 4.63629 26.0407 6.29513 26.0563 7.95397C26.072 9.34678 27.1362 10.0354 28.3099 9.28418C29.4836 8.533 30.4695 8.54865 31.6432 9.28418C32.8169 10.0197 33.8654 9.31548 33.8811 7.92267C33.8967 6.26383 33.8811 4.60499 33.8811 2.94615C33.8811 2.74271 33.8811 2.52361 33.8811 2.32017C36.5728 2.32017 39.1706 2.32017 41.7684 2.32017C41.7684 10.2231 41.7684 18.0792 41.7684 25.9195C33.8654 25.9195 26.0094 25.9195 18.1377 25.9195C18.1377 25.6379 18.1377 25.4031 18.1377 25.1684C18.1377 20.5048 18.1377 15.8413 18.1377 11.1621C18.1377 10.9743 18.1534 10.7709 18.1221 10.5831C18.0282 10.0979 17.7308 9.80061 17.23 9.81626C16.7449 9.83191 16.4476 10.1292 16.385 10.63C16.3693 10.8022 16.385 10.9743 16.385 11.1621C16.385 15.8413 16.385 20.5361 16.385 25.2153C16.385 25.4501 16.385 25.6692 16.385 25.9665C16.1189 25.9665 15.8998 25.9665 15.6964 25.9665C12.4413 25.9665 9.17058 25.9665 5.91549 25.9665C4.28795 25.9665 3.64632 26.6081 3.64632 28.2357C3.64632 35.7005 3.64632 43.1496 3.64632 50.6144C3.64632 50.8648 3.64632 51.1152 3.64632 51.4282C2.9108 51.4282 2.22222 51.4282 1.5493 51.4282C0.485133 51.4438 0 51.9133 0 52.9618C0 53.6504 0 54.3233 0 55.0119C0 56.0917 0.485133 56.5768 1.58059 56.5925C2.15962 56.6081 2.73865 56.5925 3.38028 56.5925C3.38028 57.2811 3.41158 57.907 3.36463 58.5174C3.30203 59.472 3.66197 60.1449 4.55399 60.5048C5.64945 60.5048 6.74491 60.5048 7.84038 60.5048C8.74804 60.1605 9.10798 59.4876 9.04538 58.533C8.99844 57.9227 9.04538 57.2967 9.04538 56.6238C23.0047 56.6238 36.9171 56.6238 50.9233 56.6238C50.9233 57.2654 50.9546 57.8914 50.9233 58.533C50.8607 59.4876 51.2207 60.1605 52.1283 60.5048C53.2238 60.5048 54.3193 60.5048 55.4147 60.5048C56.2911 60.1292 56.6667 59.472 56.6041 58.5174C56.5571 57.907 56.6041 57.281 56.6041 56.5768C57.1831 56.5768 57.6995 56.5455 58.216 56.5768C59.0454 56.6238 59.6557 56.3577 60 55.5596C60 54.5111 60 53.4469 60 52.3984C59.6244 51.6785 59.0454 51.3812 58.2316 51.4282ZM32.097 7.50014C31.3928 7.21845 30.6886 6.73332 30 6.73332C29.2958 6.73332 28.5916 7.2028 27.856 7.48449C27.856 5.7787 27.856 4.07291 27.856 2.32017C29.2645 2.32017 30.6729 2.32017 32.097 2.32017C32.097 4.07291 32.097 5.7787 32.097 7.50014ZM40.5477 27.7662C41.9718 27.7662 43.3646 27.7662 44.8044 27.7662C44.8044 29.4876 44.8044 31.2091 44.8044 33.087C43.4116 31.9289 42.0031 31.882 40.5477 33.1496C40.5477 31.2247 40.5477 29.5189 40.5477 27.7662ZM15.1174 27.7818C16.5258 27.7818 17.9343 27.7818 19.374 27.7818C19.374 29.5033 19.374 31.2247 19.374 33.1652C17.9186 31.8507 16.5258 31.9602 15.1174 33.1183C15.1174 31.2404 15.1174 29.5346 15.1174 27.7818ZM5.43036 27.7662C8.05947 27.7662 10.6416 27.7662 13.3333 27.7662C13.3333 27.9696 13.3333 28.1731 13.3333 28.3765C13.3333 30.051 13.3333 31.7411 13.3333 33.4156C13.3333 34.7615 14.4131 35.497 15.5399 34.7615C16.7606 33.979 17.7621 33.9947 18.9671 34.7771C20.0469 35.4814 21.1581 34.7458 21.1581 33.4469C21.1737 31.569 21.1581 29.7067 21.1581 27.7818C23.7872 27.7818 26.4006 27.7818 29.0454 27.7818C29.0454 35.6379 29.0454 43.4939 29.0454 51.3969C21.1737 51.3969 13.3177 51.3969 5.41471 51.3969C5.43036 43.5252 5.43036 35.6848 5.43036 27.7662ZM7.2457 58.7364C6.54147 58.7364 5.86854 58.7364 5.16432 58.7364C5.16432 58.0479 5.16432 57.3749 5.16432 56.6551C5.83725 56.6551 6.51017 56.6551 7.2457 56.6551C7.2457 57.3593 7.2457 58.0322 7.2457 58.7364ZM54.7574 58.7521C54.0532 58.7521 53.3959 58.7521 52.7074 58.7521C52.7074 58.0635 52.7074 57.3906 52.7074 56.6707C53.3646 56.6707 54.0376 56.6707 54.7574 56.6707C54.7574 57.328 54.7574 58.0166 54.7574 58.7521ZM58.169 54.7928C39.3897 54.7928 20.6103 54.7928 1.76839 54.7928C1.76839 54.2607 1.76839 53.7756 1.76839 53.2278C20.5634 53.2278 39.3584 53.2278 58.169 53.2278C58.169 53.7443 58.169 54.2451 58.169 54.7928ZM46.7762 42.461C45.4147 42.461 44.0532 42.461 42.6761 42.461C41.3146 42.461 39.9531 42.461 38.5759 42.461C37.5274 42.461 37.011 42.9931 36.9953 44.0573C36.9953 45.1527 36.9797 46.2482 36.9953 47.328C37.011 48.3609 37.5587 48.9086 38.5915 48.9086C41.3146 48.9086 44.0532 48.9086 46.7762 48.9086C47.7778 48.9086 48.3412 48.3609 48.3412 47.3593C48.3568 46.2482 48.3412 45.1371 48.3412 44.026C48.3568 42.9774 47.8404 42.461 46.7762 42.461ZM46.5571 47.1246C43.9906 47.1246 41.4085 47.1246 38.7793 47.1246C38.7793 46.1543 38.7793 45.2153 38.7793 44.2607C41.3772 44.2607 43.9437 44.2607 46.5571 44.2607C46.5571 45.184 46.5571 46.123 46.5571 47.1246ZM25.9937 23.4782C27.3239 23.4782 28.6541 23.4782 29.9687 23.4782C31.3146 23.4782 32.6604 23.4782 34.0063 23.4782C35.1017 23.4626 35.6182 22.9461 35.6338 21.8663C35.6495 20.7865 35.6495 19.7224 35.6338 18.6425C35.6182 17.5314 35.133 17.015 34.0219 17.015C31.3146 16.9994 28.5915 16.9994 25.8842 17.015C24.7887 17.015 24.288 17.5471 24.288 18.6582C24.2723 19.7067 24.2723 20.7709 24.288 21.8194C24.3036 22.9618 24.82 23.4626 25.9937 23.4782ZM26.0876 18.7834C28.6854 18.7834 31.252 18.7834 33.8498 18.7834C33.8498 19.7537 33.8498 20.7083 33.8498 21.6785C31.252 21.6785 28.6854 21.6785 26.0876 21.6785C26.0876 20.7083 26.0876 19.7537 26.0876 18.7834ZM21.3615 42.461C20 42.461 18.6385 42.461 17.2613 42.461C15.8529 42.461 14.4601 42.4454 13.0516 42.461C12.1127 42.461 11.5806 43.0087 11.5649 43.9634C11.5493 45.0745 11.5649 46.1856 11.5649 47.2967C11.5649 48.3765 12.097 48.9086 13.1768 48.9086C15.8842 48.9086 18.5915 48.9086 21.2989 48.9086C22.3474 48.9086 22.8951 48.3609 22.9108 47.328C22.9264 46.2169 22.9264 45.1058 22.9108 43.9947C22.9108 42.9931 22.3787 42.461 21.3615 42.461ZM21.1424 47.1089C18.5602 47.1089 15.9781 47.1089 13.349 47.1089C13.349 46.1386 13.349 45.2153 13.349 44.2451C15.9468 44.2451 18.5289 44.2451 21.1424 44.2451C21.1424 45.1997 21.1424 46.1386 21.1424 47.1089Z" fill="url(#paint0_linear_202_801)"/>
<defs>
<linearGradient id="paint0_linear_202_801" x1="10.6579" y1="51.8252" x2="51.2956" y2="13.1399" gradientUnits="userSpaceOnUse">
<stop stop-color="#AD2E59"/>
<stop offset="1" stop-color="#009AFD"/>
</linearGradient>
</defs>
</svg>
