<svg width="60" height="53" viewBox="0 0 60 53" fill="none" xmlns="http://www.w3.org/2000/svg">
<path d="M59.4701 34.0311C58.6194 30.7752 56.8009 28.1207 54.0877 26.0968C53.7357 25.8328 53.6037 25.5542 53.6037 25.1289C53.6184 20.4211 53.6184 15.7134 53.6037 11.0203C53.6037 10.5217 53.5744 9.99371 53.4571 9.50974C52.9437 7.52985 51.4185 6.41524 49.2773 6.37124C48.72 6.35658 48.1627 6.37124 47.576 6.37124C47.576 5.50596 47.62 4.74333 47.5614 3.98071C47.4587 2.54345 46.7108 1.51684 45.3908 0.974208C44.0856 0.446237 42.8536 0.680891 41.783 1.60484C40.8884 2.36746 40.5804 3.39407 40.5951 4.53801C40.5951 5.12465 40.5951 5.72595 40.5951 6.32725C39.0405 6.32725 37.5739 6.32725 36.078 6.32725C36.078 5.66728 36.078 5.03665 36.078 4.42068C36.0633 3.33541 35.7554 2.38213 34.9194 1.64884C33.8195 0.680891 32.5582 0.446237 31.2236 1.01821C29.8304 1.60484 29.1557 2.73411 29.0824 4.23003C29.0531 4.91932 29.0824 5.62328 29.0824 6.37124C27.6305 6.37124 26.2519 6.38591 24.8586 6.35658C24.756 6.35658 24.5653 6.09259 24.5653 5.93127C24.5213 5.21264 24.5653 4.47935 24.5066 3.76072C24.36 1.95682 22.5708 0.534232 20.7815 0.739554C18.8456 0.959542 17.6284 2.3528 17.599 4.34735C17.5844 5.00732 17.599 5.65262 17.599 6.31258C16.0298 6.31258 14.5632 6.31258 13.0379 6.31258C13.0379 5.50596 13.0673 4.74333 13.0379 3.99537C12.9206 2.16214 11.3807 0.710222 9.54747 0.695557C7.7729 0.695557 6.24766 2.07415 6.11566 3.87805C6.057 4.68467 6.101 5.49129 6.101 6.37124C5.4557 6.37124 4.94239 6.31258 4.45842 6.38591C3.73979 6.48857 2.97717 6.57657 2.31721 6.85522C0.997278 7.42719 0.381312 8.58579 0.0293317 9.93505C0.0293317 10.3604 0.0293317 10.8003 0.0293317 11.2256C0.307983 11.6216 0.645298 11.9589 1.18793 11.7536C1.68657 11.563 1.77457 11.1376 1.78923 10.6537C1.81857 9.11376 2.74252 8.17514 4.26777 8.13115C4.82507 8.11648 5.39704 8.13115 6.057 8.13115C6.057 8.80578 6.04233 9.45107 6.057 10.0817C6.101 12.0763 7.2596 13.4695 9.09283 13.7188C11.0874 13.9975 12.9206 12.5162 13.0233 10.4777C13.0673 9.72972 13.0233 8.9671 13.0233 8.13115C13.8152 8.13115 14.5485 8.13115 15.2965 8.13115C16.0298 8.13115 16.7777 8.13115 17.5844 8.13115C17.5844 8.89377 17.5697 9.58307 17.5844 10.287C17.643 12.1496 18.8456 13.4842 20.6789 13.7482C22.5268 13.9975 24.36 12.5602 24.492 10.7123C24.5506 9.87638 24.5066 9.04043 24.5066 8.20448C24.756 8.17514 24.888 8.16048 25.02 8.16048C26.3399 8.16048 27.6745 8.16048 29.0677 8.16048C29.0677 8.8791 29.0531 9.55373 29.0677 10.2284C29.1117 12.0323 30.285 13.4549 31.9276 13.7335C34.1568 14.1002 35.99 12.5309 36.0633 10.155C36.078 9.50974 36.0633 8.8791 36.0633 8.18981C37.5739 8.18981 39.0259 8.18981 40.5804 8.18981C40.5804 8.80578 40.5658 9.42174 40.5804 10.0377C40.6098 11.8563 41.4897 13.1322 43.0443 13.6162C45.2148 14.2908 47.4147 12.7802 47.5467 10.507C47.5907 9.75906 47.5467 8.99643 47.5467 8.21914C48.412 8.21914 49.248 8.11648 50.0252 8.24847C50.9345 8.39513 51.6825 9.0551 51.7265 9.96438C51.8291 12.1936 51.7558 14.4375 51.7558 16.696C35.1101 16.696 18.479 16.696 1.7599 16.696C1.7599 16.0654 1.7599 15.4494 1.7599 14.8334C1.7599 14.3348 1.71591 13.8802 1.17327 13.6748C0.615966 13.4549 0.307983 13.8068 0 14.1735C0 24.5569 0 34.9403 0 45.3384C0.278651 45.9544 0.454642 46.6437 0.835954 47.1863C1.73057 48.4769 3.06516 48.9022 4.60508 48.9022C14.5925 48.8876 24.5946 48.9022 34.5821 48.8876C35.0954 48.8876 35.4914 49.0342 35.902 49.3569C40.4484 52.8913 45.4495 53.6246 50.8172 51.5567C51.8731 51.1461 52.8411 50.4861 53.8237 49.8848C54.3077 49.5915 54.381 49.0782 54.117 48.6676C53.8384 48.2569 53.3691 48.1689 52.8851 48.4329C52.7824 48.4916 52.6944 48.5649 52.5918 48.6236C49.7173 50.5741 46.5641 51.2634 43.1323 50.7501C36.474 49.7675 31.4729 43.2999 32.2502 36.6122C33.0715 29.4993 39.0552 24.4982 46.1975 24.9382C54.3517 25.4515 60.086 33.7671 57.6955 41.5693C57.1968 43.2119 56.4196 44.6931 55.3636 46.057C54.9676 46.5704 55.0263 47.0837 55.4516 47.4063C55.8476 47.6996 56.3609 47.6116 56.7275 47.1423C59.7487 43.1825 60.7167 38.8121 59.4701 34.0311ZM11.278 10.1844C11.2634 11.211 10.5594 11.9589 9.60614 12.0029C8.66752 12.0323 7.8609 11.3136 7.83157 10.287C7.78757 8.24847 7.78757 6.19525 7.83157 4.1567C7.8609 3.13009 8.66752 2.41146 9.6208 2.45546C10.5887 2.49946 11.2634 3.24742 11.278 4.28869C11.2927 5.28597 11.278 6.26858 11.278 7.26586C11.278 8.23381 11.2927 9.21642 11.278 10.1844ZM22.7761 10.2577C22.7614 11.2843 21.9988 12.0176 21.0455 12.0029C20.0922 11.9883 19.3589 11.2403 19.3443 10.2137C19.3296 9.21642 19.3443 8.23381 19.3443 7.23653C19.3443 6.23925 19.3296 5.25664 19.3443 4.25936C19.3589 3.21808 20.0629 2.48479 21.0308 2.45546C21.9988 2.42613 22.7761 3.17409 22.7907 4.23003C22.8054 6.23925 22.8054 8.24847 22.7761 10.2577ZM34.3328 10.0377C34.3181 11.1816 33.6141 11.9883 32.6022 12.0029C31.5756 12.0176 30.8423 11.211 30.8423 10.023C30.8423 8.14581 30.8423 6.28325 30.8423 4.40602C30.8423 3.24742 31.5463 2.47013 32.5582 2.44079C33.5848 2.42613 34.3181 3.23275 34.3328 4.42068C34.3474 5.3593 34.3328 6.29791 34.3328 7.22186C34.3328 8.17514 34.3328 9.11376 34.3328 10.0377ZM45.8308 10.1404C45.8161 11.211 45.1122 11.9736 44.1296 12.0029C43.191 12.0323 42.3843 11.299 42.3697 10.2724C42.3257 8.24847 42.3257 6.22458 42.3697 4.2007C42.3843 3.15942 43.1763 2.44079 44.1296 2.45546C45.1122 2.47013 45.8161 3.23275 45.8308 4.30336C45.8455 5.30064 45.8308 6.28325 45.8308 7.28053C45.8308 8.23381 45.8308 9.18709 45.8308 10.1404ZM22.5561 18.4999C25.3866 18.4999 28.2318 18.4999 31.1063 18.4999C31.1063 21.2424 31.1063 23.9849 31.1063 26.7715C28.2611 26.7715 25.4306 26.7715 22.5561 26.7715C22.5561 24.0289 22.5561 21.2864 22.5561 18.4999ZM30.3877 36.9496C27.8211 36.9496 25.2106 36.9496 22.5708 36.9496C22.5708 34.1777 22.5708 31.4205 22.5708 28.6047C25.4159 28.6047 28.2318 28.6047 31.077 28.6047C31.3116 31.4059 31.1063 34.1777 30.3877 36.9496ZM12.202 18.4999C15.0325 18.4999 17.863 18.4999 20.7375 18.4999C20.7375 21.2864 20.7375 24.0143 20.7375 26.7861C17.8923 26.7861 15.0765 26.7861 12.202 26.7861C12.202 24.0289 12.202 21.2864 12.202 18.4999ZM12.1873 28.6047C15.0472 28.6047 17.863 28.6047 20.7229 28.6047C20.7229 31.3765 20.7229 34.1337 20.7229 36.9349C17.863 36.9349 15.0472 36.9349 12.1873 36.9349C12.1873 34.1484 12.1873 31.3912 12.1873 28.6047ZM1.81857 18.4852C4.67841 18.4852 7.49425 18.4852 10.3541 18.4852C10.3541 21.2571 10.3541 23.9849 10.3541 26.7715C7.52359 26.7715 4.69307 26.7715 1.81857 26.7715C1.81857 24.0289 1.81857 21.2864 1.81857 18.4852ZM10.3541 47.069C10.1488 47.0837 9.98745 47.0983 9.81146 47.0983C8.02222 47.0983 6.21832 47.113 4.42909 47.0983C2.74252 47.0837 1.78923 46.1304 1.78923 44.4438C1.78923 42.5666 1.78923 40.704 1.78923 38.7828C4.64908 38.7828 7.47959 38.7828 10.3541 38.7828C10.3541 41.5106 10.3541 44.2532 10.3541 47.069ZM10.3541 36.9349C7.50892 36.9349 4.67841 36.9349 1.81857 36.9349C1.81857 34.163 1.81857 31.4059 1.81857 28.6047C4.64908 28.6047 7.47959 28.6047 10.3541 28.6047C10.3541 31.3912 10.3541 34.1484 10.3541 36.9349ZM20.7375 47.0543C17.8923 47.0543 15.0618 47.0543 12.1873 47.0543C12.1873 44.2825 12.1873 41.54 12.1873 38.7681C15.0325 38.7681 17.863 38.7681 20.7375 38.7681C20.7375 41.5253 20.7375 44.2678 20.7375 47.0543ZM33.6581 47.0543C29.9037 47.0543 26.2519 47.0543 22.5414 47.0543C22.5414 44.2825 22.5414 41.54 22.5414 38.7681C25.1813 38.7681 27.8065 38.7681 30.4757 38.7681C30.6956 41.8186 31.7076 44.5611 33.6581 47.0543ZM33.0128 29.558C32.7049 28.7367 32.8369 28.546 33.7168 28.6047C33.4528 28.9713 33.2328 29.25 33.0128 29.558ZM41.1377 23.6916C39.0992 24.2636 37.2953 25.2609 35.6674 26.6248C35.55 26.7275 35.3594 26.8154 35.1981 26.8154C34.4648 26.8301 33.7168 26.8301 32.9102 26.8301C32.9102 24.0143 32.9102 21.2718 32.9102 18.4999C35.7554 18.4999 38.5859 18.4999 41.4897 18.4999C41.4897 18.9692 41.4897 19.4532 41.4897 19.9372C41.4897 21.0078 41.4751 22.0784 41.4897 23.149C41.5044 23.413 41.4604 23.6036 41.1377 23.6916ZM51.8291 24.6449C49.0866 23.3103 46.2708 22.8703 43.2789 23.2076C43.2789 21.6091 43.2789 20.0838 43.2789 18.4999C46.1095 18.4999 48.9546 18.4999 51.8291 18.4999C51.8291 20.5531 51.8291 22.5477 51.8291 24.6449ZM37.4419 33.0924C36.5327 34.691 36.0633 36.3923 36.1073 38.2255C36.254 43.2119 40.6538 47.2597 45.6402 46.9663C49.7906 46.7317 53.1197 43.9598 54.1024 39.9414C55.0556 36.0843 53.2957 31.9485 49.7173 29.9539C46.4468 28.1354 43.191 28.3114 40.0378 30.3499C39.8911 30.4379 39.7591 30.5552 39.6125 30.6579C39.1285 30.9512 38.6445 30.8926 38.3659 30.5112C38.0726 30.1153 38.1312 29.558 38.6299 29.2353C39.3925 28.7367 40.1551 28.2087 40.9911 27.8567C48.1773 24.8796 55.9796 30.0126 56.1116 37.7855C56.2142 43.7545 51.1985 48.7849 45.2002 48.7556C38.5272 48.7116 33.4528 42.7866 34.4648 36.2309C34.6848 34.8377 35.1687 33.5177 35.8874 32.3005C36.2247 31.7432 36.6793 31.5525 37.1486 31.8018C37.6033 32.0218 37.7499 32.5351 37.4419 33.0924ZM46.0948 38.2841C48.0014 38.2841 49.8199 38.2841 51.6238 38.2841C51.8731 38.2841 52.1958 38.2402 52.3571 38.3721C52.6211 38.5775 52.8851 38.9001 52.9437 39.2081C53.0171 39.6334 52.6944 39.9267 52.2545 40.0147C52.1225 40.0441 51.9758 40.044 51.8438 40.044C49.7319 40.044 47.6347 40.044 45.5228 40.044C44.6575 40.044 44.3496 39.7507 44.3496 38.9001C44.3349 36.7882 44.3496 34.691 44.3496 32.5791C44.3496 32.1538 44.4229 31.7432 44.8482 31.5379C45.4642 31.2299 46.0801 31.6698 46.0948 32.4325C46.1095 34.1484 46.0948 35.8643 46.0948 37.5802C46.0948 37.7855 46.0948 37.9908 46.0948 38.2841Z" fill="url(#paint0_linear_202_800)"/>
<defs>
<linearGradient id="paint0_linear_202_800" x1="10.6579" y1="45.1745" x2="45.7898" y2="6.61004" gradientUnits="userSpaceOnUse">
<stop stop-color="#AD2E59"/>
<stop offset="1" stop-color="#009AFD"/>
</linearGradient>
</defs>
</svg>
