<svg width="60" height="46" viewBox="0 0 60 46" fill="none" xmlns="http://www.w3.org/2000/svg">
<path d="M59.9833 4.52971C59.9833 3.96146 59.6156 3.61049 59.0474 3.59377C57.2925 3.57706 55.5376 3.57706 53.7827 3.59377C53.1978 3.59377 52.8802 3.92804 52.8468 4.51299C52.8301 4.74698 52.8468 4.98096 52.8468 5.26508C52.6128 5.26508 52.4624 5.26508 52.2953 5.26508C51.6435 5.26508 51.0084 5.24837 50.3565 5.26508C49.805 5.2818 49.5042 5.56592 49.4373 6.11745C49.4206 6.20102 49.4039 6.28458 49.3872 6.36815C48.6017 6.40157 47.7827 6.13416 46.8468 5.64948C44.8746 4.61327 42.9192 3.52692 40.8969 2.57428C38.9916 1.68848 37.0195 1.68848 35.0306 2.44057C33.844 2.89182 32.6407 3.32636 31.4373 3.74419C31.3036 3.79433 31.0529 3.71077 30.9526 3.61049C30.117 2.79155 29.298 1.95589 28.4624 1.13695C28.2451 0.919679 27.9944 0.735835 27.7437 0.535278C27.5599 0.535278 27.376 0.535278 27.2089 0.535278C26.9582 0.752549 26.7075 0.953106 26.4735 1.18709C23.3649 4.29572 20.2563 7.40436 17.1476 10.513C16.3454 11.3152 16.3454 11.6328 17.1309 12.4183C22.6462 17.9336 28.1616 23.4489 33.6936 28.981C34.3955 29.6829 34.8134 29.6829 35.5153 28.981C38.3565 26.1397 41.1811 23.3152 44.0056 20.474C44.273 20.2066 44.507 20.0729 44.9081 20.1063C45.2925 20.1397 45.6936 20.1063 46.078 20.0395C47.9666 19.6885 49.3705 18.5854 50.507 17.1147C50.7075 16.864 50.8914 16.7637 51.2089 16.7637C53.7827 16.7804 56.3733 16.7804 58.9471 16.7637C59.6156 16.7637 60 16.4294 60 15.7943C60 12.0339 60 8.27344 59.9833 4.52971ZM26.4902 3.71077C26.8078 3.39322 27.1253 3.04224 27.4095 2.74141C28.1281 3.46007 28.7967 4.12859 29.4485 4.7804C28.4958 5.53249 26.5571 5.53249 25.454 4.69684C25.7883 4.36258 26.156 4.04503 26.4902 3.71077ZM20.7911 13.4545C20.1226 12.786 19.454 12.1342 18.8189 11.4824C19.4708 10.8305 20.1393 10.162 20.8078 9.51021C21.5599 10.4796 21.5599 12.4183 20.7911 13.4545ZM34.6295 27.1927C34.0111 26.5743 33.3426 25.9058 32.6574 25.2205C33.9276 24.5186 35.2479 24.5186 36.585 25.2372C35.8997 25.9225 35.2479 26.5743 34.6295 27.1927ZM37.9053 23.9169C35.7326 22.5464 33.5097 22.5297 31.3203 23.9169C28.2785 20.8584 25.2368 17.8166 22.1616 14.7581C23.532 12.5854 23.532 10.3793 22.1783 8.20659C22.8468 7.53806 23.532 6.85283 24.234 6.15088C26.3565 7.48792 28.5961 7.52135 30.7688 6.13416C31.4039 6.76926 32.0223 7.38765 32.6407 8.00603C32.5905 8.02274 32.4735 8.05617 32.3398 8.10631C31.4875 8.35701 30.8022 8.84169 30.3343 9.59377C30.1671 9.86118 29.9833 9.99489 29.6824 10.0785C27.6267 10.63 26.0724 12.4851 25.9387 14.5408C25.7883 16.8807 26.9916 18.8863 29.0808 19.7553C31.7549 20.8584 34.8301 19.5214 35.8496 16.8138C35.8997 16.6801 35.9499 16.5297 36.0167 16.3292C36.2173 16.396 36.4178 16.4461 36.6017 16.513C37.3036 16.747 38.0223 16.981 38.7242 17.2484C38.8412 17.2985 38.9916 17.4991 38.9749 17.5993C38.7409 19.1537 39.0919 20.5743 39.9276 21.8445C39.2591 22.5464 38.5905 23.2317 37.9053 23.9169ZM31.4206 14.5408C32.3064 15.059 33.2925 15.3932 34.2451 15.811C34.0947 17.1147 32.6908 18.2846 31.1699 18.3514C29.5487 18.4183 28.078 17.2317 27.7772 15.6439C27.493 14.0896 28.3788 12.4517 29.7827 12.0005C29.9666 13.1035 30.4847 14.006 31.4206 14.5408ZM41.2312 20.6077C41.0474 20.0227 40.8635 19.4545 40.6462 18.7525C41.2646 19.0868 41.7493 19.3375 42.2841 19.6216C41.9331 19.9559 41.6156 20.24 41.2312 20.6077ZM49.4373 15.2595C49.4373 15.3765 49.4206 15.5102 49.3538 15.5938C48.5515 16.8138 47.532 17.85 46.0613 18.1676C44.0056 18.6188 42.2507 18.0005 40.8301 16.4127C40.5794 16.1453 40.2451 15.8779 39.9109 15.7609C37.7214 14.9921 35.5153 14.2567 33.3259 13.5046C32.9248 13.3709 32.5237 13.1537 32.2061 12.8695C31.5042 12.2679 31.3705 11.3821 31.805 10.63C32.2228 9.91132 33.0418 9.59377 33.9109 9.8779C36.4345 10.6634 38.9749 11.4824 41.4986 12.2679C41.6323 12.3013 41.7493 12.3514 41.883 12.3849C42.3677 12.4851 42.8357 12.2512 42.9694 11.8166C43.1198 11.3486 42.9192 10.864 42.4178 10.6801C41.5989 10.4127 40.7632 10.162 39.9276 9.89461C38.7075 9.51021 37.4707 9.10909 36.2507 8.72469C36.117 8.69127 35.9833 8.64113 35.8997 8.55756C34.8134 7.48792 33.7437 6.40157 32.6072 5.2818C33.8273 4.83054 34.9638 4.37929 36.1337 3.99489C37.5376 3.52692 38.9415 3.6272 40.2451 4.2623C42.0668 5.14809 43.8552 6.08402 45.6267 7.05338C46.7298 7.65506 47.8329 8.12302 49.0863 8.20659C49.337 8.2233 49.4206 8.30687 49.4206 8.55756C49.4373 10.7804 49.4373 13.02 49.4373 15.2595ZM52.8134 14.9253C52.2785 14.9253 51.7939 14.9253 51.259 14.9253C51.259 12.318 51.259 9.71077 51.259 7.10352C51.7772 7.10352 52.2785 7.10352 52.8134 7.10352C52.8134 9.71077 52.8134 12.3013 52.8134 14.9253ZM58.1783 14.9253C57.0084 14.9253 55.8719 14.9253 54.6852 14.9253C54.6852 11.7665 54.6852 8.6077 54.6852 5.4155C55.8719 5.4155 57.0084 5.4155 58.1783 5.4155C58.1783 8.59099 58.1783 11.7498 58.1783 14.9253ZM38.4902 32.7247C37.4373 32.6077 36.4847 32.9754 35.4986 33.2428C33.6936 33.7275 31.8886 34.2456 30.1003 34.7303C29.0474 32.9754 28.5961 32.591 26.9415 32.0395C24.9526 31.3709 22.9638 30.7024 20.9916 30.0172C20.7577 29.9336 20.5237 29.7665 20.3398 29.5826C18.6017 27.7609 16.4624 26.9921 13.9889 27.3431C12.0501 27.6105 10.6295 28.7804 9.47632 30.3013C9.29248 30.552 9.10863 30.6356 8.8078 30.6356C6.30084 30.6188 3.79387 30.6356 1.28691 30.6188C0.735376 30.6188 0.284123 30.7358 0 31.2205C0 35.1815 0 39.1425 0 43.1035C0.183844 43.4712 0.43454 43.7553 0.885794 43.772C2.69081 43.772 4.47911 43.7888 6.28412 43.772C6.80223 43.772 7.10306 43.4378 7.13649 42.9197C7.1532 42.669 7.13649 42.4183 7.13649 42.1175C7.87187 42.1175 8.54039 42.1175 9.20891 42.1175C10.2284 42.1175 10.4123 41.967 10.5961 40.9977C11.2813 40.9475 12.1671 41.2149 13.1031 41.6996C15.0585 42.7191 16.9805 43.7888 18.9694 44.7414C20.8245 45.6272 22.7632 45.7108 24.7019 45.0088C29.3816 43.3375 34.0613 41.6495 38.7409 39.9615C39.5766 39.6606 40.2953 39.1592 40.8468 38.474C41.7326 37.3876 41.9331 36.1843 41.3983 34.8974C40.8635 33.6105 39.8941 32.8751 38.4902 32.7247ZM5.29805 41.9503C4.12813 41.9503 2.99164 41.9503 1.80501 41.9503C1.80501 38.7915 1.80501 35.6328 1.80501 32.4573C2.95822 32.4573 4.11142 32.4573 5.29805 32.4573C5.29805 35.6161 5.29805 38.7748 5.29805 41.9503ZM8.70752 40.279C8.20613 40.279 7.72145 40.279 7.18663 40.279C7.18663 37.6885 7.18663 35.0979 7.18663 32.4406C7.70474 32.4406 8.18941 32.4406 8.70752 32.4406C8.70752 35.0645 8.70752 37.6551 8.70752 40.279ZM39.5599 37.2038C39.2089 37.7219 38.7075 38.0395 38.1393 38.2567C33.6936 39.8445 29.2479 41.4322 24.8189 43.02C24.2507 43.2205 23.6992 43.4378 23.1142 43.5548C21.9109 43.7888 20.7409 43.6049 19.6546 43.0701C17.9331 42.2177 16.2284 41.3486 14.5571 40.4127C13.3203 39.7275 12.0501 39.1927 10.5794 39.1425C10.5794 38.1397 10.5794 37.2205 10.5794 36.2846C10.5794 34.9475 10.5627 33.6105 10.5961 32.2734C10.5961 32.0227 10.6964 31.7386 10.8301 31.5381C11.649 30.3849 12.6685 29.4155 14.0891 29.1648C16.1114 28.7971 17.8496 29.4155 19.2033 31.0032C19.4206 31.2539 19.7214 31.4712 20.0223 31.5715C22.2117 32.3403 24.4178 33.059 26.6072 33.8278C27.0251 33.9782 27.4429 34.1787 27.7772 34.4629C28.4958 35.0478 28.6462 35.9503 28.2117 36.6857C27.7939 37.4378 26.9582 37.7386 26.0724 37.4712C24.7354 37.0534 23.415 36.6356 22.0947 36.2177C20.7744 35.7999 19.4708 35.3821 18.1504 34.981C17.7827 34.864 17.415 34.9308 17.2312 35.2484C17.0808 35.4824 16.9805 35.8668 17.0641 36.1175C17.1643 36.3681 17.4819 36.6356 17.766 36.7191C19.5376 37.3208 21.3259 37.8723 23.1142 38.4406C23.9666 38.708 24.8189 38.9921 25.688 39.2428C27.5432 39.7776 29.4318 38.8083 30.0501 36.9865C30.1504 36.6857 30.2841 36.552 30.585 36.4684C32.7911 35.8668 34.9972 35.2484 37.2201 34.6467C37.6045 34.5464 38.0223 34.4963 38.4234 34.5464C39.6602 34.6968 40.2785 36.1342 39.5599 37.2038ZM46.2284 12.5854C46.2117 13.0868 45.8106 13.4545 45.3259 13.4378C44.8412 13.4211 44.4401 13.02 44.4401 12.5353C44.4401 12.0339 44.8747 11.6328 45.376 11.6495C45.8774 11.6996 46.2451 12.084 46.2284 12.5854ZM15.5432 34.8138C15.5265 35.3152 15.0752 35.733 14.5905 35.6996C14.1059 35.6662 13.7382 35.2651 13.7549 34.7637C13.7716 34.2623 14.1727 33.8946 14.6741 33.9113C15.1421 33.928 15.5432 34.3459 15.5432 34.8138Z" fill="url(#paint0_linear_202_802)"/>
<defs>
<linearGradient id="paint0_linear_202_802" x1="10.6579" y1="38.973" x2="40.2981" y2="1.32307" gradientUnits="userSpaceOnUse">
<stop stop-color="#AD2E59"/>
<stop offset="1" stop-color="#009AFD"/>
</linearGradient>
</defs>
</svg>
