<svg width="60" height="48" viewBox="0 0 60 48" fill="none" xmlns="http://www.w3.org/2000/svg">
<path d="M30.0313 5.50419C23.8277 5.50419 18.7676 10.5486 18.7676 16.7522C18.7676 22.9559 23.812 28.0159 30.0157 28.0316C36.2193 28.0316 41.2794 22.9872 41.2794 16.7836C41.2794 10.5642 36.235 5.50419 30.0313 5.50419ZM30.0157 26.2614C24.7833 26.2614 20.5065 21.9846 20.5222 16.7522C20.5222 11.5199 24.799 7.25876 30.047 7.27442C35.2794 7.29009 39.5405 11.5669 39.5091 16.8149C39.4935 22.0159 35.2324 26.2614 30.0157 26.2614ZM19.0183 32.888C19.0183 32.4337 19.3629 32.0577 19.8642 32.0107C20.0209 31.995 20.1775 32.0107 20.3342 32.0107C23.577 32.0107 26.8198 32.0107 30.0627 32.0107C33.2898 32.0107 36.5013 32.0107 39.7285 32.0107C39.9008 32.0107 40.0888 31.995 40.2611 32.0264C40.7467 32.1047 41.0444 32.418 41.0287 32.9037C41.0287 33.358 40.7467 33.6556 40.2768 33.7496C40.1044 33.7809 39.9321 33.7653 39.7441 33.7653C33.2585 33.7653 26.7728 33.7653 20.2872 33.7653C20.1462 33.7653 20.0052 33.7653 19.8799 33.7653C19.3786 33.7183 19.0183 33.358 19.0183 32.888ZM41.0287 38.136C41.0601 38.5903 40.6841 38.982 40.1984 39.029C40.0261 39.0447 39.8538 39.029 39.6658 39.029C36.4386 39.029 33.2272 39.029 30 39.029C26.7728 39.029 23.5614 39.029 20.3342 39.029C20.1619 39.029 19.9739 39.0447 19.8016 39.0133C19.3159 38.935 19.0183 38.6217 19.0339 38.136C19.0339 37.6504 19.3316 37.3528 19.8329 37.2744C19.9896 37.2588 20.1462 37.2588 20.3029 37.2588C26.7885 37.2588 33.2742 37.2588 39.7598 37.2588C39.9165 37.2588 40.0731 37.2431 40.2298 37.2744C40.6997 37.3528 40.9817 37.6504 41.0287 38.136ZM34.4334 11.3162C33.5405 11.2222 32.7885 11.5355 32.1619 12.1778C30.8773 13.4781 29.577 14.7783 28.1984 16.1569C27.9948 15.9219 27.8695 15.734 27.7128 15.593C26.6475 14.5903 25.0339 14.606 24.0157 15.6086C22.9974 16.6112 22.9504 18.1778 23.9373 19.2588C24.6266 20.0107 25.3473 20.7313 26.0992 21.405C27.2898 22.4859 29.107 22.5799 30.2663 21.4833C32.2715 19.5721 34.2298 17.5982 36.1567 15.6086C36.8773 14.8567 36.9556 13.8854 36.564 12.9298C36.188 11.9742 35.4674 11.4415 34.4334 11.3162ZM34.6684 14.653C33.4935 15.8279 32.3185 17.0029 31.1436 18.1778C30.5483 18.7731 29.9687 19.3684 29.3577 19.9637C28.6527 20.653 27.8381 20.653 27.1332 19.9637C26.5065 19.3528 25.8486 18.7574 25.2846 18.0838C25.0966 17.8645 25.0339 17.4102 25.1279 17.1439C25.2063 16.8932 25.5666 16.7366 25.8642 16.4702C26.2089 16.7052 26.5222 16.8462 26.7258 17.0812C27.9791 18.4911 28.5901 18.3658 29.812 17.0499C30.9713 15.8279 32.1775 14.6687 33.3681 13.4781C33.7285 13.1021 34.1358 12.9298 34.6214 13.2118C35.1384 13.4937 35.1697 14.1517 34.6684 14.653ZM59.9373 7.35275C59.4047 5.2222 57.7285 3.89061 55.5352 3.89061C52.6997 3.87494 49.8799 3.89061 47.0444 3.89061C46.8251 3.89061 46.6214 3.89061 46.4021 3.89061C46.4334 3.85928 46.4804 3.81228 46.5117 3.78095C46.0574 3.04466 45.6658 2.26137 45.1488 1.58774C44.5379 0.804447 43.6136 0.506797 42.6893 0.240479C34.2454 0.240479 25.8016 0.240479 17.3577 0.240479C16.2924 0.506797 15.3055 0.914108 14.6475 1.83839C14.2089 2.44936 13.9112 3.13865 13.5196 3.87494C13.4099 3.87494 13.1906 3.87494 12.9869 3.87494C10.2454 3.87494 7.51958 3.87494 4.77807 3.87494C1.81723 3.87494 0 5.70784 0 8.66868C0 20.1204 0 31.5721 0 43.0238C0 45.9846 1.8329 47.8175 4.77807 47.8175C10.9191 47.8175 17.0444 47.8175 23.1854 47.8175C23.4204 47.8175 23.6397 47.8175 23.8903 47.8175H36.1253C36.376 47.8175 36.5796 47.8175 36.799 47.8175C39.9008 47.8175 43.0183 47.8175 46.1201 47.8175C46.3081 47.8175 46.5118 47.8332 46.6997 47.7862C47.154 47.6608 47.4047 47.3632 47.3734 46.8932C47.342 46.4232 47.0757 46.1413 46.6057 46.0786C46.3708 46.0473 46.1358 46.0629 45.9008 46.0629C32.1619 46.0629 18.423 46.0629 4.68407 46.0629C2.83551 46.0629 1.75457 44.9977 1.75457 43.1648C1.75457 31.6191 1.75457 20.0577 1.75457 8.51202C1.75457 6.71045 2.83551 5.62951 4.63708 5.62951C7.40992 5.62951 10.1828 5.62951 12.9556 5.62951C13.1436 5.62951 13.3316 5.62951 13.5509 5.62951C13.5509 6.24048 13.5509 6.78878 13.5509 7.38408C13.3003 7.38408 13.0966 7.38408 12.8773 7.38408C10.3238 7.38408 7.75457 7.38408 5.20104 7.38408C3.97911 7.38408 3.49347 7.86972 3.49347 9.09165C3.49347 20.2457 3.49347 31.4154 3.49347 42.5695C3.49347 43.8227 3.96345 44.2927 5.23238 44.2927C21.7441 44.2927 38.2559 44.2927 54.7676 44.2927C55.9896 44.2927 56.4909 43.8071 56.4909 42.6008C56.4909 31.4154 56.4909 20.2457 56.4909 9.06032C56.4909 7.88539 56.0052 7.38408 54.8303 7.38408C52.2454 7.38408 49.6762 7.38408 47.0914 7.38408C46.8877 7.38408 46.6684 7.38408 46.4491 7.38408C46.4491 6.77312 46.4491 6.22481 46.4491 5.62951C46.6527 5.62951 46.7937 5.62951 46.9504 5.62951C49.7859 5.62951 52.6214 5.62951 55.4569 5.62951C57.1645 5.62951 58.2611 6.74178 58.2611 8.48069C58.2611 20.0577 58.2611 31.6191 58.2611 43.1961C58.2611 44.982 57.1645 46.0629 55.3629 46.0629C53.812 46.0629 52.2768 46.0629 50.7258 46.0629C50.1305 46.0629 49.7389 46.4076 49.7232 46.9089C49.7076 47.4259 50.1149 47.8175 50.7258 47.8175C52.3864 47.8332 54.047 47.8488 55.7076 47.8175C57.7128 47.7705 59.3734 46.4076 59.8747 44.465C59.906 44.3397 59.953 44.2144 60 44.089C60 31.9324 60 19.7757 60 7.61907C60 7.52507 59.953 7.43108 59.9373 7.35275ZM44.6632 23.9742C44.6632 29.9115 44.6632 35.8488 44.6632 41.8018C44.6632 42.0368 44.6632 42.2561 44.6632 42.5225C34.8564 42.5225 25.1436 42.5225 15.3681 42.5225C15.3681 42.2718 15.3681 42.0368 15.3681 41.8018C15.3681 33.5146 15.3681 25.2274 15.3681 16.9402C15.3681 16.0316 15.1018 15.6086 14.5065 15.6086C13.8956 15.593 13.6136 16.0473 13.6136 16.9715C13.6136 25.2431 13.6136 33.499 13.6136 41.7705C13.6136 42.0055 13.6136 42.2248 13.6136 42.5068C10.8251 42.5068 8.08355 42.5068 5.31071 42.5068C5.31071 31.3997 5.31071 20.3084 5.31071 9.18565C8.06789 9.18565 10.7937 9.18565 13.6136 9.18565C13.6136 9.89061 13.6136 10.6112 13.6136 11.3162C13.6136 11.6295 13.5979 11.9428 13.6136 12.2561C13.6292 12.8828 13.9896 13.2588 14.5222 13.2431C15.0392 13.2274 15.3525 12.8671 15.3681 12.2561C15.3681 10.5172 15.3681 8.77834 15.3681 7.03943C15.3681 6.25614 15.3525 5.47285 15.3681 4.68956C15.3995 3.12299 16.5117 1.97938 18.0783 1.97938C26.0366 1.97938 33.9791 1.97938 41.9373 1.97938C43.5822 1.97938 44.6632 3.13865 44.6632 4.84622C44.6632 11.2222 44.6632 17.5982 44.6632 23.9742ZM46.4804 9.18565C49.2219 9.18565 51.9478 9.18565 54.7206 9.18565C54.7206 20.277 54.7206 31.3841 54.7206 42.5068C51.9791 42.5068 49.2533 42.5068 46.4804 42.5068C46.4804 31.4154 46.4804 20.3084 46.4804 9.18565Z" fill="url(#paint0_linear_202_808)"/>
<defs>
<linearGradient id="paint0_linear_202_808" x1="10.6579" y1="40.9468" x2="42.4231" y2="2.84645" gradientUnits="userSpaceOnUse">
<stop stop-color="#AD2E59"/>
<stop offset="1" stop-color="#009AFD"/>
</linearGradient>
</defs>
</svg>
