<svg width="60" height="61" viewBox="0 0 60 61" fill="none" xmlns="http://www.w3.org/2000/svg">
<path d="M36.009 59.7192C19.6075 63.0512 3.60318 52.3989 0.564599 36.032C-1.12734 26.9336 0.996215 18.6983 6.76261 11.4299C6.91799 11.2227 7.09064 11.0155 7.29782 10.8774C7.72943 10.6012 8.17832 10.6357 8.54087 10.9983C8.95522 11.3954 8.97249 11.8788 8.66173 12.3449C8.26464 12.9146 7.81576 13.4326 7.40141 13.9851C-3.76883 29.4715 3.4478 51.2595 21.662 56.9913C36.993 61.8082 53.3772 52.537 57.1064 36.9298C57.3308 35.963 57.5207 34.9962 57.6416 34.0121C57.797 32.8208 57.8487 31.6123 57.9005 30.9562C57.8487 16.7819 48.2841 5.24914 34.8522 2.90114C26.3062 1.39912 18.6407 3.5572 11.9247 9.08189C11.096 9.77248 10.5436 9.84154 10.0774 9.3236C9.59402 8.78839 9.76666 8.18413 10.6126 7.49354C16.638 2.46953 23.5784 0.0524743 31.382 0.415032C44.883 1.0193 56.1568 10.4803 59.2127 23.6187C63.0454 39.9856 52.4967 56.3871 36.009 59.7192ZM47.231 45.2341C46.8857 45.7002 46.9547 46.27 47.3691 46.6325C47.8007 47.0124 48.3704 46.9778 48.8193 46.5462C48.9402 46.4254 49.0438 46.2872 49.1646 46.1491C53.6707 40.5381 55.518 34.1674 54.603 27.0199C52.9974 14.7965 42.4659 5.57717 30.0526 5.40452C28.2916 5.62896 26.4961 5.74981 24.7524 6.11237C11.3895 8.94378 2.77448 22.3584 5.744 35.6177C9.33505 51.7256 27.0141 59.9436 41.62 52.2781C42.9493 51.5875 44.1579 50.6725 45.4009 49.8092C45.9016 49.4639 45.9361 48.8251 45.6081 48.3763C45.2628 47.9274 44.6931 47.8411 44.1751 48.1864C44.0543 48.2727 43.9334 48.359 43.8126 48.4453C38.754 52.2263 33.0912 53.7283 26.8414 52.8478C14.1692 51.0868 5.4505 39.2433 7.53952 26.6918C9.61128 14.1404 21.5239 5.73255 34.0235 7.97695C50.7357 10.9983 58.384 30.5764 48.1115 44.1292C47.818 44.509 47.5072 44.8543 47.231 45.2341ZM37.2347 21.875C37.252 22.6347 37.6318 23.1008 38.2534 23.1181C38.8749 23.1353 39.2892 22.6692 39.3065 21.9095C39.3238 21.1154 39.3238 20.3212 39.3065 19.527C39.2892 18.681 38.9439 18.3358 38.0634 18.3185C37.1829 18.3012 36.3025 18.3185 35.422 18.3185C30.9677 18.3185 26.4961 18.3185 22.0418 18.3185C21.4894 18.3185 21.006 18.4048 20.7643 18.9745C20.5571 19.4752 20.7988 19.8378 21.075 20.2176C23.423 23.3425 25.7883 26.4847 28.1363 29.6096C28.3262 29.8685 28.5161 30.1275 28.706 30.3692C26.1508 33.7704 23.6302 37.137 21.1095 40.4863C20.7988 40.9007 20.5398 41.2978 20.816 41.833C21.0923 42.3682 21.5584 42.4027 22.0764 42.4027C24.3726 42.4027 26.686 42.4027 28.9995 42.4027C31.969 42.4027 34.9385 42.4027 37.9253 42.4027C39.0303 42.4027 39.3238 42.0919 39.3238 40.9697C39.3238 40.2101 39.341 39.4677 39.3238 38.7081C39.3065 38.0347 38.8922 37.6031 38.3224 37.5858C37.7182 37.5686 37.2865 38.0175 37.2693 38.7253C37.252 39.2433 37.2693 39.7439 37.2693 40.2619C32.7977 40.2619 28.3952 40.2619 23.8892 40.2619C24.1481 39.9166 24.338 39.6576 24.528 39.4159C26.5479 36.7054 28.5851 34.0121 30.6051 31.3015C31.2439 30.4555 31.2439 30.2311 30.5878 29.3679C28.4643 26.5365 26.358 23.7223 24.2345 20.8909C24.1309 20.7528 24.0445 20.5974 23.9064 20.373C28.3952 20.373 32.7977 20.373 37.2693 20.373C37.2347 20.9427 37.2347 21.4089 37.2347 21.875Z" fill="url(#paint0_linear_202_806)"/>
<defs>
<linearGradient id="paint0_linear_202_806" x1="10.6579" y1="51.6524" x2="51.2835" y2="12.9666" gradientUnits="userSpaceOnUse">
<stop stop-color="#AD2E59"/>
<stop offset="1" stop-color="#009AFD"/>
</linearGradient>
</defs>
</svg>
