<svg width="60" height="61" viewBox="0 0 60 61" fill="none" xmlns="http://www.w3.org/2000/svg">
<mask id="path-1-inside-1_202_805" fill="white">
<path d="M56.521 29.5322C56.2305 29.4677 55.9239 29.4354 55.5688 29.387C60.7979 25.4167 61.2659 18.5415 57.6185 14.0871C55.4236 11.3918 52.5347 10.0523 49.0647 10.133C45.5948 10.2137 42.8512 11.7953 40.624 14.6358C40.624 9.77791 40.624 5.12983 40.624 0.449482C40.4464 0.449482 40.3173 0.449482 40.2044 0.449482C29.73 0.433343 19.2557 0.433343 8.78144 0.449482C8.50708 0.449482 8.16815 0.627013 7.99062 0.836822C5.81184 3.24155 3.74603 5.72698 1.48655 8.06716C0.389089 9.21304 -0.208059 10.3912 0.0663065 11.9567C0.114724 12.2311 0.211559 12.5538 0.389089 12.7475C2.9068 15.6041 5.44064 18.4446 7.95835 21.3013C8.21657 21.6079 8.49094 21.7209 8.87828 21.7047C12.8808 21.6886 16.8994 21.6886 20.9019 21.7047C22.4674 21.7047 23.581 22.6247 23.8715 24.1579C25.5177 32.873 27.1478 41.5882 28.794 50.3033C28.8747 50.7391 28.7294 50.8843 28.3421 51.0296C26.0342 51.9011 24.7592 54.2251 25.3241 56.5976C25.4693 57.227 25.7921 57.808 26.018 58.389C25.0981 58.389 24.1782 58.389 23.226 58.389C23.226 54.5317 23.226 50.7068 23.226 46.8657C21.2893 46.8657 19.3849 46.8657 17.4159 46.8657C17.4159 50.7391 17.4159 54.564 17.4159 58.389C16.7542 58.389 16.157 58.389 15.4953 58.389C15.4953 51.3039 15.4953 44.2511 15.4953 37.1983C13.5264 37.1983 11.6381 37.1983 9.68523 37.1983C9.68523 44.2834 9.68523 51.3201 9.68523 58.3729C9.02353 58.3729 8.42638 58.3729 7.74854 58.3729C7.74854 53.2083 7.74854 48.0922 7.74854 42.9761C5.7957 42.9761 3.90742 42.9761 1.95459 42.9761C1.95459 48.1406 1.95459 53.2568 1.95459 58.4213C1.29288 58.4213 0.695733 58.4213 0.0663065 58.4213C0.0663065 59.0668 0.0663065 59.664 0.0663065 60.3418C0.340672 60.3418 0.582759 60.3418 0.824846 60.3418C6.9093 60.3418 12.9938 60.3418 19.0621 60.3418C22.7095 60.3418 26.357 60.358 29.9883 60.3418C33.1193 60.3257 35.3787 57.5014 34.6848 54.4833C34.5395 53.8539 34.2167 53.2568 33.9908 52.6758C38.4129 52.6758 42.8512 52.6758 47.354 52.6758C47.2249 52.8856 47.128 53.0469 47.0473 53.1922C46.0629 54.9352 46.2727 57.0656 47.5638 58.615C48.8549 60.1643 51.0176 60.7453 52.922 60.0513C54.778 59.3735 56.0691 57.582 56.1014 55.6131C56.1498 52.8533 53.9872 50.6906 51.179 50.6906C44.6426 50.6745 38.0901 50.6906 31.5538 50.6906C31.3117 50.6906 31.0857 50.6906 30.8275 50.6906C30.5854 49.3672 30.3595 48.1245 30.1174 46.8172C30.4563 46.8172 30.6984 46.8172 30.9243 46.8172C38.1547 46.8172 45.385 46.8172 52.6153 46.8172C54.5843 46.8172 56.1498 45.7843 56.7792 44.009C57.8283 40.991 58.8612 37.9569 59.8134 34.9066C60.5558 32.5018 59.0065 30.0325 56.521 29.5322ZM7.76468 18.138C7.19981 17.5086 6.69949 16.9598 6.21532 16.4111C4.92419 14.9586 3.61692 13.4899 2.32579 12.0374C1.84161 11.4887 1.84161 10.6333 2.32579 10.0845C3.92356 8.29311 5.5052 6.50166 7.10297 4.71022C7.29664 4.48427 7.50645 4.27446 7.76468 3.98395C7.76468 8.745 7.76468 13.3769 7.76468 18.138ZM5.81184 58.4051C5.16627 58.4051 4.58527 58.4051 3.95584 58.4051C3.95584 53.9185 3.95584 49.4641 3.95584 44.9451C4.55299 44.9451 5.16627 44.9451 5.81184 44.9451C5.81184 49.4156 5.81184 53.8862 5.81184 58.4051ZM13.5586 58.389C12.9615 58.389 12.3482 58.389 11.7026 58.389C11.7026 51.9979 11.7026 45.5907 11.7026 39.135C12.3321 39.135 12.9292 39.135 13.5586 39.135C13.5586 45.5422 13.5586 51.9495 13.5586 58.389ZM21.2893 58.389C20.6921 58.389 20.0788 58.389 19.4333 58.389C19.4333 55.2257 19.4333 52.0302 19.4333 48.8024C20.0627 48.8024 20.6598 48.8024 21.2893 48.8024C21.2893 51.9979 21.2893 55.1612 21.2893 58.389ZM51.3242 52.6435C52.9059 52.6596 54.1808 53.9669 54.1808 55.5485C54.1808 57.1301 52.8736 58.4213 51.3081 58.4374C49.7103 58.4536 48.3869 57.1301 48.3869 55.5324C48.403 53.9185 49.7264 52.6112 51.3242 52.6435ZM49.4359 12.0374C54.197 12.0697 58.0704 15.9915 58.0542 20.7848C58.0381 25.5781 54.1001 29.4677 49.2745 29.4354C44.5135 29.4031 40.6401 25.4813 40.6562 20.688C40.6724 15.8946 44.6103 12.0051 49.4359 12.0374ZM9.74979 19.7358C9.74979 13.9579 9.74979 8.21241 9.74979 2.40232C19.3687 2.40232 29.0038 2.40232 38.6711 2.40232C38.6711 8.14785 38.6711 13.9095 38.6711 19.7358C29.0199 19.7358 19.401 19.7358 9.74979 19.7358ZM24.969 21.737C29.5687 21.737 34.1522 21.737 38.768 21.737C39.1392 24.8841 40.5917 27.418 43.174 29.387C37.6866 29.387 32.2962 29.387 26.8896 29.387C26.131 26.9015 26.2601 24.174 24.969 21.737ZM38.6711 35.2778C38.6711 36.5043 38.6711 37.7632 38.6711 39.0704C37.3961 39.0704 36.1534 39.0704 34.8784 39.0704C34.8784 37.8116 34.8784 36.5689 34.8784 35.2778C36.1211 35.2778 37.38 35.2778 38.6711 35.2778ZM34.9107 33.2604C34.9107 32.6309 34.9107 32.0015 34.9107 31.3721C36.1857 31.3721 37.4123 31.3721 38.6873 31.3721C38.6873 31.9854 38.6873 32.5987 38.6873 33.2604C37.4284 33.2604 36.1857 33.2604 34.9107 33.2604ZM27.2123 31.4044C29.1168 31.4044 30.9728 31.4044 32.8772 31.4044C32.8772 31.9854 32.8772 32.5987 32.8772 33.2604C31.1342 33.2604 29.375 33.2604 27.5513 33.2604C27.4383 32.6309 27.3253 32.0499 27.2123 31.4044ZM32.9256 55.5485C32.9256 57.1301 31.6345 58.4374 30.0528 58.4374C28.4551 58.4536 27.1316 57.1301 27.1316 55.5324C27.1316 53.9507 28.4228 52.6435 30.0044 52.6435C31.6022 52.6273 32.9256 53.9346 32.9256 55.5485ZM32.8772 44.8967C31.925 44.8967 30.9566 44.9128 30.0044 44.8805C29.8914 44.8805 29.7139 44.7353 29.6816 44.6223C29.4395 43.4442 29.2297 42.266 29.0038 41.0556C30.3111 41.0556 31.5699 41.0556 32.861 41.0556C32.8772 42.3306 32.8772 43.5733 32.8772 44.8967ZM32.8933 39.1027C31.7797 39.1027 30.65 39.1027 29.5364 39.1027C28.6487 39.1027 28.6487 39.1027 28.4873 38.2474C28.3098 37.2629 28.1323 36.2784 27.9386 35.2616C29.6171 35.2616 31.2471 35.2616 32.8933 35.2616C32.8933 36.5366 32.8933 37.7793 32.8933 39.1027ZM38.6873 44.8644C37.4284 44.8644 36.2018 44.8644 34.8784 44.8644C34.8784 43.5894 34.8784 42.3628 34.8784 41.0717C36.1373 41.0717 37.3961 41.0717 38.6873 41.0717C38.6873 42.3306 38.6873 43.5894 38.6873 44.8644ZM40.6885 31.4044C41.9474 31.4044 43.174 31.4044 44.4974 31.4044C44.4974 32.0338 44.4974 32.6309 44.4974 33.2604C43.2385 33.2604 41.9797 33.2604 40.6885 33.2604C40.6885 32.6471 40.6885 32.0338 40.6885 31.4044ZM40.6885 35.2616C41.9312 35.2616 43.174 35.2616 44.4812 35.2616C44.4812 36.5205 44.4812 37.7632 44.4812 39.0543C43.2224 39.0543 41.9797 39.0543 40.6885 39.0543C40.6885 37.8116 40.6885 36.5527 40.6885 35.2616ZM44.4974 44.8644C43.2385 44.8644 41.9958 44.8644 40.7047 44.8644C40.7047 43.6217 40.7047 42.379 40.7047 41.0717C41.9312 41.0717 43.1901 41.0717 44.4974 41.0717C44.4974 42.3628 44.4974 43.5894 44.4974 44.8644ZM46.4986 31.4044C47.7413 31.4044 49.0002 31.4044 50.2913 31.4044C50.2913 32.0176 50.2913 32.5987 50.2913 33.2765C49.0325 33.2765 47.7897 33.2765 46.4986 33.2765C46.4986 32.6632 46.4986 32.0499 46.4986 31.4044ZM50.2913 44.8644C49.0325 44.8644 47.7897 44.8644 46.4986 44.8644C46.4986 43.6217 46.4986 42.3628 46.4986 41.0717C47.7413 41.0717 48.984 41.0717 50.2913 41.0717C50.2913 42.3628 50.2913 43.6055 50.2913 44.8644ZM50.2913 39.0704C49.0325 39.0704 47.7897 39.0704 46.4986 39.0704C46.4986 37.8277 46.4986 36.5689 46.4986 35.2778C47.7413 35.2778 48.984 35.2778 50.2913 35.2778C50.2913 36.5527 50.2913 37.7955 50.2913 39.0704ZM54.891 43.5087C54.4713 44.5093 53.5353 44.9774 52.2926 44.8483C52.2926 43.6056 52.2926 42.3467 52.2926 41.0556C53.4223 41.0556 54.5359 41.0556 55.7463 41.0556C55.4397 41.9271 55.2137 42.7502 54.891 43.5087ZM56.4565 38.8768C56.4242 38.9736 56.2628 39.0866 56.1498 39.0866C54.8748 39.1027 53.5837 39.1027 52.2764 39.1027C52.2764 37.8116 52.2764 36.5689 52.2764 35.2778C54.0517 35.2778 55.8109 35.2778 57.6508 35.2778C57.2634 36.4882 56.8599 37.6986 56.4565 38.8768ZM52.3087 33.2765C52.3087 32.6794 52.3087 32.0661 52.3087 31.4205C53.5837 31.4205 54.891 31.3398 56.1821 31.4528C57.1343 31.5335 57.796 32.3404 57.9574 33.2765C56.0853 33.2765 54.2131 33.2765 52.3087 33.2765ZM28.9231 4.79091C26.3408 9.32601 23.7747 13.7966 21.1924 18.3155C20.6114 17.9927 20.0788 17.6861 19.514 17.3633C22.0962 12.8443 24.6624 8.35766 27.2446 3.8387C27.8418 4.17762 28.3582 4.46813 28.9231 4.79091ZM21.3216 9.13234C21.3216 7.5507 20.0304 6.25957 18.4488 6.24343C16.851 6.22729 15.5276 7.5507 15.5276 9.14848C15.5276 10.7301 16.8187 12.0212 18.4004 12.0374C19.9981 12.0374 21.3216 10.7301 21.3216 9.13234ZM18.4004 10.1007C17.8839 10.0845 17.4482 9.63265 17.4643 9.1162C17.4804 8.58361 17.9323 8.16399 18.4488 8.18013C18.9652 8.19627 19.401 8.64817 19.3849 9.16462C19.3687 9.68107 18.9168 10.1168 18.4004 10.1007ZM30.0367 10.1007C28.4389 10.1007 27.1155 11.408 27.1316 13.0219C27.1478 14.6035 28.4389 15.8946 30.0206 15.9108C31.6183 15.9108 32.9417 14.6035 32.9256 12.9896C32.9095 11.408 31.6183 10.1007 30.0367 10.1007ZM30.0044 13.9579C29.488 13.9418 29.0522 13.506 29.0522 12.9735C29.0683 12.4409 29.5041 12.0212 30.0367 12.0212C30.5531 12.0374 30.9889 12.4731 30.9889 13.0057C30.9728 13.5383 30.5209 13.9741 30.0044 13.9579ZM44.9815 19.6551C44.9815 19.1225 45.4173 18.6706 45.966 18.6706H52.7445C53.2771 18.6706 53.7289 19.1063 53.7289 19.6551C53.7289 20.2038 53.2932 20.6395 52.7445 20.6395H50.3236V26.5142C50.3236 27.0468 49.8878 27.4987 49.3391 27.4987C48.7904 27.4987 48.3546 27.0629 48.3546 26.5142V20.6395H45.9337C45.4173 20.6234 44.9815 20.1877 44.9815 19.6551ZM44.9815 16.4434C44.9815 15.9108 45.4173 15.4589 45.966 15.4589H52.7445C53.2771 15.4589 53.7289 15.8946 53.7289 16.4434C53.7289 16.9921 53.2932 17.4279 52.7445 17.4279H45.966C45.4173 17.4117 44.9815 16.976 44.9815 16.4434Z"/>
</mask>
<path d="M56.521 29.5322C56.2305 29.4677 55.9239 29.4354 55.5688 29.387C60.7979 25.4167 61.2659 18.5415 57.6185 14.0871C55.4236 11.3918 52.5347 10.0523 49.0647 10.133C45.5948 10.2137 42.8512 11.7953 40.624 14.6358C40.624 9.77791 40.624 5.12983 40.624 0.449482C40.4464 0.449482 40.3173 0.449482 40.2044 0.449482C29.73 0.433343 19.2557 0.433343 8.78144 0.449482C8.50708 0.449482 8.16815 0.627013 7.99062 0.836822C5.81184 3.24155 3.74603 5.72698 1.48655 8.06716C0.389089 9.21304 -0.208059 10.3912 0.0663065 11.9567C0.114724 12.2311 0.211559 12.5538 0.389089 12.7475C2.9068 15.6041 5.44064 18.4446 7.95835 21.3013C8.21657 21.6079 8.49094 21.7209 8.87828 21.7047C12.8808 21.6886 16.8994 21.6886 20.9019 21.7047C22.4674 21.7047 23.581 22.6247 23.8715 24.1579C25.5177 32.873 27.1478 41.5882 28.794 50.3033C28.8747 50.7391 28.7294 50.8843 28.3421 51.0296C26.0342 51.9011 24.7592 54.2251 25.3241 56.5976C25.4693 57.227 25.7921 57.808 26.018 58.389C25.0981 58.389 24.1782 58.389 23.226 58.389C23.226 54.5317 23.226 50.7068 23.226 46.8657C21.2893 46.8657 19.3849 46.8657 17.4159 46.8657C17.4159 50.7391 17.4159 54.564 17.4159 58.389C16.7542 58.389 16.157 58.389 15.4953 58.389C15.4953 51.3039 15.4953 44.2511 15.4953 37.1983C13.5264 37.1983 11.6381 37.1983 9.68523 37.1983C9.68523 44.2834 9.68523 51.3201 9.68523 58.3729C9.02353 58.3729 8.42638 58.3729 7.74854 58.3729C7.74854 53.2083 7.74854 48.0922 7.74854 42.9761C5.7957 42.9761 3.90742 42.9761 1.95459 42.9761C1.95459 48.1406 1.95459 53.2568 1.95459 58.4213C1.29288 58.4213 0.695733 58.4213 0.0663065 58.4213C0.0663065 59.0668 0.0663065 59.664 0.0663065 60.3418C0.340672 60.3418 0.582759 60.3418 0.824846 60.3418C6.9093 60.3418 12.9938 60.3418 19.0621 60.3418C22.7095 60.3418 26.357 60.358 29.9883 60.3418C33.1193 60.3257 35.3787 57.5014 34.6848 54.4833C34.5395 53.8539 34.2167 53.2568 33.9908 52.6758C38.4129 52.6758 42.8512 52.6758 47.354 52.6758C47.2249 52.8856 47.128 53.0469 47.0473 53.1922C46.0629 54.9352 46.2727 57.0656 47.5638 58.615C48.8549 60.1643 51.0176 60.7453 52.922 60.0513C54.778 59.3735 56.0691 57.582 56.1014 55.6131C56.1498 52.8533 53.9872 50.6906 51.179 50.6906C44.6426 50.6745 38.0901 50.6906 31.5538 50.6906C31.3117 50.6906 31.0857 50.6906 30.8275 50.6906C30.5854 49.3672 30.3595 48.1245 30.1174 46.8172C30.4563 46.8172 30.6984 46.8172 30.9243 46.8172C38.1547 46.8172 45.385 46.8172 52.6153 46.8172C54.5843 46.8172 56.1498 45.7843 56.7792 44.009C57.8283 40.991 58.8612 37.9569 59.8134 34.9066C60.5558 32.5018 59.0065 30.0325 56.521 29.5322ZM7.76468 18.138C7.19981 17.5086 6.69949 16.9598 6.21532 16.4111C4.92419 14.9586 3.61692 13.4899 2.32579 12.0374C1.84161 11.4887 1.84161 10.6333 2.32579 10.0845C3.92356 8.29311 5.5052 6.50166 7.10297 4.71022C7.29664 4.48427 7.50645 4.27446 7.76468 3.98395C7.76468 8.745 7.76468 13.3769 7.76468 18.138ZM5.81184 58.4051C5.16627 58.4051 4.58527 58.4051 3.95584 58.4051C3.95584 53.9185 3.95584 49.4641 3.95584 44.9451C4.55299 44.9451 5.16627 44.9451 5.81184 44.9451C5.81184 49.4156 5.81184 53.8862 5.81184 58.4051ZM13.5586 58.389C12.9615 58.389 12.3482 58.389 11.7026 58.389C11.7026 51.9979 11.7026 45.5907 11.7026 39.135C12.3321 39.135 12.9292 39.135 13.5586 39.135C13.5586 45.5422 13.5586 51.9495 13.5586 58.389ZM21.2893 58.389C20.6921 58.389 20.0788 58.389 19.4333 58.389C19.4333 55.2257 19.4333 52.0302 19.4333 48.8024C20.0627 48.8024 20.6598 48.8024 21.2893 48.8024C21.2893 51.9979 21.2893 55.1612 21.2893 58.389ZM51.3242 52.6435C52.9059 52.6596 54.1808 53.9669 54.1808 55.5485C54.1808 57.1301 52.8736 58.4213 51.3081 58.4374C49.7103 58.4536 48.3869 57.1301 48.3869 55.5324C48.403 53.9185 49.7264 52.6112 51.3242 52.6435ZM49.4359 12.0374C54.197 12.0697 58.0704 15.9915 58.0542 20.7848C58.0381 25.5781 54.1001 29.4677 49.2745 29.4354C44.5135 29.4031 40.6401 25.4813 40.6562 20.688C40.6724 15.8946 44.6103 12.0051 49.4359 12.0374ZM9.74979 19.7358C9.74979 13.9579 9.74979 8.21241 9.74979 2.40232C19.3687 2.40232 29.0038 2.40232 38.6711 2.40232C38.6711 8.14785 38.6711 13.9095 38.6711 19.7358C29.0199 19.7358 19.401 19.7358 9.74979 19.7358ZM24.969 21.737C29.5687 21.737 34.1522 21.737 38.768 21.737C39.1392 24.8841 40.5917 27.418 43.174 29.387C37.6866 29.387 32.2962 29.387 26.8896 29.387C26.131 26.9015 26.2601 24.174 24.969 21.737ZM38.6711 35.2778C38.6711 36.5043 38.6711 37.7632 38.6711 39.0704C37.3961 39.0704 36.1534 39.0704 34.8784 39.0704C34.8784 37.8116 34.8784 36.5689 34.8784 35.2778C36.1211 35.2778 37.38 35.2778 38.6711 35.2778ZM34.9107 33.2604C34.9107 32.6309 34.9107 32.0015 34.9107 31.3721C36.1857 31.3721 37.4123 31.3721 38.6873 31.3721C38.6873 31.9854 38.6873 32.5987 38.6873 33.2604C37.4284 33.2604 36.1857 33.2604 34.9107 33.2604ZM27.2123 31.4044C29.1168 31.4044 30.9728 31.4044 32.8772 31.4044C32.8772 31.9854 32.8772 32.5987 32.8772 33.2604C31.1342 33.2604 29.375 33.2604 27.5513 33.2604C27.4383 32.6309 27.3253 32.0499 27.2123 31.4044ZM32.9256 55.5485C32.9256 57.1301 31.6345 58.4374 30.0528 58.4374C28.4551 58.4536 27.1316 57.1301 27.1316 55.5324C27.1316 53.9507 28.4228 52.6435 30.0044 52.6435C31.6022 52.6273 32.9256 53.9346 32.9256 55.5485ZM32.8772 44.8967C31.925 44.8967 30.9566 44.9128 30.0044 44.8805C29.8914 44.8805 29.7139 44.7353 29.6816 44.6223C29.4395 43.4442 29.2297 42.266 29.0038 41.0556C30.3111 41.0556 31.5699 41.0556 32.861 41.0556C32.8772 42.3306 32.8772 43.5733 32.8772 44.8967ZM32.8933 39.1027C31.7797 39.1027 30.65 39.1027 29.5364 39.1027C28.6487 39.1027 28.6487 39.1027 28.4873 38.2474C28.3098 37.2629 28.1323 36.2784 27.9386 35.2616C29.6171 35.2616 31.2471 35.2616 32.8933 35.2616C32.8933 36.5366 32.8933 37.7793 32.8933 39.1027ZM38.6873 44.8644C37.4284 44.8644 36.2018 44.8644 34.8784 44.8644C34.8784 43.5894 34.8784 42.3628 34.8784 41.0717C36.1373 41.0717 37.3961 41.0717 38.6873 41.0717C38.6873 42.3306 38.6873 43.5894 38.6873 44.8644ZM40.6885 31.4044C41.9474 31.4044 43.174 31.4044 44.4974 31.4044C44.4974 32.0338 44.4974 32.6309 44.4974 33.2604C43.2385 33.2604 41.9797 33.2604 40.6885 33.2604C40.6885 32.6471 40.6885 32.0338 40.6885 31.4044ZM40.6885 35.2616C41.9312 35.2616 43.174 35.2616 44.4812 35.2616C44.4812 36.5205 44.4812 37.7632 44.4812 39.0543C43.2224 39.0543 41.9797 39.0543 40.6885 39.0543C40.6885 37.8116 40.6885 36.5527 40.6885 35.2616ZM44.4974 44.8644C43.2385 44.8644 41.9958 44.8644 40.7047 44.8644C40.7047 43.6217 40.7047 42.379 40.7047 41.0717C41.9312 41.0717 43.1901 41.0717 44.4974 41.0717C44.4974 42.3628 44.4974 43.5894 44.4974 44.8644ZM46.4986 31.4044C47.7413 31.4044 49.0002 31.4044 50.2913 31.4044C50.2913 32.0176 50.2913 32.5987 50.2913 33.2765C49.0325 33.2765 47.7897 33.2765 46.4986 33.2765C46.4986 32.6632 46.4986 32.0499 46.4986 31.4044ZM50.2913 44.8644C49.0325 44.8644 47.7897 44.8644 46.4986 44.8644C46.4986 43.6217 46.4986 42.3628 46.4986 41.0717C47.7413 41.0717 48.984 41.0717 50.2913 41.0717C50.2913 42.3628 50.2913 43.6055 50.2913 44.8644ZM50.2913 39.0704C49.0325 39.0704 47.7897 39.0704 46.4986 39.0704C46.4986 37.8277 46.4986 36.5689 46.4986 35.2778C47.7413 35.2778 48.984 35.2778 50.2913 35.2778C50.2913 36.5527 50.2913 37.7955 50.2913 39.0704ZM54.891 43.5087C54.4713 44.5093 53.5353 44.9774 52.2926 44.8483C52.2926 43.6056 52.2926 42.3467 52.2926 41.0556C53.4223 41.0556 54.5359 41.0556 55.7463 41.0556C55.4397 41.9271 55.2137 42.7502 54.891 43.5087ZM56.4565 38.8768C56.4242 38.9736 56.2628 39.0866 56.1498 39.0866C54.8748 39.1027 53.5837 39.1027 52.2764 39.1027C52.2764 37.8116 52.2764 36.5689 52.2764 35.2778C54.0517 35.2778 55.8109 35.2778 57.6508 35.2778C57.2634 36.4882 56.8599 37.6986 56.4565 38.8768ZM52.3087 33.2765C52.3087 32.6794 52.3087 32.0661 52.3087 31.4205C53.5837 31.4205 54.891 31.3398 56.1821 31.4528C57.1343 31.5335 57.796 32.3404 57.9574 33.2765C56.0853 33.2765 54.2131 33.2765 52.3087 33.2765ZM28.9231 4.79091C26.3408 9.32601 23.7747 13.7966 21.1924 18.3155C20.6114 17.9927 20.0788 17.6861 19.514 17.3633C22.0962 12.8443 24.6624 8.35766 27.2446 3.8387C27.8418 4.17762 28.3582 4.46813 28.9231 4.79091ZM21.3216 9.13234C21.3216 7.5507 20.0304 6.25957 18.4488 6.24343C16.851 6.22729 15.5276 7.5507 15.5276 9.14848C15.5276 10.7301 16.8187 12.0212 18.4004 12.0374C19.9981 12.0374 21.3216 10.7301 21.3216 9.13234ZM18.4004 10.1007C17.8839 10.0845 17.4482 9.63265 17.4643 9.1162C17.4804 8.58361 17.9323 8.16399 18.4488 8.18013C18.9652 8.19627 19.401 8.64817 19.3849 9.16462C19.3687 9.68107 18.9168 10.1168 18.4004 10.1007ZM30.0367 10.1007C28.4389 10.1007 27.1155 11.408 27.1316 13.0219C27.1478 14.6035 28.4389 15.8946 30.0206 15.9108C31.6183 15.9108 32.9417 14.6035 32.9256 12.9896C32.9095 11.408 31.6183 10.1007 30.0367 10.1007ZM30.0044 13.9579C29.488 13.9418 29.0522 13.506 29.0522 12.9735C29.0683 12.4409 29.5041 12.0212 30.0367 12.0212C30.5531 12.0374 30.9889 12.4731 30.9889 13.0057C30.9728 13.5383 30.5209 13.9741 30.0044 13.9579ZM44.9815 19.6551C44.9815 19.1225 45.4173 18.6706 45.966 18.6706H52.7445C53.2771 18.6706 53.7289 19.1063 53.7289 19.6551C53.7289 20.2038 53.2932 20.6395 52.7445 20.6395H50.3236V26.5142C50.3236 27.0468 49.8878 27.4987 49.3391 27.4987C48.7904 27.4987 48.3546 27.0629 48.3546 26.5142V20.6395H45.9337C45.4173 20.6234 44.9815 20.1877 44.9815 19.6551ZM44.9815 16.4434C44.9815 15.9108 45.4173 15.4589 45.966 15.4589H52.7445C53.2771 15.4589 53.7289 15.8946 53.7289 16.4434C53.7289 16.9921 53.2932 17.4279 52.7445 17.4279H45.966C45.4173 17.4117 44.9815 16.976 44.9815 16.4434Z" fill="black" stroke="url(#paint0_linear_202_805)" stroke-width="2" mask="url(#path-1-inside-1_202_805)"/>
<defs>
<linearGradient id="paint0_linear_202_805" x1="10.6579" y1="51.6776" x2="51.2588" y2="12.9906" gradientUnits="userSpaceOnUse">
<stop stop-color="#AD2E59"/>
<stop offset="1" stop-color="#009AFD"/>
</linearGradient>
</defs>
</svg>
