<svg width="60" height="63" viewBox="0 0 60 63" fill="none" xmlns="http://www.w3.org/2000/svg">
<path d="M51.7227 4.76504C51.7054 2.43276 49.8569 0.65332 47.4037 0.65332C36.5024 0.65332 25.5839 0.65332 14.6827 0.65332C12.1949 0.65332 10.3291 2.43276 10.3463 4.7996C10.3463 7.13188 12.2122 8.91132 14.6654 8.9286C15.2873 8.9286 15.892 8.9286 16.5658 8.9286C16.5658 9.23957 16.5658 9.48143 16.5658 9.70602C16.5658 12.1938 16.583 14.6643 16.5485 17.152C16.5485 17.5839 16.4276 18.0504 16.2202 18.4132C14.8381 20.8664 13.4042 23.3024 12.0221 25.7556C10.3118 28.7962 9.60347 32.0614 9.89717 35.5166C10.1736 38.7818 10.6228 42.0297 10.951 45.2776C11.1929 47.6099 11.3484 49.9422 11.5557 52.3781C11.1756 52.3781 11.0374 52.3781 10.8819 52.3781C9.5862 52.3954 9.32705 52.6545 9.32705 53.933C9.32705 56.4207 9.32705 58.8912 9.32705 61.379C9.32705 62.3983 9.67258 62.7438 10.6919 62.7438C16.6867 62.7438 22.6815 62.7438 28.6591 62.7438C29.6784 62.7438 30.0239 62.3983 30.0239 61.379C30.0239 58.9603 30.0066 56.5417 30.0412 54.1403C30.0584 52.9828 29.9721 52.309 28.3481 52.3781C28.3135 52.3781 28.279 52.3436 28.1581 52.2572C31.4405 47.8518 31.907 43.0317 29.9375 37.9007C30.2312 37.9007 30.4731 37.9007 30.6977 37.9007C35.1376 37.9007 39.5776 37.9007 44.0176 37.9007C45.2442 37.9007 45.5206 37.607 45.5206 36.3631C45.5206 27.4832 45.5206 18.6032 45.5206 9.70602C45.5206 9.44688 45.5206 9.20501 45.5206 8.91132C46.1944 8.91132 46.799 8.91132 47.4037 8.91132C49.8914 8.9286 51.74 7.13188 51.7227 4.76504ZM16.5139 6.82091C15.6847 6.82091 14.8554 6.90729 14.0434 6.80363C13.0242 6.66542 12.3331 5.64613 12.4195 4.64411C12.5059 3.64209 13.3524 2.79556 14.389 2.76101C15.08 2.72646 15.7711 2.76101 16.5312 2.76101C16.5139 4.10855 16.5139 5.43881 16.5139 6.82091ZM27.8989 60.6361C22.4051 60.6361 16.9286 60.6361 11.4175 60.6361C11.4175 58.5975 11.4175 56.5589 11.4175 54.5031C16.9113 54.5031 22.3705 54.5031 27.8989 54.5031C27.8989 56.5589 27.8989 58.5803 27.8989 60.6361ZM28.5381 47.0052C28.2444 48.0418 27.6398 48.992 27.1388 49.9594C26.7069 50.7714 26.2059 51.5489 25.7221 52.3781C21.6968 52.3781 17.6023 52.3781 13.4733 52.3781C13.4561 52.2399 13.4388 52.119 13.4388 51.998C13.577 48.9229 13.0241 45.8996 12.7132 42.859C12.4713 40.3885 12.1258 37.9353 11.9185 35.4648C11.6593 32.3896 12.2813 29.4699 13.8016 26.7576C14.6481 25.2373 15.5292 23.7343 16.5485 22.2312C16.5485 22.4385 16.5485 22.6631 16.5485 22.8705C16.5485 27.3968 16.5485 31.9232 16.5485 36.4495C16.5485 37.5897 16.8595 37.9007 17.9997 37.9007C18.8808 37.9007 19.7618 37.9007 20.6775 37.9007C20.6775 38.2635 20.6775 38.5572 20.6775 38.8854C21.3685 38.8854 22.025 38.8854 22.7506 38.8854C22.7506 38.6436 22.7506 38.419 22.7506 38.1944C22.7506 34.9983 22.7506 31.8195 22.7506 28.6234C22.7506 27.6214 23.3726 26.8267 24.3228 26.5848C25.152 26.3602 26.1195 26.7058 26.5514 27.5005C26.7587 27.8805 26.8796 28.347 26.8796 28.7789C26.9142 30.9902 26.8796 33.2189 26.8969 35.4302C26.8969 35.8103 26.9833 36.1904 27.1215 36.5532C27.467 37.5206 27.8816 38.4708 28.2444 39.4383C29.2119 41.9433 29.2465 44.4829 28.5381 47.0052ZM18.6562 35.793C18.6562 33.4435 18.6562 31.0939 18.6562 28.6407C19.2608 28.8134 19.8482 28.9344 20.4011 29.1244C20.522 29.159 20.6602 29.4008 20.6602 29.5563C20.6775 31.6122 20.6775 33.6853 20.6775 35.793C20.0037 35.793 19.3645 35.793 18.6562 35.793ZM30.5594 35.8448C28.97 35.8448 28.97 35.8448 28.97 34.2209C28.97 32.4242 28.97 30.6447 28.97 28.848C28.97 26.7576 27.7953 25.1163 25.9467 24.6153C24.0291 24.0971 22.2323 24.8918 21.1439 26.7403C21.0576 26.8785 20.8157 27.034 20.6775 27.0167C20.0037 26.8958 19.3472 26.723 18.6562 26.5503C18.6562 18.6551 18.6562 10.7426 18.6562 2.79556C26.8969 2.79556 35.1203 2.79556 43.4129 2.79556C43.4129 10.708 43.4129 18.6205 43.4129 26.5503C38.1955 27.4832 35.1031 30.5583 34.1356 35.8621C32.9608 35.8448 31.7688 35.8448 30.5594 35.8448ZM43.4129 35.793C41.0633 35.793 38.6965 35.793 36.347 35.793C36.3642 32.5278 40.0786 28.8134 43.4129 28.7271C43.4129 31.0766 43.4129 33.4089 43.4129 35.793ZM49.6496 4.92053C49.5805 5.9571 48.7339 6.80363 47.6628 6.85546C46.9718 6.89001 46.298 6.85546 45.5379 6.85546C45.5379 5.45609 45.5379 4.12583 45.5379 2.76101C46.3671 2.76101 47.1791 2.67463 47.9738 2.77829C49.0104 2.9165 49.7187 3.90124 49.6496 4.92053ZM12.0221 21.1601C10.3982 23.1123 8.77422 25.0645 7.13298 27.0167C6.51104 27.7596 5.8891 27.7423 5.24988 26.9994C3.62593 25.0645 2.01924 23.1296 0.412563 21.1947C0.0843158 20.8146 -0.140274 20.4172 0.101592 19.899C0.343458 19.3634 0.809914 19.2597 1.34547 19.277C1.89831 19.2943 2.46842 19.277 3.09037 19.277C3.09037 13.0749 3.09037 6.89001 3.09037 0.687873C3.79869 0.687873 4.4379 0.687873 5.18078 0.687873C5.18078 0.912463 5.18078 1.15433 5.18078 1.41347C5.18078 7.4083 5.18078 13.4031 5.18078 19.3979C5.18078 21.1947 5.14623 21.2292 3.29768 21.402C4.28242 22.5768 5.21533 23.6997 6.21735 24.909C7.18481 23.7343 8.135 22.6113 9.18885 21.3501C8.82605 21.3501 8.63601 21.3501 8.44597 21.3501C7.65127 21.3329 7.28847 20.9528 7.27119 20.1408C7.27119 20.1063 7.27119 20.0544 7.27119 20.0199C7.27119 13.7486 7.27119 7.4774 7.27119 1.20616C7.27119 1.05067 7.27119 0.912463 7.27119 0.722425C7.96224 0.722425 8.61873 0.722425 9.30978 0.722425C9.30978 6.89001 9.30978 13.0403 9.30978 19.3116C9.949 19.3116 10.5364 19.3288 11.1238 19.3116C11.6248 19.2943 12.074 19.3979 12.3158 19.899C12.5404 20.3827 12.3504 20.78 12.0221 21.1601ZM59.8943 22.8705C59.6698 23.3369 59.2724 23.4751 58.7714 23.4751C58.1667 23.4578 57.5793 23.4751 56.9056 23.4751C56.9056 29.6945 56.9056 35.8621 56.9056 42.0815C56.1972 42.0815 55.558 42.0815 54.8324 42.0815C54.8324 41.8397 54.8324 41.5805 54.8324 41.3387C54.8324 35.2575 54.8324 29.1762 54.8324 23.095C54.8324 21.6611 55.0052 21.4711 56.4564 21.402C56.5082 21.402 56.5773 21.3674 56.7155 21.3329C55.7481 20.1581 54.7979 19.0351 53.8131 17.8431C52.8284 19.0179 51.8955 20.1581 50.9626 21.2638C51.0144 21.3501 51.0317 21.3847 51.0317 21.3847C52.7593 21.5747 52.7766 21.592 52.7766 23.3542C52.7766 29.3317 52.7766 35.292 52.7766 41.2696C52.7766 41.5287 52.7766 41.7706 52.7766 42.0643C52.0855 42.0643 51.4463 42.0643 50.738 42.0643C50.738 35.9139 50.738 29.7291 50.738 23.4751C50.0469 23.4751 49.4423 23.4578 48.8203 23.4751C48.3193 23.4924 47.9392 23.3369 47.6974 22.8705C47.4728 22.3867 47.6456 22.0066 47.9565 21.6266C49.5978 19.6571 51.239 17.6876 52.8802 15.7181C53.4849 15.0098 54.1241 15.0098 54.7115 15.7181C56.3527 17.6876 57.994 19.6571 59.6352 21.6266C59.9634 21.9894 60.1189 22.3867 59.8943 22.8705ZM30.9913 4.7996C26.9833 4.81687 23.7699 8.09934 23.7872 12.1247C23.8217 16.0636 27.0869 19.2943 31.0259 19.277C35.034 19.2597 38.2819 15.9945 38.2646 11.9692C38.2646 8.01296 34.9821 4.76504 30.9913 4.7996ZM31.0432 17.2211C28.1753 17.2211 25.8603 14.9061 25.8603 12.0383C25.8603 9.22229 28.1581 6.89001 30.9913 6.87273C33.8592 6.85546 36.1915 9.17046 36.2087 12.021C36.2087 14.8716 33.8937 17.2211 31.0432 17.2211Z" fill="url(#paint0_linear_202_799)"/>
<defs>
<linearGradient id="paint0_linear_202_799" x1="10.6579" y1="53.757" x2="52.6362" y2="15.1612" gradientUnits="userSpaceOnUse">
<stop stop-color="#AD2E59"/>
<stop offset="1" stop-color="#009AFD"/>
</linearGradient>
</defs>
</svg>
