<svg width="60" height="61" viewBox="0 0 60 61" fill="none" xmlns="http://www.w3.org/2000/svg">
<path d="M59.7578 15.4145C58.5676 17.4816 57.3775 19.533 56.1873 21.6001C55.7019 22.4301 55.0598 22.5867 54.2142 22.1013C52.1628 20.9268 50.127 19.7523 48.0756 18.5621C47.2926 18.108 47.0577 17.419 47.4492 16.7613C47.825 16.1036 48.5453 15.9626 49.3283 16.4011C50.4872 17.0588 51.6303 17.7165 52.8675 18.4369C52.8048 18.2333 52.7892 18.108 52.7422 17.9984C48.9995 10.2468 42.9391 5.40792 34.4829 3.81062C27.2794 2.46388 20.7022 4.10815 14.8455 8.57119C14.0468 9.18192 13.3108 9.18192 12.8254 8.55553C12.3556 7.96046 12.4809 7.24011 13.1542 6.70768C16.0513 4.40569 19.2615 2.71443 22.8476 1.82182C24.4449 1.41467 26.1049 1.24241 27.7335 0.960536C27.9057 0.929216 28.078 0.897897 28.2503 0.866577C29.4247 0.866577 30.5992 0.866577 31.7737 0.866577C33.0108 1.05449 34.248 1.16411 35.4694 1.43033C44.74 3.51308 51.3484 8.90005 55.2791 17.5599C55.3104 17.6226 55.3417 17.7009 55.4043 17.8418C55.514 17.6852 55.6079 17.5912 55.6862 17.466C56.3283 16.3698 56.9547 15.2736 57.5967 14.1774C58.0352 13.4257 58.7242 13.1908 59.3663 13.551C60.024 13.9112 60.1962 14.6629 59.7578 15.4145ZM21.6888 51.9488C20.577 51.4634 19.4495 51.0249 18.3689 50.4768C6.24826 44.3068 1.42504 28.8193 7.87687 16.7926C7.95517 16.636 8.06479 16.495 8.22139 16.2601C8.28403 16.4481 8.31535 16.542 8.34667 16.636C8.61288 17.6382 8.8791 18.6248 9.16098 19.627C9.1923 19.7366 9.22362 19.8462 9.25494 19.9715C9.48983 20.6762 10.1006 21.0207 10.7583 20.8485C11.4473 20.6606 11.8388 20.0498 11.6352 19.3138C11.0402 16.9962 10.4138 14.6785 9.78737 12.3609C9.50549 11.3117 8.94174 10.9985 7.90819 11.2803C5.70016 11.8597 3.49213 12.4705 1.2841 13.0342C0.689031 13.1908 0.250557 13.457 0 14.0208C0 14.2557 0 14.4906 0 14.7255C0.595072 15.5868 0.939587 15.7121 1.97313 15.4458C2.6465 15.2736 3.33554 15.0857 4.00891 14.9134C4.77624 14.7098 5.55923 14.5063 6.43617 14.2714C6.29524 14.5219 6.21694 14.6629 6.13864 14.7881C4.11853 18.2959 2.89706 22.0543 2.59953 26.0945C2.02011 33.8931 4.30644 40.7834 9.45851 46.6715C12.5122 50.1636 16.2705 52.6692 20.6396 54.2351C20.9685 54.3448 21.3756 54.3761 21.7045 54.2821C22.2212 54.1412 22.4875 53.7027 22.4875 53.1703C22.5031 52.5752 22.2056 52.1837 21.6888 51.9488ZM15.0021 28.4278C14.9864 20.1281 21.6888 13.4101 29.9885 13.3944C38.2569 13.3787 44.9749 20.0811 45.0062 28.3495C45.0376 36.6179 38.3038 43.3829 30.0198 43.4142C21.7828 43.4142 15.0177 36.6805 15.0021 28.4278ZM17.492 28.4121C17.5076 35.2868 23.1138 40.8773 29.9885 40.8773C36.8788 40.8773 42.485 35.3025 42.5007 28.4278C42.532 21.5375 36.8945 15.8843 30.0042 15.8843C23.1139 15.8843 17.492 21.5218 17.492 28.4121ZM56.2969 27.1437C55.5609 27.128 55.0598 27.6605 55.0128 28.5061C54.9972 28.6627 55.0128 28.8193 54.9972 28.9759C54.7936 30.6515 54.731 32.3741 54.3551 34.0184C52.1628 43.7274 44.1919 51.2911 34.3732 53.0137C33.6059 53.1546 32.8229 53.2173 32.0556 53.3112C32.7916 52.3716 33.5902 51.6043 34.3576 50.8056C34.5455 50.6177 34.7491 50.4142 34.8744 50.1793C35.1562 49.6625 34.984 49.0204 34.5142 48.6603C33.9974 48.2688 33.3397 48.3001 32.8229 48.8325C31.2256 50.4142 29.644 51.9958 28.0623 53.5931C27.3263 54.3291 27.3263 54.9712 28.0623 55.7228C29.1742 56.8503 30.3017 57.9622 31.4135 59.074C31.9147 59.5751 32.4001 60.0762 32.9169 60.5617C33.2927 60.9062 33.7312 61.0158 34.2166 60.8123C34.6708 60.6243 34.9996 60.2642 34.9683 59.7944C34.937 59.4029 34.7647 58.9487 34.4985 58.6669C33.6529 57.7273 32.729 56.866 31.7424 55.8794C32.5097 55.7855 33.1205 55.7228 33.7468 55.6289C34.3576 55.5349 34.984 55.4566 35.5947 55.3157C45.3038 53.0607 52.0218 47.2979 55.7489 38.0742C56.9703 35.0362 57.4871 31.8416 57.5184 28.5844C57.5341 27.7231 57.033 27.1594 56.2969 27.1437ZM26.1049 26.5956H28.814V35.7253C28.814 36.383 29.3464 36.9311 30.0198 36.9311C30.6932 36.9311 31.2256 36.3986 31.2256 35.7253V26.5956H33.9191C34.5768 26.5956 35.1249 26.0632 35.1249 25.3898C35.1249 24.7321 34.5925 24.184 33.9191 24.184H26.1205C25.4628 24.184 24.9147 24.7164 24.9147 25.3898C24.9147 26.0632 25.4472 26.5956 26.1049 26.5956ZM26.1049 22.2735H33.9034C34.5612 22.2735 35.1092 21.7411 35.1092 21.0677C35.1092 20.3943 34.5768 19.8619 33.9034 19.8619H26.1049C25.4472 19.8619 24.8991 20.3943 24.8991 21.0677C24.8991 21.7411 25.4472 22.2735 26.1049 22.2735Z" fill="url(#paint0_linear_202_803)"/>
<defs>
<linearGradient id="paint0_linear_202_803" x1="10.6579" y1="52.2232" x2="51.3465" y2="13.5406" gradientUnits="userSpaceOnUse">
<stop stop-color="#AD2E59"/>
<stop offset="1" stop-color="#009AFD"/>
</linearGradient>
</defs>
</svg>
