<svg width="60" height="51" viewBox="0 0 60 51" fill="none" xmlns="http://www.w3.org/2000/svg">
<path d="M37.3747 22.7577C44.0449 22.7577 50.7307 22.7734 57.4008 22.7421C58.6691 22.7421 59.5616 23.1492 60 24.3705C60 29.3652 60 34.3757 60 39.3705C59.4676 40.5604 58.5438 40.9206 57.2756 40.9049C50.6211 40.8579 43.9666 40.8892 37.2965 40.8892C35.6211 40.8892 34.8539 40.1377 34.8539 38.4623C34.8539 34.0469 34.8539 29.6314 34.8539 25.2316C34.8695 23.5093 35.6211 22.7577 37.3747 22.7577ZM37.3591 39.1513C40.7098 39.1356 44.0762 39.1356 47.4269 39.1356C50.7777 39.1356 54.1441 39.1199 57.4948 39.1513C58.0428 39.1513 58.2463 39.026 58.2463 38.431C58.2307 34.0469 58.2307 29.6471 58.2463 25.2629C58.2463 24.7149 58.1054 24.5114 57.5261 24.5114C50.7933 24.527 44.0605 24.527 37.3278 24.5114C36.7954 24.5114 36.6075 24.668 36.6075 25.216C36.6232 29.6314 36.6232 34.0312 36.6075 38.4467C36.6075 39.026 36.8267 39.1669 37.3591 39.1513ZM0.767223 36.3016C2.06681 36.3016 3.41336 36.2076 4.68163 36.4425C6.79541 36.8339 8.11065 38.6502 8.14196 40.9206C8.17327 42.3611 8.14196 43.8172 8.15762 45.2577C8.17327 47.0583 9.31628 48.17 11.1013 48.1857C11.8215 48.1857 12.5418 48.2014 13.262 48.1857C14.953 48.1387 16.3935 46.9174 16.738 45.3047C16.8163 44.9289 16.7537 44.7254 16.3309 44.6627C15.8142 44.6001 15.2975 44.4592 14.7808 44.3339C12.1503 43.7076 10.6785 41.4842 11.0699 38.8068C11.2735 37.3976 11.4301 35.9728 11.6023 34.5636C12.1347 30.336 12.667 26.1241 13.1837 21.8966C13.3716 20.4091 13.5595 18.9216 13.7474 17.4028C13.5595 17.3245 13.4499 17.2932 13.3403 17.2462C9.61378 16.0249 7.28079 12.5959 7.48434 8.66586C7.67223 4.90804 10.381 1.58862 14.1701 0.962315C16.4248 0.586532 18.7578 0.758766 21.0595 0.743108C21.5292 0.743108 21.8267 1.11889 21.8111 1.61993C21.8111 2.13664 21.4509 2.46545 20.8246 2.46545C19.118 2.4811 17.4269 2.43413 15.7203 2.4811C13.3716 2.55939 11.5084 3.60845 10.2557 5.59697C8.87787 7.78904 8.79958 10.1064 10.0209 12.3924C11.2891 14.741 13.3716 15.884 16.0334 15.884C22.9228 15.8997 29.8278 15.884 36.7171 15.8997C37.6879 15.8997 38.3299 15.4926 38.7056 14.5688C39.4572 12.6899 40.2557 10.8266 41.0386 8.9477C41.7589 7.2097 42.4948 5.45605 43.215 3.7024C43.4342 3.17004 43.2777 2.70031 42.8079 2.54373C42.5887 2.46545 42.3539 2.46545 42.119 2.46545C36.4979 2.46545 30.8612 2.46545 25.2401 2.46545C24.5668 2.46545 24.1597 2.10532 24.1754 1.57296C24.191 1.07192 24.5825 0.711793 25.1618 0.711793C30.9551 0.711793 36.7641 0.696135 42.5574 0.711793C43.7004 0.727451 44.6712 1.49467 44.9687 2.52808C45.0626 2.84123 45.0939 3.17004 45.1566 3.51451C45.6576 3.51451 46.143 3.51451 46.6284 3.51451C47.928 3.53016 48.5856 4.50094 48.0846 5.69092C46.9729 8.38403 45.8455 11.0615 44.7495 13.7546C44.452 14.4905 43.9196 14.8506 43.1211 14.8506C42.3852 14.8506 41.6336 14.8193 40.8977 14.8663C40.7098 14.8819 40.4123 15.0542 40.3497 15.2264C39.6451 16.9487 38.3612 17.6847 36.5449 17.669C34.2589 17.6377 31.9729 17.669 29.6868 17.6533C29.2328 17.6533 28.9823 17.7786 28.9509 18.2327C28.8413 19.3757 28.6691 20.5187 28.6534 21.6617C28.6378 23.932 27.6827 25.4821 25.5689 26.2807C24.7547 26.5938 23.8779 26.7034 22.9854 26.9383C22.9541 27.1419 22.9071 27.4394 22.8601 27.7212C22.7662 28.3005 22.3591 28.598 21.8424 28.5197C21.3727 28.4414 21.0595 28.0187 21.1221 27.4863C21.357 25.5448 21.6075 23.6189 21.858 21.6773C22.0303 20.3778 22.1868 19.0625 22.3434 17.7003C20.0104 17.7003 17.7557 17.7003 15.501 17.7003C15.4854 17.7943 15.4541 17.8725 15.4541 17.9508C15.0939 20.8631 14.7182 23.7598 14.358 26.6721C13.8257 30.8527 13.2933 35.0333 12.7923 39.2139C12.5731 40.9832 13.4969 42.2515 15.2505 42.6429C17.5835 43.1753 19.9322 43.6606 22.2808 44.1617C22.9697 44.3026 23.5647 44.1304 24.0344 43.6137C24.7234 42.8621 24.7704 40.811 24.0031 40.122C23.6117 39.7619 23.0324 39.574 22.5 39.4331C20.8873 38.979 19.8852 37.6481 20.0574 35.9884C20.1983 34.5949 20.4019 33.2014 20.5898 31.8078C20.6837 31.1502 21.0595 30.8371 21.5919 30.9153C22.1399 30.9936 22.4061 31.4477 22.3121 32.1053C22.1399 33.4049 21.9833 34.7045 21.8111 36.0041C21.7015 36.9435 22.1242 37.5542 23.0324 37.7734C23.2046 37.8204 23.3768 37.8517 23.5491 37.8986C24.9269 38.2901 25.8351 39.1669 26.1326 40.5604C26.2735 41.1867 26.2422 41.8444 26.2422 42.4863C26.2109 44.741 24.191 46.3538 21.9833 45.931C20.8403 45.7118 19.7129 45.4456 18.5543 45.2108C18.5073 45.383 18.476 45.5239 18.4447 45.6492C17.8967 48.0291 16.19 49.6419 13.7787 49.9393C12.9332 50.049 12.0564 49.9863 11.2109 49.9863C8.29854 49.9863 6.40397 48.1074 6.38831 45.1951C6.37265 43.8642 6.38831 42.5333 6.38831 41.2181C6.38831 39.1669 5.30793 38.0865 3.22547 38.0865C2.44259 38.0865 1.65971 38.1022 0.876827 38.0709C0.360123 38.0552 -3.8147e-06 37.7108 -3.8147e-06 37.241C-3.8147e-06 36.6773 0.281837 36.3016 0.767223 36.3016ZM41.3518 13.097C41.8372 13.097 42.3539 13.1126 42.8706 13.0813C42.9958 13.0813 43.1681 12.9561 43.215 12.8308C44.2484 10.3725 45.2662 7.9143 46.2839 5.45605C46.2996 5.42474 46.2839 5.37776 46.2683 5.28382C45.7516 5.28382 45.2349 5.26816 44.7182 5.29948C44.6086 5.29948 44.4363 5.42474 44.3894 5.53434C43.3559 8.00824 42.3225 10.4978 41.3048 12.9717C41.2891 12.9874 41.3048 13.003 41.3518 13.097ZM25.8507 24.1199C26.4614 23.6346 26.8372 23.0239 26.8685 22.2254C26.9311 20.7379 26.9937 19.2348 27.072 17.7003C26.1952 17.7003 25.1931 17.7003 24.1284 17.7003C23.8309 20.0959 23.5177 22.5072 23.2046 24.9811C24.238 24.9654 25.0992 24.7149 25.8507 24.1199ZM46.5501 27.502C46.5501 30.4143 46.5501 33.311 46.5501 36.2233C46.5501 37.0688 47.2234 37.5855 47.8184 37.1784C48.0689 37.0062 48.2724 36.5834 48.2881 36.2702C48.3351 34.7828 48.3038 33.311 48.3038 31.8235C48.3038 30.383 48.3038 28.9425 48.3038 27.4863C48.3038 26.7817 47.9906 26.3903 47.4582 26.3746C46.8946 26.359 46.5501 26.7817 46.5501 27.502ZM53.095 27.502C53.095 30.383 53.095 33.2796 53.095 36.1606C53.095 36.8966 53.4081 37.288 53.9875 37.288C54.5511 37.288 54.8486 36.8966 54.8486 36.145C54.8486 34.7045 54.8486 33.264 54.8486 31.8078C54.8486 30.3517 54.8486 28.9268 54.8486 27.4707C54.8486 26.7817 54.5355 26.3746 53.9875 26.3746C53.4395 26.3746 53.095 26.7817 53.095 27.502ZM43.2777 27.4707C43.2777 30.3986 43.2777 33.3266 43.2777 36.2389C43.2777 36.9279 43.6221 37.3037 44.1858 37.288C44.7182 37.2723 45.0313 36.9122 45.0313 36.2389C45.0313 34.7515 45.0313 33.2796 45.0313 31.7922C45.0313 30.3517 45.0313 28.9112 45.0313 27.4707C45.0313 26.7817 44.7025 26.3903 44.1701 26.3903C43.6221 26.3746 43.2777 26.7817 43.2777 27.4707ZM40.0052 35.9258C40.0052 36.098 40.0052 36.2859 40.0209 36.4581C40.0835 36.9905 40.4123 37.288 40.8977 37.288C41.3831 37.288 41.7119 36.9748 41.7432 36.4425C41.7745 36.1137 41.7589 35.7849 41.7589 35.4561C41.7589 34.2504 41.7589 33.0448 41.7589 31.8235C41.7589 30.4456 41.7589 29.0521 41.7589 27.6742C41.7589 27.502 41.7589 27.3141 41.7432 27.1419C41.6649 26.6721 41.3674 26.4059 40.9134 26.3903C40.4436 26.3746 40.1461 26.6408 40.0522 27.0949C40.0052 27.2984 40.0209 27.5176 40.0209 27.7368C40.0052 30.4769 40.0052 33.2014 40.0052 35.9258Z" fill="url(#paint0_linear_202_831)"/>
<defs>
<linearGradient id="paint0_linear_202_831" x1="49.3421" y1="42.8687" x2="16.2506" y2="4.54951" gradientUnits="userSpaceOnUse">
<stop stop-color="#AD2E59"/>
<stop offset="1" stop-color="#009AFD"/>
</linearGradient>
</defs>
</svg>
