<svg width="60" height="61" viewBox="0 0 60 61" fill="none" xmlns="http://www.w3.org/2000/svg">
<path d="M35.9937 14.9486C36.0094 16.9517 37.2457 18.2037 39.2488 18.2037C44.9139 18.2037 50.5634 18.1724 56.2285 18.2193C58.0908 18.235 59.4053 17.609 60 15.778C60 12.7263 60 9.69036 60 6.63871C59.5931 5.38676 58.8576 4.47909 57.4961 4.24435C57.23 4.1974 56.9484 4.1974 56.6823 4.1974C54.2254 4.1974 51.7684 4.1974 49.3114 4.1974C48.3725 4.1974 48.0908 3.96266 47.9969 3.02369C47.8404 1.52134 46.9484 0.660621 45.5869 0.206787C43.2081 0.206787 40.8294 0.206787 38.4351 0.206787C36.4789 1.02056 35.9937 1.75608 35.9937 3.90006C35.9937 5.77799 35.9937 7.65593 35.9937 9.51821C35.9937 9.72165 35.9937 9.94075 35.9937 10.1911C35.0704 10.1911 34.2097 10.1911 33.349 10.1911C31.2207 10.1911 30 11.4118 30 13.5245C30 18.501 30 23.4775 30 28.4541C30 28.6888 30 28.9079 30 29.127C28.6385 29.127 27.3396 29.127 26.025 29.127C26.0094 28.9861 26.0094 28.8922 26.0094 28.7983C26.0094 25.152 25.9937 21.49 25.9937 17.8437C25.9937 16.7639 25.5243 15.9345 24.7574 15.2459C23.7872 14.3852 22.6448 13.8375 21.4241 13.4619C16.0407 11.7874 10.5947 11.7717 5.16432 13.2741C3.72457 13.6653 2.36307 14.2443 1.23631 15.2616C0.516432 15.9188 0.0156495 16.6857 0.0156495 17.7029C0.0156495 25.7467 0.0156495 33.7905 0 41.8343C0 42.9454 0.375587 43.8688 1.28326 44.4478C2.26917 45.0581 3.30203 45.6528 4.41315 45.9971C9.43662 47.5151 14.5227 47.5307 19.6401 46.5448C21.4241 46.2005 23.1612 45.6684 24.6479 44.5573C25.5712 43.8688 26.0407 42.9924 26.025 41.803C25.9937 38.501 26.0094 35.199 26.0094 31.8969C26.0094 31.6935 26.0094 31.4744 26.0094 31.2553C27.3709 31.2553 28.6698 31.2553 30 31.2553C30 31.537 30 31.7561 30 31.9908C30 37.0143 30 42.0221 30 47.0456C30 48.9079 31.252 50.1755 33.1142 50.2068C33.9124 50.2224 34.7105 50.2068 35.5086 50.2068C35.6495 50.2068 35.8059 50.2381 35.9781 50.2537C35.9781 52.4916 35.9781 54.6982 35.9781 56.9048C35.9781 58.9548 37.2144 60.1911 39.2645 60.1911C45.0861 60.1911 50.9077 60.1911 56.7293 60.1911C57.0266 60.1911 57.3239 60.1755 57.6056 60.1129C58.9202 59.8312 59.6244 58.9392 60 57.7342C60 54.6825 60 51.6465 60 48.5949C59.9687 48.5479 59.9218 48.501 59.9061 48.454C59.374 46.9204 58.4194 46.2005 56.8075 46.2005C54.3662 46.1849 51.9249 46.2005 49.4836 46.2005C48.3255 46.2005 48.1221 46.0284 47.9812 44.9016C47.7778 43.321 46.6354 42.2412 45.0235 42.2099C43.0203 42.163 41.0016 42.163 38.9984 42.2099C37.23 42.2569 36.025 43.5401 36.0094 45.3085C35.9937 46.2475 36.0094 47.1864 36.0094 48.1567C34.9139 48.1567 33.8498 48.2037 32.7856 48.1411C32.2222 48.1098 32.0188 47.609 32.0188 47.0612C32.0188 46.0127 32.0188 44.9486 32.0188 43.9001C32.0188 39.9251 32.0188 35.9345 32.0188 31.9595C32.0188 31.7248 32.0188 31.5057 32.0188 31.2397C33.3646 31.2397 34.6479 31.2397 36.0094 31.2397C36.0094 31.4587 36.0094 31.6622 36.0094 31.8656C36.0094 33.2741 35.9937 34.6825 36.0094 36.0753C36.025 37.8907 37.2926 39.1896 39.108 39.1896C45.0391 39.2052 50.9703 39.2052 56.9014 39.1896C58.5446 39.1896 59.5149 38.2506 60 36.7483C60 33.6966 60 30.6606 60 27.609C59.9687 27.562 59.9218 27.5151 59.9061 27.4681C59.3897 25.9188 58.3881 25.1833 56.7606 25.1833C54.3036 25.1833 51.8466 25.1833 49.3897 25.1833C48.3412 25.1833 48.1221 24.9799 47.9969 23.9783C47.7778 22.2725 46.6041 21.2084 44.867 21.1927C42.9577 21.1771 41.0485 21.1771 39.1236 21.1927C37.277 21.2084 36.0094 22.4916 35.9937 24.3382C35.9781 25.731 35.9937 27.1082 35.9937 28.501C35.9937 28.7044 35.9937 28.9235 35.9937 29.1583C35.8216 29.1739 35.7121 29.2052 35.6025 29.2052C34.4288 29.2052 33.2707 29.2052 32.0031 29.2052C32.0031 28.9548 32.0031 28.7514 32.0031 28.5479C32.0031 23.5714 32.0031 18.5949 32.0031 13.6184C32.0031 12.5073 32.3161 12.2099 33.4429 12.2099C34.2723 12.2099 35.1174 12.2099 35.9937 12.2099C35.9937 13.1645 35.9937 14.0566 35.9937 14.9486ZM37.9969 3.61837C37.9969 2.52291 38.3099 2.20992 39.374 2.20992C41.1424 2.20992 42.9264 2.20992 44.6948 2.20992C45.6025 2.20992 45.9155 2.49161 46.0094 3.39928C46.1972 5.12072 47.3709 6.18488 49.0923 6.20053C51.6119 6.21618 54.1315 6.20053 56.651 6.20053C57.6526 6.20053 57.9969 6.52917 57.9969 7.53073C57.9969 9.98769 57.9969 12.4447 57.9969 14.9016C57.9969 15.8562 57.6526 16.2005 56.698 16.2162C53.7872 16.2162 50.8764 16.2162 47.9812 16.2162C45.133 16.2162 42.2848 16.2162 39.4366 16.2162C38.3099 16.2162 37.9969 15.9032 37.9969 14.8077C37.9969 11.0675 37.9969 7.34294 37.9969 3.61837ZM2.58216 16.7796C3.47418 16.1692 4.44444 15.6058 5.46166 15.2929C10.5477 13.7749 15.6495 13.7905 20.7199 15.3398C21.6119 15.6058 22.4883 16.091 23.2551 16.6231C24.2723 17.3273 24.241 18.0628 23.2551 18.8296C21.9875 19.7999 20.5008 20.3007 18.9515 20.5667C16.9797 20.911 14.9765 21.0988 12.989 21.3648C12.989 21.3179 12.9734 21.2553 12.9734 21.2084C10.0782 21.1771 7.19875 20.8954 4.49139 19.7843C3.80282 19.5026 3.12989 19.0957 2.55086 18.6262C1.79969 18.0002 1.76839 17.3273 2.58216 16.7796ZM2.00313 29.0174C5.50861 30.7858 9.23318 31.1771 13.0203 31.1771C16.7762 31.1771 20.4851 30.7858 24.0063 29.0174C24.0063 30.7389 24.0532 32.3821 23.975 34.0096C23.9593 34.3695 23.615 34.886 23.2707 35.0425C22.1596 35.5746 21.0172 36.1379 19.8122 36.4196C14.8983 37.5464 9.98435 37.5151 5.11737 36.1379C4.241 35.8875 3.41158 35.4024 2.58216 34.9642C2.14398 34.7295 1.95618 34.3226 1.97183 33.7905C2.01878 32.2412 2.00313 30.6606 2.00313 29.0174ZM23.2551 43.1019C22.1127 43.8375 20.8294 44.2444 19.4992 44.526C14.6635 45.4963 9.84351 45.512 5.08607 44.1192C4.22535 43.8688 3.41158 43.3993 2.61346 42.9767C2.17527 42.742 2.00313 42.3351 2.01878 41.803C2.05008 40.2381 2.03443 38.6888 2.03443 37.1708C9.38967 39.9251 16.6667 39.9251 24.0376 37.1708C24.0376 37.3742 24.0376 37.6716 24.0376 37.9689C24.0376 39.2209 24.0063 40.4728 24.0532 41.7091C24.0532 42.3821 23.7559 42.7733 23.2551 43.1019ZM23.2081 27.1238C22.0501 27.6246 20.892 28.2037 19.6714 28.4697C14.5853 29.5495 9.51487 29.5495 4.52269 27.9533C3.83412 27.7342 3.19249 27.3273 2.55086 26.9517C2.14398 26.717 1.97183 26.3257 1.98748 25.8093C2.01878 24.1505 2.00313 22.4916 2.00313 20.9267C9.37402 23.994 16.651 24.0096 24.0063 20.911C24.0063 21.1614 24.0063 21.49 24.0063 21.8343C24.0063 23.1019 23.9593 24.3695 24.0219 25.6371C24.0689 26.357 23.8028 26.8735 23.2081 27.1238ZM37.9969 45.4963C37.9969 44.5417 38.3412 44.1974 39.3114 44.1974C41.1268 44.1974 42.9421 44.1974 44.7574 44.1974C45.6182 44.1974 45.9311 44.4947 46.025 45.3085C46.2441 47.1708 47.3865 48.188 49.2801 48.2037C51.7371 48.2193 54.1941 48.2037 56.651 48.2037C57.6995 48.2037 58.0125 48.5166 58.0125 49.5652C58.0125 51.9908 58.0125 54.4008 58.0125 56.8265C58.0125 57.8907 57.6995 58.2037 56.6041 58.2037C53.7402 58.2037 50.8607 58.2037 47.9969 58.2037C45.1017 58.2037 42.2222 58.2037 39.3271 58.2037C38.3255 58.2037 37.9969 57.8594 37.9969 56.8578C37.9969 53.0706 37.9969 49.2835 37.9969 45.4963ZM39.4053 23.1958C41.1581 23.1958 42.9108 23.1958 44.6792 23.1958C45.6338 23.1958 45.9311 23.4775 46.0407 24.4165C46.2285 26.091 47.3865 27.1708 49.0923 27.1864C51.5649 27.2021 54.0532 27.1864 56.5258 27.1864C57.7308 27.1864 58.0282 27.4681 58.0282 28.6575C58.0282 31.0519 58.0282 33.4619 58.0282 35.8562C58.0282 36.8578 57.6839 37.2021 56.698 37.2021C53.7872 37.2021 50.8764 37.2021 47.9812 37.2021C45.133 37.2021 42.2848 37.2021 39.4366 37.2021C38.3568 37.2021 38.0282 36.8735 38.0282 35.8093C38.0282 32.0691 38.0282 28.3132 38.0282 24.573C37.9969 23.5088 38.3255 23.1958 39.4053 23.1958ZM40 9.15827C40.0313 8.64184 40.4695 8.20366 40.9859 8.20366C41.5336 8.20366 41.9718 8.65749 41.9718 9.22087C41.9718 9.78425 41.5336 10.2068 40.9703 10.1911C40.4225 10.1755 39.9844 9.70601 40 9.15827ZM40 13.1802C40.0157 12.6638 40.4538 12.2256 40.9703 12.2099C41.518 12.1943 41.9718 12.6325 41.9718 13.1958C41.9718 13.7592 41.5493 14.1974 40.9859 14.1974C40.4382 14.1817 40 13.7279 40 13.1802ZM40 30.2068C39.9844 29.6591 40.4382 29.2052 41.0016 29.2052C41.5649 29.2052 41.9875 29.6434 41.9875 30.2068C41.9875 30.7545 41.5649 31.1614 41.0329 31.1771C40.4851 31.1927 40.0157 30.7545 40 30.2068ZM41.9875 34.1974C41.9875 34.7608 41.5336 35.199 40.9859 35.199C40.4538 35.1833 39.9844 34.7138 40 34.1661C40.0157 33.634 40.4538 33.2271 40.9859 33.2115C41.5649 33.2115 41.9875 33.6184 41.9875 34.1974ZM40 55.199C40 54.6512 40.4538 54.1974 41.0016 54.2131C41.5649 54.2131 41.9875 54.6512 41.9718 55.2146C41.9562 55.7623 41.4867 56.2162 40.9546 56.1849C40.4538 56.1692 40.0157 55.7154 40 55.199ZM40 51.1301C40.0313 50.5824 40.5164 50.1755 41.0642 50.2068C41.6275 50.2381 42.0188 50.7076 41.9718 51.271C41.9249 51.7874 41.4711 52.2099 40.9546 52.1786C40.4069 52.163 39.9687 51.6622 40 51.1301ZM5.99374 25.2146C5.99374 25.7467 5.55556 26.1849 5.03912 26.2005C4.50704 26.2162 4.02191 25.7467 4.00626 25.2146C3.99061 24.6669 4.46009 24.213 5.00782 24.213C5.57121 24.213 6.00939 24.6512 5.99374 25.2146ZM4.00626 33.2115C4.00626 32.6794 4.47574 32.1943 5.00782 32.1943C5.53991 32.1943 5.97809 32.6168 5.99374 33.1489C6.00939 33.7123 5.6025 34.1661 5.03912 34.1818C4.49139 34.1974 4.02191 33.7436 4.00626 33.2115ZM5.99374 41.1927C5.99374 41.7561 5.55556 42.1786 4.99218 42.1786C4.46009 42.163 4.02191 41.7561 4.00626 41.224C3.99061 40.6919 4.46009 40.2068 4.99218 40.2068C5.53991 40.1911 5.99374 40.645 5.99374 41.1927Z" fill="url(#paint0_linear_202_827)"/>
<defs>
<linearGradient id="paint0_linear_202_827" x1="10.6579" y1="51.5092" x2="51.3057" y2="12.8245" gradientUnits="userSpaceOnUse">
<stop stop-color="#AD2E59"/>
<stop offset="1" stop-color="#009AFD"/>
</linearGradient>
</defs>
</svg>
