<svg width="60" height="53" viewBox="0 0 60 53" fill="none" xmlns="http://www.w3.org/2000/svg">
<path d="M59.987 18.6163C59.987 15.629 57.725 13.4015 54.7377 13.3843C53.2528 13.367 51.7678 13.3843 50.2828 13.3843C50.0755 13.3843 49.8683 13.3843 49.6611 13.3843C49.6611 10.3107 49.6611 7.34068 49.6611 4.35341C49.6439 2.24678 48.3833 0.968994 46.2767 0.968994C35.4155 0.968994 24.5543 0.968994 13.7103 0.968994C11.6382 0.968994 10.3605 2.24678 10.3432 4.30161C10.3432 7.08166 10.3432 9.86172 10.3432 12.6418C10.3432 12.8663 10.3432 13.108 10.3432 13.3843C8.63371 13.3843 7.01058 13.3843 5.37017 13.3843C2.2275 13.4015 0 15.6118 0 18.7544C0 24.8326 0 30.9107 0 36.9716C0 40.1143 2.2275 42.3245 5.38744 42.3245C8.16749 42.3245 10.9475 42.3245 13.7276 42.3245C13.9521 42.3245 14.1938 42.3245 14.4874 42.3245C14.4874 42.618 14.4874 42.8425 14.4874 43.0843C14.4874 45.7952 14.4874 48.5062 14.4874 51.2345C14.4874 52.3741 14.7982 52.6849 15.9551 52.6849C25.3313 52.6849 34.6903 52.6849 44.0665 52.6849C45.2061 52.6849 45.5169 52.3741 45.5169 51.2345C45.5169 48.299 45.5169 45.3808 45.5169 42.3418C45.8278 42.3418 46.0522 42.3418 46.2767 42.3418C49.0913 42.3418 51.9232 42.359 54.7377 42.3418C57.725 42.3245 59.9698 40.0797 59.987 37.1097C60.0043 30.9452 60.0043 24.7808 59.987 18.6163ZM12.4153 4.33614C12.4153 3.4037 12.7779 3.04109 13.7103 3.04109C17.82 3.04109 21.9296 3.04109 26.0565 3.04109C32.6527 3.04109 39.2316 3.04109 45.8278 3.04109C47.3991 3.04109 47.589 3.23103 47.589 4.8369C47.589 7.65149 47.589 10.4833 47.589 13.3325C35.8817 13.3325 24.1917 13.3325 12.4325 13.3325C12.4325 11.0186 12.4325 8.73934 12.4325 6.46004C12.4153 5.75207 12.4153 5.04411 12.4153 4.33614ZM14.4528 40.2351C13.7967 40.2351 13.1405 40.2351 12.4325 40.2351C12.4325 39.1645 12.398 38.094 12.4498 37.0234C12.4671 36.5226 12.847 36.2118 13.3477 36.16C13.7103 36.1255 14.073 36.16 14.4528 36.16C14.4528 37.5241 14.4528 38.8537 14.4528 40.2351ZM43.393 50.5783C34.4831 50.5783 25.5558 50.5783 16.5767 50.5783C16.5767 45.7607 16.5767 40.9949 16.5767 36.1773C25.5213 36.1773 34.4313 36.1773 43.393 36.1773C43.393 40.9431 43.393 45.7434 43.393 50.5783ZM47.5718 40.2697C46.8638 40.2697 46.2422 40.2697 45.5687 40.2697C45.5687 38.9228 45.5687 37.5759 45.5687 36.16C45.9141 36.16 46.2767 36.1255 46.6221 36.16C47.1919 36.2118 47.5545 36.5572 47.5718 37.127C47.589 38.1458 47.5718 39.1645 47.5718 40.2697ZM57.915 36.8334C57.915 39.0264 56.6717 40.2869 54.4787 40.2869C52.8901 40.2869 51.3015 40.2869 49.6439 40.2869C49.6439 39.2163 49.6439 38.2494 49.6439 37.2651C49.6266 35.4175 48.3143 34.0707 46.4667 34.0707C35.4846 34.0707 24.4852 34.0707 13.5031 34.0707C11.69 34.0707 10.3777 35.4002 10.3432 37.2133C10.3259 38.1976 10.3432 39.1991 10.3432 40.2179C10.1878 40.2351 10.0669 40.2697 9.94604 40.2697C8.35744 40.2697 6.75156 40.2869 5.16296 40.2697C3.41895 40.2524 2.07209 38.9228 2.07209 37.1961C2.05482 30.9625 2.05482 24.7462 2.07209 18.5127C2.07209 16.8205 3.41895 15.4909 5.11116 15.4564C5.81912 15.4391 6.52709 15.4564 7.25232 15.4564C22.9484 15.4564 38.6618 15.4564 54.3579 15.4564C56.689 15.4564 57.8977 16.6651 57.8977 18.9962C57.915 24.9362 57.915 30.8762 57.915 36.8334ZM46.5185 18.5645C45.4997 18.5472 44.4982 18.5645 43.4794 18.5645C42.4433 18.5645 41.4073 18.5472 40.3712 18.5645C38.61 18.5818 37.2286 19.9459 37.2286 21.6554C37.2286 23.3821 38.5927 24.7462 40.354 24.7635C42.3915 24.7808 44.4464 24.7808 46.4839 24.7635C48.2625 24.7462 49.6266 23.3821 49.6266 21.6726C49.6439 19.9459 48.2797 18.5818 46.5185 18.5645ZM46.4148 22.6914C45.3961 22.7087 44.3946 22.6914 43.3758 22.6914C42.4088 22.6914 41.4418 22.7087 40.4748 22.6914C39.7669 22.6742 39.3179 22.277 39.3007 21.6726C39.3007 21.0683 39.7496 20.6366 40.4576 20.6366C42.4433 20.6193 44.4291 20.6193 46.3976 20.6366C47.1055 20.6366 47.5545 21.051 47.5718 21.6554C47.5718 22.2597 47.1228 22.6742 46.4148 22.6914Z" fill="url(#paint0_linear_202_830)"/>
<defs>
<linearGradient id="paint0_linear_202_830" x1="10.6579" y1="45.1997" x2="45.575" y2="6.65596" gradientUnits="userSpaceOnUse">
<stop stop-color="#AD2E59"/>
<stop offset="1" stop-color="#009AFD"/>
</linearGradient>
</defs>
</svg>
