<svg width="60" height="48" viewBox="0 0 60 48" fill="none" xmlns="http://www.w3.org/2000/svg">
<path d="M57.022 35.1633C55.2371 37.0422 53.1391 38.0599 50.5244 37.9659C49.8669 37.9346 49.1936 37.9659 48.536 37.9659C47.6749 37.9659 47.2522 37.6528 47.2365 37.0422C47.2209 36.4159 47.6749 36.1028 48.5673 36.0871C49.6163 36.0714 50.681 36.1341 51.73 36.0088C52.4659 35.9149 53.2644 35.7113 53.875 35.3199C59.1983 31.9067 59.3862 25.3465 55.2998 21.7455C54.1725 20.7591 52.8573 20.1485 51.3856 19.851C50.3992 19.6475 50.2113 19.3657 50.4618 18.3949C51.6047 13.8858 48.8961 9.50188 44.3557 8.53116C42.5082 8.13974 40.7546 8.40591 39.0637 9.26703C38.2025 9.70542 37.9364 9.62714 37.4197 8.85995C34.257 4.02201 28.5893 1.51692 23.0624 2.53461C17.2538 3.61493 12.8542 7.90489 11.633 13.6979C11.3042 15.2949 11.2729 16.9075 11.5077 18.5358C11.633 19.3813 11.3355 19.7414 10.4744 19.7414C7.76576 19.7727 5.40159 20.5869 3.64803 22.7475C0.876779 26.1607 1.36214 31.0926 4.744 34.2709C6.04352 35.4921 7.57788 36.1028 9.36275 36.0871C10.0673 36.0871 10.7719 36.0714 11.4764 36.1028C12.0557 36.1184 12.4158 36.4942 12.4315 37.0108C12.4471 37.5275 12.1027 37.9659 11.5234 37.9503C10.2552 37.9503 8.95568 38.0599 7.73445 37.7937C3.77328 36.9795 1.56568 34.2553 0.360106 30.5603C0.187881 30.0436 0.125254 29.4956 0 28.9633C0 28.2587 0 27.5542 0 26.8496C0.125254 26.239 0.234852 25.6284 0.407076 25.0334C1.51871 21.1349 4.86926 18.348 8.90871 17.9409C9.09659 17.9252 9.28447 17.8939 9.58195 17.8469C9.58195 16.8449 9.50367 15.8429 9.59761 14.8565C10.2239 7.52913 16.1265 1.42298 23.4225 0.577516C29.56 -0.12704 34.5702 2.01794 38.3591 6.90286C38.6409 7.26296 38.8601 7.26296 39.2359 7.12205C45.9057 4.60131 52.9043 9.65845 52.5911 16.7823C52.5755 17.205 52.5128 17.6434 52.4659 18.0975C52.5598 18.1444 52.6538 18.2227 52.7634 18.254C59.7932 20.3207 62.6428 29.2764 57.022 35.1633ZM14.2477 24.2036C14.2477 22.4031 14.2477 20.6182 14.2477 18.8177C14.2477 17.5808 14.8113 17.0485 16.0482 17.0485C25.3327 17.0485 34.6328 17.0485 43.9173 17.0485C45.1855 17.0485 45.7335 17.5964 45.7335 18.8646C45.7335 20.6339 45.7335 22.4187 45.7335 24.1879C45.7335 25.5657 45.2481 26.0668 43.8703 26.0668C39.2516 26.0668 34.6171 26.0668 29.9984 26.0668C25.3796 26.0668 20.7452 26.0668 16.1265 26.0668C14.7487 26.0511 14.2633 25.5657 14.2477 24.2036ZM16.1735 24.1566C25.411 24.1566 34.5858 24.1566 43.8233 24.1566C43.8233 22.3874 43.8233 20.6808 43.8233 18.9586C34.5858 18.9586 25.3796 18.9586 16.1735 18.9586C16.1735 20.7121 16.1735 22.4187 16.1735 24.1566ZM45.7491 29.5269C45.7491 31.3274 45.7491 33.1123 45.7491 34.9128C45.7491 36.2437 45.2324 36.729 43.886 36.729C39.2672 36.729 34.6328 36.729 30.014 36.729C25.3953 36.729 20.7609 36.729 16.1421 36.729C14.7643 36.729 14.2633 36.2437 14.2633 34.8659C14.2633 33.0653 14.2633 31.2805 14.2633 29.4799C14.2633 28.2587 14.827 27.6951 16.0639 27.6951C25.3483 27.6951 34.6485 27.6951 43.9329 27.6951C45.2011 27.6951 45.7491 28.2431 45.7491 29.5269ZM43.839 29.6208C34.6015 29.6208 25.3953 29.6208 16.1735 29.6208C16.1735 31.3744 16.1735 33.081 16.1735 34.8189C25.411 34.8189 34.6171 34.8189 43.839 34.8189C43.839 33.081 43.839 31.3587 43.839 29.6208ZM45.7491 40.2048C45.7491 41.974 45.7491 43.7589 45.7491 45.5281C45.7491 46.9059 45.2481 47.407 43.886 47.407C39.2672 47.407 34.6328 47.407 30.014 47.407C25.411 47.407 20.8079 47.407 16.1891 47.407C14.733 47.407 14.2633 46.9372 14.2633 45.4812C14.2633 43.7276 14.2633 41.974 14.2633 40.2048C14.2633 38.921 14.8113 38.373 16.0639 38.373C25.3483 38.373 34.6485 38.373 43.9329 38.373C45.2011 38.373 45.7491 38.921 45.7491 40.2048ZM43.839 40.2988C34.6015 40.2988 25.3953 40.2988 16.1735 40.2988C16.1735 42.0523 16.1735 43.7589 16.1735 45.4968C25.411 45.4968 34.6171 45.4968 43.839 45.4968C43.839 43.7433 43.839 42.0367 43.839 40.2988ZM30.5933 20.6182C28.7458 20.6182 26.8827 20.6182 25.0352 20.6182C23.1407 20.6182 21.2463 20.6025 19.3518 20.6339C19.023 20.6339 18.6159 20.7435 18.428 20.9626C18.2402 21.1818 18.1932 21.6202 18.2715 21.9177C18.3967 22.3874 18.8508 22.497 19.3048 22.497C23.0624 22.497 26.8357 22.497 30.5933 22.497C31.3605 22.497 31.7989 22.1212 31.7833 21.5106C31.752 20.9313 31.3605 20.6339 30.5933 20.6182ZM35.6975 20.6182C34.9616 20.6182 34.5232 20.9626 34.5075 21.5263C34.4919 22.1212 34.9616 22.497 35.6975 22.497C36.449 22.497 36.9187 22.1212 36.903 21.5419C36.9187 20.947 36.4646 20.6182 35.6975 20.6182ZM39.2359 20.6182C38.4687 20.6182 38.0147 20.9626 38.0303 21.5576C38.0303 22.1369 38.4844 22.497 39.1889 22.497C39.9404 22.497 40.4102 22.1526 40.4258 21.5733C40.4415 20.9783 40.0031 20.6182 39.2359 20.6182ZM19.2892 33.1749C23.0468 33.1749 26.8201 33.1749 30.5777 33.1749C31.3449 33.1749 31.7833 32.7992 31.7676 32.1886C31.752 31.5936 31.3605 31.2961 30.5777 31.2961C28.7302 31.2961 26.867 31.2961 25.0195 31.2961C23.2503 31.2961 21.4654 31.2961 19.6962 31.2961C19.5553 31.2961 19.4301 31.2961 19.2892 31.2961C18.5846 31.3118 18.1775 31.6406 18.1619 32.2042C18.1462 32.7992 18.5689 33.1749 19.2892 33.1749ZM39.6273 33.1593C40.144 33.0497 40.4884 32.6113 40.4415 32.1103C40.3788 31.5779 39.9718 31.2961 39.2985 31.2961C38.3904 31.2961 37.8581 31.8441 38.1086 32.5487C38.2652 33.0653 38.8914 33.3002 39.6273 33.1593ZM35.7131 33.2689C36.0263 33.1436 36.4333 33.081 36.6212 32.8618C36.8091 32.6269 36.8874 32.1729 36.8247 31.8754C36.6838 31.3274 36.1828 31.2961 35.6818 31.2961C34.9616 31.3118 34.5232 31.6562 34.5232 32.2355C34.5075 32.7992 34.9616 33.1749 35.7131 33.2689ZM19.3361 43.8372C21.2149 43.8372 23.0781 43.8372 24.9569 43.8372C26.8514 43.8372 28.7458 43.8372 30.6403 43.8372C31.3762 43.8372 31.7833 43.4771 31.7833 42.8821C31.7833 42.3028 31.3762 41.974 30.6716 41.9584C26.8827 41.9584 23.0938 41.9584 19.3048 41.9584C18.5689 41.9584 18.1462 42.3028 18.1619 42.8978C18.1775 43.5084 18.6003 43.8372 19.3361 43.8372ZM35.6975 43.8372C36.355 43.8372 36.7934 43.6337 36.8247 43.164C36.8561 42.8352 36.6838 42.2402 36.496 42.1776C35.9949 42.0367 35.4 42.0367 34.899 42.1776C34.6954 42.2402 34.5232 42.8352 34.5702 43.1483C34.6641 43.7276 35.1651 43.8685 35.6975 43.8372ZM39.7056 43.8215C40.191 43.6963 40.5041 43.2736 40.4415 42.7725C40.3788 42.2402 39.9874 41.974 39.2829 41.9584C38.2025 41.8488 37.8894 42.6943 38.1243 43.2736C38.3121 43.7589 38.9854 43.9938 39.7056 43.8215Z" fill="url(#paint0_linear_202_829)"/>
<defs>
<linearGradient id="paint0_linear_202_829" x1="10.6579" y1="40.6101" x2="41.9211" y2="2.60491" gradientUnits="userSpaceOnUse">
<stop stop-color="#AD2E59"/>
<stop offset="1" stop-color="#009AFD"/>
</linearGradient>
</defs>
</svg>
