<svg width="60" height="55" viewBox="0 0 60 55" fill="none" xmlns="http://www.w3.org/2000/svg">
<path d="M59.9958 20.8367C59.9958 18.2286 58.5598 16.3175 56.1418 15.705C55.635 15.5783 55.0965 15.5783 54.5791 15.5467C54.0723 15.5255 53.5654 15.5361 52.9953 15.5361C52.9953 15.0821 52.9953 14.6808 52.9953 14.2796C52.9953 12.833 52.953 14.5541 53.0058 13.1075C53.1008 10.5312 51.2636 8.83118 49.2891 8.72559C49.2152 8.72559 49.1413 8.69391 49.004 8.65168C49.004 8.45106 49.0568 8.21876 48.9934 8.0287C48.8562 7.60634 48.7611 7.09952 48.476 6.79331C46.6493 4.8927 44.7699 3.04489 42.9009 1.18652C42.7214 1.00701 42.5208 0.85919 42.3307 0.700806C32.1203 0.711365 21.9309 0.711365 11.731 0.711365C11.1925 0.996456 11.0024 1.43993 11.0024 2.05235C11.0235 4.23805 11.013 6.42374 11.013 8.64112C10.8229 8.68335 10.6645 8.73615 10.4956 8.75727C8.53161 9.04236 7.11672 10.5312 7.0428 12.5162C6.97945 14.3113 7.02169 12.9386 7.01113 14.7336C7.01113 14.9659 7.01113 15.1982 7.01113 15.5361C6.41983 15.5361 5.87076 15.5361 5.31114 15.5361C3.5478 15.5255 2.02731 16.1168 1.01366 17.5951C0.549064 18.2814 0.337886 19.1367 0 19.9181C0 26.9925 0 30.8888 0 37.9633C0.327327 38.7446 0.549064 39.5999 1.01366 40.2862C2.0062 41.7434 3.50556 42.3558 5.25835 42.3347C5.81797 42.3347 6.37759 42.3347 7.01113 42.3347C7.01113 43.6334 7.02169 44.8582 7.01113 46.0831C7.00057 46.9595 7.16951 47.8042 7.67634 48.5327C8.36267 49.5253 9.29186 50.1483 10.5167 50.2855C10.6645 50.3066 10.8123 50.3383 11.013 50.3806C11.013 51.1936 11.013 51.9961 11.013 52.788C11.013 54.0656 11.2875 54.3402 12.544 54.3402C16.8415 54.3402 21.139 54.3402 25.4365 54.3402C32.7644 54.3402 40.0817 54.3402 47.4096 54.3402C48.7189 54.3402 48.9934 54.0656 48.9934 52.7669C48.9934 52.0278 48.9934 51.2781 48.9934 50.5389C48.9934 50.4967 49.004 50.465 49.0251 50.3594C49.3208 50.3067 49.6375 50.275 49.9543 50.1905C51.7915 49.6942 52.9425 48.216 52.9741 46.2837C52.9953 44.9955 52.9741 43.7073 52.9741 42.3241C53.576 42.3241 54.1567 42.3241 54.7375 42.3241C56.8809 42.3135 58.5281 41.416 59.4468 39.4626C59.7846 38.7341 59.9641 37.8471 59.9641 37.0341C60.0169 30.5931 59.9958 27.2987 59.9958 20.8367ZM49.0357 10.7846C50.0493 10.7318 50.9468 11.5026 50.9679 12.5796C51.0102 14.5858 50.9785 13.4243 50.9785 15.5044C50.3027 15.5044 49.6903 15.5044 49.0357 15.5044C49.0357 12.8647 49.0357 13.4032 49.0357 10.7846ZM43.0488 4.11134C43.5239 4.61817 43.8935 5.02997 44.2841 5.42065C44.6748 5.81133 45.0761 6.18089 45.4667 6.55045C45.4456 6.59269 45.4245 6.63492 45.4034 6.67716C44.6326 6.67716 43.8618 6.67716 43.0488 6.67716C43.0488 5.87468 43.0488 5.09332 43.0488 4.11134ZM13.0403 2.74924C22.3321 2.74924 31.624 2.74924 41.0003 2.74924C41.0003 4.11134 41.0003 5.43121 41.0003 6.75107C41.0003 7.00449 41.0003 7.2579 41.0003 7.51131C41.0214 8.33491 41.3593 8.68335 42.1829 8.69391C43.545 8.70447 44.9177 8.69391 46.2798 8.69391C46.491 8.69391 46.7021 8.69391 46.9556 8.69391C46.9556 12.0411 46.9556 12.1572 46.9556 15.4939C35.6575 15.4939 24.37 15.4939 13.0403 15.4939C13.0403 10.1933 13.0403 8.07094 13.0403 2.74924ZM9.049 12.4951C9.07012 11.4815 9.93595 10.7635 10.9813 10.7635C10.9813 13.3821 10.9813 12.8436 10.9813 15.5044C10.3372 15.5044 9.72477 15.5044 9.11235 15.5044C9.08068 15.4622 9.03844 15.4411 9.03844 15.4094C9.03844 13.3821 9.00677 14.5224 9.049 12.4951ZM10.9707 48.2477C9.96763 48.406 9.049 47.5508 9.02788 46.3682C9.00677 44.3409 9.01732 42.3135 9.01732 40.2862C9.01732 39.6632 9.01732 39.0508 9.01732 38.3751C9.72477 38.3751 10.3266 38.3751 10.9707 38.3751C10.9707 41.6694 10.9707 44.9638 10.9707 48.2477ZM10.9707 36.3161C10.3161 36.3161 9.70365 36.3161 9.049 36.3161C9.049 34.331 9.049 32.3776 9.049 30.382C9.6931 30.382 10.3055 30.382 10.9707 30.382C10.9707 32.3459 10.9707 34.2993 10.9707 36.3161ZM46.9661 52.3128C35.6786 52.3128 24.3806 52.3128 13.0297 52.3128C13.0297 44.9955 13.0297 37.7204 13.0297 30.4031C24.3489 30.4031 35.6364 30.4031 46.9661 30.4031C46.9661 37.6993 46.9661 44.9744 46.9661 52.3128ZM50.9891 46.2309C50.9785 47.4557 50.2499 48.2371 49.0462 48.311C49.0462 45.0166 49.0462 41.7328 49.0462 38.3751C49.6903 38.3751 50.3027 38.3751 50.9574 38.3751C50.9679 38.5018 50.9891 38.6179 50.9891 38.7235C50.9891 41.226 50.9996 43.7284 50.9891 46.2309ZM49.0357 36.3161C49.0357 34.3627 49.0357 32.4093 49.0357 30.382C49.6798 30.382 50.2922 30.382 50.9468 30.382C50.9468 32.367 50.9468 34.3204 50.9468 36.3161C50.3238 36.3161 49.7009 36.3161 49.0357 36.3161ZM57.9896 37.013C57.9896 39.1459 56.7754 40.339 54.6319 40.339C54.1039 40.339 53.5866 40.339 52.9741 40.339C52.9741 40.0434 52.9741 39.8322 52.9741 39.621C52.9741 36.3161 52.9741 33.0217 52.9741 29.7167C52.9741 28.682 52.6468 28.3546 51.6015 28.3546C37.1885 28.3546 22.7756 28.3546 8.36267 28.3546C7.3279 28.3546 7.00057 28.6714 7.00057 29.7273C7.00057 33.0111 7.00057 36.2844 7.00057 39.5682C7.00057 39.8005 7.00057 40.0328 7.00057 40.3707C6.05027 40.3285 5.1422 40.3918 4.28692 40.2229C2.91426 39.9589 2.03787 38.7869 1.99564 37.3403C1.97452 36.58 1.98508 35.8198 1.98508 35.0596C1.98508 29.2416 1.98508 26.5913 1.98508 20.7733C1.98508 19.1789 2.80867 18.028 4.21301 17.6584C4.56146 17.5634 4.94158 17.5529 5.31114 17.5529C21.7514 17.5529 38.2022 17.5423 54.6425 17.5529C56.7437 17.5529 57.958 18.7566 57.9685 20.8578C58.0002 27.2882 58.0002 30.572 57.9896 37.013ZM43.0276 19.5485C41.3593 19.5274 39.9867 20.8789 39.9867 22.5367C39.9972 24.1627 41.3593 25.5248 42.9854 25.5248C44.6115 25.5354 45.963 24.1839 45.9736 22.5472C45.9841 20.9 44.6854 19.5696 43.0276 19.5485ZM43.0065 23.5187C42.4786 23.5292 41.9929 23.0541 41.9929 22.5156C42.0034 21.9982 42.4363 21.5547 42.9643 21.5441C43.5239 21.5336 43.9674 21.977 43.9674 22.5367C43.9674 23.0646 43.5345 23.5081 43.0065 23.5187ZM51.0102 19.5485C49.363 19.5379 48.0326 20.8367 48.0009 22.4944C47.9692 24.1416 49.3524 25.5354 50.9996 25.5248C52.6257 25.5143 53.9772 24.1627 53.9772 22.5367C53.9878 20.9 52.6574 19.5591 51.0102 19.5485ZM50.9679 23.5187C50.44 23.5081 50.0176 23.0646 50.0176 22.5367C50.0176 21.9665 50.4506 21.5441 51.0102 21.5547C51.5487 21.5652 51.9605 21.977 51.9605 22.5261C51.971 23.0752 51.5065 23.5398 50.9679 23.5187ZM43.9357 39.3254C34.6544 39.3254 25.3731 39.3254 16.0496 39.3254C16.0496 38.6813 16.0496 38.0477 16.0496 37.3931C25.352 37.3931 34.6227 37.3931 43.9357 37.3931C43.9357 38.0266 43.9357 38.6602 43.9357 39.3254ZM27.0309 41.3949C32.6588 41.3949 38.2761 41.3949 43.9568 41.3949C43.9568 42.0496 43.9568 42.6725 43.9568 43.3166C38.3184 43.3166 32.701 43.3166 27.0309 43.3166C27.0309 42.6937 27.0309 42.0707 27.0309 41.3949ZM16.757 35.3658C16.5247 35.3658 16.303 35.3658 16.039 35.3658C16.039 34.69 16.039 34.067 16.039 33.4124C21.6775 33.4124 27.2948 33.4124 32.9544 33.4124C33.1339 35.3658 33.1339 35.3658 31.2755 35.3658C26.4396 35.3658 21.593 35.3658 16.757 35.3658ZM24.9507 43.3272C21.9837 43.3272 19.0272 43.3272 16.039 43.3272C16.039 42.6831 16.039 42.0707 16.039 41.4055C19.0061 41.4055 21.952 41.4055 24.9507 41.4055C24.9507 42.0285 24.9507 42.662 24.9507 43.3272ZM43.9463 35.3341C40.9581 35.3341 38.0227 35.3341 35.0451 35.3341C35.0451 34.69 35.0451 34.0776 35.0451 33.4124C38.0016 33.4124 40.9581 33.4124 43.9463 33.4124C43.9463 34.0353 43.9463 34.6583 43.9463 35.3341ZM36.0271 45.3967C38.6457 45.3967 41.2748 45.3967 43.9568 45.3967C43.9568 46.0408 43.9568 46.6638 43.9568 47.3079C41.3065 47.3079 38.6774 47.3079 36.0271 47.3079C36.0271 46.6744 36.0271 46.062 36.0271 45.3967Z" fill="url(#paint0_linear_202_828)"/>
<defs>
<linearGradient id="paint0_linear_202_828" x1="10.6579" y1="46.5766" x2="46.9801" y2="7.9195" gradientUnits="userSpaceOnUse">
<stop stop-color="#AD2E59"/>
<stop offset="1" stop-color="#009AFD"/>
</linearGradient>
</defs>
</svg>
