<svg width="19" height="21" viewBox="0 0 19 21" fill="none" xmlns="http://www.w3.org/2000/svg">
<path d="M3.02387 20.5635C2.65341 20.4487 2.26207 20.3756 1.91248 20.2191C0.759349 19.6921 -0.336389 18.3355 0.0966884 16.3892C0.508894 14.5474 0.848051 12.6898 1.21851 10.8427C1.302 10.4357 1.16634 10.0548 1.09329 9.66871C0.754131 7.94684 0.399321 6.23019 0.0653816 4.50309C-0.237251 2.94297 0.571508 1.46634 2.05858 0.834982C3.0604 0.412341 4.03091 0.490608 4.98055 1.01761C8.7478 3.12038 12.5255 5.21793 16.2927 7.31549C16.6945 7.53985 17.1171 7.75378 17.4667 8.04076C19.1834 9.44957 18.9799 12.2567 17.0597 13.3681C15.15 14.4743 13.2038 15.5283 11.2732 16.6032C9.20175 17.7563 7.12506 18.9042 5.0536 20.0626C4.62052 20.3026 4.17179 20.4643 3.69175 20.5583C3.46739 20.5635 3.24824 20.5635 3.02387 20.5635ZM5.18404 9.47044C5.72669 9.47044 6.26413 9.47044 6.80678 9.47044C7.46422 9.46522 7.95469 9.93482 7.95469 10.561C7.95469 11.1923 7.46944 11.6567 6.80678 11.6515C5.69539 11.6515 4.57878 11.6515 3.46739 11.6463C3.33694 11.6463 3.27955 11.6723 3.24824 11.8184C3.06562 12.7681 2.86734 13.7177 2.6795 14.6674C2.51253 15.5074 2.33512 16.3475 2.18903 17.1928C2.08989 17.7615 2.45513 18.2729 3.003 18.3877C3.33694 18.4555 3.62914 18.3407 3.91612 18.1842C7.79294 16.0292 11.6645 13.8743 15.5414 11.7193C15.7344 11.6097 15.9327 11.5106 16.1049 11.3749C16.6528 10.9471 16.6475 10.1696 16.1049 9.74176C15.9953 9.65306 15.8649 9.58001 15.7449 9.51218C11.842 7.34158 7.93904 5.17097 4.03091 3.00559C3.87959 2.9221 3.72306 2.8334 3.56131 2.776C2.97169 2.57251 2.36643 2.88036 2.22555 3.46475C2.17859 3.66825 2.17859 3.89783 2.22033 4.10132C2.55949 5.84407 2.9143 7.5816 3.25867 9.32434C3.28476 9.44957 3.33172 9.48087 3.45173 9.47566C4.02569 9.47044 4.60487 9.47044 5.18404 9.47044Z" fill="white"/>
</svg>
