<svg width="19" height="21" viewBox="0 0 19 21" fill="none" xmlns="http://www.w3.org/2000/svg">
<path fill-rule="evenodd" clip-rule="evenodd" d="M15.3752 6.31626C15.3752 9.34862 12.9066 11.8173 9.86899 11.8173C6.83141 11.8225 4.35751 9.35384 4.35229 6.32148C4.35229 3.27868 6.82097 0.799561 9.86377 0.799561C12.9013 0.799561 15.3752 3.27346 15.3752 6.31626ZM14.2009 6.3267C14.2061 3.93108 12.2698 1.9791 9.87943 1.97388C7.48381 1.96344 5.52661 3.91021 5.52661 6.31626C5.52661 8.70666 7.46815 10.6482 9.85855 10.6534C12.2489 10.6534 14.1957 8.7171 14.2009 6.3267ZM15.3909 12.6002C16.487 11.5198 18.2771 11.9269 18.7469 13.3674C18.9817 14.0824 18.8408 14.7453 18.3607 15.3246C18.2627 15.4383 18.1529 15.5461 18.0446 15.6524L18.0446 15.6524L18.0446 15.6524C18.0087 15.6877 17.973 15.7227 17.9379 15.7578L17.3069 16.3859C16.2531 17.4346 15.1981 18.4845 14.154 19.5417C13.4807 20.2202 12.6978 20.6639 11.7375 20.7735C11.7192 20.7735 11.7035 20.7812 11.6867 20.7893C11.6796 20.7928 11.6722 20.7964 11.6644 20.7996H1.30951C0.980697 20.6482 0.871094 20.3925 0.871094 20.0323C0.878922 18.6389 0.877944 17.2425 0.876966 15.8454C0.876639 15.3796 0.876313 14.9137 0.876313 14.4478C0.876313 13.9728 1.0903 13.7588 1.56525 13.7588C2.30116 13.7588 3.03706 13.7588 3.77297 13.7536C3.85126 13.7536 3.95043 13.7275 4.00262 13.6806C4.81681 12.9238 5.79802 12.7046 6.87318 12.7776C7.70825 12.835 8.45982 13.1117 9.06525 13.7171C9.11222 13.7588 9.20617 13.7693 9.27923 13.7693C9.43414 13.7704 9.58878 13.7721 9.74323 13.7738C10.2809 13.7797 10.8161 13.7855 11.3513 13.7693C12.1498 13.7484 12.8022 14.0094 13.2876 14.6931L13.3032 14.6789L13.3032 14.6789L13.3032 14.6789C13.3545 14.6323 13.4015 14.5896 13.4442 14.5469C14.0913 13.8945 14.7385 13.2421 15.3909 12.6002ZM2.06107 19.6148H3.60596V14.9436H2.06107V19.6148ZM15.9966 16.0301C16.4611 15.565 16.9255 15.1 17.3899 14.6357C17.7604 14.2651 17.7761 13.7484 17.4264 13.3987C17.0767 13.0543 16.5652 13.0699 16.1895 13.4457C15.3492 14.2808 14.5141 15.1211 13.679 15.9614C13.6321 16.0135 13.5851 16.0866 13.5694 16.1545C13.3398 17.167 12.5673 17.7881 11.5287 17.7933H9.30011C9.12864 17.7933 8.9566 17.7939 8.78418 17.7944L8.78302 17.7944H8.78291H8.78279C8.43608 17.7956 8.08783 17.7968 7.73957 17.7933C7.41076 17.7933 7.16546 17.5532 7.1498 17.2401C7.13936 16.9269 7.36379 16.6659 7.68738 16.6294C7.73819 16.6216 7.79192 16.6226 7.84639 16.6235C7.86466 16.6239 7.88301 16.6242 7.90136 16.6242H11.5548C11.9202 16.6242 12.1968 16.4624 12.3533 16.1336C12.6195 15.5803 12.2072 14.9488 11.5757 14.9436C10.678 14.9384 9.78028 14.9384 8.88258 14.9436C8.64249 14.9436 8.47026 14.8497 8.3189 14.6566C8.19886 14.5 8.03706 14.3695 7.87005 14.2599C7.54124 14.0459 7.16024 13.9676 6.77402 13.9415C6.1164 13.8998 5.49009 13.9937 4.94207 14.406C4.82725 14.4948 4.77506 14.5939 4.77506 14.7505C4.78289 15.917 4.78191 17.0835 4.78093 18.2499C4.78061 18.6388 4.78028 19.0276 4.78028 19.4165V19.6305H4.98905H11.2364C12.0037 19.6305 12.6613 19.3643 13.2041 18.8215C14.1367 17.8923 15.067 16.9608 15.9966 16.0301ZM8.4233 4.73484H11.3043C11.6279 4.73484 11.8888 4.47388 11.8888 4.15029C11.8888 3.8267 11.6279 3.56574 11.3043 3.56574H8.4233C8.0997 3.56574 7.83874 3.8267 7.83874 4.15029C7.83874 4.46866 8.0997 4.73484 8.4233 4.73484ZM9.27925 6.56678H8.4233C8.0997 6.56678 7.83874 6.3006 7.83874 5.98223C7.83874 5.65864 8.0997 5.39768 8.4233 5.39768H11.3043C11.6279 5.39768 11.8888 5.65864 11.8888 5.98223C11.8888 6.30582 11.6279 6.56678 11.3043 6.56678H10.4483V9.072C10.4483 9.39559 10.1874 9.65655 9.8638 9.65655C9.54021 9.65655 9.27925 9.39559 9.27925 9.072V6.56678Z" fill="#0072BA"/>
</svg>
