<svg width="21" height="21" viewBox="0 0 21 21" fill="none" xmlns="http://www.w3.org/2000/svg">
<path d="M20.0052 10.176C20.0052 10.5824 20.0052 10.9835 20.0052 11.3899C19.9531 11.7806 19.9166 12.1765 19.8489 12.5673C19.6041 13.9739 19.0727 15.2607 18.2704 16.4381C18.0203 16.808 17.5462 16.8913 17.1868 16.6465C16.8273 16.4016 16.7335 15.9432 16.9836 15.5628C17.5514 14.7085 17.9682 13.7916 18.2079 12.7965C19.2706 8.3891 16.671 3.94003 12.3001 2.68449C7.66346 1.35081 2.80281 4.26303 1.76088 8.99343C0.817921 13.2654 3.32899 17.5894 7.51237 18.8606C9.86715 19.5795 12.1282 19.3034 14.2693 18.0843C14.4934 17.9593 14.7174 17.8655 14.9726 17.9333C15.2904 18.0166 15.4988 18.225 15.5509 18.548C15.6082 18.897 15.4832 19.1784 15.181 19.3607C14.3423 19.8713 13.4514 20.262 12.4928 20.4808C11.9302 20.611 11.3519 20.6735 10.7841 20.7673C10.732 20.7777 10.6851 20.7882 10.633 20.7986C10.2162 20.7986 9.79943 20.7986 9.38265 20.7986C9.33056 20.7882 9.28367 20.7725 9.23157 20.7673C8.7627 20.6996 8.28862 20.6579 7.82495 20.5589C3.94374 19.7462 0.797083 16.4537 0.156291 12.5464C0.0937744 12.1765 0.0520969 11.8014 0 11.4264C0 11.0096 0 10.5928 0 10.176C0.0104194 10.1187 0.0260485 10.0614 0.0312581 10.0041C0.0989841 9.55607 0.140662 9.09762 0.234436 8.6548C1.04194 4.75795 4.33446 1.59567 8.25736 0.954875C8.62725 0.892358 9.00235 0.850681 9.37744 0.798584C9.79422 0.798584 10.211 0.798584 10.6278 0.798584C10.6799 0.809003 10.7268 0.824632 10.7788 0.829842C11.2946 0.907987 11.8104 0.954875 12.3157 1.0747C16.1709 1.95514 19.1977 5.17993 19.8541 9.07678C19.9166 9.44146 19.9531 9.81135 20.0052 10.176ZM7.29878 6.97207C7.56968 6.7741 7.69992 6.51361 7.63741 6.17498C7.52279 5.58629 6.87679 5.34143 6.37666 5.71132C4.66788 6.96686 3.81349 8.67043 3.73535 10.8481C3.75619 11.0929 3.77703 11.4055 3.8187 11.7129C4.32404 15.3232 7.93957 17.7509 11.4874 16.8653C15.5666 15.8546 17.5046 11.2492 15.379 7.62328C14.9258 6.84703 14.3266 6.20103 13.5921 5.69048C13.1076 5.35185 12.472 5.61234 12.3678 6.19061C12.2949 6.58134 12.5137 6.8262 12.8054 7.05542C14.2433 8.18592 14.8893 9.6759 14.634 11.4837C14.2641 14.1146 11.8208 15.8546 9.1951 15.417C6.1839 14.9168 4.44908 11.5931 5.75671 8.83193C6.10576 8.07652 6.62673 7.46178 7.29878 6.97207ZM10.7841 5.10179C10.7841 4.60687 10.4611 4.26303 10.0026 4.26303C9.54415 4.26303 9.22636 4.60687 9.22636 5.107C9.22636 6.2896 9.22636 7.47741 9.22636 8.66001C9.22636 9.14972 9.55978 9.50398 10.0078 9.50398C10.4611 9.50398 10.7841 9.14972 10.7841 8.6548C10.7841 8.06089 10.7841 7.4722 10.7841 6.87829C10.7841 6.2896 10.7841 5.69569 10.7841 5.10179Z" fill="#0072BA"/>
</svg>
