<svg width="24" height="21" viewBox="0 0 24 21" fill="none" xmlns="http://www.w3.org/2000/svg">
<path d="M0.889498 6.52C1.04659 6.35393 1.1992 6.18337 1.36078 6.02179C3.14716 4.22194 4.92906 2.42658 6.71544 0.626735C7.14633 0.19136 7.47847 0.19136 7.91384 0.631223C8.48836 1.20574 9.06287 1.77577 9.6329 2.35926C9.83937 2.57021 10.0728 2.66896 10.369 2.66447C11.6437 2.65998 12.9184 2.65998 14.1931 2.66447C14.4804 2.66447 14.7093 2.5747 14.9068 2.36375C15.4992 1.75332 16.1007 1.15637 16.7021 0.554921C17.0971 0.159941 17.4472 0.155453 17.8377 0.545944C19.7183 2.44005 21.599 4.32966 23.4751 6.22377C23.8342 6.58733 23.8297 6.9464 23.4706 7.31445C22.8782 7.91141 22.2902 8.51285 21.6887 9.10532C21.4733 9.31628 21.3611 9.54519 21.3521 9.85488C21.3342 10.6 21.1277 11.2912 20.7103 11.9151C20.6385 12.0228 20.6564 12.0946 20.7237 12.1933C21.3252 13.1269 21.1546 14.2266 20.3018 14.9402C20.0146 15.1781 19.6779 15.3173 19.3099 15.3622C19.1797 15.3756 19.1438 15.425 19.1259 15.5552C18.9912 16.4977 18.3269 17.1665 17.3889 17.3056C17.2542 17.3236 17.2138 17.3864 17.1914 17.5166C16.9939 18.6521 16.1456 19.3299 15.001 19.2671C14.6599 19.2491 14.3502 19.1279 14.0674 18.9394C13.9956 18.89 13.9238 18.8407 13.8475 18.7868C13.5468 19.303 13.1742 19.7249 12.6671 20.0032C11.6347 20.5687 10.3735 20.1513 9.8663 19.0875C9.83937 19.0292 9.80795 18.9708 9.77204 18.899C9.35013 19.0157 8.93271 19.0561 8.51529 18.917C7.72084 18.6566 7.24507 18.1135 7.09695 17.2966C7.06554 17.1351 7.02963 17.0453 6.83214 17.0229C6.04667 16.9376 5.32853 16.2419 5.17592 15.4474C5.15797 15.3442 5.14001 15.241 5.12655 15.1602C4.84378 15.0659 4.55203 15.0121 4.30068 14.8774C3.19205 14.2939 2.86439 12.9609 3.55112 11.9151C3.596 11.8477 3.62742 11.7221 3.59151 11.6637C3.30426 11.1655 3.20102 10.6224 3.17858 10.0569C3.15614 9.58109 2.94518 9.20407 2.61753 8.87641C2.12381 8.38269 1.6256 7.88448 1.13187 7.39075C1.0421 7.30098 0.965801 7.20224 0.88501 7.10798C0.889498 6.91049 0.889498 6.71749 0.889498 6.52ZM7.37075 1.9957C5.72799 3.60254 4.09422 5.20041 2.44697 6.81175C2.83746 7.19775 3.20551 7.5658 3.57805 7.93385C4.16154 8.50836 4.48471 9.19509 4.5251 10.0165C4.53857 10.2499 4.58345 10.4833 4.61936 10.775C5.17143 10.2184 5.78185 9.96261 6.5 10.0748C7.23161 10.1915 7.7388 10.6179 8.06196 11.2777C8.95964 10.8648 9.80346 10.9097 10.5081 11.6098C11.2308 12.328 11.2891 13.1898 10.8582 14.0964C11.5584 14.451 11.9803 14.9851 12.0746 15.7616C12.0791 15.811 12.1644 15.8873 12.2137 15.8918C12.8017 15.9546 13.2505 16.2733 13.65 16.6817C14.0001 17.0363 14.3457 17.3954 14.7093 17.741C14.9337 17.9564 15.2389 17.9879 15.4947 17.8532C15.7551 17.7141 15.9256 17.4223 15.8538 17.1261C15.8134 16.96 15.7147 16.7939 15.598 16.6683C15.2165 16.2598 14.8125 15.8738 14.422 15.4744C14.2021 15.2455 14.1617 14.9492 14.2963 14.6934C14.431 14.4331 14.7138 14.2804 15.0055 14.3523C15.1536 14.3882 15.3062 14.4824 15.4184 14.5901C15.8134 14.9672 16.1905 15.3577 16.572 15.7437C16.7425 15.9142 16.9445 16.0175 17.1959 15.9815C17.4696 15.9367 17.6626 15.7841 17.7524 15.5237C17.8467 15.2499 17.7928 14.9896 17.5863 14.7787C17.1959 14.3792 16.7964 13.9887 16.4104 13.5847C16.3071 13.477 16.2129 13.3334 16.177 13.1898C16.0962 12.898 16.2398 12.6108 16.4957 12.4671C16.7605 12.319 17.0612 12.3504 17.2991 12.5793C17.703 12.9743 18.098 13.3828 18.4975 13.7822C18.8117 14.0964 19.2246 14.1189 19.5119 13.8451C19.8081 13.5623 19.8126 13.1224 19.4984 12.8083C18.0262 11.3181 16.5495 9.83244 15.0728 8.35127C15.019 8.29741 14.9202 8.25253 14.8439 8.25701C14.1123 8.31087 13.4211 8.17622 12.7568 7.8755C12.6626 7.8351 12.5593 7.81715 12.4561 7.80817C12.097 7.78124 11.8726 8.00117 11.6482 8.24355C10.4902 9.48235 8.57364 9.64842 7.21814 8.63404C6.74237 8.27497 6.69749 7.92038 7.079 7.46257C7.9318 6.43921 8.78459 5.41586 9.64188 4.38801C9.7496 4.25785 9.85283 4.12769 9.96953 3.98855C9.81693 3.94815 9.68676 3.91673 9.56109 3.87634C9.15713 3.75066 8.85641 3.47238 8.56466 3.17615C8.15622 2.7677 7.73431 2.35926 7.37075 1.9957ZM17.2362 1.95081C16.8458 2.33233 16.4059 2.72731 16.0109 3.16268C15.4633 3.76861 14.799 4.03343 13.9866 4.0065C13.3628 3.98406 12.7344 4.0065 12.1105 4.02445C11.8277 4.03343 11.5988 4.12769 11.4058 4.37006C10.7146 5.23183 10.0009 6.06668 9.29627 6.91498C9.04492 7.21571 8.79357 7.52092 8.52875 7.83959C9.00004 8.00566 9.44439 7.9922 9.88425 7.84857C10.3062 7.71392 10.6069 7.41768 10.9031 7.10798C11.2173 6.78033 11.6033 6.59182 12.0477 6.50205C12.5952 6.39433 13.089 6.56489 13.5872 6.75789C14.2021 7.00026 14.8215 6.9868 15.4409 6.7534C16.0603 6.51551 16.4912 6.07565 16.8233 5.51011C17.0208 5.17348 17.4158 5.08372 17.7345 5.27672C18.0442 5.46074 18.1564 5.84674 17.9768 6.16991C17.6626 6.74891 17.2452 7.23366 16.6887 7.59722C16.5989 7.65557 16.5136 7.71841 16.4194 7.78124C17.528 8.86744 18.6142 9.93568 19.7004 10.9994C19.9338 10.6134 20.0056 10.1556 20.028 9.68433C20.0505 9.19958 20.2031 8.75972 20.5352 8.40513C20.993 7.9159 21.4688 7.44461 21.9401 6.96435C21.9984 6.90152 22.0613 6.83868 22.1466 6.74891C20.4948 5.13758 18.8655 3.54419 17.2362 1.95081ZM6.46409 14.8998C6.47755 15.2993 6.60323 15.5237 6.87253 15.6449C7.15082 15.7751 7.42012 15.7302 7.63556 15.5148C8.29087 14.8639 8.94617 14.2131 9.58353 13.5488C9.87078 13.2526 9.84834 12.8172 9.56109 12.5479C9.28729 12.2876 8.86987 12.2921 8.57813 12.5838C7.94526 13.2122 7.3124 13.8451 6.693 14.4914C6.57181 14.6216 6.51346 14.8146 6.46409 14.8998ZM6.89049 12.1844C6.87253 11.7849 6.73339 11.565 6.46409 11.4483C6.19479 11.3316 5.93446 11.372 5.71902 11.5784C5.38239 11.9061 5.05024 12.2337 4.72708 12.5793C4.45778 12.8666 4.47124 13.302 4.74054 13.5668C5.01434 13.8361 5.42727 13.8361 5.7235 13.5533C6.04667 13.2436 6.36535 12.9294 6.66607 12.5973C6.78725 12.4626 6.8456 12.2741 6.89049 12.1844ZM9.1706 17.6647C9.25139 17.6243 9.42643 17.5839 9.54313 17.4762C9.9022 17.144 10.2478 16.7895 10.5844 16.4304C10.8178 16.179 10.7999 15.7661 10.5665 15.5103C10.3331 15.2499 9.92016 15.1826 9.65983 15.416C9.26485 15.7751 8.88783 16.1611 8.52875 16.5561C8.34024 16.767 8.34473 17.0363 8.48387 17.2877C8.61403 17.5256 8.81601 17.6467 9.1706 17.6647ZM11.711 18.908C12.0387 18.9035 12.5548 18.4681 12.6491 18.1135C12.7882 17.6108 12.3843 17.1575 11.8681 17.2383C11.5898 17.2832 11.1006 17.741 11.0378 18.0148C10.93 18.4951 11.2487 18.917 11.711 18.908Z" fill="white"/>
</svg>
