<svg width="63" height="49" viewBox="0 0 63 49" fill="none" xmlns="http://www.w3.org/2000/svg">
<path d="M36.2502 40.7991C38.8502 39.3991 41.4002 37.2991 43.9002 34.4991C46.5002 31.5991 48.1502 28.8991 48.8502 26.3991C47.6502 26.6991 46.5002 26.8491 45.4002 26.8491C42.3002 26.8491 39.6002 25.6991 37.3002 23.3991C35.0002 21.0991 33.8502 18.1491 33.8502 14.5491C33.8502 10.7491 35.2002 7.49912 37.9002 4.79912C40.6002 2.09912 43.8502 0.749117 47.6502 0.749117C51.8502 0.749118 55.4502 2.34912 58.4502 5.54912C61.4502 8.64912 62.9502 12.8491 62.9502 18.1491C62.9502 24.1491 61.4502 29.7991 58.4502 35.0991C55.4502 40.2991 51.2502 44.7991 45.8502 48.5991L36.2502 40.7991ZM2.65019 40.4991C5.2502 39.2991 7.80019 37.2991 10.3002 34.4991C12.9002 31.5991 14.5502 28.8991 15.2502 26.3991C14.0502 26.6991 12.9002 26.8491 11.8002 26.8491C8.60019 26.8491 5.8502 25.6991 3.5502 23.3991C1.3502 21.1991 0.250193 18.2491 0.250194 14.5491C0.250194 10.7491 1.60019 7.49911 4.30019 4.79911C7.00019 2.09912 10.2002 0.749114 13.9002 0.749115C18.1002 0.749115 21.7002 2.34912 24.7002 5.54912C27.7002 8.64912 29.2002 12.8491 29.2002 18.1491C29.2002 24.1491 27.7002 29.7991 24.7002 35.0991C21.7002 40.2991 17.5002 44.7991 12.1002 48.5991L2.50019 40.7991L2.65019 40.4991Z" fill="white"/>
</svg>
