<svg width="63" height="49" viewBox="0 0 63 49" fill="none" xmlns="http://www.w3.org/2000/svg">
<path d="M26.9837 8.39912C24.3837 9.79912 21.8337 11.8991 19.3337 14.6991C16.7337 17.5991 15.0837 20.2991 14.3837 22.7991C15.5837 22.4991 16.7337 22.3491 17.8337 22.3491C20.9337 22.3491 23.6337 23.4991 25.9337 25.7991C28.2337 28.0991 29.3837 31.0491 29.3837 34.6491C29.3837 38.4491 28.0337 41.6991 25.3337 44.3991C22.6337 47.0991 19.3837 48.4491 15.5837 48.4491C11.3837 48.4491 7.78369 46.8491 4.78369 43.6491C1.78369 40.5491 0.283691 36.3491 0.283691 31.0491C0.283691 25.0491 1.78369 19.3991 4.78369 14.0991C7.78369 8.89912 11.9837 4.39912 17.3837 0.599121L26.9837 8.39912ZM60.5837 8.69912C57.9837 9.89912 55.4337 11.8991 52.9337 14.6991C50.3337 17.5991 48.6837 20.2991 47.9837 22.7991C49.1837 22.4991 50.3337 22.3491 51.4337 22.3491C54.6337 22.3491 57.3837 23.4991 59.6837 25.7991C61.8837 27.9991 62.9837 30.9491 62.9837 34.6491C62.9837 38.4491 61.6337 41.6991 58.9337 44.3991C56.2337 47.0991 53.0337 48.4491 49.3337 48.4491C45.1337 48.4491 41.5337 46.8491 38.5337 43.6491C35.5337 40.5491 34.0337 36.3491 34.0337 31.0491C34.0337 25.0491 35.5337 19.3991 38.5337 14.0991C41.5337 8.89912 45.7337 4.39912 51.1337 0.599121L60.7337 8.39912L60.5837 8.69912Z" fill="white"/>
</svg>
