<svg width="82" height="80" viewBox="0 0 82 80" fill="none" xmlns="http://www.w3.org/2000/svg">
<path d="M16.4901 27.1855C16.6409 28.5647 16.7702 29.9438 16.9857 31.323C17.5245 34.6632 17.8046 38.068 18.7097 41.3004C22.0714 53.325 29.5706 62.2249 40.1083 68.6898C40.7763 69.0992 41.3582 69.0777 41.9831 68.6467C43.7717 67.4184 45.6465 66.2762 47.3489 64.9186C55.7317 58.2814 61.4854 49.8555 63.8127 39.3609C64.6962 35.3958 64.9979 31.2799 65.5367 27.2501C65.6444 26.4959 65.2134 26.0434 64.5454 25.7848C63.08 25.2029 61.5931 24.6211 60.1493 24.0177C56.6583 22.5739 52.9733 21.4749 49.8918 19.1906C47.2196 17.2081 44.7414 14.9669 42.1986 12.8335C41.272 12.0578 40.7763 12.0362 39.8928 12.8335C38.7938 13.8248 37.6948 14.8161 36.6173 15.8074C33.7297 18.4795 30.4541 20.5698 26.8123 22.0567C23.7523 23.3066 20.6922 24.5349 17.6322 25.7632C16.9211 26.0434 16.4901 26.4097 16.4901 27.1855ZM19.8303 27.638C23.0627 26.3235 26.3166 25.0736 29.506 23.6514C33.6004 21.8628 36.9836 19.0398 40.216 16.0013C40.4531 15.7858 40.6901 15.5703 40.9703 15.3117C42.6942 16.7986 44.332 18.2856 46.0344 19.6647C49.3315 22.38 53.1888 24.0824 57.1324 25.6124C58.8563 26.2804 60.5803 26.97 62.2827 27.7027C62.4982 27.7889 62.7999 28.1337 62.7783 28.3492C62.175 34.7063 61.3992 40.9987 58.5977 46.8602C54.7619 54.8981 48.9867 61.169 41.4875 65.9099C41.2504 66.0607 40.7548 66.0392 40.4962 65.8883C29.6999 58.971 22.6317 49.4461 20.2612 36.7104C19.7656 34.0167 19.5717 31.2799 19.2053 28.5647C19.1622 28.0259 19.3777 27.832 19.8303 27.638ZM58.5546 73.2798C58.8779 73.8832 59.2442 74.5943 59.6321 75.3055C46.8102 82.5245 26.9631 82.2659 12.9775 68.5174C-1.39598 54.4025 -2.23641 33.1978 7.18071 18.6735C7.89184 19.126 8.55988 19.557 9.29256 20.0095C4.03449 28.694 2.31053 38.0033 4.42238 47.8945C5.93084 55.0705 9.22791 61.406 14.5722 66.4271C27.5881 78.6241 42.3279 80.3696 58.5546 73.2798ZM74.8029 61.2983C74.1134 60.8673 73.4238 60.4148 72.7342 59.9838C82.6254 43.9941 78.531 25.6339 68.726 14.7945C59.3951 4.4939 41.2073 -2.22953 23.5152 6.84279C23.1273 6.13166 22.761 5.39898 22.3731 4.68785C35.82 -2.85447 56.3997 -2.05714 70.2345 12.7042C83.7675 27.1639 83.7029 47.7868 74.8029 61.2983ZM11.5337 16.7555C13.9903 16.7771 16.4254 16.7771 18.8821 16.7555C19.8734 16.7555 20.3474 16.2599 20.369 15.2471C20.3905 14.0403 20.369 12.8335 20.369 11.6268C20.369 10.3985 20.3905 9.14859 20.369 7.92027C20.3474 6.92899 19.8734 6.4549 18.8605 6.43335C16.4039 6.4118 13.9688 6.4118 11.5122 6.43335C10.5209 6.43335 10.0468 6.92899 10.0252 7.94182C10.0252 10.3985 10.0037 12.8335 10.0252 15.2902C10.0252 16.2815 10.5209 16.7555 11.5337 16.7555ZM12.6543 9.06239C14.3351 9.06239 16.016 9.06239 17.7184 9.06239C17.7184 10.7432 17.7184 12.4026 17.7184 14.1481C16.016 14.1481 14.3567 14.1481 12.6543 14.1481C12.6543 12.4672 12.6543 10.7863 12.6543 9.06239ZM70.45 63.2378C69.2647 63.2162 68.0795 63.2378 66.8943 63.2378C65.666 63.2378 64.4161 63.2378 63.1878 63.2378C62.1319 63.2378 61.6578 63.7118 61.6578 64.7678C61.6578 67.1813 61.6578 69.6164 61.6578 72.0299C61.6578 73.0859 62.1319 73.56 63.1878 73.56C65.6013 73.56 68.0364 73.56 70.45 73.56C71.5059 73.56 71.98 73.0859 71.98 72.0299C71.98 69.6164 71.98 67.1813 71.98 64.7678C71.98 63.7118 71.5059 63.2378 70.45 63.2378ZM69.3725 70.9094C67.7132 70.9094 66.0323 70.9094 64.2868 70.9094C64.2868 69.207 64.2868 67.5477 64.2868 65.8452C65.9892 65.8452 67.6701 65.8452 69.3725 65.8452C69.3725 67.5477 69.3725 69.207 69.3725 70.9094ZM28.881 43.7786C28.6009 44.6621 28.2345 45.481 28.1268 46.3214C27.9975 47.2481 28.0837 48.1962 28.1052 49.1444C28.1699 51.2132 29.8077 52.8725 31.8764 52.894C37.9534 52.9156 44.0303 52.9156 50.1073 52.894C52.0036 52.894 53.6845 51.5148 53.8353 49.64C53.9862 47.679 54.3956 45.5887 52.9518 43.8648C54.331 41.8176 54.331 38.1326 53.0811 36.3009C53.3828 35.3743 53.7707 34.6201 53.8784 33.8227C54.0077 32.7884 53.9646 31.7324 53.9 30.6765C53.7922 28.694 52.1329 27.0993 50.1288 27.0993C44.0519 27.0777 37.9749 27.0777 31.898 27.0993C30.0016 27.0993 28.3207 28.4785 28.1699 30.3533C28.019 32.3143 27.5881 34.4046 28.9457 35.9777C27.7389 38.7576 27.6743 41.3219 28.881 43.7786ZM51.3356 48.5626C51.3356 49.8986 50.9261 50.3081 49.6116 50.3081C46.724 50.3081 43.8579 50.3081 40.9703 50.3081C38.0827 50.3081 35.2166 50.3081 32.3289 50.3081C31.1006 50.3081 30.6696 49.8771 30.6696 48.6703C30.6696 47.9807 30.6481 47.2696 30.6696 46.58C30.6912 45.6749 31.1653 45.1578 32.0704 45.1578C38.018 45.1362 43.9657 45.1362 49.8918 45.1578C50.8399 45.1578 51.2925 45.6534 51.314 46.6231C51.3356 47.2911 51.3356 47.9161 51.3356 48.5626ZM30.6912 31.3014C30.6912 30.1378 31.1437 29.6852 32.2858 29.6852C35.195 29.6852 38.1042 29.6852 40.9918 29.6852C43.8795 29.6852 46.7455 29.6852 49.6332 29.6852C50.9046 29.6852 51.3356 30.1162 51.3356 31.3661C51.3356 31.9479 51.3356 32.5513 51.3356 33.1331C51.3356 34.4046 50.9046 34.8356 49.6547 34.8356C44.4182 34.8356 39.1601 34.8356 33.9236 34.8356C33.3418 34.8356 32.7384 34.8571 32.1565 34.8356C31.2084 34.814 30.7127 34.3399 30.6912 33.3917C30.6696 32.6806 30.6696 31.991 30.6912 31.3014ZM30.6912 38.9515C30.7127 37.8956 31.1653 37.4215 32.2212 37.4215C35.1735 37.4215 38.1473 37.4215 41.0996 37.4215C43.9441 37.4215 46.8102 37.4215 49.6547 37.4215C50.9261 37.4215 51.3356 37.8525 51.3571 39.1239C51.3571 39.8135 51.3787 40.5246 51.3571 41.2142C51.3356 42.0762 50.8399 42.5718 49.9995 42.5718C44.0303 42.5934 38.0611 42.5934 32.0919 42.5718C31.2299 42.5718 30.7558 42.0546 30.7343 41.2142C30.6696 40.46 30.6696 39.7057 30.6912 38.9515ZM49.9995 33.4995C46.5947 33.4995 43.2114 33.4995 39.7851 33.4995C39.7851 32.7022 39.7851 31.8833 39.7851 31.0213C43.1683 31.0213 46.5516 31.0213 49.9995 31.0213C49.9995 31.8617 49.9995 32.6591 49.9995 33.4995ZM34.5054 33.4995C33.6866 33.4995 32.8892 33.4995 32.0057 33.4995C32.0057 32.6591 32.0057 31.8617 32.0057 31.0213C32.8246 31.0213 33.6435 31.0213 34.5054 31.0213C34.5054 31.8402 34.5054 32.6375 34.5054 33.4995ZM49.9995 41.2573C46.5947 41.2573 43.2114 41.2573 39.7851 41.2573C39.7851 40.46 39.7851 39.6411 39.7851 38.7791C43.1683 38.7791 46.5516 38.7791 49.9995 38.7791C49.9995 39.6195 49.9995 40.4169 49.9995 41.2573ZM34.4839 41.2357C33.6866 41.2357 32.8677 41.2357 32.0057 41.2357C32.0057 40.3738 32.0057 39.5764 32.0057 38.7576C32.8246 38.7576 33.6219 38.7576 34.4839 38.7576C34.4839 39.5549 34.4839 40.3522 34.4839 41.2357ZM39.7851 46.5154C43.1468 46.5154 46.5516 46.5154 49.9995 46.5154C49.9995 47.3558 49.9995 48.1531 49.9995 48.9936C46.5947 48.9936 43.2114 48.9936 39.7851 48.9936C39.7851 48.1962 39.7851 47.3773 39.7851 46.5154ZM32.0057 46.5154C32.8246 46.5154 33.6435 46.5154 34.5054 46.5154C34.5054 47.3342 34.5054 48.1531 34.5054 48.9936C33.6866 48.9936 32.8892 48.9936 32.0057 48.9936C32.0057 48.1531 32.0057 47.3558 32.0057 46.5154Z" fill="#9ADDFF"/>
</svg>
