<svg width="53" height="80" viewBox="0 0 53 80" fill="none" xmlns="http://www.w3.org/2000/svg">
<path fill-rule="evenodd" clip-rule="evenodd" d="M17.1383 79.8253C17.6518 79.8816 18.1658 79.938 18.6799 80H18.6809C20.4964 80 22.3118 80 24.1273 79.9582C24.2118 79.9452 24.2984 79.9302 24.3857 79.915C24.5787 79.8815 24.7754 79.8474 24.9622 79.833C28.5938 79.5826 32.1419 78.9147 35.544 77.6207C42.0976 75.1578 47.1693 71.0044 50.1539 64.5552C52.4498 59.6295 53.0133 54.4117 52.4289 49.0686C51.4479 39.9478 46.6475 33.7908 37.9442 30.7644C33.4777 29.2199 28.8442 28.8651 24.1691 28.9069C22.9871 28.9208 21.8144 28.9161 20.6387 28.9115C20.0497 28.9092 19.4599 28.9069 18.8677 28.9069V16.2588H19.8487C27.8215 16.2588 35.7735 16.2588 43.7464 16.2797C45.4996 16.2797 46.6058 15.4866 47.2528 13.9421L47.2635 13.9164C47.4693 13.4226 47.6915 12.8896 47.712 12.3767C47.8163 9.95565 47.9207 7.5137 47.9207 5.07174C47.9207 4.32037 47.712 3.52726 47.4615 2.79676C46.8145 0.813984 45.6248 0 43.5586 0H8.80772C8.47378 0 8.13984 0 7.78502 0.0417428C5.21784 0.187842 3.61075 1.58622 3.17245 4.09079C3.02635 4.82129 3.00548 5.59353 3.00548 6.3449V38.3616C3.00548 38.8834 3.00548 39.4052 3.04722 39.9269C3.25593 42.7446 4.82129 44.2264 7.6598 44.2264C8.64075 44.2264 9.64258 44.1847 10.6235 44.1012C11.3573 44.0448 12.088 43.9728 12.8179 43.9008C13.9774 43.7865 15.135 43.6724 16.3005 43.6212C19.7235 43.4751 23.1255 43.496 26.4649 44.3725C27.425 44.623 28.1764 44.1012 28.3851 43.2455C28.5729 42.3898 28.1346 41.6801 27.1745 41.3671C27.0493 41.3253 26.9241 41.2836 26.7988 41.2627C22.3741 40.1983 17.9076 40.3444 13.4412 40.7201C11.4793 40.887 9.51735 41.0123 7.53457 41.0957C6.57448 41.1375 6.32403 40.887 6.1988 39.9478C6.13619 39.5304 6.13618 39.113 6.13618 38.6955V6.0527C6.13618 5.63527 6.13619 5.21784 6.1988 4.80042C6.36577 3.63162 6.80407 3.23506 7.99374 3.15158C8.24419 3.13071 8.47378 3.13071 8.70336 3.13071H43.3707C44.143 3.13071 44.4769 3.42291 44.6021 4.09079C45.103 6.80407 45.103 9.51735 44.5604 12.2306C44.4352 12.8985 44.1012 13.1698 43.329 13.1698C36.9104 13.1385 30.4801 13.1424 24.0556 13.1464C21.915 13.1477 19.775 13.149 17.6363 13.149C16.2379 13.149 15.6953 13.6708 15.6953 15.0691V30.5348C15.6953 31.8915 16.3005 32.455 17.6154 32.3715C18.1288 32.345 18.6422 32.3071 19.1572 32.2692C19.8565 32.2177 20.5588 32.166 21.2679 32.1419C26.2145 31.9332 31.161 31.9958 35.9614 33.4359C40.6574 34.8552 44.5604 37.3598 47.0023 41.7636C48.8181 45.0404 49.4234 48.5886 49.4652 52.2828C49.5069 57.3128 48.4633 62.0506 45.604 66.2666C42.2019 71.2757 37.2971 74.0725 31.5784 75.617C26.2771 77.0571 20.8922 77.1824 15.4657 76.4936C11.8341 76.0344 8.24419 75.2413 4.86303 73.7386C3.92382 73.342 3.36029 72.695 3.33942 71.6932C3.27681 69.5017 3.23506 67.3311 3.23506 65.1396C3.23506 64.768 3.33291 64.3867 3.42811 64.0156C3.47195 63.8448 3.51523 63.6761 3.54813 63.5116C3.607 63.5116 3.65231 63.5082 3.68816 63.5055C3.7413 63.5016 3.77367 63.4991 3.79859 63.5116C4.13253 63.6577 4.46647 63.8247 4.77955 63.9916C11.2705 67.3728 18.1372 68.4581 25.3587 67.1641C32.3715 65.9118 36.6084 60.6105 36.3371 53.5142C36.3162 52.5333 35.7109 51.8862 34.8343 51.8654C33.9577 51.8445 33.3107 52.4706 33.2272 53.4307C33.2022 53.7059 33.1997 53.9735 33.1972 54.2382C33.1955 54.4152 33.1939 54.5908 33.1855 54.7665C32.9768 59.4834 30.2009 62.8855 25.5883 63.9082C19.7235 65.2022 14.0047 64.6178 8.47378 62.2802C7.86851 62.0193 7.27367 61.7271 6.67884 61.4349C6.08401 61.1427 5.48917 60.8505 4.8839 60.5896C3.04722 59.7965 1.48187 60.4853 0.709627 62.3428L0.709611 62.3428C0.584388 62.6559 0.459168 62.969 0.396556 63.3029C-0.1461 66.4127 -0.104357 69.5226 0.354813 72.6324C0.626141 74.4482 1.66971 75.6796 3.33942 76.4519C6.57448 77.9755 9.99739 78.7895 13.5038 79.353C14.7074 79.5585 15.9213 79.6917 17.1383 79.8253ZM32.8307 48.2338C33.6864 48.2129 34.3543 47.5241 34.3543 46.6684C34.3543 45.8127 33.6864 45.1448 32.8307 45.1239C31.975 45.1031 31.2862 45.7709 31.2653 46.6267C31.2445 47.5033 31.975 48.2546 32.8307 48.2338Z" fill="#9ADDFF"/>
</svg>
