<svg width="82" height="80" viewBox="0 0 82 80" fill="none" xmlns="http://www.w3.org/2000/svg">
<path d="M45.0374 72.0082C44.7703 71.986 44.4809 72.0082 44.2137 72.0082C32.1927 72.0082 20.1493 72.0082 8.12828 72.0082C5.25658 72.0082 3.65377 70.3831 3.65377 67.5115C3.65377 54.1992 3.65377 40.9093 3.65377 27.5971C3.65377 27.3077 3.65377 27.0183 3.65377 26.7289C28.6086 26.7289 53.4299 26.7289 78.3402 26.7289C78.3402 27.0851 78.3402 27.419 78.3402 27.7529C78.3402 34.8542 78.3402 41.9778 78.3402 49.0792C78.3402 50.0587 78.8522 50.6597 79.6536 50.682C80.455 50.7042 81.0115 50.1032 81.0115 49.1237C81.0115 37.5924 81.0338 26.061 80.9893 14.552C80.9893 11.3909 78.6964 8.60824 75.5798 8.20754C73.3092 7.91814 70.9717 8.07397 68.6788 8.02945C68.3672 8.02945 68.0332 8.02945 67.6771 8.02945C67.6771 7.07222 67.7216 6.24855 67.6548 5.42488C67.6103 4.75705 67.5212 4.08921 67.2986 3.4659C66.4527 1.12847 63.9817 -0.318513 61.5997 0.0599281C59.0174 0.46063 57.103 2.55319 57.0139 5.11323C56.9694 6.07046 57.0139 7.02769 57.0139 7.96266C53.3854 7.96266 49.8903 7.96266 46.3285 7.96266C46.3285 7.139 46.3285 6.38212 46.3285 5.60297C46.3063 2.3751 44.0134 -0.00685554 40.9636 0.0154057C37.9583 0.0376669 35.6877 2.41962 35.6654 5.58071C35.6654 6.38212 35.6654 7.16126 35.6654 7.9404C32.0368 7.9404 28.5418 7.9404 25.0023 7.9404C25.0023 7.00543 25.0245 6.1595 25.0023 5.29132C24.9355 2.33057 22.5758 0.0154057 19.6596 0.0154057C16.7434 0.0154057 14.3837 2.35283 14.3169 5.29132C14.2946 6.1595 14.3169 7.00543 14.3169 8.00719C12.1576 8.00719 10.0873 8.00719 7.99471 8.00719C3.83186 8.00719 0.982422 10.8344 0.982422 15.0195C0.982422 32.5613 0.982422 50.1254 0.982422 67.6673C0.982422 71.8301 3.83186 74.6573 8.01697 74.6573C20.1493 74.6573 32.304 74.6573 44.4363 74.6573C44.6367 74.6573 44.837 74.6573 45.0151 74.6573C45.7943 74.5905 46.3285 74.034 46.3063 73.2994C46.3063 72.6093 45.7943 72.075 45.0374 72.0082ZM59.663 5.51393C59.6853 3.8666 60.7761 2.68675 62.3121 2.68675C63.8259 2.66449 64.9835 3.8666 65.0057 5.46941C65.028 8.05171 65.028 10.634 65.0057 13.2163C65.0057 14.8414 63.8481 16.0212 62.3344 15.999C60.8206 15.999 59.7075 14.7969 59.6853 13.1718C59.6853 11.9029 59.6853 10.6118 59.6853 9.34286C59.663 8.05171 59.663 6.78282 59.663 5.51393ZM38.3368 5.44715C38.3368 3.82208 39.4943 2.64223 41.0304 2.66449C42.4996 2.68675 43.6572 3.84434 43.6572 5.42488C43.6795 6.7383 43.6572 8.02945 43.6572 9.34286C43.6572 10.6118 43.6572 11.9029 43.6572 13.1718C43.6349 14.7969 42.5219 15.999 41.0081 15.999C39.4944 15.999 38.3368 14.8191 38.3368 13.1941C38.3145 10.6118 38.3145 8.02945 38.3368 5.44715ZM16.9882 5.46941C17.0105 3.84434 18.1458 2.66449 19.6819 2.66449C21.1956 2.66449 22.3087 3.8666 22.3309 5.49167C22.3532 6.80508 22.3309 8.09623 22.3309 9.40964C22.3309 10.6563 22.3309 11.9029 22.3309 13.1495C22.3087 14.7746 21.1956 15.9767 19.6819 15.9767C18.1681 15.9767 17.0105 14.7969 17.0105 13.1941C16.966 10.634 16.966 8.05171 16.9882 5.46941ZM3.65377 21.6978C3.65377 19.3827 3.63151 17.0898 3.65377 14.7746C3.67603 12.3927 5.36788 10.6785 7.74984 10.6563C9.86465 10.634 11.9795 10.6563 14.0943 10.6563C14.1388 10.6563 14.1833 10.7008 14.3392 10.7453C14.3392 11.569 14.3392 12.4149 14.3392 13.2608C14.3837 16.2884 16.7211 18.6258 19.6819 18.6258C22.6426 18.6258 24.9578 16.2884 25.0023 13.2608C25.0245 12.4372 25.0023 11.5912 25.0023 10.6785C28.5863 10.6785 32.0814 10.6785 35.6654 10.6785C35.6654 11.4799 35.6654 12.2813 35.6654 13.0827C35.6877 16.2438 37.9583 18.6258 40.9636 18.6481C44.0134 18.6703 46.3063 16.2661 46.3285 13.0605C46.3285 12.2813 46.3285 11.5245 46.3285 10.7008C49.8903 10.7008 53.3854 10.7008 56.9917 10.7008C56.9917 11.6135 56.9694 12.5485 56.9917 13.4834C57.0585 16.0212 58.8616 18.0915 61.4439 18.5813C63.7813 19.0265 66.2523 17.7131 67.1873 15.4424C67.4545 14.7746 67.5658 13.9955 67.6325 13.2608C67.6993 12.4372 67.6548 11.6135 67.6548 10.6563C68.7233 10.6563 69.7474 10.6563 70.7491 10.6563C71.9735 10.6563 73.1978 10.634 74.4222 10.6563C76.4702 10.7008 78.2289 12.2813 78.2957 14.3071C78.3847 17.4905 78.3179 20.6961 78.3179 23.924C53.4299 23.924 28.5863 23.924 3.65377 23.924C3.65377 23.1893 3.65377 22.4547 3.65377 21.6978ZM63.6923 45.3393C54.1422 45.3615 46.3063 53.1084 46.3285 62.5472C46.3285 72.2531 54.0532 80 63.7146 80C73.2424 80 80.9893 72.2086 81.0115 62.614C80.9893 53.1307 73.1756 45.317 63.6923 45.3393ZM63.6923 77.3287C55.567 77.3287 48.9776 70.7393 48.9999 62.6585C49.0222 54.5109 55.567 47.9884 63.7591 47.9884C71.7954 47.9884 78.3625 54.6445 78.3402 62.7698C78.2957 70.7616 71.6841 77.3509 63.6923 77.3287ZM14.3169 42.6679C15.2073 42.6902 16.0978 42.6679 16.9882 42.6679C17.8787 42.6679 18.7691 42.6902 19.6596 42.6679C21.1734 42.6234 22.2864 41.5326 22.3309 40.0411C22.3532 38.6832 22.3532 37.3252 22.3309 35.9673C22.2864 34.4981 21.1734 33.385 19.7264 33.3627C17.9232 33.3405 16.1201 33.3405 14.3169 33.3627C12.8031 33.385 11.7123 34.5203 11.6901 36.0341C11.6678 37.3697 11.6678 38.7054 11.6901 40.0411C11.6901 41.5103 12.8031 42.6234 14.3169 42.6679ZM14.3614 36.0563C16.0755 36.0563 17.8119 36.0563 19.5928 36.0563C19.5928 37.3252 19.5928 38.6164 19.5928 39.9521C17.8119 39.9521 16.0978 39.9521 14.3614 39.9521C14.3614 38.6609 14.3614 37.392 14.3614 36.0563ZM30.3005 42.6679C31.1909 42.6902 32.0814 42.6679 32.9718 42.6679C33.84 42.6679 34.6859 42.6902 35.5541 42.6679C37.1792 42.6457 38.2922 41.5549 38.3145 39.9521C38.3368 38.6386 38.3368 37.3475 38.3145 36.0341C38.2922 34.4758 37.1792 33.3627 35.6209 33.3405C33.8623 33.3182 32.1259 33.3182 30.3672 33.3405C28.809 33.3627 27.6736 34.4535 27.6514 36.0118C27.6291 37.3475 27.6291 38.6832 27.6514 40.0188C27.6959 41.5103 28.809 42.6234 30.3005 42.6679ZM30.3895 36.0563C32.1036 36.0563 33.8177 36.0563 35.6209 36.0563C35.6209 37.3697 35.6209 38.6386 35.6209 39.9521C33.8845 39.9521 32.1704 39.9521 30.3895 39.9521C30.3895 38.6832 30.3895 37.4143 30.3895 36.0563ZM54.3203 40.0634C54.3648 38.7054 54.3426 37.3475 54.3203 35.9896C54.2981 34.4981 53.1627 33.385 51.649 33.3405C50.7585 33.3182 49.8681 33.3405 48.9776 33.3405C48.0649 33.3405 47.1522 33.3182 46.2395 33.3405C44.8148 33.385 43.7017 34.4758 43.6795 35.9005C43.6349 37.2807 43.6349 38.6832 43.6795 40.0634C43.724 41.5103 44.837 42.6234 46.3063 42.6679C48.1094 42.6902 49.9126 42.6902 51.7158 42.6679C53.1627 42.6457 54.2758 41.5326 54.3203 40.0634ZM51.6045 39.9743C49.8458 39.9743 48.1317 39.9743 46.3731 39.9743C46.3731 38.6832 46.3731 37.4143 46.3731 36.0786C48.0872 36.0786 49.8236 36.0786 51.6045 36.0786C51.6045 37.3252 51.6045 38.6164 51.6045 39.9743ZM67.6771 33.3405C65.8962 33.3182 64.1153 33.3182 62.3344 33.3405C60.7761 33.3627 59.6853 34.4758 59.663 36.0341C59.6408 37.3475 59.6408 38.6386 59.663 39.9521C59.6853 41.5103 60.7983 42.6234 62.3566 42.6457C63.2471 42.6679 64.1375 42.6457 65.028 42.6457C65.8962 42.6457 66.7421 42.6679 67.6103 42.6457C69.1686 42.6234 70.3039 41.5326 70.3261 39.9743C70.3484 38.6386 70.3484 37.303 70.3261 35.9673C70.2816 34.4981 69.1686 33.3627 67.6771 33.3405ZM67.6103 39.9743C65.8516 39.9743 64.1375 39.9743 62.3789 39.9743C62.3789 38.6609 62.3789 37.3697 62.3789 36.0563C64.1153 36.0563 65.8294 36.0563 67.6103 36.0563C67.6103 37.3252 67.6103 38.6164 67.6103 39.9743ZM22.3087 47.9884C22.2864 46.4746 21.1511 45.3838 19.6596 45.3393C18.7691 45.317 17.8787 45.3393 16.9882 45.3393C16.0755 45.3393 15.1628 45.317 14.2501 45.3393C12.8254 45.3838 11.7123 46.4746 11.6678 47.8993C11.6233 49.2795 11.6233 50.682 11.6678 52.0622C11.7123 53.5091 12.8254 54.6445 14.2724 54.6667C16.0755 54.689 17.8787 54.689 19.6819 54.6667C21.1511 54.6445 22.2642 53.5314 22.3087 52.0622C22.3532 50.7042 22.3532 49.3463 22.3087 47.9884ZM19.6151 51.9286C17.901 51.9286 16.1868 51.9286 14.3837 51.9286C14.3837 50.6597 14.3837 49.3908 14.3837 48.0329C16.1423 48.0329 17.8564 48.0329 19.6151 48.0329C19.6151 49.3463 19.6151 50.6152 19.6151 51.9286ZM38.3145 47.9884C38.2922 46.4746 37.1569 45.3838 35.6654 45.3393C34.775 45.317 33.8845 45.3393 32.9941 45.3393C32.0814 45.3393 31.1686 45.317 30.2559 45.3393C28.8312 45.3838 27.7182 46.4746 27.6736 47.8993C27.6291 49.2795 27.6291 50.682 27.6736 52.0622C27.7182 53.5091 28.8312 54.6445 30.2782 54.6667C32.0814 54.689 33.8845 54.689 35.6877 54.6667C37.1569 54.6445 38.27 53.5314 38.3145 52.0622C38.359 50.7042 38.3368 49.3463 38.3145 47.9884ZM35.6432 51.9286C33.9068 51.9286 32.1704 51.9286 30.3895 51.9286C30.3895 50.6597 30.3895 49.3908 30.3895 48.0551C32.1259 48.0551 33.84 48.0551 35.6432 48.0551C35.6432 49.3908 35.6432 50.6152 35.6432 51.9286ZM19.5705 57.3381C17.8564 57.3158 16.1201 57.3158 14.4059 57.3381C12.8031 57.3603 11.6901 58.4511 11.6678 60.0762C11.6456 61.3451 11.6456 62.6362 11.6678 63.9051C11.6901 65.5525 12.8031 66.6433 14.4727 66.6655C15.2964 66.6878 16.1423 66.6655 16.966 66.6655C17.8564 66.6655 18.7469 66.6878 19.6373 66.6655C21.1956 66.621 22.3087 65.5302 22.3309 63.9719C22.3532 62.6585 22.3532 61.3674 22.3309 60.0539C22.2864 58.4734 21.1734 57.3603 19.5705 57.3381ZM19.5928 63.9719C17.8342 63.9719 16.1201 63.9719 14.3614 63.9719C14.3614 62.6808 14.3614 61.4119 14.3614 60.0762C16.0755 60.0762 17.8119 60.0762 19.5928 60.0762C19.5928 61.3228 19.5928 62.614 19.5928 63.9719ZM35.6654 57.3381C34.775 57.3158 33.8845 57.3381 32.9941 57.3381C32.1259 57.3381 31.28 57.3158 30.4118 57.3381C28.7867 57.3603 27.6736 58.4511 27.6514 60.0539C27.6291 61.3674 27.6291 62.6585 27.6514 63.9719C27.6736 65.5302 28.7867 66.6433 30.345 66.6655C32.1036 66.6878 33.84 66.6878 35.5986 66.6655C37.1569 66.6433 38.2922 65.5525 38.3145 63.9942C38.3368 62.6585 38.3368 61.3228 38.3145 59.9872C38.2922 58.4957 37.1792 57.3826 35.6654 57.3381ZM35.5986 63.9719C33.8623 63.9719 32.1481 63.9719 30.3895 63.9719C30.3895 62.6585 30.3895 61.3674 30.3895 60.0539C32.1259 60.0539 33.8177 60.0539 35.5986 60.0539C35.5986 61.3228 35.5986 62.5917 35.5986 63.9719ZM46.3508 48.0106C46.3508 49.3908 46.3508 50.6597 46.3508 51.9509C46.5512 52.0176 46.7292 52.0844 46.9073 52.1735C47.4861 52.4851 47.7755 52.9749 47.6197 53.6204C47.4639 54.2883 46.9964 54.6667 46.3063 54.689C44.9929 54.7335 43.724 53.5759 43.6795 52.1957C43.6349 50.7487 43.6349 49.3018 43.6795 47.8548C43.724 46.4746 44.837 45.4061 46.2172 45.3615C47.9981 45.317 49.779 45.3393 51.5599 45.3615C52.4059 45.3615 52.9847 45.9181 52.9847 46.6749C53.0069 47.4541 52.4059 48.0106 51.5154 48.0329C49.8236 48.0106 48.1317 48.0106 46.3508 48.0106ZM73.2424 57.1377C73.8212 57.7388 73.7544 58.4734 73.0198 59.1858C69.3912 62.8143 65.7626 66.4429 62.134 70.0715C61.3104 70.8952 60.6648 70.8729 59.8411 70.0715C58.0825 68.3351 56.3461 66.5765 54.6097 64.8401C53.8974 64.1277 53.8306 63.3931 54.4094 62.7921C55.0104 62.1688 55.7673 62.2355 56.5242 62.9702C57.9934 64.4394 59.4627 65.9086 61.021 67.4669C62.1785 66.3093 63.2471 65.2186 64.3156 64.15C66.5863 61.8794 68.8569 59.5865 71.1498 57.3158C71.8844 56.5589 72.6636 56.5144 73.2424 57.1377Z" fill="#9ADDFF"/>
</svg>
