<svg width="80" height="80" viewBox="0 0 80 80" fill="none" xmlns="http://www.w3.org/2000/svg">
<path d="M79.8177 36.901C79.5774 35.2674 79.4333 33.5857 79.0729 31.9761C77.0789 23.0151 72.5624 15.4956 65.5234 9.65782C55.2892 1.10529 43.5655 -1.99381 30.4965 1.27345C20.4304 3.79597 12.5506 9.6338 6.78482 18.2104C1.59564 25.898 -0.686636 34.4025 0.202251 43.6517C0.971018 51.5796 3.94999 58.6427 8.99502 64.7928C15.3614 72.6006 23.4815 77.5736 33.4274 79.3994C34.8208 79.6637 36.2382 79.8078 37.6556 80C39.2172 80 40.7787 80 42.3403 80C43.7577 79.8078 45.1751 79.6637 46.5685 79.3994C56.5144 77.5736 64.6345 72.6006 71.0009 64.7928C75.9738 58.6907 78.9048 51.6998 79.7937 43.868C79.8417 43.3634 79.9138 42.8349 79.9858 42.3304C79.9858 40.7689 79.9858 39.2073 79.9858 37.6457C79.9138 37.4055 79.8657 37.1653 79.8177 36.901ZM40.01 76.8769C20.0701 76.9009 3.1572 60.0361 3.13317 40.0481C3.08513 20.0842 20.022 3.1233 40.01 3.14732C59.9739 3.14732 76.8387 20.0362 76.8627 40.0001C76.8627 59.964 59.9739 76.8529 40.01 76.8769ZM71.6015 29.886C74.2681 38.0061 73.7877 45.9821 70.16 53.7418C67.061 60.3964 62.2802 65.5135 55.8898 69.0931C50.2202 72.2883 44.1181 73.7057 37.5835 73.1772C28.1661 72.4084 20.4785 68.2283 14.4485 61.0931C9.98001 55.7838 7.36139 49.6337 6.83287 42.6427C6.76079 41.6097 6.71275 40.5767 6.6647 39.5196C6.88091 33.1052 9.09112 27.3635 12.5506 22.0542C13.1031 21.2133 14.0401 20.9731 14.7848 21.4536C15.5295 21.9341 15.6737 22.7989 15.1932 23.7359C14.0881 25.826 12.8389 27.844 11.9259 30.0301C9.45148 35.868 9.25929 41.898 10.989 47.9761C12.5506 53.3814 15.3854 57.994 19.4695 61.8379C23.1451 65.2973 27.4214 67.7478 32.2983 69.0931C37.5115 70.5346 42.7247 70.5105 47.9379 69.021C53.3433 67.4835 57.9559 64.6247 61.7997 60.5406C65.2832 56.8649 67.7096 52.5887 69.0549 47.7118C70.4964 42.4746 70.4724 37.2373 68.9588 32.0001C67.4213 26.6187 64.5625 22.0302 60.5024 18.2104C56.6346 14.5587 52.094 12.0602 46.9289 10.7389C40.9229 9.22539 35.061 9.68184 29.3914 12.1803C27.6136 12.9731 25.9319 13.9821 24.2262 14.895C23.986 15.0392 23.7457 15.2074 23.4815 15.3275C22.6647 15.7119 21.8478 15.4716 21.4394 14.7989C21.031 14.1263 21.1752 13.2374 21.8959 12.7329C22.4725 12.3005 23.1211 11.9401 23.7457 11.5557C29.0791 8.38455 34.8208 6.55873 41.091 6.75092C47.7457 6.96713 53.7757 9.12929 59.1571 13.0212C65.091 17.2974 69.3192 22.9191 71.6015 29.886ZM30.8809 55.3514C31.2412 55.7118 31.6737 56.0481 32.1061 56.2883C34.7968 57.8259 37.6796 57.3934 39.9859 55.0631C46.04 49.0091 52.094 42.955 58.1481 36.901C58.4363 36.6127 58.7246 36.3004 58.9649 35.9641C61.2472 33.1292 60.3583 28.6127 57.1631 26.835C54.4724 25.3455 51.6135 25.7779 49.3313 28.0362C44.8628 32.5046 40.3943 36.9731 35.9259 41.4415C35.7337 41.6337 35.5175 41.8259 35.2532 42.0902C33.6196 40.4565 32.0821 38.871 30.4965 37.3094C28.0941 34.9551 24.6346 34.6427 22.2082 36.5406C19.1091 38.9671 18.7728 43.1232 21.5355 45.9821C24.6346 49.1772 27.7577 52.2523 30.8809 55.3514ZM23.0731 40.3364C23.986 38.2463 26.5325 37.7899 28.2622 39.4716C30.4244 41.5857 32.5385 43.7238 34.6766 45.8619C34.8688 46.0541 35.0851 46.2463 35.3253 46.4625C35.5655 46.2463 35.7817 46.0541 35.9739 45.8619C41.1631 40.6728 46.3523 35.4836 51.5415 30.2944C52.4784 29.3575 53.5355 28.8049 54.9048 29.1893C57.091 29.8139 57.9078 32.3605 56.4904 34.1382C56.2982 34.3785 56.082 34.5947 55.8658 34.8349C49.9078 40.7929 43.9499 46.7508 37.992 52.7328C36.1902 54.5346 34.5325 54.5586 32.7307 52.7568C29.8238 49.8499 26.9169 46.943 24.01 44.0361C22.8328 42.883 22.5205 41.6097 23.0731 40.3364ZM16.4184 17.9701C16.4184 17.1533 17.1632 16.4326 17.98 16.4326C18.7968 16.4326 19.5175 17.1773 19.5175 17.9941C19.5175 18.811 18.7728 19.5317 17.956 19.5317C17.1391 19.5317 16.4184 18.7869 16.4184 17.9701Z" fill="#9ADDFF"/>
</svg>
