<svg width="60" height="80" viewBox="0 0 60 80" fill="none" xmlns="http://www.w3.org/2000/svg">
<path d="M59.3772 24.418C59.3772 23.5569 59.1424 22.9111 58.4574 22.3826C57.929 21.9716 57.4592 21.4824 56.9113 20.9931C57.2831 20.5038 57.6745 20.0341 57.9877 19.5448C60.1209 16.2373 59.6708 11.873 56.9113 8.95685C54.2496 6.13861 49.9048 5.43405 46.519 7.33245C45.9906 7.62602 45.697 7.58688 45.2664 7.17588C42.8983 4.98392 40.4715 2.79195 38.0251 0.658702C37.6337 0.306422 37.027 0.0324265 36.5182 0.0324265C26.2629 -0.00671574 16.0076 -0.00671574 5.73279 0.0128554C2.77756 0.0128554 0.683447 2.10696 0.644304 5.0622C0.624733 6.58875 0.624733 8.13487 0.644304 9.68099C0.644304 10.6204 1.07487 11.1292 1.799 11.1292C2.5427 11.1292 2.97327 10.6204 2.97327 9.70056C2.99284 8.23272 2.97327 6.78446 2.97327 5.31663C2.97327 3.33994 3.97139 2.32225 5.94808 2.32225C15.8902 2.32225 25.8519 2.32225 35.794 2.34182C36.1659 2.34182 36.5964 2.51796 36.89 2.77238C38.397 4.08365 39.8844 5.43405 41.3718 6.78446C42.2721 7.60645 43.1723 8.42844 44.0922 9.25042C43.916 9.50485 43.779 9.68099 43.642 9.8767C40.2954 14.4759 42.2133 20.9539 47.5367 23.0089C48.0847 23.2242 48.2608 23.4982 48.2608 24.0853C48.2412 37.1001 48.2413 50.1345 48.2413 63.1493C48.2413 65.4782 47.3018 66.3981 44.9533 66.3981C32.0559 66.3981 19.1781 66.3981 6.28078 66.3981C3.87354 66.3981 2.97327 65.4978 2.97327 63.1101C2.97327 47.5315 2.97327 31.9725 2.97327 16.3939C2.97327 16.1003 2.99284 15.8067 2.9537 15.5327C2.85584 14.8673 2.46442 14.4759 1.799 14.4955C1.17272 14.4955 0.781302 14.8673 0.683447 15.474C0.605162 15.748 0.624733 16.0416 0.624733 16.3352C0.624733 31.9529 0.624733 47.5902 0.624733 63.208C0.624733 66.7112 2.64056 68.7466 6.14379 68.7466C7.20063 68.7466 8.25747 68.7466 9.39259 68.7466C9.39259 70.782 9.33388 72.7391 9.41216 74.6767C9.45131 75.5574 9.64702 76.4968 9.97973 77.2992C10.6451 78.8649 12.0347 79.5694 13.5808 80C27.4372 80 41.2935 80 55.1499 80C58.4574 78.767 59.3381 77.4949 59.3381 73.9525C59.3381 68.9228 59.3381 63.893 59.3381 58.8828C59.3576 47.3945 59.3576 35.9063 59.3772 24.418ZM44.3466 14.9652C44.327 11.5011 47.1453 8.64372 50.6289 8.60458C54.0734 8.56543 57.0287 11.5207 57.0091 14.9652C56.97 18.4488 54.1322 21.2671 50.6681 21.2671C47.1648 21.2671 44.3466 18.4488 44.3466 14.9652ZM57.0091 74.5397C57.0091 76.2423 56.3046 77.2992 54.9346 77.5928C54.641 77.6515 54.3083 77.6515 53.9952 77.6515C40.9217 77.6515 27.8482 77.6515 14.7746 77.6515C12.7393 77.6515 11.7411 76.6533 11.7411 74.6375C11.7411 72.7196 11.7411 70.782 11.7411 68.727C12.1325 68.727 12.4457 68.727 12.7588 68.727C23.5621 68.727 34.3653 68.727 45.1882 68.727C47.889 68.727 49.7874 67.3962 50.3941 65.0085C50.5702 64.3627 50.5898 63.6777 50.5898 62.9927C50.6094 50.2323 50.5898 37.472 50.5898 24.7116C50.5898 24.3789 50.5898 24.0462 50.5898 23.7526C51.6858 23.4982 52.8209 23.4395 53.7212 22.9698C54.8367 22.3826 55.463 22.7153 56.2263 23.4786C56.7743 24.007 57.0091 24.5159 57.0091 25.2792C57.0091 41.7189 57.0091 58.1391 57.0091 74.5397ZM14.9312 57.4737C18.4932 57.4737 22.0747 57.4737 25.6366 57.4737C29.1986 57.4737 32.7801 57.4932 36.342 57.4541C36.9683 57.4541 37.5946 57.3954 38.1817 57.2388C40.5107 56.593 41.8024 54.7533 41.8024 52.0525C41.8219 46.5334 41.8024 41.0143 41.8024 35.4953C41.8024 34.9277 41.7632 34.3406 41.6262 33.7926C40.9999 31.3854 39.1015 30.0545 36.3616 30.0545C29.1986 30.0545 22.0355 30.0545 14.8725 30.0545C14.2854 30.0545 13.6591 30.0937 13.0915 30.2502C10.7626 30.8569 9.39259 32.7553 9.39259 35.3191C9.37302 40.8578 9.39259 46.416 9.39259 51.9546C9.39259 55.4383 11.428 57.4737 14.9312 57.4737ZM24.3645 55.1251C24.0514 55.1251 23.7774 55.1251 23.5034 55.1251C20.7243 55.1251 17.9452 55.1251 15.1661 55.1251C12.524 55.1251 11.5063 53.9704 11.839 51.2305C16.0272 51.2305 20.1763 51.2305 24.3841 51.2305C24.3645 52.5222 24.3645 53.7747 24.3645 55.1251ZM31.8798 55.086C30.1771 55.086 28.5331 55.086 26.7717 55.086C26.7717 54.7337 26.7717 54.4793 26.7717 54.2248C26.7717 53.2659 26.7717 52.3069 26.7717 51.2892C28.494 51.2892 30.1575 51.2892 31.8798 51.2892C31.8798 52.5222 31.8798 53.7747 31.8798 55.086ZM39.3951 52.894C39.2777 53.9704 38.4948 54.7924 37.4184 55.0273C37.164 55.086 36.9096 55.1055 36.6552 55.1251C35.9115 55.1447 35.1677 55.1251 34.3458 55.1251C34.3458 53.8139 34.3458 52.5809 34.3458 51.2696C36.0289 51.2696 37.6924 51.2696 39.4147 51.2696C39.4147 51.8567 39.4538 52.3852 39.3951 52.894ZM34.3653 32.5009C35.4222 32.5009 36.4594 32.403 37.4771 32.5205C38.5536 32.6379 39.3168 33.5969 39.4342 34.7516C39.4734 35.2409 39.4342 35.7301 39.4342 36.3173C37.9273 36.3173 36.5377 36.3173 35.1286 36.3173C34.8938 36.3173 34.6589 36.2977 34.3653 36.2781C34.3653 35.006 34.3653 33.7535 34.3653 32.5009ZM26.8109 32.4618C28.5136 32.4618 30.1771 32.4618 31.8994 32.4618C31.8994 33.7339 31.8994 34.9669 31.8994 36.2586C30.1967 36.2586 28.5331 36.2586 26.8109 36.2586C26.8109 34.9669 26.8109 33.7535 26.8109 32.4618ZM39.3951 38.7245C39.3951 42.0908 39.3951 45.4178 39.3951 48.8036C30.1967 48.8036 21.0178 48.8036 11.7998 48.8036C11.7998 45.4374 11.7998 42.1103 11.7998 38.7245C20.9983 38.7245 30.1575 38.7245 39.3951 38.7245ZM19.2956 32.4422C20.9787 32.4422 22.6422 32.4422 24.3449 32.4422C24.3449 33.6947 24.3449 34.9473 24.3449 36.239C22.6618 36.239 20.9983 36.239 19.2956 36.239C19.2956 34.9669 19.2956 33.7339 19.2956 32.4422ZM14.6768 32.4031C15.4009 32.3835 16.1251 32.4031 16.8688 32.4031C16.8688 33.7339 16.8688 34.9864 16.8688 36.2586C15.1856 36.2586 13.5221 36.2586 11.8781 36.2586C11.2518 34.1057 12.4653 32.4422 14.6768 32.4031ZM50.3354 18.1749C49.6895 18.7816 49.1024 18.7816 48.4761 18.1749C47.6933 17.4507 46.9496 16.6874 46.2059 15.9242C45.6187 15.3175 45.5992 14.5933 46.108 14.1236C46.6364 13.6344 47.2627 13.6735 47.9085 14.2998C48.3978 14.7695 48.8284 15.2783 49.3764 15.8655C50.7855 14.4563 52.0772 13.1255 53.408 11.8534C53.7212 11.5598 54.23 11.3054 54.6214 11.3445C55.6 11.4424 55.8936 12.5971 55.1499 13.3799C54.1909 14.3781 53.2123 15.337 52.2338 16.3156C51.5879 16.9223 50.9812 17.5681 50.3354 18.1749Z" fill="#9ADDFF"/>
</svg>
