<svg width="41" height="41" viewBox="0 0 41 41" fill="none" xmlns="http://www.w3.org/2000/svg">
<path d="M39.5101 3.98723C38.6199 2.08949 37.1135 0.974327 35.0397 0.631952C34.9614 0.622169 34.8929 0.583041 34.8245 0.563477C24.9641 0.563477 15.1036 0.563477 5.24323 0.563477C4.59761 0.75912 3.92264 0.876505 3.32593 1.16997C1.50645 2.05036 0.44019 3.51769 0.0782501 5.50346C0.0586857 5.60128 0.0293465 5.69911 0 5.79693C0 15.6378 0 25.4786 0 35.3195C0.205425 35.9749 0.322801 36.6694 0.626048 37.2759C1.66296 39.3301 3.37484 40.4062 5.67365 40.5431C6.29971 40.5823 6.92576 40.5529 7.55182 40.5529C16.3851 40.5529 25.2086 40.5529 34.0419 40.5529C36.732 40.5529 38.9232 39.0171 39.7644 36.5227C39.9014 36.1314 39.9699 35.7205 40.0677 35.3195C40.0677 25.4786 40.0677 15.6378 40.0677 5.79693C39.8818 5.19043 39.7742 4.55459 39.5101 3.98723ZM37.7102 34.5956C37.7102 36.6987 36.1842 38.2052 34.0614 38.2052C24.7097 38.215 15.358 38.215 6.00623 38.2052C3.83459 38.2052 2.33792 36.6792 2.33792 34.4978C2.33792 29.8512 2.33792 25.2047 2.33792 20.5582C2.33792 15.9117 2.33792 11.2652 2.33792 6.61863C2.33792 5.11218 2.96399 3.93832 4.35306 3.28291C4.84216 3.04814 5.42909 2.92098 5.96711 2.92098C15.3482 2.90141 24.7195 2.90141 34.1006 2.91119C36.1842 2.91119 37.7102 4.43721 37.7102 6.52081C37.72 15.8823 37.72 25.2341 37.7102 34.5956ZM13.4602 28.5209C18.185 25.8112 22.8609 23.1407 27.5759 20.431C22.8413 17.8094 18.1752 15.2171 13.4602 12.6053C13.4602 17.9366 13.4602 23.1896 13.4602 28.5209ZM15.808 16.5866C18.1459 17.8779 20.4447 19.1593 22.8022 20.4604C20.4545 21.8103 18.1557 23.1211 15.808 24.4711C15.808 21.8103 15.808 19.2376 15.808 16.5866Z" fill="#0072BA"/>
</svg>
