<svg width="229" height="36" viewBox="0 0 229 36" fill="none" xmlns="http://www.w3.org/2000/svg">
<path d="M228.562 32.0923V35.1477H210.56H206.349L204.202 33.0006V29.8627V6.98833H208.413L210.56 9.13538V29.9452H226.498L228.562 32.0923ZM171.418 8.97022V32.9181L173.482 34.9825H197.017V31.5968L194.87 29.4498H177.777V27.4679V23.2563H188.099V19.8706L185.952 17.8062H177.777V14.1727V12.2734H194.87L197.017 10.1263V6.82317H173.482C173.482 6.90575 171.418 8.97022 171.418 8.97022ZM118.98 29.6975V9.13538L116.916 7.07091H116.008H112.787V29.6975V32.7529L114.934 34.9H119.146H137.23V32.9181V31.9271L135.083 29.7801L118.98 29.6975ZM144.91 6.90575H132.276V9.96117L134.423 12.1082H145.819V33.0832L147.966 35.2303H150.113L152.177 33.0832V12.1082H163.573L165.72 9.96117V6.90575H147.966H144.91ZM72.8189 32.4226L75.4614 35.0651H77.5259L99.2441 12.4385C99.2441 12.7688 99.2441 24.4125 99.2441 24.4125H91.8946C91.8946 24.4125 88.8392 27.4679 87.9308 28.3762L86.527 29.8627H99.2441V35.1477H103.373L105.52 33.0006V6.90575H97.4274L72.8189 32.4226ZM44.8247 19.2926L42.7603 21.4396V24.6602H50.6878V28.9543H35.7411V11.7779H46.0634L51.3484 6.24512H31.5295L29.4651 8.39217V26.9724V32.34L31.6121 34.4871H57.129V21.357L54.9819 19.21L44.8247 19.2926ZM17.4911 16.1546C17.4911 19.6229 17.4911 23.917 17.4911 23.917H6.0127L14.4357 15.1636L17.4911 11.9431L22.8588 6.41028H15.5918L0.5625 22.1002V29.3672H17.4911V34.5696H21.6201L23.6846 32.4226V11.8605H21.7027L17.4911 16.1546ZM63.4049 0.794922H57.0464V6.24512H55.4774L52.0091 9.71343L50.0272 11.6953H52.0091H57.0464V15.6591L58.698 17.3107H63.4875V11.8605H68.5248V6.24512H63.4875V0.794922H63.4049Z" fill="#EC008C"/>
</svg>
