<svg width="38" height="33" viewBox="0 0 38 33" fill="none" xmlns="http://www.w3.org/2000/svg">
<path d="M6.73023 30.1676C6.4826 30.0747 6.17305 29.9819 5.78611 29.889C5.41465 29.8116 5.13606 29.7188 4.95033 29.6414C4.7646 29.5485 4.68721 29.4247 4.68721 29.2544C4.68721 29.0842 4.7646 28.9449 4.91938 28.8365C5.07415 28.7282 5.32179 28.6818 5.64682 28.6818C6.11114 28.6818 6.59094 28.8211 7.05526 29.0842L7.41124 28.1865C7.17908 28.0472 6.90049 27.9234 6.59094 27.846C6.28139 27.7686 5.97184 27.7222 5.64682 27.7222C5.18249 27.7222 4.78008 27.7996 4.47053 27.9389C4.1455 28.0781 3.91334 28.2639 3.75857 28.5115C3.60379 28.7437 3.52641 29.0223 3.52641 29.3163C3.52641 29.6568 3.61927 29.92 3.78952 30.1366C3.97525 30.3379 4.17646 30.4926 4.4241 30.5855C4.67174 30.6784 4.98129 30.7712 5.36822 30.8641C5.61586 30.926 5.81707 30.9724 5.95636 31.0189C6.11114 31.0653 6.23496 31.1272 6.31234 31.2201C6.40521 31.2975 6.45164 31.3903 6.45164 31.5141C6.45164 31.6844 6.37425 31.8082 6.21948 31.9166C6.06471 32.0094 5.81707 32.0558 5.47656 32.0558C5.18249 32.0558 4.87294 32.0094 4.57887 31.9166C4.2848 31.8237 4.02169 31.6844 3.805 31.5296L3.40259 32.4118C3.63475 32.5821 3.92882 32.7214 4.30028 32.8452C4.67174 32.9535 5.07415 33 5.47656 33C5.94089 33 6.32782 32.9226 6.65285 32.7833C6.97787 32.644 7.22551 32.4583 7.38029 32.2106C7.55054 31.963 7.62793 31.6999 7.62793 31.4058C7.62793 31.0653 7.53506 30.8022 7.36481 30.601C7.19456 30.4152 6.97787 30.2605 6.73023 30.1676Z" fill="white"/>
<path d="M13.1846 27.8151L11.3118 30.9725L9.40809 27.8151H8.44849V32.9071H9.54738V29.92L11.0332 32.3654H11.5594L13.0608 29.8581V32.9071H14.1751L14.1597 27.8151H13.1846Z" fill="white"/>
<path d="M16.5432 30.7867H18.8958V29.8736H16.5432V28.7592H19.2208V27.8151H15.3669V32.9071H19.3137V31.963H16.5432V30.7867Z" fill="white"/>
<path d="M19.6694 28.7747H21.2946V32.9071H22.4708V28.7747H24.096V27.8151H19.6694V28.7747Z" fill="white"/>
<path d="M24.8388 31.5451C24.6376 31.5451 24.4674 31.607 24.3435 31.7463C24.2042 31.8701 24.1423 32.0404 24.1423 32.2416C24.1423 32.4428 24.2042 32.613 24.3435 32.7523C24.4828 32.8916 24.6531 32.9536 24.8388 32.9536C25.04 32.9536 25.2103 32.8916 25.3341 32.7523C25.4734 32.613 25.5353 32.4428 25.5353 32.2416C25.5353 32.0404 25.4734 31.8701 25.3341 31.7463C25.2103 31.6225 25.04 31.5451 24.8388 31.5451Z" fill="white"/>
<path d="M31.1226 27.8151H29.807L27.5628 30.1986V27.8151H26.3865V32.9071H27.5628V31.6225L28.2438 30.9105L29.8689 32.9071H31.2309L29.0176 30.0902L31.1226 27.8151Z" fill="white"/>
<path d="M32.9956 31.9475L35.7661 28.5889V27.8151H31.4943V28.7747H34.2183L31.4324 32.1333V32.9071H35.8744V31.9475H32.9956Z" fill="white"/>
<path d="M30.968 9.67552C30.2251 4.42867 25.8914 0.404541 20.6601 0.404541C17.4098 0.404541 14.5001 1.96776 12.5963 4.39772C11.8689 4.08817 11.0796 3.90244 10.2438 3.90244C7.19472 3.90244 4.65642 6.28596 4.25401 9.35049C1.80858 10.8828 0.167969 13.6842 0.167969 16.8725C0.167969 21.5931 3.74325 25.4315 8.23171 25.6173V25.6327H29.3739H29.3893C33.6456 25.6327 37.1126 22.0265 37.1126 17.569C37.1126 13.6842 34.4814 10.4339 30.968 9.67552ZM22.2852 7.40034C25.1021 7.40034 27.5475 8.99451 28.8012 11.3161C28.2285 10.6042 27.4547 9.90768 26.2474 9.59813C25.2569 8.39089 21.3256 7.52416 18.6944 8.35994C19.4683 7.88014 20.8149 7.36938 22.2852 7.40034ZM15.0108 7.40034C16.3264 7.40034 17.5646 7.75632 18.648 8.35994C18.1373 8.65401 17.6265 9.00999 17.1931 9.44336H9.91875C11.2189 8.17421 13.0297 7.40034 15.0108 7.40034ZM9.22226 10.2637L16.4657 10.2482C16.0788 10.7435 15.7383 11.2852 15.5216 11.8733L8.27814 11.8888C8.52578 11.3006 8.8508 10.7589 9.22226 10.2637ZM7.95311 12.6781L15.2275 12.6627C15.0727 13.1889 14.9953 13.7306 14.9644 14.2878L7.69 14.3033C7.72095 13.7461 7.79834 13.1889 7.95311 12.6781ZM7.93764 16.7487C7.78286 16.2225 7.69 15.6808 7.67452 15.1081L14.918 15.0926C14.9489 15.6653 15.0263 16.207 15.1811 16.7332L7.93764 16.7487ZM8.27814 17.538L15.5216 17.5226C15.7692 18.1262 16.1097 18.6679 16.5121 19.1787L9.28417 19.1941C8.88176 18.6989 8.54126 18.1417 8.27814 17.538ZM22.2078 22.0265C20.5982 22.0265 19.4683 21.5467 18.6171 21.0824C17.5491 21.686 16.3419 22.0265 15.0108 22.0265C13.0607 22.0265 11.2653 21.2526 9.96518 20.0144L17.1931 19.999C17.642 20.4169 18.1063 20.7883 18.648 21.0669L18.6325 21.0824C19.329 21.2372 20.3351 21.4538 20.3041 21.2681C20.1493 20.6645 18.1373 19.9371 17.0538 19.8751C16.8991 19.6894 16.7288 19.5192 16.574 19.3334C18.8802 19.6894 21.4494 20.3859 23.121 21.9801C22.8269 21.9955 22.5328 22.011 22.2078 22.0265ZM23.5234 21.8717C23.4615 21.5467 23.2758 21.2372 22.8114 20.8812L23.1674 20.7574C22.2078 19.9371 20.2731 18.1726 15.568 17.4142H15.4442L15.2585 16.8725H15.3513C21.0006 17.213 23.0126 18.5905 26.4641 20.6954C25.5974 21.2836 24.5759 21.7324 23.5234 21.8717ZM26.7118 20.4942C26.526 20.1073 26.0772 19.5656 25.5045 19.2251L25.7522 18.9775C23.4615 16.9963 19.5612 15.1545 14.9025 14.9998V14.458C20.9387 14.5819 24.9783 16.0213 28.5845 18.4048C28.1202 19.2096 27.4856 19.9216 26.7118 20.4942ZM28.6929 18.2345C28.4452 17.5071 27.6714 16.9344 27.2225 16.7332L27.4082 16.1915C25.7212 14.5973 21.4649 12.3067 15.2894 12.5234L15.4751 11.9817C21.728 11.8269 26.0617 13.0651 29.5751 15.2629C29.4977 16.3463 29.1727 17.3368 28.6929 18.2345ZM29.5906 15.1855C29.4203 14.52 28.6 13.6687 27.6714 13.3437L27.6094 12.8948C26.0772 11.6566 21.8054 9.61361 16.574 10.0934C16.7288 9.90768 16.8991 9.70647 17.0538 9.5517C22.0685 9.04094 26.913 10.1244 28.956 11.6566C29.3739 12.5853 29.6215 13.5913 29.637 14.7057C29.637 14.8759 29.5906 15.0307 29.5906 15.1855Z" fill="white"/>
<path d="M2.6133 27.8151H1.43701V32.8917H2.6133V27.8151Z" fill="white"/>
</svg>
