<svg width="116" height="19" viewBox="0 0 116 19" fill="none" xmlns="http://www.w3.org/2000/svg">
<path d="M31.2295 17.2586V11.6768H33.9741C34.9918 11.6768 35.5675 12.3141 35.5675 13.0953C35.5675 13.7943 35.1152 14.2672 34.6012 14.37C35.1974 14.4625 35.6805 15.0587 35.6805 15.7372C35.6805 16.6007 35.1049 17.238 34.0564 17.238H31.2295V17.2586ZM34.5601 13.2598C34.5601 12.8383 34.2722 12.53 33.7788 12.53H32.206V13.9794H33.7685C34.2722 13.9794 34.5601 13.6813 34.5601 13.2598ZM34.6629 15.6138C34.6629 15.1924 34.375 14.8429 33.8097 14.8429H32.206V16.3951H33.8097C34.3442 16.3951 34.6629 16.097 34.6629 15.6138Z" fill="white"/>
<path d="M39.3501 17.2586V16.7241C39.0622 17.0531 38.5585 17.3614 37.9212 17.3614C37.0474 17.3614 36.626 16.9091 36.626 16.0868V13.2291H37.4997V15.7681C37.4997 16.3952 37.8184 16.5905 38.3118 16.5905C38.7538 16.5905 39.1445 16.3438 39.3501 16.0662V13.2291H40.2238V17.2689H39.3501V17.2586Z" fill="white"/>
<path d="M41.0159 16.724L41.4168 16.0867C41.7046 16.3745 42.2597 16.6521 42.7839 16.6521C43.3082 16.6521 43.5755 16.4259 43.5755 16.1072C43.5755 15.3157 41.1289 15.8811 41.1289 14.3289C41.1289 13.671 41.6943 13.0953 42.7223 13.0953C43.411 13.0953 43.925 13.342 44.295 13.6607L43.925 14.2775C43.6783 13.9999 43.226 13.7943 42.7326 13.7943C42.27 13.7943 41.9821 13.9999 41.9821 14.2878C41.9821 15.0073 44.4287 14.4728 44.4287 16.0764C44.4287 16.7857 43.8325 17.3305 42.7428 17.3305C42.0644 17.3511 41.4373 17.1352 41.0159 16.724Z" fill="white"/>
<path d="M45.2004 12.1804C45.2004 11.8823 45.4472 11.6356 45.7453 11.6356C46.0434 11.6356 46.2901 11.8823 46.2901 12.1804C46.2901 12.4785 46.0434 12.7253 45.7453 12.7253C45.4574 12.7253 45.2004 12.4785 45.2004 12.1804ZM45.3135 13.2187H46.1873V17.2585H45.3135V13.2187Z" fill="white"/>
<path d="M50.052 17.2587V14.7299C50.052 14.1028 49.7333 13.8972 49.2399 13.8972C48.7876 13.8972 48.4072 14.1645 48.2016 14.4421V17.2587H47.3279V13.2188H48.2016V13.7739C48.4689 13.4552 48.9829 13.1263 49.6202 13.1263C50.494 13.1263 50.9257 13.5991 50.9257 14.4215V17.2689H50.052V17.2587Z" fill="white"/>
<path d="M51.8206 15.2336C51.8206 14.0617 52.6738 13.116 53.8662 13.116C55.0792 13.116 55.8604 14.0411 55.8604 15.3158V15.5214H52.7457C52.8074 16.1279 53.27 16.6316 54.0307 16.6316C54.4213 16.6316 54.8941 16.4774 55.182 16.1895L55.5829 16.7652C55.182 17.1455 54.5858 17.3511 53.9381 17.3511C52.7252 17.3511 51.8206 16.5082 51.8206 15.2336ZM53.8662 13.8355C53.1158 13.8355 52.7663 14.4112 52.7252 14.9046H54.9969C54.9867 14.4317 54.668 13.8355 53.8662 13.8355Z" fill="white"/>
<path d="M56.3755 16.724L56.7764 16.0867C57.0642 16.3745 57.6193 16.6521 58.1436 16.6521C58.6678 16.6521 58.9351 16.4259 58.9351 16.1072C58.9351 15.3157 56.4886 15.8811 56.4886 14.3289C56.4886 13.671 57.0539 13.0953 58.0819 13.0953C58.7706 13.0953 59.2846 13.342 59.6547 13.6607L59.2846 14.2775C59.0379 13.9999 58.5856 13.7943 58.0922 13.7943C57.6296 13.7943 57.3418 13.9999 57.3418 14.2878C57.3418 15.0073 59.7883 14.4728 59.7883 16.0764C59.7883 16.7857 59.1921 17.3305 58.1025 17.3305C57.424 17.3511 56.7969 17.1352 56.3755 16.724Z" fill="white"/>
<path d="M60.3232 16.724L60.7241 16.0867C61.012 16.3745 61.5671 16.6521 62.0913 16.6521C62.6156 16.6521 62.8829 16.4259 62.8829 16.1072C62.8829 15.3157 60.4363 15.8811 60.4363 14.3289C60.4363 13.671 61.0017 13.0953 62.0296 13.0953C62.7184 13.0953 63.2324 13.342 63.6024 13.6607L63.2324 14.2775C62.9856 13.9999 62.5333 13.7943 62.0399 13.7943C61.5773 13.7943 61.2895 13.9999 61.2895 14.2878C61.2895 15.0073 63.7361 14.4728 63.7361 16.0764C63.7361 16.7857 63.1398 17.3305 62.0502 17.3305C61.3718 17.3511 60.7447 17.1352 60.3232 16.724Z" fill="white"/>
<path d="M35.1357 8.88976L33.3882 6.39183L32.9462 6.94692V8.88976H31.2295V2.23889H32.9462V4.97325L34.9815 2.23889H37.0991L34.5189 5.35359L37.243 8.88976H35.1357Z" fill="white"/>
<path d="M42.661 8.88976L42.332 7.93376H39.7107L39.3818 8.88976H37.439L39.9369 2.23889H42.0853L44.5935 8.88976H42.661ZM41.0162 3.93502L40.1733 6.43295H41.8694L41.0162 3.93502Z" fill="white"/>
<path d="M44.8101 8.88976V7.52258L47.6369 3.73971H44.8101V2.23889H49.8984V3.60607L47.0613 7.39922H49.9704V8.88976H44.8101Z" fill="white"/>
<path d="M55.4598 8.88976L55.1309 7.93376H52.5096L52.1806 8.88976H50.2378L52.7357 2.23889H54.8841L57.3924 8.88976H55.4598ZM53.8151 3.93502L52.9722 6.43295H54.6683L53.8151 3.93502Z" fill="white"/>
<path d="M61.6386 8.88976L59.8911 6.39183L59.4388 6.94692V8.88976H57.7324V2.23889H59.4388V4.97325L61.4845 2.23889H63.602L61.0219 5.35359L63.7357 8.88976H61.6386Z" fill="white"/>
<path d="M68.8359 8.88976V6.21708H66.0809V8.88976H64.3643V2.23889H66.0809V4.72654H68.8359V2.23889H70.5525V8.88976H68.8359Z" fill="white"/>
<path d="M73.1116 8.88976V3.73971H71.251V2.23889H76.6889V3.73971H74.8283V8.88976H73.1116Z" fill="white"/>
<path d="M77.3376 8.88976V2.23889H82.2102V3.73971H79.0543V4.77794H82.1382V6.26847H79.0543V7.39922H82.2102V8.88976H77.3376Z" fill="white"/>
<path d="M83.0229 8.88976V2.23889H84.7396V7.39922H87.402V8.88976H83.0229Z" fill="white"/>
<path d="M88.0298 8.88976V2.23889H92.9126V3.73971H89.7465V4.77794H92.8406V6.26847H89.7465V7.39922H92.9126V8.88976H88.0298Z" fill="white"/>
<path d="M93.427 5.56966C93.427 3.51375 94.9792 2.13629 97.0248 2.13629C98.6285 2.13629 99.4817 3.04089 99.9237 3.92493L98.4434 4.62394C98.2275 4.09968 97.6519 3.65766 97.0146 3.65766C95.9249 3.65766 95.1642 4.49031 95.1642 5.57994C95.1642 6.66957 95.9352 7.50221 97.0146 7.50221C97.6519 7.50221 98.2173 7.06019 98.4434 6.53594L99.9237 7.23495C99.4919 8.08815 98.6285 9.02359 97.0248 9.02359C94.9792 9.01331 93.427 7.61529 93.427 5.56966Z" fill="white"/>
<path d="M100.202 5.56966C100.202 3.54459 101.724 2.13629 103.759 2.13629C105.794 2.13629 107.306 3.55487 107.306 5.56966C107.306 7.59473 105.794 9.00303 103.759 9.00303C101.724 9.01331 100.202 7.59473 100.202 5.56966ZM105.558 5.56966C105.558 4.48003 104.849 3.64738 103.759 3.64738C102.649 3.64738 101.95 4.48003 101.95 5.56966C101.95 6.64901 102.659 7.49193 103.759 7.49193C104.859 7.49193 105.558 6.64901 105.558 5.56966Z" fill="white"/>
<path d="M113.71 8.88976V4.56207L112.024 8.88976H111.274L109.598 4.56207V8.88976H107.882V2.23889H110.266L111.654 5.84701L113.042 2.23889H115.427V8.88976H113.71Z" fill="white"/>
<path fill-rule="evenodd" clip-rule="evenodd" d="M12.1584 16.0253C12.7341 16.6011 13.3921 17.1048 14.1014 17.5058C12.7855 18.246 11.2742 18.6778 9.6499 18.6778C7.1517 18.6778 4.88996 17.66 3.25533 16.0253H12.1584ZM10.1845 13.0337C10.534 13.887 10.9967 14.6683 11.5724 15.3777H2.67961C2.1039 14.6786 1.63099 13.887 1.29172 13.0337H10.1845ZM9.53682 10.042C9.56766 10.8542 9.70131 11.6458 9.93776 12.386H1.04499C0.818814 11.6355 0.674885 10.8542 0.644043 10.042H9.53682ZM9.93776 7.05033C9.70131 7.79054 9.56766 8.58215 9.53682 9.39432H0.644043C0.674885 8.58215 0.808534 7.79054 1.04499 7.05033H9.93776ZM11.5621 4.04838C10.9864 4.74746 10.5135 5.53907 10.1742 6.39237H1.27116C1.61043 5.53907 2.08334 4.74746 2.65905 4.04838H11.5621ZM9.66018 0.727722C11.2742 0.727722 12.7958 1.15951 14.1117 1.89972C13.3921 2.31094 12.7238 2.8147 12.1481 3.40069H3.24505C4.88996 1.75579 7.1517 0.727722 9.66018 0.727722Z" fill="white"/>
<path fill-rule="evenodd" clip-rule="evenodd" d="M19.6123 18.6161C19.273 18.6573 18.9235 18.6778 18.574 18.6778C16.5795 18.6676 15.2122 18.1021 14.1327 17.5264C14.9963 17.7217 16.2197 17.989 16.1991 17.7423C15.9935 17.0124 13.5261 16.1179 12.1897 16.046C11.984 15.8404 11.7887 15.6245 11.5934 15.3983C14.3794 15.7992 17.5562 16.6834 19.6123 18.6161ZM23.7143 17.0535C22.6554 17.7937 21.4217 18.318 20.0955 18.5442C20.0132 18.1535 19.7871 17.7526 19.2319 17.3413L19.6843 17.1769C18.4917 16.1385 16.1169 14.0001 10.3391 13.0852C10.2877 13.0749 10.2363 13.0749 10.1849 13.0646L9.94848 12.4169C9.9896 12.4169 10.0307 12.4169 10.0718 12.4169C16.9907 12.8076 19.4889 14.4833 23.7143 17.0535ZM26.3461 14.1955C25.7601 15.203 24.9788 16.0871 24.0638 16.7965C23.8068 16.3338 23.2825 15.6656 22.5628 15.2441L22.8713 14.9357C20.0646 12.5403 15.2739 10.2477 9.53725 10.0626C9.52697 9.84674 9.52697 9.63085 9.53725 9.41495C16.9188 9.52804 21.9152 11.2758 26.3359 14.1852C26.3359 14.1955 26.3461 14.1955 26.3461 14.1955ZM27.5387 10.3916C27.4359 11.7075 27.0452 12.9515 26.4387 14.0515L26.4284 14.0721C26.4284 14.0618 26.4181 14.031 26.4181 14.0207C26.0891 13.1366 25.1433 12.4272 24.6087 12.1702L24.8349 11.5225C22.7685 9.5486 17.5253 6.76254 9.94848 7.07096L10.1747 6.42328C17.8954 6.15598 23.2414 7.66724 27.5387 10.3916ZM26.7368 5.95037C27.2611 7.08124 27.5593 8.34577 27.5695 9.68225C27.5695 9.87758 27.5593 10.0729 27.549 10.2682C27.3639 9.45608 26.3461 8.37661 25.1844 7.99622L25.1125 7.46163C23.2105 5.97093 17.9674 3.45217 11.542 4.06901C11.727 3.84284 11.9224 3.62694 12.128 3.41105C18.2655 2.75309 24.218 4.07929 26.7368 5.95037ZM18.5225 0.727795C21.9769 0.717515 24.9891 2.66056 26.5106 5.5083C25.791 4.63445 24.8452 3.80171 23.3545 3.42133C22.1516 1.93063 17.3094 0.902566 14.0813 1.91007C15.1197 1.31379 16.7543 0.696953 18.5225 0.727795Z" fill="white"/>
</svg>
