<svg width="123" height="41" viewBox="0 0 123 41" fill="none" xmlns="http://www.w3.org/2000/svg">
<path d="M80.5585 10.4952C71.5532 10.4952 65.9686 17.3364 65.9686 25.5738C65.9686 32.6942 70.0174 40.5127 80.5585 40.5127C90.1222 40.5127 92.7749 34.3696 93.8918 30.949H88.9354C87.8185 30.949 86.9808 31.4377 86.2129 32.3452C85.8639 32.6942 84.1885 34.6488 80.8377 34.6488C74.0663 34.6488 73.9267 29.2736 73.8569 27.4586H94.4503C94.9389 19.1514 90.6108 10.4952 80.5585 10.4952ZM73.7871 22.4324C73.7871 21.874 74.2757 16.3591 80.2792 16.3591C84.3281 16.3591 85.7243 18.6628 86.4921 22.4324H73.7871ZM107.016 6.86523V39.8844C100.314 39.8844 99.267 37.9996 99.1972 32.6244V0.512695C105.969 0.512695 106.946 1.55982 107.016 6.86523ZM122.164 39.8844C115.462 39.8844 114.415 37.9996 114.346 32.6244V0.512695C121.047 0.512695 122.094 1.49001 122.094 6.86523L122.164 39.8844ZM57.3822 28.8548H62.897C61.7801 37.0223 56.1257 40.5127 49.1449 40.5127C41.1867 40.5127 34.7644 35.1375 34.7644 25.9228C34.7644 17.6157 39.5113 10.4952 49.2845 10.4952C55.9162 10.4952 62.2688 13.9158 62.6876 21.3155H57.2426C55.4974 21.3155 54.9389 20.4778 54.5899 19.5005C53.8918 17.7553 52.2862 16.4289 49.2845 16.4289C44.4677 16.4289 42.5829 21.1759 42.5829 25.5738C42.5829 30.1811 44.3979 34.6488 49.075 34.6488C52.0768 34.6488 53.8918 33.3225 54.8691 30.6698C55.637 28.7849 57.3822 28.8548 57.3822 28.8548ZM19.4764 16.0799L36.3002 39.8844H32.1117C26.3176 39.8844 24.7818 38.9769 21.5707 34.1602C18.3595 29.3434 13.5428 22.223 13.5428 22.223L8.58639 27.2492V39.9542H0V0.512695C7.60907 0.512695 8.58639 2.46732 8.65619 8.19158V16.8478C8.65619 16.8478 17.452 7.4935 20.6632 4.0729C23.8743 0.652311 26.5271 0.512695 30.6457 0.512695H34.8342L19.4764 16.0799Z" fill="#6A2C91"/>
</svg>
