<svg width="225" height="41" viewBox="0 0 225 41" fill="none" xmlns="http://www.w3.org/2000/svg">
<g clip-path="url(#clip0_202_439)">
<path d="M51.7304 11.0154V29.4899H41.9005V13.2188C41.9005 10.6764 42.0729 7.96452 39.1412 7.96452C36.2094 7.96452 35.692 10.3374 35.692 12.8798V29.3205H25.8621V13.2188C25.8621 10.6764 26.0345 7.96452 23.1028 7.96452C20.171 7.96452 19.6536 10.3374 19.6536 12.8798V29.3205H10.341V12.3713C7.92665 12.3713 5.33981 11.0154 5.33981 7.45605C2.75297 7.28655 0.855957 5.25266 0.855957 1.86283V1.01537H19.1363L19.4812 5.25266H19.6536C21.3782 2.03232 23.965 0.506894 27.0692 0.506894C31.0357 0.506894 33.2777 2.20181 34.6573 5.25266H34.8298C37.2441 1.35435 40.1759 0.337402 42.7627 0.337402C50.3508 0.337402 51.7304 5.59164 51.7304 11.0154ZM82.0827 19.151C82.0827 19.9984 82.2551 27.2866 82.4276 29.4899H73.6323L73.2874 26.4391H73.115C71.0455 28.9815 67.9413 30.1679 64.3197 30.1679C59.6634 30.1679 55.1796 28.134 55.1796 21.8628C55.1796 10.5069 72.2527 15.9306 72.2527 9.82893C72.2527 8.47299 71.3904 7.62554 69.1485 7.62554C66.9066 7.62554 65.5269 8.81198 65.0095 11.5238L56.2143 10.1679C57.7664 3.21876 63.1125 0.337402 69.6659 0.337402C77.2539 0.337402 82.0827 2.71028 82.0827 10.8459V19.151ZM72.4251 16.4391C69.8383 18.473 65.182 17.2866 65.182 20.6764C65.182 22.3713 66.3892 23.2188 68.1137 23.2188C70.873 23.2188 72.4251 21.5238 72.4251 18.6425V16.4391ZM105.019 1.01537H114.332V25.2527C114.332 35.9306 109.331 40.3374 99.6732 40.3374C94.327 40.3374 89.3258 38.473 86.9114 32.3713L95.1893 30.3374C96.0516 32.3713 97.4312 33.2188 99.8456 33.2188C102.95 33.2188 104.502 32.0323 104.502 28.3035V25.0832H104.329C102.777 27.1171 100.018 28.6425 96.9139 28.6425C89.3258 28.6425 85.8767 22.7103 85.8767 14.5747C85.8767 6.60859 89.8432 0.337402 97.4312 0.337402C100.708 0.337402 103.467 2.3713 104.847 4.06622H105.019V1.01537ZM104.847 14.5747C104.847 9.99842 103.467 7.79503 100.363 7.79503C97.2588 7.79503 95.7067 9.99842 95.7067 14.5747C95.7067 19.3205 97.2588 21.5238 100.363 21.5238C103.295 21.5238 104.847 19.3205 104.847 14.5747ZM137.613 0.337402C133.992 0.337402 131.233 1.86283 128.818 4.91367H128.646L128.473 1.01537H119.161V29.4899H128.991V13.3882C128.991 10.6764 129.68 8.13401 132.785 8.13401C136.061 8.13401 136.234 10.6764 136.234 13.3882V29.6594H146.064V11.3544C145.891 5.42215 144.339 0.337402 137.613 0.337402ZM167.621 17.1171C167.621 19.8289 166.931 22.3713 163.999 22.3713C160.895 22.3713 160.723 19.8289 160.723 17.1171V1.01537H150.893V19.151C150.893 25.0832 152.445 30.1679 159.17 30.1679C162.62 30.1679 165.379 28.6425 167.793 25.5916H167.966L168.138 29.6594H177.451V1.01537H167.621V17.1171ZM214.874 0.337402C212.287 0.337402 209.355 1.35435 206.768 5.08316H206.596C205.216 2.03232 203.147 0.337402 199.008 0.337402C195.904 0.337402 193.144 1.86283 191.42 5.08316H191.247L190.902 0.845877H182.107V29.4899H191.937V13.0493C191.937 10.3374 192.454 8.13401 195.386 8.13401C198.318 8.13401 198.145 10.6764 198.145 13.3882V29.6594H207.975V13.0493C207.975 10.3374 208.493 8.13401 211.425 8.13401C214.356 8.13401 214.184 10.6764 214.184 13.3882V29.6594H224.014V11.0154C224.014 5.59164 222.462 0.337402 214.874 0.337402Z" fill="#E71F74"/>
</g>
<defs>
<clipPath id="clip0_202_439">
<rect width="223.158" height="40" fill="white" transform="translate(0.855957 0.337402)"/>
</clipPath>
</defs>
</svg>
