<svg width="70" height="95" viewBox="0 0 70 95" fill="none" xmlns="http://www.w3.org/2000/svg">
<path d="M59.1153 94.2096H10.8847C4.87936 94.2096 0 89.3302 0 83.3249V11.4482C0 5.44283 4.87936 0.563477 10.8847 0.563477H35H59.1153C65.1206 0.563477 70 5.44283 70 11.4482V83.4187C69.9062 89.3302 65.0268 94.2096 59.1153 94.2096Z" fill="#0072BA"/>
<path d="M42.2253 15.1079H27.7749C18.2976 15.1079 10.6033 22.8023 10.6033 32.2795C10.6033 41.7567 18.2976 49.4511 27.7749 49.4511H42.1314C51.6086 49.4511 59.303 41.7567 59.303 32.2795C59.303 22.8023 51.6086 15.1079 42.2253 15.1079Z" fill="white"/>
<path fill-rule="evenodd" clip-rule="evenodd" d="M31.9034 42.507C32.8417 43.4453 33.8739 44.2898 35.0937 44.9467C32.9356 46.1665 30.4959 46.8233 27.8685 46.8233C23.8337 46.8233 20.1742 45.1343 17.453 42.507H31.9034ZM28.713 37.7215C29.276 39.129 30.0267 40.3488 30.9651 41.4748H16.5147C15.5763 40.3488 14.8256 39.0351 14.2626 37.7215H28.713ZM27.6809 32.8421C27.7747 34.1558 27.9624 35.4694 28.3377 36.6893H13.8873C13.512 35.4694 13.3243 34.2496 13.2305 32.8421H27.6809ZM28.2439 27.9627C27.8685 29.1826 27.6809 30.4024 27.587 31.8099H13.2305C13.2305 30.4963 13.512 29.1826 13.8873 27.9627H28.2439ZM30.8712 23.0834C29.9329 24.2094 29.1822 25.5231 28.6192 26.9306H14.2626C14.8256 25.5231 15.5763 24.3032 16.5147 23.0834H30.8712ZM27.8685 17.7349C30.4959 17.7349 32.9356 18.3917 35.0937 19.6115C33.8739 20.2684 32.8417 21.1129 31.9034 22.0512H17.453C20.0803 19.4239 23.7399 17.7349 27.8685 17.7349Z" fill="#0072BA"/>
<path fill-rule="evenodd" clip-rule="evenodd" d="M43.9142 46.7296C43.3512 46.8234 42.7882 46.8234 42.2252 46.8234C39.0349 46.8234 36.7829 45.8851 35 44.9468C36.4075 45.2283 38.378 45.6974 38.378 45.3221C38.0965 44.1023 34.0617 42.6947 31.9035 42.6009C31.5282 42.2256 31.2467 41.9441 30.9652 41.5687C35.4692 42.1317 40.6301 43.6331 43.9142 46.7296ZM50.5764 44.1961C48.8874 45.4159 46.8231 46.2604 44.6649 46.6358C44.5711 45.9789 44.1957 45.3221 43.2574 44.6653L44.0081 44.3838C42.0376 42.6947 38.1904 39.2229 28.9008 37.7216C28.807 37.7216 28.7132 37.7216 28.6193 37.7216L28.244 36.6894C28.3378 36.6894 28.3378 36.6894 28.4317 36.6894C39.6917 37.3462 43.7266 40.0674 50.5764 44.1961ZM54.8928 39.5982C53.9545 41.1934 52.6408 42.6947 51.1394 43.8208C50.7641 43.0701 49.9196 41.9441 48.6998 41.2872L49.1689 40.8181C44.6649 36.8771 36.8767 33.1237 27.5872 32.8422C27.5872 32.4669 27.5872 32.0915 27.5872 31.81C39.5979 31.9977 47.6676 34.8127 54.8928 39.5982ZM56.8633 33.4052C56.6756 35.5634 56.0188 37.5339 55.0805 39.3167V39.2229C54.5175 37.8154 53.0161 36.5956 52.1716 36.2202L52.5469 35.188C49.1689 31.9977 40.7239 27.3998 28.4317 27.869L28.807 26.8368C41.1931 26.5553 49.8258 28.995 56.8633 33.4052ZM55.5496 26.18C56.3941 28.0567 56.8633 30.121 56.8633 32.2792C56.8633 32.5607 56.8633 32.936 56.8633 33.2175C56.5818 31.9039 54.8928 30.121 53.0161 29.558L52.9223 28.7135C49.8258 26.2738 41.3807 22.1451 30.9652 23.1773C31.2467 22.802 31.622 22.4266 31.9035 22.1451C41.8499 21.0191 51.5148 23.1773 55.5496 26.18ZM42.2252 17.735C47.8553 17.735 52.7346 20.9253 55.1743 25.5232C54.0483 24.1157 52.4531 22.7082 50.1073 22.1451C48.1368 19.7055 40.3486 18.0165 35.0939 19.6116C36.689 18.6733 39.4102 17.6411 42.2252 17.735Z" fill="#0072BA"/>
<path d="M8.06958 70.7513C8.06958 65.6843 11.9168 62.2124 16.9838 62.2124C22.0508 62.2124 25.8042 65.7781 25.8042 70.7513C25.8042 75.8183 22.0508 79.2902 16.9838 79.2902C11.8229 79.384 8.06958 75.8183 8.06958 70.7513ZM21.394 70.7513C21.394 68.0301 19.6111 65.9658 16.89 65.9658C14.1688 65.9658 12.3859 68.0301 12.3859 70.7513C12.3859 73.4725 14.1688 75.5368 16.89 75.5368C19.6111 75.6306 21.394 73.4725 21.394 70.7513Z" fill="white"/>
<path d="M34.4369 79.1027V77.4137C30.0268 76.9445 27.3994 74.6925 27.3994 70.8453C27.3994 66.9982 30.0268 64.7462 34.4369 64.277V62.4941H38.0965V64.1832C42.5067 64.6523 45.134 66.9043 45.134 70.7515C45.134 74.6925 42.5067 76.8507 38.0965 77.3199V79.0089H34.4369V79.1027ZM34.4369 73.5665V68.0303C32.2788 68.3118 31.1528 69.344 31.1528 70.8453C31.1528 72.3467 32.2788 73.285 34.4369 73.5665ZM38.0965 68.0303V73.5665C40.2546 73.285 41.3806 72.3467 41.3806 70.7515C41.3806 69.2502 40.2546 68.3118 38.0965 68.0303Z" fill="white"/>
<path d="M46.3538 73.9419C47.7613 73.7542 48.6058 73.0974 48.9811 69.8132L49.8256 62.4941H60.6165V73.7542H61.9302V79.6657H58.1768V77.0384H50.1071V79.6657H46.3538V73.9419ZM51.0454 73.6604H56.8631V65.6845H53.2036L52.6406 70.0947C52.453 71.6898 51.89 72.8159 51.0454 73.6604Z" fill="white"/>
</svg>
