<svg width="26" height="33" viewBox="0 0 26 33" fill="none" xmlns="http://www.w3.org/2000/svg">
<path d="M10.5293 9.93188H5.53723C5.40672 10.356 5.34147 10.7802 5.30884 11.2696H10.3336C10.3336 10.8128 10.3988 10.356 10.5293 9.93188Z" fill="white"/>
<path d="M11.4427 8.23529H6.45055C6.12427 8.62683 5.86325 9.08362 5.66748 9.57304H10.6922C10.8553 9.08362 11.1164 8.62683 11.4427 8.23529Z" fill="white"/>
<path d="M12.8785 7.02805C12.128 6.60388 11.2797 6.37549 10.3661 6.37549C8.96309 6.37549 7.65797 6.96279 6.74438 7.87638H11.8017C12.128 7.5501 12.4869 7.25645 12.8785 7.02805Z" fill="white"/>
<path d="M11.8016 14.9893H6.77686C7.69044 15.9028 8.96294 16.4901 10.3986 16.4901C11.3122 16.4901 12.1605 16.2617 12.9109 15.8376C12.4868 15.6092 12.1279 15.3155 11.8016 14.9893C12.552 15.0219 13.955 15.5439 14.0529 15.9355C14.0529 16.066 13.3677 15.9355 12.8783 15.805C13.4982 16.1312 14.2487 16.4575 15.3907 16.4575C15.5864 16.4575 15.7822 16.4575 15.978 16.4249C14.836 15.3155 13.0414 14.8261 11.4753 14.5977C11.5732 14.7609 11.6711 14.8914 11.8016 14.9893Z" fill="white"/>
<path d="M18.1315 7.90907C18.9799 8.13746 19.5019 8.59426 19.8935 9.08368C19.0451 7.4849 17.3485 6.37555 15.3908 6.37555C14.3793 6.34292 13.4657 6.70183 12.8784 7.02811C14.7056 6.47343 17.4464 7.06074 18.1315 7.90907Z" fill="white"/>
<path d="M10.6598 9.57307L10.5293 9.93198C14.8036 9.76883 17.7727 11.3676 18.9147 12.477L18.7842 12.8359C19.0779 12.9664 19.6325 13.3906 19.7957 13.88V13.9126C20.1546 13.2927 20.3504 12.6075 20.4156 11.857C18.0338 10.2909 15.032 9.44255 10.6598 9.57307Z" fill="white"/>
<path d="M11.8014 7.8764C11.6709 8.00691 11.573 8.1048 11.4751 8.23531C15.0968 7.90903 18.066 9.31204 19.1101 10.1604L19.1427 10.454C19.7953 10.6824 20.3499 11.2697 20.4804 11.7265C20.4804 11.6286 20.4804 11.4981 20.4804 11.4002C20.4804 10.6498 20.3173 9.93197 20.0237 9.27941C18.6206 8.26794 15.26 7.51749 11.8014 7.8764Z" fill="white"/>
<path d="M11.4753 14.6304C11.149 14.2389 10.888 13.7821 10.6922 13.3253C10.7248 13.3253 10.7575 13.3253 10.7901 13.3253C14.0529 13.8474 15.3906 15.0546 16.0432 15.6419L15.7822 15.7398C16.0758 15.9682 16.2064 16.1966 16.2716 16.425C17.0221 16.2945 17.7072 16.0008 18.3272 15.5767C15.9453 14.1084 14.5423 13.1622 10.6269 12.9338C10.5943 12.9338 10.5943 12.9338 10.5617 12.9338L10.6922 13.2927H5.66748C5.86325 13.7821 6.12427 14.2063 6.45055 14.5978H11.4753V14.6304Z" fill="white"/>
<path d="M10.3336 11.6286C13.5637 11.7265 16.2719 13.0316 17.838 14.402L17.6749 14.5652C18.0664 14.7935 18.3927 15.1851 18.5232 15.4461C19.0453 15.0546 19.4694 14.5652 19.8283 13.9778C17.3486 12.3138 14.51 11.335 10.3662 11.2697C10.3009 11.3676 10.3009 11.4981 10.3336 11.6286H5.30884C5.34147 12.0854 5.40672 12.5422 5.53723 12.9664H10.562C10.3988 12.5096 10.3336 12.0854 10.3336 11.6286Z" fill="white"/>
<path d="M11.541 24.8104C11.541 25.3324 11.9326 25.6587 12.683 25.7892V23.8641C11.9326 23.962 11.541 24.2883 11.541 24.8104Z" fill="white"/>
<path d="M6.58104 23.1463C5.63483 23.1463 5.01489 23.8641 5.01489 24.8103C5.01489 25.7566 5.63483 26.4744 6.58104 26.4744C7.52726 26.4744 8.14719 25.7239 8.14719 24.8103C8.14719 23.8967 7.52726 23.1463 6.58104 23.1463Z" fill="white"/>
<path d="M13.9553 23.8641V25.7892C14.7058 25.6913 15.0973 25.365 15.0973 24.8104C15.0973 24.2883 14.7058 23.962 13.9553 23.8641Z" fill="white"/>
<path d="M21.2637 0.404541H12.8783H4.49287C2.40467 0.404541 0.708008 2.1012 0.708008 4.1894V29.2151C0.708008 31.3033 2.40467 33 4.49287 33H21.2637C23.3519 33 25.0486 31.3033 25.0486 29.2151V4.1894C25.0159 2.1012 23.3193 0.404541 21.2637 0.404541ZM10.3659 5.46189H15.3906C18.6861 5.46189 21.3616 8.1374 21.3616 11.4328C21.3616 14.7283 18.6861 17.4038 15.3906 17.4038H10.3986C7.10311 17.4038 4.42761 14.7283 4.42761 11.4328C4.39498 8.1374 7.07048 5.46189 10.3659 5.46189ZM6.58106 27.8121C4.81915 27.8121 3.4814 26.5723 3.4814 24.843C3.4814 23.0811 4.81915 21.8738 6.58106 21.8738C8.34298 21.8738 9.6481 23.1137 9.6481 24.843C9.68073 26.5723 8.34298 27.8121 6.58106 27.8121ZM13.955 27.1269V27.7142H12.6825V27.1269C11.149 26.9638 10.2354 26.1807 10.2354 24.843C10.2354 23.5052 11.149 22.7222 12.6825 22.559V21.9391H13.955V22.5264C15.4885 22.6895 16.4021 23.4726 16.4021 24.8104C16.4021 26.1807 15.4885 26.9638 13.955 27.1269ZM22.2425 27.8774H20.9374V26.9638H18.1314V27.8774H16.8263V25.8871C17.3157 25.8218 17.6094 25.5934 17.7399 24.4514L18.0335 21.9065H21.7858V25.8218H22.2425V27.8774Z" fill="white"/>
<path d="M19.0127 24.5819C18.9474 25.1366 18.7517 25.5608 18.458 25.8218H20.4809V23.0484H19.2085L19.0127 24.5819Z" fill="white"/>
</svg>
