<svg width="208" height="72" viewBox="0 0 208 72" fill="none" xmlns="http://www.w3.org/2000/svg">
<path d="M50.2139 21.008C55.6243 26.3555 58.8957 33.7162 58.8957 41.8947C58.8957 58.1259 45.7472 71.3374 29.453 71.3374C13.2218 71.3374 0.0732422 58.1259 0.0732422 41.8947C0.0732422 33.7162 3.40757 26.3555 8.75506 21.008L17.9402 11.8229C18.1918 11.5712 18.5064 11.6341 18.5064 12.0745V22.5179C18.5064 25.5376 18.4435 27.3621 16.0528 30.0044C15.9899 30.1302 15.8641 30.1931 15.8012 30.3189C13.096 33.5274 11.7748 37.6167 11.7748 41.8947C11.7748 51.646 19.7017 59.5729 29.453 59.5729C39.2044 59.5729 47.1312 51.646 47.1312 41.8947C47.1312 37.6167 45.873 33.5274 43.1049 30.3189C43.042 30.1931 42.9161 30.1302 42.8532 30.0044C40.5255 27.3621 40.3997 25.5376 40.3997 22.5179V12.0745C40.3997 11.6341 40.7142 11.5083 40.9659 11.8229L50.2139 21.008ZM29.5159 37.2392C33.1648 37.2392 36.1217 34.2824 36.1217 30.6335V7.41906C36.1217 7.04159 35.9959 6.78994 35.7442 6.53829L30.208 1.00206C30.0192 0.813323 29.7676 0.6875 29.5159 0.6875C29.2643 0.6875 29.0126 0.813323 28.8239 1.00206L23.2877 6.53829C23.036 6.78994 22.9102 7.1045 22.9102 7.41906V30.6335C22.9102 34.2824 25.8671 37.2392 29.5159 37.2392ZM96.0137 44.1595C96.0137 46.6131 95.07 48.8779 93.4972 50.5765L95.4475 53.3446C95.5104 53.4075 95.5104 53.5334 95.4475 53.5963C95.3846 53.6592 95.3216 53.7221 95.2587 53.7221H90.9807C90.8549 53.7221 90.7291 53.6592 90.6662 53.5334L90.2258 52.9043C89.0934 53.3446 87.898 53.6592 86.5769 53.6592C81.3552 53.6592 77.0772 49.3812 77.0772 44.1595C77.0772 38.9378 81.3552 34.6598 86.5769 34.6598C91.7986 34.6598 96.0137 38.9378 96.0137 44.1595ZM92.3648 44.1595C92.3648 40.951 89.7854 38.3716 86.5769 38.3716C83.3684 38.3716 80.789 40.951 80.789 44.1595C80.789 47.368 83.3684 49.9474 86.5769 49.9474C87.0802 49.9474 87.5835 49.8845 88.0239 49.7587L87.1431 48.5633C87.0173 48.4375 87.0802 48.2488 87.206 48.123C87.5835 47.6826 88.0868 47.3051 88.5272 46.9906C89.0305 46.676 89.5338 46.3614 90.037 46.1098C90.1629 46.0469 90.3516 46.1098 90.4774 46.2356L91.3582 47.4309C91.9873 46.5502 92.3648 45.4178 92.3648 44.1595ZM116.586 44.1595V53.1559C116.586 53.3446 116.46 53.4705 116.334 53.4705C115.768 53.5963 115.202 53.6592 114.573 53.6592C113.944 53.6592 113.377 53.5963 112.811 53.4705C112.622 53.4705 112.559 53.2817 112.559 53.1559V51.9606C111.05 53.0301 109.162 53.6592 107.149 53.6592C101.927 53.6592 97.6494 49.3812 97.6494 44.1595C97.6494 38.9378 101.927 34.6598 107.149 34.6598C112.308 34.6598 116.586 38.9378 116.586 44.1595ZM112.937 44.1595C112.937 40.951 110.358 38.3716 107.149 38.3716C103.941 38.3716 101.361 40.951 101.361 44.1595C101.361 47.368 103.941 49.9474 107.149 49.9474C110.295 50.0103 112.937 47.368 112.937 44.1595ZM171.13 44.1595C171.13 46.6131 170.187 48.8779 168.614 50.5765L170.564 53.3446C170.627 53.4075 170.627 53.5334 170.564 53.5963C170.501 53.6592 170.438 53.7221 170.375 53.7221H166.097C165.972 53.7221 165.846 53.6592 165.783 53.5334L165.342 52.9043C164.21 53.3446 163.015 53.6592 161.694 53.6592C156.472 53.6592 152.194 49.3812 152.194 44.1595C152.194 38.9378 156.472 34.6598 161.694 34.6598C166.915 34.6598 171.13 38.9378 171.13 44.1595ZM167.481 44.1595C167.481 40.951 164.902 38.3716 161.694 38.3716C158.485 38.3716 155.906 40.951 155.906 44.1595C155.906 47.368 158.485 49.9474 161.694 49.9474C162.197 49.9474 162.7 49.8845 163.141 49.7587L162.26 48.5633C162.134 48.4375 162.197 48.2488 162.323 48.123C162.7 47.6826 163.203 47.3051 163.644 46.9906C164.147 46.676 164.65 46.3614 165.154 46.1098C165.28 46.0469 165.468 46.1098 165.594 46.2356L166.475 47.4309C167.104 46.5502 167.481 45.4178 167.481 44.1595ZM201.013 30.0673C200.447 29.9415 199.881 29.8786 199.252 29.8786C198.623 29.8786 198.057 29.9415 197.49 30.0673C197.302 30.0673 197.239 30.256 197.239 30.3818V33.5274C197.239 33.7162 197.365 33.842 197.49 33.842C198.057 33.9678 198.623 34.0307 199.252 34.0307C199.881 34.0307 200.447 33.9678 201.013 33.842C201.202 33.842 201.265 33.6533 201.265 33.5274V30.3818C201.265 30.256 201.202 30.1302 201.013 30.0673ZM131.685 49.8216H124.701C124.576 49.8216 124.45 49.7587 124.387 49.6328C124.324 49.507 124.324 49.3812 124.387 49.3183L132.062 35.4148C132.125 35.289 132.125 35.1631 132.062 35.1002C131.999 34.9744 131.873 34.9115 131.748 34.9115H118.536C118.347 34.9115 118.222 35.0373 118.222 35.2261V38.12C118.222 38.3087 118.347 38.4346 118.536 38.4346H125.582C125.708 38.4346 125.834 38.4975 125.897 38.6233C125.96 38.7491 125.96 38.8749 125.897 38.9378L118.222 52.9043C118.159 53.0301 118.159 53.1559 118.222 53.2188C118.284 53.3446 118.41 53.4076 118.536 53.4076H131.685C131.873 53.4076 131.999 53.2817 131.999 53.093V50.1991C131.999 50.0103 131.873 49.8216 131.685 49.8216ZM201.013 35.5406C200.447 35.4148 199.881 35.3519 199.252 35.3519C198.623 35.3519 198.057 35.4148 197.49 35.5406C197.302 35.5406 197.239 35.7293 197.239 35.8552V43.9079V52.9043C197.239 53.093 197.365 53.2188 197.49 53.2188C198.057 53.3446 198.623 53.4076 199.252 53.4076C199.881 53.4076 200.447 53.3446 201.013 53.2188C201.202 53.2188 201.265 53.0301 201.265 52.9043V43.9079V35.8552C201.265 35.6664 201.202 35.5406 201.013 35.5406ZM207.619 30.0673C207.053 29.9415 206.487 29.8786 205.858 29.8786C205.228 29.8786 204.662 29.9415 204.096 30.0673C203.907 30.0673 203.844 30.256 203.844 30.3818V52.9043C203.844 53.093 203.97 53.2188 204.096 53.2188C204.662 53.3446 205.228 53.4076 205.858 53.4076C206.487 53.4076 207.053 53.3446 207.619 53.2188C207.808 53.2188 207.871 53.0301 207.871 52.9043V30.4448C207.871 30.256 207.745 30.1302 207.619 30.0673ZM195.288 44.1595C195.288 49.3812 191.01 53.6592 185.789 53.6592C180.567 53.6592 176.289 49.3812 176.289 44.1595C176.289 38.9378 180.567 34.6598 185.789 34.6598C191.01 34.6598 195.288 38.9378 195.288 44.1595ZM191.577 44.1595C191.577 40.951 188.997 38.3716 185.789 38.3716C182.58 38.3716 180.001 40.951 180.001 44.1595C180.001 47.368 182.58 49.9474 185.789 49.9474C188.997 50.0103 191.577 47.368 191.577 44.1595ZM150.432 44.1595V53.1559C150.432 53.3446 150.307 53.4705 150.181 53.4705C149.614 53.5963 149.048 53.6592 148.419 53.6592C147.79 53.6592 147.224 53.5963 146.658 53.4705C146.469 53.4705 146.406 53.2817 146.406 53.1559V51.9606C144.896 53.0301 143.009 53.6592 140.996 53.6592C135.774 53.6592 131.496 49.3812 131.496 44.1595C131.496 38.9378 135.774 34.6598 140.996 34.6598C146.154 34.6598 150.432 38.9378 150.432 44.1595ZM146.783 44.1595C146.783 40.951 144.204 38.3716 140.996 38.3716C137.787 38.3716 135.208 40.951 135.208 44.1595C135.208 47.368 137.787 49.9474 140.996 49.9474C144.141 50.0103 146.783 47.368 146.783 44.1595Z" fill="#FF6400"/>
</svg>
