<svg width="113" height="61" viewBox="0 0 113 61" fill="none" xmlns="http://www.w3.org/2000/svg">
<path d="M77.8038 19.8409C77.2008 19.8409 76.7486 19.7656 76.2964 19.6148C75.9196 19.4641 75.4674 19.1626 75.4674 18.4843C75.4674 17.806 75.9949 17.3538 76.5225 17.3538C76.7486 17.3538 76.824 17.3538 76.9747 17.4291C77.2008 17.5045 77.3516 17.5045 77.5777 17.5045C78.0299 17.5045 78.256 17.4291 78.5575 16.9015L78.6329 16.6754L75.392 9.13852C75.3166 8.98778 75.2412 8.6863 75.2412 8.53556C75.2412 7.78187 75.8442 7.25429 76.5979 7.25429C77.2762 7.25429 77.6531 7.63113 77.8792 8.23409L79.9141 13.8114L81.8737 8.30946C82.0998 7.7065 82.4767 7.25429 83.155 7.25429C83.8333 7.25429 84.4363 7.78187 84.4363 8.53556C84.4363 8.76167 84.3609 9.06315 84.2855 9.13852L80.9693 17.1277C80.2156 19.1626 79.4619 19.8409 77.8038 19.8409ZM61.5994 14.2636C61.5994 16.4493 62.73 17.1277 64.3881 17.1277C64.991 17.1277 65.4432 17.0523 65.9708 16.8262C66.3477 16.6754 66.6492 16.2986 66.6492 15.8464C66.6492 15.2434 66.1216 14.7158 65.5186 14.7158C65.4432 14.7158 65.2925 14.7158 65.2171 14.7158C64.6142 14.7158 64.3127 14.4144 64.3127 13.8114V9.74147H65.5186C66.1216 9.74147 66.6492 9.21389 66.6492 8.61093C66.6492 8.00798 66.1216 7.4804 65.5186 7.4804H64.3127V6.27449C64.3127 5.5208 63.7098 4.91784 62.9561 4.91784C62.2024 4.91784 61.5994 5.5208 61.5994 6.27449V7.4804H60.7704C60.1674 7.4804 59.6398 8.00798 59.6398 8.61093C59.6398 9.21389 60.1674 9.74147 60.7704 9.74147H61.5994V14.2636ZM73.8846 15.8464C73.8846 15.2434 73.357 14.7158 72.7541 14.7158C72.6787 14.7158 72.528 14.7158 72.4526 14.7158C71.8496 14.7158 71.5482 14.4144 71.5482 13.8114V9.74147H73.0555C73.6585 9.74147 74.1861 9.21389 74.1861 8.61093C74.1861 8.00798 73.6585 7.4804 73.0555 7.4804H71.5482V6.27449C71.5482 5.5208 70.9452 4.91784 70.1915 4.91784C69.4378 4.91784 68.8349 5.5208 68.8349 6.27449V7.4804H68.0812C67.4782 7.4804 66.9506 8.00798 66.9506 8.61093C66.9506 9.21389 67.4782 9.74147 68.0812 9.74147H68.8349V14.2636C68.8349 16.4493 69.9654 17.1277 71.6235 17.1277C72.2265 17.1277 72.6787 17.0523 73.2063 16.8262C73.5831 16.7508 73.8846 16.374 73.8846 15.8464ZM53.1581 17.1277C50.9724 17.1277 48.7867 15.3942 48.7867 12.2287C48.7867 9.06315 50.897 7.32966 53.1581 7.32966C54.5901 7.32966 55.4945 8.00798 56.0975 8.76167C56.0975 8.00798 56.7004 7.40503 57.4541 7.40503C58.2078 7.40503 58.8108 8.00798 58.8108 8.76167V15.771C58.8108 16.5247 58.2078 17.1277 57.4541 17.1277C56.7004 17.1277 56.0975 16.5247 56.0975 15.771V15.6203C55.4191 16.5247 54.5147 17.1277 53.1581 17.1277ZM53.8364 14.8666C55.1177 14.8666 56.1728 13.8114 56.1728 12.2287C56.1728 10.6459 55.1177 9.59073 53.8364 9.59073C52.5551 9.59073 51.4999 10.6459 51.4999 12.2287C51.4999 13.8114 52.5551 14.8666 53.8364 14.8666ZM42.6817 17.1277C45.395 17.1277 47.2793 15.771 47.2793 13.2838C47.2793 11.0981 45.8473 10.1937 43.3601 9.51536C41.1744 8.98778 40.6468 8.6863 40.6468 7.85724C40.6468 7.25429 41.1744 6.80207 42.2295 6.80207C43.0586 6.80207 43.963 7.10355 44.8675 7.63113C45.0936 7.78187 45.3197 7.85724 45.5458 7.85724C46.2241 7.85724 46.8271 7.32966 46.8271 6.57597C46.8271 6.04838 46.5256 5.67154 46.2241 5.5208C45.0936 4.84247 43.8123 4.39026 42.3049 4.39026C39.7423 4.39026 37.9335 5.89764 37.9335 8.15872C37.9335 10.6459 39.5162 11.3242 42.0788 11.9272C44.1891 12.4548 44.566 12.8316 44.566 13.5099C44.566 14.2636 43.8877 14.7158 42.7571 14.7158C41.5512 14.7158 40.496 14.2636 39.5916 13.5853C39.4409 13.4346 39.1394 13.3592 38.8379 13.3592C38.1596 13.3592 37.5566 13.8868 37.5566 14.6405C37.5566 15.0927 37.7827 15.4695 38.0842 15.6956C39.3655 16.6754 41.0236 17.1277 42.6817 17.1277ZM56.0221 24.8907C54.6655 24.8907 53.8364 25.6444 53.2334 26.3981V22.8557C53.2334 22.102 52.6305 21.4991 51.8768 21.4991C51.1231 21.4991 50.5201 22.102 50.5201 22.8557V33.332C50.5201 34.0857 51.1231 34.6887 51.8768 34.6887C52.6305 34.6887 53.2334 34.0857 53.2334 33.332V29.2621C53.2334 27.9808 53.9118 27.3025 54.8916 27.3025C55.9467 27.3025 56.5497 27.9808 56.5497 29.2621V33.332C56.5497 34.0857 57.1526 34.6887 57.9063 34.6887C58.66 34.6887 59.263 34.0857 59.263 33.332V28.433C59.263 26.2473 58.1324 24.8907 56.0221 24.8907ZM47.2793 22.1774H39.2901C38.6118 22.1774 38.0842 22.705 38.0842 23.3833C38.0842 24.0616 38.6118 24.5892 39.2901 24.5892H44.7921L38.3103 32.1261C38.0089 32.503 37.7827 32.9552 37.7827 33.4074V33.4828C37.7827 34.1611 38.3103 34.6887 38.9887 34.6887H47.1285C47.8069 34.6887 48.3344 34.1611 48.3344 33.4828C48.3344 32.8044 47.8069 32.2769 47.1285 32.2769H41.4005L47.8822 24.7399C48.1837 24.3631 48.4098 23.9109 48.4098 23.4587V23.3833C48.4852 22.705 47.8822 22.1774 47.2793 22.1774ZM87.3757 22.8557V33.332C87.3757 34.0857 86.7727 34.6887 86.019 34.6887C85.2653 34.6887 84.6624 34.0857 84.6624 33.332V33.1813C83.9841 34.0857 83.0796 34.764 81.723 34.764C79.5373 34.764 77.3516 33.0306 77.3516 29.8651C77.3516 26.6995 79.4619 24.9661 81.723 24.9661C83.155 24.9661 84.0594 25.6444 84.6624 26.3981V22.9311C84.6624 22.1774 85.2653 21.5744 86.019 21.5744C86.7727 21.4991 87.3757 22.102 87.3757 22.8557ZM84.7378 29.7897C84.7378 28.2069 83.6826 27.1518 82.4013 27.1518C81.12 27.1518 80.0649 28.2069 80.0649 29.7897C80.0649 31.3724 81.12 32.4276 82.4013 32.4276C83.6826 32.503 84.7378 31.4478 84.7378 29.7897ZM97.0229 24.9661C96.3446 24.9661 95.9678 25.4183 95.7417 26.0212L93.7821 31.5232L91.7471 25.9459C91.521 25.3429 91.1441 24.9661 90.4658 24.9661C89.7121 24.9661 89.1092 25.4936 89.1092 26.2473C89.1092 26.3981 89.1845 26.6995 89.2599 26.8503L92.5008 34.3872L92.4254 34.6133C92.1993 35.0655 91.9732 35.2163 91.4456 35.2163C91.2195 35.2163 91.1441 35.2163 90.8427 35.1409C90.7673 35.1409 90.6166 35.0655 90.3905 35.0655C89.8629 35.0655 89.3353 35.5177 89.3353 36.1961C89.3353 36.8744 89.7875 37.1759 90.1643 37.3266C90.6166 37.4773 91.0688 37.5527 91.6717 37.5527C93.2545 37.5527 94.0835 36.799 94.9126 34.9148L98.2288 26.9257C98.3042 26.7749 98.3796 26.4734 98.3796 26.3227C98.3042 25.4936 97.7766 24.9661 97.0229 24.9661ZM68.8349 24.9661C68.0812 24.9661 67.4782 25.569 67.4782 26.3227V30.3926C67.4782 31.6739 66.7999 32.3522 65.8201 32.3522C64.7649 32.3522 64.162 31.6739 64.162 30.3926V26.3227C64.162 25.569 63.559 24.9661 62.8053 24.9661C62.0516 24.9661 61.4487 25.569 61.4487 26.3227V31.2217C61.4487 33.4074 62.6546 34.764 64.6896 34.764C66.0462 34.764 66.8753 34.0104 67.4782 33.2567V33.332C67.4782 34.0857 68.0812 34.6887 68.8349 34.6887C69.5886 34.6887 70.1915 34.0857 70.1915 33.332V26.3227C70.1915 25.569 69.5886 24.9661 68.8349 24.9661ZM106.595 25.0414H100.641C100.038 25.0414 99.5101 25.569 99.5101 26.172C99.5101 26.7749 100.038 27.2271 100.641 27.2271H104.409L99.9623 32.1261C99.5101 32.5783 99.3594 32.9552 99.3594 33.4074V33.4828C99.3594 34.0857 99.887 34.5379 100.641 34.5379H106.746C107.349 34.5379 107.876 34.0857 107.876 33.4828C107.876 32.8798 107.349 32.3522 106.746 32.3522H102.826L107.273 27.4532C107.725 27.001 107.876 26.6242 107.876 26.172V26.0966C107.876 25.4936 107.349 25.0414 106.595 25.0414ZM73.96 21.4991C73.2063 21.4991 72.6033 22.102 72.6033 22.8557V33.332C72.6033 34.0857 73.2063 34.6887 73.96 34.6887C74.7137 34.6887 75.3166 34.0857 75.3166 33.332V22.8557C75.3166 22.102 74.7137 21.4991 73.96 21.4991ZM113.001 24.137C113.001 25.1168 112.172 25.7951 111.343 25.7951C110.514 25.7951 109.685 25.1168 109.685 24.137C109.685 23.1572 110.514 22.4789 111.343 22.4789C112.172 22.4789 113.001 23.1572 113.001 24.137ZM112.624 24.137C112.624 23.3079 111.946 22.7803 111.268 22.7803C110.589 22.7803 109.911 23.3079 109.911 24.137C109.911 24.9661 110.589 25.4936 111.268 25.4936C112.021 25.4936 112.624 24.9661 112.624 24.137ZM111.494 24.3631L112.021 25.0414H111.795L111.268 24.3631H110.966V25.0414H110.74V23.2326H111.343C111.72 23.2326 112.021 23.4587 112.021 23.8355C111.946 24.0616 111.795 24.2877 111.494 24.3631ZM111.343 24.137C111.645 24.137 111.795 23.9863 111.795 23.7601C111.795 23.534 111.645 23.3833 111.343 23.3833H110.966V24.0616H111.343V24.137Z" fill="#004992"/>
<path fill-rule="evenodd" clip-rule="evenodd" d="M11.1773 21.9512L2.96201 23.534C2.58517 23.6094 2.20832 23.6847 1.83147 23.6847C1.68074 23.6847 1.53 23.6094 1.30389 23.534C0.39946 23.1572 0.0226137 22.1774 0.39946 21.2729C0.550198 20.8961 1.00241 20.4439 1.30389 20.067L6.429 13.9621L2.28369 6.27445C2.20832 6.12371 2.13295 6.04834 2.13295 5.97297C1.98221 5.52076 1.90684 5.06854 2.13295 4.61632C2.43443 3.86263 3.26349 3.48579 4.01718 3.63653C4.24329 3.63653 4.62014 3.78726 4.84624 3.938L12.6093 7.10351L18.7142 0.546387L18.7895 0.471018C19.2418 0.0188029 19.9955 -0.131935 20.6738 0.169541C21.3521 0.471018 21.7289 1.07397 21.7289 1.7523C21.7289 1.82766 21.7289 1.82766 21.7289 1.90303L21.0506 10.872L28.6629 14.4143C28.9644 14.5651 29.3412 14.7158 29.492 14.8665C30.0949 15.3188 30.3964 16.1478 30.0196 16.9015C29.7935 17.3537 29.4166 17.6552 29.0398 17.8059C28.9644 17.8813 28.8137 17.8813 28.7383 17.8813L20.1462 19.9916C23.9147 39.8891 41.3249 54.963 62.2776 54.963C75.0904 54.963 86.6218 49.3103 94.4602 40.3413C94.6863 40.0399 95.0632 39.8891 95.44 39.8891C96.4952 39.8891 97.0982 41.0197 96.4952 41.9241C96.3445 42.2256 96.043 42.527 95.8169 42.8285C94.611 44.2605 93.0282 45.7679 91.6716 47.1246C83.0041 55.1137 71.3973 60.0127 58.7352 60.0127C35.4461 60.0127 16.0763 43.7329 11.1773 21.9512Z" fill="#FFCD0A"/>
</svg>
