<svg width="147" height="46" viewBox="0 0 147 46" fill="none" xmlns="http://www.w3.org/2000/svg">
<path d="M120.5 4.495C119.378 4.67601 118.328 5.03804 117.351 5.61728C116.373 6.16032 115.504 6.92058 114.78 7.75324C112.355 10.5409 111.667 14.3059 111.667 15.4282L111.703 36.4258C111.703 36.281 111.703 36.1724 111.739 36.0276C111.739 35.9914 111.739 35.9552 111.739 35.919C111.739 35.8828 111.739 35.8466 111.739 35.8466C111.739 35.7742 111.739 35.7018 111.776 35.5931C111.776 35.5569 111.776 35.4845 111.812 35.4483C111.812 35.3397 111.848 35.1949 111.884 35.0863C111.92 34.9777 111.92 34.8329 111.957 34.7243V34.6881C111.957 34.6519 111.993 34.5795 111.993 34.5433C112.029 34.4709 112.029 34.3623 112.065 34.2898C112.065 34.2536 112.101 34.1812 112.101 34.145C112.138 34.0364 112.138 33.964 112.174 33.8554C112.21 33.783 112.21 33.7106 112.246 33.6382C112.319 33.4572 112.391 33.24 112.463 33.059V33.0228C112.463 32.9865 112.463 32.9865 112.5 32.9503C112.5 32.9141 112.536 32.8779 112.536 32.8417C112.572 32.7331 112.644 32.6245 112.681 32.5159C112.717 32.4073 112.789 32.2987 112.862 32.1901C112.862 32.1901 112.898 32.1539 112.898 32.1177C112.97 32.0091 113.006 31.9005 113.079 31.7919C113.079 31.7919 113.079 31.7919 113.079 31.7557C113.151 31.647 113.224 31.5022 113.296 31.3936C113.368 31.285 113.441 31.1764 113.513 31.0678C113.549 31.0316 113.549 30.9954 113.586 30.9592C113.658 30.8506 113.73 30.742 113.803 30.6696C113.803 30.6334 113.839 30.6334 113.839 30.5972C113.912 30.4886 113.984 30.4162 114.056 30.3075C114.129 30.1989 114.237 30.0903 114.346 29.9817C114.455 29.8731 114.563 29.7283 114.672 29.6197C114.744 29.5473 114.853 29.4387 114.925 29.3663C115.034 29.2577 115.142 29.1491 115.287 29.0405C115.36 28.968 115.468 28.8956 115.577 28.787C115.577 28.787 115.613 28.787 115.613 28.7508C116.047 28.3888 116.518 28.0992 116.989 27.8096C117.966 27.2665 119.089 26.9045 120.211 26.7959L137.479 25.0219C138.71 24.9133 139.905 24.5151 140.991 23.9359C142.077 23.3566 143.127 22.6688 143.887 21.6913C146.313 18.5417 146.784 15.2472 146.747 13.9801V0.512695L120.5 4.495ZM127.126 17.6004L125.315 17.8176L125.279 19.8088L126.474 19.6639L126.438 21.6189L121.188 22.1981L121.224 20.2432L122.709 20.0622L122.745 18.1072L116.989 18.7951L117.025 16.5143L121.768 8.26008L125.424 7.75324L125.315 15.8989L127.126 15.6816V17.6004ZM138.674 20.2794L135.959 20.569V19.2657C135.814 19.5191 135.669 19.7363 135.452 19.9536C135.271 20.1708 135.054 20.3518 134.8 20.5328C134.547 20.7138 134.257 20.8586 133.932 20.9672C133.606 21.0758 133.244 21.1845 132.846 21.2207C132.773 21.2207 132.665 21.2569 132.592 21.2569C132.52 21.2569 132.411 21.2569 132.339 21.2569C132.266 21.2569 132.194 21.2569 132.085 21.2569C132.013 21.2569 131.94 21.2569 131.832 21.2569C131.144 21.1845 130.529 21.0034 130.022 20.6414C129.515 20.2794 129.08 19.8088 128.755 19.2295C128.429 18.6503 128.175 17.9262 127.994 17.1298C127.813 16.3333 127.741 15.4282 127.741 14.4145C127.741 13.2561 127.922 12.17 128.175 11.2287C128.465 10.2874 128.863 9.45477 129.37 8.76692C129.877 8.07907 130.492 7.49982 131.216 7.10159C131.94 6.66716 132.737 6.41374 133.642 6.26893C133.751 6.23273 133.895 6.23273 134.004 6.23273C134.113 6.23273 134.257 6.19652 134.366 6.19652C134.475 6.19652 134.583 6.19652 134.692 6.19652C134.8 6.19652 134.909 6.19652 135.018 6.19652C135.633 6.23273 136.14 6.34134 136.574 6.52235C137.009 6.70336 137.371 6.99298 137.697 7.31881C137.986 7.64463 138.204 8.00666 138.385 8.44109C138.529 8.87553 138.638 9.30996 138.674 9.8168L136.285 10.4684C136.212 10.1788 136.104 9.8892 135.959 9.67199C135.85 9.45477 135.706 9.23755 135.525 9.05654C135.38 8.87553 135.163 8.76692 134.981 8.65831C134.764 8.58591 134.547 8.5135 134.294 8.5135C134.257 8.5135 134.221 8.5135 134.149 8.5135C134.113 8.5135 134.04 8.5135 134.004 8.5135C133.968 8.5135 133.895 8.5135 133.859 8.5135C133.823 8.5135 133.751 8.5135 133.714 8.5135C133.244 8.58591 132.809 8.73072 132.447 9.02034C132.085 9.27376 131.796 9.63578 131.542 10.1064C131.397 10.3598 131.289 10.6133 131.216 10.9391C131.216 10.9753 131.18 11.0477 131.18 11.0839C131.18 11.1201 131.18 11.1201 131.144 11.1563C131.144 11.1925 131.108 11.2287 131.108 11.3011C131.072 11.3735 131.072 11.4821 131.035 11.5907C131.035 11.6631 130.999 11.7355 130.999 11.7717C130.999 11.8079 130.999 11.8079 130.999 11.8442C130.999 11.8804 130.999 11.9166 130.963 11.9528V11.989C130.963 12.0976 130.927 12.17 130.927 12.2786V12.3148C130.927 12.3148 130.927 12.3148 130.927 12.351C130.927 12.3872 130.927 12.4596 130.891 12.4958C130.891 12.532 130.891 12.5682 130.891 12.6044C130.891 12.6406 130.891 12.6406 130.891 12.6768C130.891 12.713 130.891 12.713 130.891 12.7492C130.891 12.7854 130.891 12.8216 130.891 12.8216C130.891 12.894 130.891 12.9664 130.891 13.0026C130.891 13.0388 130.891 13.075 130.891 13.1112C130.891 13.2199 130.891 13.3285 130.891 13.4009V13.4371C130.891 13.4733 130.891 13.4733 130.891 13.5095C130.891 13.5457 130.891 13.5819 130.891 13.6181C130.891 13.6905 130.891 13.7629 130.891 13.8715C130.891 14.5956 130.927 15.2472 131.035 15.7902C131.144 16.3695 131.289 16.8401 131.47 17.2746C131.687 17.6728 131.94 17.9986 132.23 18.252C132.556 18.4693 132.918 18.6141 133.316 18.6503C133.352 18.6503 133.389 18.6503 133.461 18.6503C133.497 18.6503 133.533 18.6503 133.606 18.6503C133.642 18.6503 133.714 18.6503 133.751 18.6503C133.787 18.6503 133.859 18.6503 133.895 18.6503C134.113 18.6141 134.294 18.5779 134.475 18.5417C134.656 18.5055 134.837 18.433 134.981 18.3606C135.126 18.2882 135.271 18.1796 135.416 18.071C135.561 17.9624 135.706 17.8538 135.814 17.709V14.6318L133.751 14.8852V12.8216L139.652 12.0614V14.1249L138.71 14.2335L138.674 20.2794ZM119.125 16.6229L122.854 10.0702L122.745 16.1885L119.125 16.6229ZM18.0467 17.6004L23.9477 16.7677V45.4765H18.0467V17.6004ZM5.59294 26.0718L11.1682 25.4926V45.5127H5.59294V26.0718ZM30.6452 34.0364L25.07 34.326V27.8096L30.6452 27.3389V34.0364ZM0.705566 20.026L16.0193 17.8538V24.0083L0.705566 25.7098V20.026ZM72.206 31.7557L64.7844 32.1539V24.4065L72.1698 23.7911V31.7557H72.206ZM25.07 39.0686L33.5776 38.8152V45.5127H25.07V39.0686ZM78.9035 22.9946C78.469 13.7991 82.2341 8.18768 89.8729 6.55855V15.1748C88.28 15.8627 86.6871 17.0935 87.0491 22.2705L78.9035 22.9946ZM91.3934 14.849V6.37754C95.3033 5.8345 98.8874 6.77577 101.349 9.09274C103.594 11.1925 104.716 14.1973 104.463 17.3108C103.956 23.1756 101.096 27.882 93.1673 35.6293L80.1706 36.0638C80.1706 36.0638 89.2212 27.8458 92.6243 23.8273C94.8327 21.2207 95.7739 18.433 94.8689 16.5505C94.2896 15.3196 92.9863 14.7404 91.3934 14.849ZM64.7844 11.0115L76.0797 9.41857V17.3832L64.7844 18.6503V11.0115ZM64.7844 37.8377L76.0797 37.5119V45.4765H64.7844V37.8377ZM78.5776 37.4395L104.897 36.643V45.5127H78.5776V37.4395ZM35.8584 15.1024L42.5559 14.1611V45.4765H35.8584V15.1024ZM25.07 16.6229L33.5776 15.4282V22.0895L25.07 23.0308V16.6229ZM55.6251 12.3148L63.3725 11.2287V45.4765H55.6251V12.3148ZM43.823 38.4894L53.5978 38.1997V45.5127H43.823V38.4894Z" fill="black"/>
</svg>
